%TF.GenerationSoftware,KiCad,Pcbnew,9.0.7*%
%TF.CreationDate,2026-05-26T14:03:12-04:00*%
%TF.ProjectId,A2Relay,41325265-6c61-4792-9e6b-696361645f70,rev?*%
%TF.SameCoordinates,Original*%
%TF.FileFunction,Soldermask,Bot*%
%TF.FilePolarity,Negative*%
%FSLAX46Y46*%
G04 Gerber Fmt 4.6, Leading zero omitted, Abs format (unit mm)*
G04 Created by KiCad (PCBNEW 9.0.7) date 2026-05-26 14:03:12*
%MOMM*%
%LPD*%
G01*
G04 APERTURE LIST*
%ADD10C,1.600000*%
%ADD11O,1.600000X1.600000*%
G04 APERTURE END LIST*
D10*
%TO.C,C1*%
X112522000Y-54904000D03*
X112522000Y-59904000D03*
%TD*%
D11*
%TO.C,U1*%
X99060000Y-45720000D03*
X99060000Y-48260000D03*
X99060000Y-50800000D03*
X99060000Y-53340000D03*
X99060000Y-55880000D03*
X99060000Y-58420000D03*
X99060000Y-60960000D03*
X99060000Y-63500000D03*
X106680000Y-63500000D03*
X106680000Y-60960000D03*
X106680000Y-58420000D03*
X106680000Y-55880000D03*
X106680000Y-53340000D03*
X106680000Y-50800000D03*
X106680000Y-48260000D03*
X106680000Y-45720000D03*
%TD*%
%TO.C,J4*%
X86360000Y-71120000D03*
X88900000Y-71120000D03*
X91440000Y-71120000D03*
X93980000Y-71120000D03*
X96520000Y-71120000D03*
X99060000Y-71120000D03*
X101600000Y-71120000D03*
X104140000Y-71120000D03*
X106680000Y-71120000D03*
X109220000Y-71120000D03*
%TD*%
%TO.C,J2*%
X86360000Y-45720000D03*
X86360000Y-48260000D03*
X86360000Y-50800000D03*
X86360000Y-53340000D03*
X86360000Y-55880000D03*
X86360000Y-58420000D03*
X86360000Y-60960000D03*
X86360000Y-63500000D03*
X93980000Y-63500000D03*
X93980000Y-60960000D03*
X93980000Y-58420000D03*
X93980000Y-55880000D03*
X93980000Y-53340000D03*
X93980000Y-50800000D03*
X93980000Y-48260000D03*
X93980000Y-45720000D03*
%TD*%
%TO.C,J3*%
X111760000Y-45720000D03*
%TD*%
%TO.C,J1*%
X83820000Y-45720000D03*
X83820000Y-48260000D03*
X83820000Y-50800000D03*
X83820000Y-53340000D03*
X83820000Y-55880000D03*
X83820000Y-58420000D03*
X83820000Y-60960000D03*
X83820000Y-63500000D03*
X91440000Y-63500000D03*
X91440000Y-60960000D03*
X91440000Y-58420000D03*
X91440000Y-55880000D03*
X91440000Y-53340000D03*
X91440000Y-50800000D03*
X91440000Y-48260000D03*
X91440000Y-45720000D03*
%TD*%
M02*
