%TF.GenerationSoftware,KiCad,Pcbnew,9.0.7*%
%TF.CreationDate,2026-05-26T14:03:12-04:00*%
%TF.ProjectId,A2Relay,41325265-6c61-4792-9e6b-696361645f70,rev?*%
%TF.SameCoordinates,Original*%
%TF.FileFunction,Copper,L1,Top*%
%TF.FilePolarity,Positive*%
%FSLAX46Y46*%
G04 Gerber Fmt 4.6, Leading zero omitted, Abs format (unit mm)*
G04 Created by KiCad (PCBNEW 9.0.7) date 2026-05-26 14:03:12*
%MOMM*%
%LPD*%
G01*
G04 APERTURE LIST*
G04 Aperture macros list*
%AMRoundRect*
0 Rectangle with rounded corners*
0 $1 Rounding radius*
0 $2 $3 $4 $5 $6 $7 $8 $9 X,Y pos of 4 corners*
0 Add a 4 corners polygon primitive as box body*
4,1,4,$2,$3,$4,$5,$6,$7,$8,$9,$2,$3,0*
0 Add four circle primitives for the rounded corners*
1,1,$1+$1,$2,$3*
1,1,$1+$1,$4,$5*
1,1,$1+$1,$6,$7*
1,1,$1+$1,$8,$9*
0 Add four rect primitives between the rounded corners*
20,1,$1+$1,$2,$3,$4,$5,0*
20,1,$1+$1,$4,$5,$6,$7,0*
20,1,$1+$1,$6,$7,$8,$9,0*
20,1,$1+$1,$8,$9,$2,$3,0*%
G04 Aperture macros list end*
%TA.AperFunction,ComponentPad*%
%ADD10C,1.600000*%
%TD*%
%TA.AperFunction,SMDPad,CuDef*%
%ADD11RoundRect,0.237500X-0.237500X0.300000X-0.237500X-0.300000X0.237500X-0.300000X0.237500X0.300000X0*%
%TD*%
%TA.AperFunction,ComponentPad*%
%ADD12O,1.600000X1.600000*%
%TD*%
%TA.AperFunction,SMDPad,CuDef*%
%ADD13RoundRect,0.150000X-0.825000X-0.150000X0.825000X-0.150000X0.825000X0.150000X-0.825000X0.150000X0*%
%TD*%
%TA.AperFunction,Conductor*%
%ADD14C,0.500000*%
%TD*%
%TA.AperFunction,Conductor*%
%ADD15C,0.200000*%
%TD*%
G04 APERTURE END LIST*
D10*
%TO.P,C1,1*%
%TO.N,+5V*%
X112522000Y-54904000D03*
%TO.P,C1,2*%
%TO.N,GND*%
X112522000Y-59904000D03*
%TD*%
D11*
%TO.P,C2,1*%
%TO.N,+5V*%
X112522000Y-56541500D03*
%TO.P,C2,2*%
%TO.N,GND*%
X112522000Y-58266500D03*
%TD*%
D12*
%TO.P,U1,1,Pin_1*%
%TO.N,AN0*%
X99060000Y-45720000D03*
%TO.P,U1,2,Pin_2*%
%TO.N,AN1*%
X99060000Y-48260000D03*
%TO.P,U1,3,Pin_3*%
%TO.N,AN2*%
X99060000Y-50800000D03*
%TO.P,U1,4,Pin_4*%
%TO.N,Q0*%
X99060000Y-53340000D03*
%TO.P,U1,5,Pin_5*%
%TO.N,Q1*%
X99060000Y-55880000D03*
%TO.P,U1,6,Pin_6*%
%TO.N,Q2*%
X99060000Y-58420000D03*
%TO.P,U1,7,Pin_7*%
%TO.N,Q3*%
X99060000Y-60960000D03*
%TO.P,U1,8,Pin_8*%
%TO.N,GND*%
X99060000Y-63500000D03*
%TO.P,U1,9,Pin_9*%
%TO.N,Q4*%
X106680000Y-63500000D03*
%TO.P,U1,10,Pin_10*%
%TO.N,Q5*%
X106680000Y-60960000D03*
%TO.P,U1,11,Pin_11*%
%TO.N,Q6*%
X106680000Y-58420000D03*
%TO.P,U1,12,Pin_12*%
%TO.N,Q7*%
X106680000Y-55880000D03*
%TO.P,U1,13,Pin_13*%
%TO.N,AN3*%
X106680000Y-53340000D03*
%TO.P,U1,14,Pin_14*%
%TO.N,{slash}STB*%
X106680000Y-50800000D03*
%TO.P,U1,15,Pin_15*%
%TO.N,{slash}RST*%
X106680000Y-48260000D03*
%TO.P,U1,16,Pin_16*%
%TO.N,+5V*%
X106680000Y-45720000D03*
%TD*%
%TO.P,J4,1,Pin_1*%
%TO.N,GND*%
X86360000Y-71120000D03*
%TO.P,J4,2,Pin_2*%
%TO.N,Q0*%
X88900000Y-71120000D03*
%TO.P,J4,3,Pin_3*%
%TO.N,Q1*%
X91440000Y-71120000D03*
%TO.P,J4,4,Pin_4*%
%TO.N,Q2*%
X93980000Y-71120000D03*
%TO.P,J4,5,Pin_5*%
%TO.N,Q3*%
X96520000Y-71120000D03*
%TO.P,J4,6,Pin_6*%
%TO.N,Q4*%
X99060000Y-71120000D03*
%TO.P,J4,7,Pin_7*%
%TO.N,Q5*%
X101600000Y-71120000D03*
%TO.P,J4,8,Pin_8*%
%TO.N,Q6*%
X104140000Y-71120000D03*
%TO.P,J4,9,Pin_9*%
%TO.N,Q7*%
X106680000Y-71120000D03*
%TO.P,J4,10,Pin_10*%
%TO.N,+5V*%
X109220000Y-71120000D03*
%TD*%
D13*
%TO.P,U2,1,Pin_1*%
%TO.N,AN0*%
X104270000Y-50165000D03*
%TO.P,U2,2,Pin_2*%
%TO.N,AN1*%
X104270000Y-51435000D03*
%TO.P,U2,3,Pin_3*%
%TO.N,AN2*%
X104270000Y-52705000D03*
%TO.P,U2,4,Pin_4*%
%TO.N,Q0*%
X104270000Y-53975000D03*
%TO.P,U2,5,Pin_5*%
%TO.N,Q1*%
X104270000Y-55245000D03*
%TO.P,U2,6,Pin_6*%
%TO.N,Q2*%
X104270000Y-56515000D03*
%TO.P,U2,7,Pin_7*%
%TO.N,Q3*%
X104270000Y-57785000D03*
%TO.P,U2,8,Pin_8*%
%TO.N,GND*%
X104270000Y-59055000D03*
%TO.P,U2,9,Pin_9*%
%TO.N,Q4*%
X109220000Y-59055000D03*
%TO.P,U2,10,Pin_10*%
%TO.N,Q5*%
X109220000Y-57785000D03*
%TO.P,U2,11,Pin_11*%
%TO.N,Q6*%
X109220000Y-56515000D03*
%TO.P,U2,12,Pin_12*%
%TO.N,Q7*%
X109220000Y-55245000D03*
%TO.P,U2,13,Pin_13*%
%TO.N,AN3*%
X109220000Y-53975000D03*
%TO.P,U2,14,Pin_14*%
%TO.N,{slash}STB*%
X109220000Y-52705000D03*
%TO.P,U2,15,Pin_15*%
%TO.N,{slash}RST*%
X109220000Y-51435000D03*
%TO.P,U2,16,Pin_16*%
%TO.N,+5V*%
X109220000Y-50165000D03*
%TD*%
D12*
%TO.P,J2,1,Pin_1*%
%TO.N,+5V*%
X86360000Y-45720000D03*
%TO.P,J2,2,Pin_2*%
%TO.N,PB0*%
X86360000Y-48260000D03*
%TO.P,J2,3,Pin_3*%
%TO.N,PB1*%
X86360000Y-50800000D03*
%TO.P,J2,4,Pin_4*%
%TO.N,PB2*%
X86360000Y-53340000D03*
%TO.P,J2,5,Pin_5*%
%TO.N,{slash}STB*%
X86360000Y-55880000D03*
%TO.P,J2,6,Pin_6*%
%TO.N,PDL0*%
X86360000Y-58420000D03*
%TO.P,J2,7,Pin_7*%
%TO.N,PDL2*%
X86360000Y-60960000D03*
%TO.P,J2,8,Pin_8*%
%TO.N,GND*%
X86360000Y-63500000D03*
%TO.P,J2,9,Pin_9*%
%TO.N,PB3*%
X93980000Y-63500000D03*
%TO.P,J2,10,Pin_10*%
%TO.N,PDL1*%
X93980000Y-60960000D03*
%TO.P,J2,11,Pin_11*%
%TO.N,PDL3*%
X93980000Y-58420000D03*
%TO.P,J2,12,Pin_12*%
%TO.N,AN3*%
X93980000Y-55880000D03*
%TO.P,J2,13,Pin_13*%
%TO.N,AN2*%
X93980000Y-53340000D03*
%TO.P,J2,14,Pin_14*%
%TO.N,AN1*%
X93980000Y-50800000D03*
%TO.P,J2,15,Pin_15*%
%TO.N,AN0*%
X93980000Y-48260000D03*
%TO.P,J2,16,Pin_16*%
%TO.N,RESERVED*%
X93980000Y-45720000D03*
%TD*%
%TO.P,J3,1,Pin_1*%
%TO.N,{slash}RST*%
X111760000Y-45720000D03*
%TD*%
%TO.P,J1,1,Pin_1*%
%TO.N,+5V*%
X83820000Y-45720000D03*
%TO.P,J1,2,Pin_2*%
%TO.N,PB0*%
X83820000Y-48260000D03*
%TO.P,J1,3,Pin_3*%
%TO.N,PB1*%
X83820000Y-50800000D03*
%TO.P,J1,4,Pin_4*%
%TO.N,PB2*%
X83820000Y-53340000D03*
%TO.P,J1,5,Pin_5*%
%TO.N,{slash}STB*%
X83820000Y-55880000D03*
%TO.P,J1,6,Pin_6*%
%TO.N,PDL0*%
X83820000Y-58420000D03*
%TO.P,J1,7,Pin_7*%
%TO.N,PDL2*%
X83820000Y-60960000D03*
%TO.P,J1,8,Pin_8*%
%TO.N,GND*%
X83820000Y-63500000D03*
%TO.P,J1,9,Pin_9*%
%TO.N,PB3*%
X91440000Y-63500000D03*
%TO.P,J1,10,Pin_10*%
%TO.N,PDL1*%
X91440000Y-60960000D03*
%TO.P,J1,11,Pin_11*%
%TO.N,PDL3*%
X91440000Y-58420000D03*
%TO.P,J1,12,Pin_12*%
%TO.N,AN3*%
X91440000Y-55880000D03*
%TO.P,J1,13,Pin_13*%
%TO.N,AN2*%
X91440000Y-53340000D03*
%TO.P,J1,14,Pin_14*%
%TO.N,AN1*%
X91440000Y-50800000D03*
%TO.P,J1,15,Pin_15*%
%TO.N,AN0*%
X91440000Y-48260000D03*
%TO.P,J1,16,Pin_16*%
%TO.N,RESERVED*%
X91440000Y-45720000D03*
%TD*%
D14*
%TO.N,GND*%
X112522000Y-59904000D02*
X112522000Y-58266500D01*
%TO.N,+5V*%
X112522000Y-54904000D02*
X112522000Y-56541500D01*
D15*
%TO.N,AN3*%
X107315000Y-53975000D02*
X106680000Y-53340000D01*
X91440000Y-55880000D02*
X93980000Y-55880000D01*
X109220000Y-53975000D02*
X107315000Y-53975000D01*
%TO.N,AN2*%
X104270000Y-52705000D02*
X100965000Y-52705000D01*
X96520000Y-53340000D02*
X93980000Y-53340000D01*
X100965000Y-52705000D02*
X99060000Y-50800000D01*
X91440000Y-53340000D02*
X93980000Y-53340000D01*
X99060000Y-50800000D02*
X96520000Y-53340000D01*
%TO.N,PB2*%
X86360000Y-53340000D02*
X83820000Y-53340000D01*
%TO.N,AN0*%
X91440000Y-48260000D02*
X93980000Y-48260000D01*
X104270000Y-50165000D02*
X103505000Y-50165000D01*
X96520000Y-48260000D02*
X99060000Y-45720000D01*
X93980000Y-48260000D02*
X96520000Y-48260000D01*
X103505000Y-50165000D02*
X99060000Y-45720000D01*
D14*
%TO.N,+5V*%
X109220000Y-50165000D02*
X110617000Y-50165000D01*
X97536000Y-44450000D02*
X105410000Y-44450000D01*
X105410000Y-44450000D02*
X106680000Y-45720000D01*
X109220000Y-48260000D02*
X106680000Y-45720000D01*
X94996000Y-46990000D02*
X97536000Y-44450000D01*
X86360000Y-45720000D02*
X83820000Y-45720000D01*
X112522000Y-52070000D02*
X112522000Y-54904000D01*
X87630000Y-46990000D02*
X94996000Y-46990000D01*
X109220000Y-50165000D02*
X109220000Y-48260000D01*
X86360000Y-45720000D02*
X87630000Y-46990000D01*
X110617000Y-50165000D02*
X112522000Y-52070000D01*
D15*
%TO.N,RESERVED*%
X91440000Y-45720000D02*
X93980000Y-45720000D01*
%TO.N,PDL2*%
X83820000Y-60960000D02*
X86360000Y-60960000D01*
%TO.N,{slash}STB*%
X83820000Y-55880000D02*
X86360000Y-55880000D01*
X109220000Y-52705000D02*
X108585000Y-52705000D01*
X108585000Y-52705000D02*
X106680000Y-50800000D01*
%TO.N,PB0*%
X86360000Y-48260000D02*
X83820000Y-48260000D01*
%TO.N,PDL3*%
X91440000Y-58420000D02*
X93980000Y-58420000D01*
%TO.N,AN1*%
X91440000Y-50800000D02*
X93980000Y-50800000D01*
X104270000Y-51435000D02*
X102235000Y-51435000D01*
X99060000Y-48260000D02*
X96520000Y-50800000D01*
X102235000Y-51435000D02*
X99060000Y-48260000D01*
X96520000Y-50800000D02*
X93980000Y-50800000D01*
%TO.N,PDL0*%
X86360000Y-58420000D02*
X83820000Y-58420000D01*
%TO.N,PB1*%
X83820000Y-50800000D02*
X86360000Y-50800000D01*
%TO.N,PDL1*%
X93980000Y-60960000D02*
X91440000Y-60960000D01*
%TO.N,PB3*%
X91440000Y-63500000D02*
X93980000Y-63500000D01*
%TO.N,{slash}RST*%
X109220000Y-51435000D02*
X108874448Y-51435000D01*
X106680000Y-49240552D02*
X106680000Y-48260000D01*
X108874448Y-51435000D02*
X106680000Y-49240552D01*
%TO.N,Q1*%
X99695000Y-55245000D02*
X99060000Y-55880000D01*
X104270000Y-55245000D02*
X99695000Y-55245000D01*
%TO.N,Q7*%
X107315000Y-55245000D02*
X106680000Y-55880000D01*
X109220000Y-55245000D02*
X107315000Y-55245000D01*
%TO.N,Q5*%
X108874448Y-57785000D02*
X106680000Y-59979448D01*
X106680000Y-59979448D02*
X106680000Y-60960000D01*
X109220000Y-57785000D02*
X108874448Y-57785000D01*
%TO.N,Q6*%
X108585000Y-56515000D02*
X106680000Y-58420000D01*
X109220000Y-56515000D02*
X108585000Y-56515000D01*
%TO.N,Q3*%
X104270000Y-57785000D02*
X102235000Y-57785000D01*
X102235000Y-57785000D02*
X99060000Y-60960000D01*
%TO.N,Q2*%
X100965000Y-56515000D02*
X99060000Y-58420000D01*
X104270000Y-56515000D02*
X100965000Y-56515000D01*
%TO.N,Q0*%
X104270000Y-53975000D02*
X99695000Y-53975000D01*
X99695000Y-53975000D02*
X99060000Y-53340000D01*
%TO.N,Q4*%
X109220000Y-59055000D02*
X109220000Y-60960000D01*
X109220000Y-60960000D02*
X106680000Y-63500000D01*
%TD*%
%TA.AperFunction,Conductor*%
%TO.N,GND*%
G36*
X97011809Y-43700185D02*
G01*
X97057564Y-43752989D01*
X97067508Y-43822147D01*
X97038483Y-43885703D01*
X97032451Y-43892181D01*
X95455490Y-45469141D01*
X95394167Y-45502626D01*
X95324475Y-45497642D01*
X95268542Y-45455770D01*
X95249878Y-45419778D01*
X95231371Y-45362819D01*
X95185220Y-45220781D01*
X95092287Y-45038390D01*
X95042236Y-44969500D01*
X94971971Y-44872786D01*
X94827213Y-44728028D01*
X94661613Y-44607715D01*
X94661612Y-44607714D01*
X94661610Y-44607713D01*
X94604653Y-44578691D01*
X94479223Y-44514781D01*
X94284534Y-44451522D01*
X94109995Y-44423878D01*
X94082352Y-44419500D01*
X93877648Y-44419500D01*
X93853329Y-44423351D01*
X93675465Y-44451522D01*
X93480776Y-44514781D01*
X93298386Y-44607715D01*
X93132786Y-44728028D01*
X92988028Y-44872786D01*
X92867715Y-45038385D01*
X92860883Y-45051795D01*
X92850433Y-45062859D01*
X92844111Y-45076703D01*
X92826931Y-45087743D01*
X92812909Y-45102591D01*
X92797227Y-45106832D01*
X92785333Y-45114477D01*
X92750398Y-45119500D01*
X92669602Y-45119500D01*
X92602563Y-45099815D01*
X92559117Y-45051795D01*
X92552284Y-45038385D01*
X92431971Y-44872786D01*
X92287213Y-44728028D01*
X92121613Y-44607715D01*
X92121612Y-44607714D01*
X92121610Y-44607713D01*
X92064653Y-44578691D01*
X91939223Y-44514781D01*
X91744534Y-44451522D01*
X91569995Y-44423878D01*
X91542352Y-44419500D01*
X91337648Y-44419500D01*
X91313329Y-44423351D01*
X91135465Y-44451522D01*
X90940776Y-44514781D01*
X90758386Y-44607715D01*
X90592786Y-44728028D01*
X90448028Y-44872786D01*
X90327715Y-45038386D01*
X90234781Y-45220776D01*
X90171522Y-45415465D01*
X90139500Y-45617648D01*
X90139500Y-45822351D01*
X90171522Y-46024534D01*
X90188629Y-46077181D01*
X90190624Y-46147023D01*
X90154544Y-46206856D01*
X90091843Y-46237684D01*
X90070698Y-46239500D01*
X87992229Y-46239500D01*
X87925190Y-46219815D01*
X87904548Y-46203181D01*
X87686473Y-45985106D01*
X87652988Y-45923783D01*
X87651681Y-45878028D01*
X87660500Y-45822352D01*
X87660500Y-45617648D01*
X87652548Y-45567443D01*
X87628477Y-45415465D01*
X87565218Y-45220776D01*
X87531503Y-45154607D01*
X87472287Y-45038390D01*
X87422236Y-44969500D01*
X87351971Y-44872786D01*
X87207213Y-44728028D01*
X87041613Y-44607715D01*
X87041612Y-44607714D01*
X87041610Y-44607713D01*
X86984653Y-44578691D01*
X86859223Y-44514781D01*
X86664534Y-44451522D01*
X86489995Y-44423878D01*
X86462352Y-44419500D01*
X86257648Y-44419500D01*
X86233329Y-44423351D01*
X86055465Y-44451522D01*
X85860776Y-44514781D01*
X85678386Y-44607715D01*
X85512786Y-44728028D01*
X85368032Y-44872782D01*
X85368028Y-44872787D01*
X85334900Y-44918385D01*
X85279571Y-44961051D01*
X85234582Y-44969500D01*
X84945418Y-44969500D01*
X84878379Y-44949815D01*
X84845100Y-44918385D01*
X84811971Y-44872787D01*
X84811967Y-44872782D01*
X84667213Y-44728028D01*
X84501613Y-44607715D01*
X84501612Y-44607714D01*
X84501610Y-44607713D01*
X84444653Y-44578691D01*
X84319223Y-44514781D01*
X84124534Y-44451522D01*
X83949995Y-44423878D01*
X83922352Y-44419500D01*
X83717648Y-44419500D01*
X83693329Y-44423351D01*
X83515465Y-44451522D01*
X83320776Y-44514781D01*
X83138386Y-44607715D01*
X82972786Y-44728028D01*
X82828028Y-44872786D01*
X82707715Y-45038386D01*
X82614781Y-45220776D01*
X82551522Y-45415465D01*
X82519500Y-45617648D01*
X82519500Y-45822351D01*
X82551522Y-46024534D01*
X82614781Y-46219223D01*
X82707715Y-46401613D01*
X82828028Y-46567213D01*
X82972786Y-46711971D01*
X83127749Y-46824556D01*
X83138390Y-46832287D01*
X83229840Y-46878883D01*
X83231080Y-46879515D01*
X83281876Y-46927490D01*
X83298671Y-46995311D01*
X83276134Y-47061446D01*
X83231080Y-47100485D01*
X83138386Y-47147715D01*
X82972786Y-47268028D01*
X82828028Y-47412786D01*
X82707715Y-47578386D01*
X82614781Y-47760776D01*
X82551522Y-47955465D01*
X82519500Y-48157648D01*
X82519500Y-48362351D01*
X82551522Y-48564534D01*
X82614781Y-48759223D01*
X82707715Y-48941613D01*
X82828028Y-49107213D01*
X82972786Y-49251971D01*
X83109224Y-49351097D01*
X83138390Y-49372287D01*
X83215813Y-49411736D01*
X83231080Y-49419515D01*
X83281876Y-49467490D01*
X83298671Y-49535311D01*
X83276134Y-49601446D01*
X83231080Y-49640485D01*
X83138386Y-49687715D01*
X82972786Y-49808028D01*
X82828028Y-49952786D01*
X82707715Y-50118386D01*
X82614781Y-50300776D01*
X82551522Y-50495465D01*
X82519500Y-50697648D01*
X82519500Y-50902351D01*
X82551522Y-51104534D01*
X82614781Y-51299223D01*
X82707715Y-51481613D01*
X82828028Y-51647213D01*
X82972786Y-51791971D01*
X83061178Y-51856190D01*
X83138390Y-51912287D01*
X83220533Y-51954141D01*
X83231080Y-51959515D01*
X83281876Y-52007490D01*
X83298671Y-52075311D01*
X83276134Y-52141446D01*
X83231080Y-52180485D01*
X83138386Y-52227715D01*
X82972786Y-52348028D01*
X82828028Y-52492786D01*
X82707715Y-52658386D01*
X82614781Y-52840776D01*
X82551522Y-53035465D01*
X82519500Y-53237648D01*
X82519500Y-53442351D01*
X82551522Y-53644534D01*
X82614781Y-53839223D01*
X82707715Y-54021613D01*
X82828028Y-54187213D01*
X82972786Y-54331971D01*
X83127749Y-54444556D01*
X83138390Y-54452287D01*
X83229840Y-54498883D01*
X83231080Y-54499515D01*
X83281876Y-54547490D01*
X83298671Y-54615311D01*
X83276134Y-54681446D01*
X83231080Y-54720485D01*
X83138386Y-54767715D01*
X82972786Y-54888028D01*
X82828028Y-55032786D01*
X82707715Y-55198386D01*
X82614781Y-55380776D01*
X82551522Y-55575465D01*
X82519500Y-55777648D01*
X82519500Y-55982351D01*
X82551522Y-56184534D01*
X82614781Y-56379223D01*
X82707715Y-56561613D01*
X82828028Y-56727213D01*
X82972786Y-56871971D01*
X83061178Y-56936190D01*
X83138390Y-56992287D01*
X83229840Y-57038883D01*
X83231080Y-57039515D01*
X83281876Y-57087490D01*
X83298671Y-57155311D01*
X83276134Y-57221446D01*
X83231080Y-57260485D01*
X83138386Y-57307715D01*
X82972786Y-57428028D01*
X82828028Y-57572786D01*
X82707715Y-57738386D01*
X82614781Y-57920776D01*
X82551522Y-58115465D01*
X82519500Y-58317648D01*
X82519500Y-58522352D01*
X82520795Y-58530526D01*
X82551522Y-58724534D01*
X82614781Y-58919223D01*
X82666385Y-59020500D01*
X82691098Y-59069002D01*
X82707715Y-59101613D01*
X82828028Y-59267213D01*
X82972786Y-59411971D01*
X83060772Y-59475895D01*
X83138390Y-59532287D01*
X83212339Y-59569966D01*
X83231080Y-59579515D01*
X83281876Y-59627490D01*
X83298671Y-59695311D01*
X83276134Y-59761446D01*
X83231080Y-59800485D01*
X83138386Y-59847715D01*
X82972786Y-59968028D01*
X82828028Y-60112786D01*
X82707715Y-60278386D01*
X82614781Y-60460776D01*
X82551522Y-60655465D01*
X82519500Y-60857648D01*
X82519500Y-61062351D01*
X82551522Y-61264534D01*
X82614781Y-61459223D01*
X82707715Y-61641613D01*
X82828028Y-61807213D01*
X82972786Y-61951971D01*
X83127749Y-62064556D01*
X83138390Y-62072287D01*
X83210424Y-62108990D01*
X83231629Y-62119795D01*
X83282425Y-62167770D01*
X83299220Y-62235591D01*
X83276682Y-62301726D01*
X83231629Y-62340765D01*
X83138650Y-62388140D01*
X82973105Y-62508417D01*
X82973104Y-62508417D01*
X82828417Y-62653104D01*
X82828417Y-62653105D01*
X82708140Y-62818650D01*
X82615244Y-63000970D01*
X82552009Y-63195586D01*
X82543391Y-63250000D01*
X83504314Y-63250000D01*
X83499920Y-63254394D01*
X83447259Y-63345606D01*
X83420000Y-63447339D01*
X83420000Y-63552661D01*
X83447259Y-63654394D01*
X83499920Y-63745606D01*
X83504314Y-63750000D01*
X82543391Y-63750000D01*
X82552009Y-63804413D01*
X82615244Y-63999029D01*
X82708140Y-64181349D01*
X82828417Y-64346894D01*
X82828417Y-64346895D01*
X82973104Y-64491582D01*
X83138650Y-64611859D01*
X83320968Y-64704754D01*
X83515578Y-64767988D01*
X83570000Y-64776607D01*
X83570000Y-63815686D01*
X83574394Y-63820080D01*
X83665606Y-63872741D01*
X83767339Y-63900000D01*
X83872661Y-63900000D01*
X83974394Y-63872741D01*
X84065606Y-63820080D01*
X84070000Y-63815686D01*
X84070000Y-64776606D01*
X84124421Y-64767988D01*
X84319031Y-64704754D01*
X84501349Y-64611859D01*
X84666894Y-64491582D01*
X84666895Y-64491582D01*
X84811582Y-64346895D01*
X84811582Y-64346894D01*
X84931859Y-64181349D01*
X84979515Y-64087820D01*
X85027489Y-64037024D01*
X85095310Y-64020229D01*
X85161445Y-64042766D01*
X85200485Y-64087820D01*
X85248140Y-64181349D01*
X85368417Y-64346894D01*
X85368417Y-64346895D01*
X85513104Y-64491582D01*
X85678650Y-64611859D01*
X85860968Y-64704754D01*
X86055578Y-64767988D01*
X86110000Y-64776607D01*
X86110000Y-63815686D01*
X86114394Y-63820080D01*
X86205606Y-63872741D01*
X86307339Y-63900000D01*
X86412661Y-63900000D01*
X86514394Y-63872741D01*
X86605606Y-63820080D01*
X86610000Y-63815686D01*
X86610000Y-64776606D01*
X86664421Y-64767988D01*
X86859031Y-64704754D01*
X87041349Y-64611859D01*
X87206894Y-64491582D01*
X87206895Y-64491582D01*
X87351582Y-64346895D01*
X87351582Y-64346894D01*
X87471859Y-64181349D01*
X87564755Y-63999029D01*
X87627990Y-63804413D01*
X87636609Y-63750000D01*
X86675686Y-63750000D01*
X86680080Y-63745606D01*
X86732741Y-63654394D01*
X86760000Y-63552661D01*
X86760000Y-63447339D01*
X86732741Y-63345606D01*
X86680080Y-63254394D01*
X86675686Y-63250000D01*
X87636609Y-63250000D01*
X87627990Y-63195586D01*
X87564755Y-63000970D01*
X87471859Y-62818650D01*
X87351582Y-62653105D01*
X87351582Y-62653104D01*
X87206895Y-62508417D01*
X87041349Y-62388140D01*
X86948370Y-62340765D01*
X86897574Y-62292790D01*
X86880779Y-62224969D01*
X86903316Y-62158835D01*
X86948370Y-62119795D01*
X86948920Y-62119515D01*
X87041610Y-62072287D01*
X87062770Y-62056913D01*
X87207213Y-61951971D01*
X87207215Y-61951968D01*
X87207219Y-61951966D01*
X87351966Y-61807219D01*
X87351968Y-61807215D01*
X87351971Y-61807213D01*
X87404732Y-61734590D01*
X87472287Y-61641610D01*
X87565220Y-61459219D01*
X87628477Y-61264534D01*
X87660500Y-61062352D01*
X87660500Y-60857648D01*
X87637315Y-60711265D01*
X87628477Y-60655465D01*
X87599127Y-60565137D01*
X87565220Y-60460781D01*
X87565218Y-60460778D01*
X87565218Y-60460776D01*
X87531503Y-60394607D01*
X87472287Y-60278390D01*
X87432829Y-60224080D01*
X87351971Y-60112786D01*
X87207213Y-59968028D01*
X87041614Y-59847715D01*
X87035006Y-59844348D01*
X86948917Y-59800483D01*
X86898123Y-59752511D01*
X86881328Y-59684690D01*
X86903865Y-59618555D01*
X86948917Y-59579516D01*
X87041610Y-59532287D01*
X87133676Y-59465398D01*
X87207213Y-59411971D01*
X87207215Y-59411968D01*
X87207219Y-59411966D01*
X87351966Y-59267219D01*
X87351968Y-59267215D01*
X87351971Y-59267213D01*
X87420438Y-59172975D01*
X87472287Y-59101610D01*
X87565220Y-58919219D01*
X87628477Y-58724534D01*
X87660500Y-58522352D01*
X87660500Y-58317648D01*
X87628477Y-58115466D01*
X87565220Y-57920781D01*
X87565218Y-57920778D01*
X87565218Y-57920776D01*
X87531503Y-57854607D01*
X87472287Y-57738390D01*
X87464556Y-57727749D01*
X87351971Y-57572786D01*
X87207213Y-57428028D01*
X87041614Y-57307715D01*
X87031086Y-57302351D01*
X86948917Y-57260483D01*
X86898123Y-57212511D01*
X86881328Y-57144690D01*
X86903865Y-57078555D01*
X86948917Y-57039516D01*
X87041610Y-56992287D01*
X87133676Y-56925398D01*
X87207213Y-56871971D01*
X87207215Y-56871968D01*
X87207219Y-56871966D01*
X87351966Y-56727219D01*
X87351968Y-56727215D01*
X87351971Y-56727213D01*
X87404732Y-56654590D01*
X87472287Y-56561610D01*
X87565220Y-56379219D01*
X87628477Y-56184534D01*
X87660500Y-55982352D01*
X87660500Y-55777648D01*
X87628477Y-55575466D01*
X87565220Y-55380781D01*
X87565218Y-55380778D01*
X87565218Y-55380776D01*
X87531503Y-55314607D01*
X87472287Y-55198390D01*
X87438267Y-55151565D01*
X87351971Y-55032786D01*
X87207213Y-54888028D01*
X87041614Y-54767715D01*
X87035006Y-54764348D01*
X86948917Y-54720483D01*
X86898123Y-54672511D01*
X86881328Y-54604690D01*
X86903865Y-54538555D01*
X86948917Y-54499516D01*
X87041610Y-54452287D01*
X87133676Y-54385398D01*
X87207213Y-54331971D01*
X87207215Y-54331968D01*
X87207219Y-54331966D01*
X87351966Y-54187219D01*
X87351968Y-54187215D01*
X87351971Y-54187213D01*
X87404732Y-54114590D01*
X87472287Y-54021610D01*
X87565220Y-53839219D01*
X87628477Y-53644534D01*
X87660500Y-53442352D01*
X87660500Y-53237648D01*
X87652244Y-53185520D01*
X87628477Y-53035465D01*
X87599127Y-52945137D01*
X87565220Y-52840781D01*
X87565218Y-52840778D01*
X87565218Y-52840776D01*
X87531503Y-52774607D01*
X87472287Y-52658390D01*
X87464556Y-52647749D01*
X87351971Y-52492786D01*
X87207213Y-52348028D01*
X87041614Y-52227715D01*
X87035006Y-52224348D01*
X86948917Y-52180483D01*
X86898123Y-52132511D01*
X86881328Y-52064690D01*
X86903865Y-51998555D01*
X86948917Y-51959516D01*
X87041610Y-51912287D01*
X87118822Y-51856190D01*
X87207213Y-51791971D01*
X87207215Y-51791968D01*
X87207219Y-51791966D01*
X87351966Y-51647219D01*
X87351968Y-51647215D01*
X87351971Y-51647213D01*
X87431905Y-51537191D01*
X87472287Y-51481610D01*
X87565220Y-51299219D01*
X87628477Y-51104534D01*
X87660500Y-50902352D01*
X87660500Y-50697648D01*
X87651695Y-50642058D01*
X87628477Y-50495465D01*
X87599127Y-50405137D01*
X87565220Y-50300781D01*
X87565218Y-50300778D01*
X87565218Y-50300776D01*
X87531503Y-50234607D01*
X87472287Y-50118390D01*
X87464556Y-50107749D01*
X87351971Y-49952786D01*
X87207213Y-49808028D01*
X87041614Y-49687715D01*
X87035006Y-49684348D01*
X86948917Y-49640483D01*
X86898123Y-49592511D01*
X86881328Y-49524690D01*
X86903865Y-49458555D01*
X86948917Y-49419516D01*
X87041610Y-49372287D01*
X87095778Y-49332932D01*
X87207213Y-49251971D01*
X87207215Y-49251968D01*
X87207219Y-49251966D01*
X87351966Y-49107219D01*
X87351968Y-49107215D01*
X87351971Y-49107213D01*
X87404732Y-49034590D01*
X87472287Y-48941610D01*
X87565220Y-48759219D01*
X87628477Y-48564534D01*
X87660500Y-48362352D01*
X87660500Y-48157648D01*
X87651695Y-48102058D01*
X87628477Y-47955465D01*
X87611371Y-47902819D01*
X87609376Y-47832977D01*
X87645456Y-47773144D01*
X87708157Y-47742316D01*
X87729302Y-47740500D01*
X90070698Y-47740500D01*
X90137737Y-47760185D01*
X90183492Y-47812989D01*
X90193436Y-47882147D01*
X90188629Y-47902819D01*
X90171522Y-47955465D01*
X90139500Y-48157648D01*
X90139500Y-48362351D01*
X90171522Y-48564534D01*
X90234781Y-48759223D01*
X90327715Y-48941613D01*
X90448028Y-49107213D01*
X90592786Y-49251971D01*
X90729224Y-49351097D01*
X90758390Y-49372287D01*
X90835813Y-49411736D01*
X90851080Y-49419515D01*
X90901876Y-49467490D01*
X90918671Y-49535311D01*
X90896134Y-49601446D01*
X90851080Y-49640485D01*
X90758386Y-49687715D01*
X90592786Y-49808028D01*
X90448028Y-49952786D01*
X90327715Y-50118386D01*
X90234781Y-50300776D01*
X90171522Y-50495465D01*
X90139500Y-50697648D01*
X90139500Y-50902351D01*
X90171522Y-51104534D01*
X90234781Y-51299223D01*
X90327715Y-51481613D01*
X90448028Y-51647213D01*
X90592786Y-51791971D01*
X90681178Y-51856190D01*
X90758390Y-51912287D01*
X90840533Y-51954141D01*
X90851080Y-51959515D01*
X90901876Y-52007490D01*
X90918671Y-52075311D01*
X90896134Y-52141446D01*
X90851080Y-52180485D01*
X90758386Y-52227715D01*
X90592786Y-52348028D01*
X90448028Y-52492786D01*
X90327715Y-52658386D01*
X90234781Y-52840776D01*
X90171522Y-53035465D01*
X90139500Y-53237648D01*
X90139500Y-53442351D01*
X90171522Y-53644534D01*
X90234781Y-53839223D01*
X90327715Y-54021613D01*
X90448028Y-54187213D01*
X90592786Y-54331971D01*
X90747749Y-54444556D01*
X90758390Y-54452287D01*
X90849840Y-54498883D01*
X90851080Y-54499515D01*
X90901876Y-54547490D01*
X90918671Y-54615311D01*
X90896134Y-54681446D01*
X90851080Y-54720485D01*
X90758386Y-54767715D01*
X90592786Y-54888028D01*
X90448028Y-55032786D01*
X90327715Y-55198386D01*
X90234781Y-55380776D01*
X90171522Y-55575465D01*
X90139500Y-55777648D01*
X90139500Y-55982351D01*
X90171522Y-56184534D01*
X90234781Y-56379223D01*
X90327715Y-56561613D01*
X90448028Y-56727213D01*
X90592786Y-56871971D01*
X90681178Y-56936190D01*
X90758390Y-56992287D01*
X90849840Y-57038883D01*
X90851080Y-57039515D01*
X90901876Y-57087490D01*
X90918671Y-57155311D01*
X90896134Y-57221446D01*
X90851080Y-57260485D01*
X90758386Y-57307715D01*
X90592786Y-57428028D01*
X90448028Y-57572786D01*
X90327715Y-57738386D01*
X90234781Y-57920776D01*
X90171522Y-58115465D01*
X90139500Y-58317648D01*
X90139500Y-58522352D01*
X90140795Y-58530526D01*
X90171522Y-58724534D01*
X90234781Y-58919223D01*
X90286385Y-59020500D01*
X90311098Y-59069002D01*
X90327715Y-59101613D01*
X90448028Y-59267213D01*
X90592786Y-59411971D01*
X90680772Y-59475895D01*
X90758390Y-59532287D01*
X90832339Y-59569966D01*
X90851080Y-59579515D01*
X90901876Y-59627490D01*
X90918671Y-59695311D01*
X90896134Y-59761446D01*
X90851080Y-59800485D01*
X90758386Y-59847715D01*
X90592786Y-59968028D01*
X90448028Y-60112786D01*
X90327715Y-60278386D01*
X90234781Y-60460776D01*
X90171522Y-60655465D01*
X90139500Y-60857648D01*
X90139500Y-61062351D01*
X90171522Y-61264534D01*
X90234781Y-61459223D01*
X90327715Y-61641613D01*
X90448028Y-61807213D01*
X90592786Y-61951971D01*
X90747749Y-62064556D01*
X90758390Y-62072287D01*
X90849840Y-62118883D01*
X90851080Y-62119515D01*
X90901876Y-62167490D01*
X90918671Y-62235311D01*
X90896134Y-62301446D01*
X90851080Y-62340485D01*
X90758386Y-62387715D01*
X90592786Y-62508028D01*
X90448028Y-62652786D01*
X90327715Y-62818386D01*
X90234781Y-63000776D01*
X90171522Y-63195465D01*
X90139500Y-63397648D01*
X90139500Y-63602351D01*
X90171522Y-63804534D01*
X90234781Y-63999223D01*
X90327715Y-64181613D01*
X90448028Y-64347213D01*
X90592786Y-64491971D01*
X90747749Y-64604556D01*
X90758390Y-64612287D01*
X90874607Y-64671503D01*
X90940776Y-64705218D01*
X90940778Y-64705218D01*
X90940781Y-64705220D01*
X91045137Y-64739127D01*
X91135465Y-64768477D01*
X91236557Y-64784488D01*
X91337648Y-64800500D01*
X91337649Y-64800500D01*
X91542351Y-64800500D01*
X91542352Y-64800500D01*
X91744534Y-64768477D01*
X91939219Y-64705220D01*
X92121610Y-64612287D01*
X92214590Y-64544732D01*
X92287213Y-64491971D01*
X92287215Y-64491968D01*
X92287219Y-64491966D01*
X92431966Y-64347219D01*
X92431968Y-64347215D01*
X92431971Y-64347213D01*
X92552284Y-64181614D01*
X92552285Y-64181613D01*
X92552287Y-64181610D01*
X92559117Y-64168204D01*
X92569566Y-64157140D01*
X92575889Y-64143297D01*
X92593068Y-64132256D01*
X92607091Y-64117409D01*
X92622772Y-64113167D01*
X92634667Y-64105523D01*
X92669602Y-64100500D01*
X92750398Y-64100500D01*
X92817437Y-64120185D01*
X92860883Y-64168205D01*
X92867715Y-64181614D01*
X92988028Y-64347213D01*
X93132786Y-64491971D01*
X93287749Y-64604556D01*
X93298390Y-64612287D01*
X93414607Y-64671503D01*
X93480776Y-64705218D01*
X93480778Y-64705218D01*
X93480781Y-64705220D01*
X93585137Y-64739127D01*
X93675465Y-64768477D01*
X93776557Y-64784488D01*
X93877648Y-64800500D01*
X93877649Y-64800500D01*
X94082351Y-64800500D01*
X94082352Y-64800500D01*
X94284534Y-64768477D01*
X94479219Y-64705220D01*
X94661610Y-64612287D01*
X94754590Y-64544732D01*
X94827213Y-64491971D01*
X94827215Y-64491968D01*
X94827219Y-64491966D01*
X94971966Y-64347219D01*
X94971968Y-64347215D01*
X94971971Y-64347213D01*
X95024732Y-64274590D01*
X95092287Y-64181610D01*
X95185220Y-63999219D01*
X95248477Y-63804534D01*
X95280500Y-63602352D01*
X95280500Y-63397648D01*
X95272257Y-63345606D01*
X95248477Y-63195465D01*
X95217458Y-63100000D01*
X95185220Y-63000781D01*
X95185218Y-63000778D01*
X95185218Y-63000776D01*
X95140075Y-62912179D01*
X95092287Y-62818390D01*
X95084556Y-62807749D01*
X94971971Y-62652786D01*
X94827213Y-62508028D01*
X94661614Y-62387715D01*
X94655006Y-62384348D01*
X94568917Y-62340483D01*
X94518123Y-62292511D01*
X94501328Y-62224690D01*
X94523865Y-62158555D01*
X94568917Y-62119516D01*
X94661610Y-62072287D01*
X94682770Y-62056913D01*
X94827213Y-61951971D01*
X94827215Y-61951968D01*
X94827219Y-61951966D01*
X94971966Y-61807219D01*
X94971968Y-61807215D01*
X94971971Y-61807213D01*
X95024732Y-61734590D01*
X95092287Y-61641610D01*
X95185220Y-61459219D01*
X95248477Y-61264534D01*
X95280500Y-61062352D01*
X95280500Y-60857648D01*
X95257315Y-60711265D01*
X95248477Y-60655465D01*
X95219127Y-60565137D01*
X95185220Y-60460781D01*
X95185218Y-60460778D01*
X95185218Y-60460776D01*
X95151503Y-60394607D01*
X95092287Y-60278390D01*
X95052829Y-60224080D01*
X94971971Y-60112786D01*
X94827213Y-59968028D01*
X94661614Y-59847715D01*
X94655006Y-59844348D01*
X94568917Y-59800483D01*
X94518123Y-59752511D01*
X94501328Y-59684690D01*
X94523865Y-59618555D01*
X94568917Y-59579516D01*
X94661610Y-59532287D01*
X94753676Y-59465398D01*
X94827213Y-59411971D01*
X94827215Y-59411968D01*
X94827219Y-59411966D01*
X94971966Y-59267219D01*
X94971968Y-59267215D01*
X94971971Y-59267213D01*
X95040438Y-59172975D01*
X95092287Y-59101610D01*
X95185220Y-58919219D01*
X95248477Y-58724534D01*
X95280500Y-58522352D01*
X95280500Y-58317648D01*
X95248477Y-58115466D01*
X95185220Y-57920781D01*
X95185218Y-57920778D01*
X95185218Y-57920776D01*
X95151503Y-57854607D01*
X95092287Y-57738390D01*
X95084556Y-57727749D01*
X94971971Y-57572786D01*
X94827213Y-57428028D01*
X94661614Y-57307715D01*
X94651086Y-57302351D01*
X94568917Y-57260483D01*
X94518123Y-57212511D01*
X94501328Y-57144690D01*
X94523865Y-57078555D01*
X94568917Y-57039516D01*
X94661610Y-56992287D01*
X94753676Y-56925398D01*
X94827213Y-56871971D01*
X94827215Y-56871968D01*
X94827219Y-56871966D01*
X94971966Y-56727219D01*
X94971968Y-56727215D01*
X94971971Y-56727213D01*
X95024732Y-56654590D01*
X95092287Y-56561610D01*
X95185220Y-56379219D01*
X95248477Y-56184534D01*
X95280500Y-55982352D01*
X95280500Y-55777648D01*
X95248477Y-55575466D01*
X95185220Y-55380781D01*
X95185218Y-55380778D01*
X95185218Y-55380776D01*
X95151503Y-55314607D01*
X95092287Y-55198390D01*
X95058267Y-55151565D01*
X94971971Y-55032786D01*
X94827213Y-54888028D01*
X94661614Y-54767715D01*
X94655006Y-54764348D01*
X94568917Y-54720483D01*
X94518123Y-54672511D01*
X94501328Y-54604690D01*
X94523865Y-54538555D01*
X94568917Y-54499516D01*
X94661610Y-54452287D01*
X94753676Y-54385398D01*
X94827213Y-54331971D01*
X94827215Y-54331968D01*
X94827219Y-54331966D01*
X94971966Y-54187219D01*
X94971968Y-54187215D01*
X94971971Y-54187213D01*
X95092284Y-54021614D01*
X95092285Y-54021613D01*
X95092287Y-54021610D01*
X95099117Y-54008204D01*
X95147091Y-53957409D01*
X95209602Y-53940500D01*
X96433331Y-53940500D01*
X96433347Y-53940501D01*
X96440943Y-53940501D01*
X96599054Y-53940501D01*
X96599057Y-53940501D01*
X96751785Y-53899577D01*
X96801904Y-53870639D01*
X96888716Y-53820520D01*
X97000520Y-53708716D01*
X97000520Y-53708714D01*
X97010728Y-53698507D01*
X97010730Y-53698504D01*
X97547819Y-53161415D01*
X97609142Y-53127930D01*
X97678834Y-53132914D01*
X97734767Y-53174786D01*
X97759184Y-53240250D01*
X97759500Y-53249096D01*
X97759500Y-53442351D01*
X97791522Y-53644534D01*
X97854781Y-53839223D01*
X97947715Y-54021613D01*
X98068028Y-54187213D01*
X98212786Y-54331971D01*
X98367749Y-54444556D01*
X98378390Y-54452287D01*
X98469840Y-54498883D01*
X98471080Y-54499515D01*
X98521876Y-54547490D01*
X98538671Y-54615311D01*
X98516134Y-54681446D01*
X98471080Y-54720485D01*
X98378386Y-54767715D01*
X98212786Y-54888028D01*
X98068028Y-55032786D01*
X97947715Y-55198386D01*
X97854781Y-55380776D01*
X97791522Y-55575465D01*
X97759500Y-55777648D01*
X97759500Y-55982351D01*
X97791522Y-56184534D01*
X97854781Y-56379223D01*
X97947715Y-56561613D01*
X98068028Y-56727213D01*
X98212786Y-56871971D01*
X98301178Y-56936190D01*
X98378390Y-56992287D01*
X98469840Y-57038883D01*
X98471080Y-57039515D01*
X98521876Y-57087490D01*
X98538671Y-57155311D01*
X98516134Y-57221446D01*
X98471080Y-57260485D01*
X98378386Y-57307715D01*
X98212786Y-57428028D01*
X98068028Y-57572786D01*
X97947715Y-57738386D01*
X97854781Y-57920776D01*
X97791522Y-58115465D01*
X97759500Y-58317648D01*
X97759500Y-58522352D01*
X97760795Y-58530526D01*
X97791522Y-58724534D01*
X97854781Y-58919223D01*
X97906385Y-59020500D01*
X97931098Y-59069002D01*
X97947715Y-59101613D01*
X98068028Y-59267213D01*
X98212786Y-59411971D01*
X98300772Y-59475895D01*
X98378390Y-59532287D01*
X98452339Y-59569966D01*
X98471080Y-59579515D01*
X98521876Y-59627490D01*
X98538671Y-59695311D01*
X98516134Y-59761446D01*
X98471080Y-59800485D01*
X98378386Y-59847715D01*
X98212786Y-59968028D01*
X98068028Y-60112786D01*
X97947715Y-60278386D01*
X97854781Y-60460776D01*
X97791522Y-60655465D01*
X97759500Y-60857648D01*
X97759500Y-61062351D01*
X97791522Y-61264534D01*
X97854781Y-61459223D01*
X97947715Y-61641613D01*
X98068028Y-61807213D01*
X98212786Y-61951971D01*
X98367749Y-62064556D01*
X98378390Y-62072287D01*
X98450424Y-62108990D01*
X98471629Y-62119795D01*
X98522425Y-62167770D01*
X98539220Y-62235591D01*
X98516682Y-62301726D01*
X98471629Y-62340765D01*
X98378650Y-62388140D01*
X98213105Y-62508417D01*
X98213104Y-62508417D01*
X98068417Y-62653104D01*
X98068417Y-62653105D01*
X97948140Y-62818650D01*
X97855244Y-63000970D01*
X97792009Y-63195586D01*
X97783391Y-63250000D01*
X98744314Y-63250000D01*
X98739920Y-63254394D01*
X98687259Y-63345606D01*
X98660000Y-63447339D01*
X98660000Y-63552661D01*
X98687259Y-63654394D01*
X98739920Y-63745606D01*
X98744314Y-63750000D01*
X97783391Y-63750000D01*
X97792009Y-63804413D01*
X97855244Y-63999029D01*
X97948140Y-64181349D01*
X98068417Y-64346894D01*
X98068417Y-64346895D01*
X98213104Y-64491582D01*
X98378650Y-64611859D01*
X98560968Y-64704754D01*
X98755578Y-64767988D01*
X98810000Y-64776607D01*
X98810000Y-63815686D01*
X98814394Y-63820080D01*
X98905606Y-63872741D01*
X99007339Y-63900000D01*
X99112661Y-63900000D01*
X99214394Y-63872741D01*
X99305606Y-63820080D01*
X99310000Y-63815686D01*
X99310000Y-64776606D01*
X99364421Y-64767988D01*
X99559031Y-64704754D01*
X99741349Y-64611859D01*
X99906894Y-64491582D01*
X99906895Y-64491582D01*
X100051582Y-64346895D01*
X100051582Y-64346894D01*
X100171859Y-64181349D01*
X100264755Y-63999029D01*
X100327990Y-63804413D01*
X100336609Y-63750000D01*
X99375686Y-63750000D01*
X99380080Y-63745606D01*
X99432741Y-63654394D01*
X99460000Y-63552661D01*
X99460000Y-63447339D01*
X99432741Y-63345606D01*
X99380080Y-63254394D01*
X99375686Y-63250000D01*
X100336609Y-63250000D01*
X100327990Y-63195586D01*
X100264755Y-63000970D01*
X100171859Y-62818650D01*
X100051582Y-62653105D01*
X100051582Y-62653104D01*
X99906895Y-62508417D01*
X99741349Y-62388140D01*
X99648370Y-62340765D01*
X99597574Y-62292790D01*
X99580779Y-62224969D01*
X99603316Y-62158835D01*
X99648370Y-62119795D01*
X99648920Y-62119515D01*
X99741610Y-62072287D01*
X99762770Y-62056913D01*
X99907213Y-61951971D01*
X99907215Y-61951968D01*
X99907219Y-61951966D01*
X100051966Y-61807219D01*
X100051968Y-61807215D01*
X100051971Y-61807213D01*
X100104732Y-61734590D01*
X100172287Y-61641610D01*
X100265220Y-61459219D01*
X100328477Y-61264534D01*
X100360500Y-61062352D01*
X100360500Y-60857648D01*
X100328477Y-60655466D01*
X100323825Y-60641151D01*
X100321832Y-60571312D01*
X100354075Y-60515158D01*
X101564233Y-59305001D01*
X102797704Y-59305001D01*
X102797899Y-59307486D01*
X102843718Y-59465198D01*
X102927314Y-59606552D01*
X102927321Y-59606561D01*
X103043438Y-59722678D01*
X103043447Y-59722685D01*
X103184803Y-59806282D01*
X103184806Y-59806283D01*
X103342504Y-59852099D01*
X103342510Y-59852100D01*
X103379350Y-59854999D01*
X103379366Y-59855000D01*
X104020000Y-59855000D01*
X104020000Y-59305000D01*
X102797705Y-59305000D01*
X102797704Y-59305001D01*
X101564233Y-59305001D01*
X102447416Y-58421819D01*
X102474343Y-58407115D01*
X102500162Y-58390523D01*
X102506362Y-58389631D01*
X102508739Y-58388334D01*
X102535097Y-58385500D01*
X102779674Y-58385500D01*
X102846713Y-58405185D01*
X102892468Y-58457989D01*
X102902412Y-58527147D01*
X102886406Y-58572621D01*
X102843718Y-58644801D01*
X102797899Y-58802513D01*
X102797704Y-58804998D01*
X102797705Y-58805000D01*
X104146000Y-58805000D01*
X104213039Y-58824685D01*
X104258794Y-58877489D01*
X104270000Y-58929000D01*
X104270000Y-59055000D01*
X104396000Y-59055000D01*
X104463039Y-59074685D01*
X104508794Y-59127489D01*
X104520000Y-59179000D01*
X104520000Y-59855000D01*
X105160634Y-59855000D01*
X105160649Y-59854999D01*
X105197489Y-59852100D01*
X105197495Y-59852099D01*
X105355193Y-59806283D01*
X105355196Y-59806282D01*
X105496552Y-59722685D01*
X105496561Y-59722678D01*
X105612678Y-59606561D01*
X105612683Y-59606555D01*
X105689954Y-59475895D01*
X105741023Y-59428211D01*
X105809765Y-59415707D01*
X105869572Y-59438697D01*
X105998385Y-59532284D01*
X105998387Y-59532285D01*
X105998390Y-59532287D01*
X106072341Y-59569967D01*
X106078310Y-59575604D01*
X106086117Y-59578148D01*
X106103335Y-59599239D01*
X106123136Y-59617940D01*
X106125110Y-59625912D01*
X106130302Y-59632272D01*
X106133384Y-59659325D01*
X106139931Y-59685761D01*
X106137486Y-59695323D01*
X106138212Y-59701692D01*
X106130231Y-59723699D01*
X106127279Y-59735250D01*
X106125472Y-59738917D01*
X106120423Y-59747663D01*
X106119539Y-59750960D01*
X106114718Y-59760747D01*
X106093687Y-59783625D01*
X106074191Y-59807813D01*
X106068111Y-59811449D01*
X106067434Y-59812186D01*
X106066446Y-59812444D01*
X106059780Y-59816432D01*
X105998388Y-59847713D01*
X105832786Y-59968028D01*
X105688028Y-60112786D01*
X105567715Y-60278386D01*
X105474781Y-60460776D01*
X105411522Y-60655465D01*
X105379500Y-60857648D01*
X105379500Y-61062351D01*
X105411522Y-61264534D01*
X105474781Y-61459223D01*
X105567715Y-61641613D01*
X105688028Y-61807213D01*
X105832786Y-61951971D01*
X105987749Y-62064556D01*
X105998390Y-62072287D01*
X106089840Y-62118883D01*
X106091080Y-62119515D01*
X106141876Y-62167490D01*
X106158671Y-62235311D01*
X106136134Y-62301446D01*
X106091080Y-62340485D01*
X105998386Y-62387715D01*
X105832786Y-62508028D01*
X105688028Y-62652786D01*
X105567715Y-62818386D01*
X105474781Y-63000776D01*
X105411522Y-63195465D01*
X105379500Y-63397648D01*
X105379500Y-63602351D01*
X105411522Y-63804534D01*
X105474781Y-63999223D01*
X105567715Y-64181613D01*
X105688028Y-64347213D01*
X105832786Y-64491971D01*
X105987749Y-64604556D01*
X105998390Y-64612287D01*
X106114607Y-64671503D01*
X106180776Y-64705218D01*
X106180778Y-64705218D01*
X106180781Y-64705220D01*
X106285137Y-64739127D01*
X106375465Y-64768477D01*
X106476557Y-64784488D01*
X106577648Y-64800500D01*
X106577649Y-64800500D01*
X106782351Y-64800500D01*
X106782352Y-64800500D01*
X106984534Y-64768477D01*
X107179219Y-64705220D01*
X107361610Y-64612287D01*
X107454590Y-64544732D01*
X107527213Y-64491971D01*
X107527215Y-64491968D01*
X107527219Y-64491966D01*
X107671966Y-64347219D01*
X107671968Y-64347215D01*
X107671971Y-64347213D01*
X107724732Y-64274590D01*
X107792287Y-64181610D01*
X107885220Y-63999219D01*
X107948477Y-63804534D01*
X107980500Y-63602352D01*
X107980500Y-63397648D01*
X107957810Y-63254394D01*
X107948478Y-63195472D01*
X107948477Y-63195471D01*
X107948477Y-63195466D01*
X107943825Y-63181151D01*
X107941832Y-63111312D01*
X107974075Y-63055158D01*
X109578506Y-61450728D01*
X109578511Y-61450724D01*
X109588714Y-61440520D01*
X109588716Y-61440520D01*
X109700520Y-61328716D01*
X109779577Y-61191784D01*
X109820500Y-61039057D01*
X109820500Y-59979500D01*
X109840185Y-59912461D01*
X109892989Y-59866706D01*
X109944500Y-59855500D01*
X110110686Y-59855500D01*
X110110694Y-59855500D01*
X110147569Y-59852598D01*
X110147571Y-59852597D01*
X110147573Y-59852597D01*
X110189191Y-59840505D01*
X110305398Y-59806744D01*
X110446865Y-59723081D01*
X110450293Y-59719653D01*
X110460812Y-59709135D01*
X110563076Y-59606870D01*
X110563081Y-59606865D01*
X110646744Y-59465398D01*
X110692598Y-59307569D01*
X110695500Y-59270694D01*
X110695500Y-58839306D01*
X110692598Y-58802431D01*
X110684698Y-58775240D01*
X110646745Y-58644606D01*
X110646744Y-58644603D01*
X110646744Y-58644602D01*
X110563081Y-58503135D01*
X110558446Y-58498500D01*
X110551366Y-58487616D01*
X110544923Y-58466118D01*
X110534155Y-58446421D01*
X110535087Y-58433292D01*
X110531310Y-58420687D01*
X110537514Y-58399116D01*
X110539104Y-58376726D01*
X110547882Y-58363066D01*
X110550623Y-58353539D01*
X110558365Y-58346754D01*
X110559940Y-58344304D01*
X110558298Y-58343031D01*
X110563075Y-58336870D01*
X110563081Y-58336865D01*
X110646744Y-58195398D01*
X110692598Y-58037569D01*
X110695500Y-58000694D01*
X110695500Y-57569306D01*
X110692598Y-57532431D01*
X110680861Y-57492034D01*
X110646745Y-57374606D01*
X110646744Y-57374603D01*
X110646744Y-57374602D01*
X110563081Y-57233135D01*
X110563078Y-57233132D01*
X110558298Y-57226969D01*
X110560750Y-57225066D01*
X110534155Y-57176421D01*
X110539104Y-57106726D01*
X110559940Y-57074304D01*
X110558298Y-57073031D01*
X110563075Y-57066870D01*
X110563081Y-57066865D01*
X110646744Y-56925398D01*
X110692598Y-56767569D01*
X110695500Y-56730694D01*
X110695500Y-56299306D01*
X110692598Y-56262431D01*
X110672226Y-56192312D01*
X110646745Y-56104606D01*
X110646744Y-56104603D01*
X110646744Y-56104602D01*
X110563081Y-55963135D01*
X110563078Y-55963132D01*
X110558298Y-55956969D01*
X110560750Y-55955066D01*
X110534155Y-55906421D01*
X110539104Y-55836726D01*
X110559940Y-55804304D01*
X110558298Y-55803031D01*
X110563075Y-55796870D01*
X110563081Y-55796865D01*
X110646744Y-55655398D01*
X110692598Y-55497569D01*
X110695500Y-55460694D01*
X110695500Y-55029306D01*
X110692598Y-54992431D01*
X110646744Y-54834602D01*
X110563081Y-54693135D01*
X110563078Y-54693132D01*
X110558298Y-54686969D01*
X110560750Y-54685066D01*
X110534155Y-54636421D01*
X110539104Y-54566726D01*
X110559940Y-54534304D01*
X110558298Y-54533031D01*
X110563075Y-54526870D01*
X110563081Y-54526865D01*
X110646744Y-54385398D01*
X110692598Y-54227569D01*
X110695500Y-54190694D01*
X110695500Y-53759306D01*
X110692598Y-53722431D01*
X110688613Y-53708716D01*
X110646745Y-53564606D01*
X110646744Y-53564603D01*
X110646744Y-53564602D01*
X110563081Y-53423135D01*
X110563078Y-53423132D01*
X110558298Y-53416969D01*
X110560750Y-53415066D01*
X110534155Y-53366421D01*
X110539104Y-53296726D01*
X110559940Y-53264304D01*
X110558298Y-53263031D01*
X110563075Y-53256870D01*
X110563081Y-53256865D01*
X110646744Y-53115398D01*
X110692598Y-52957569D01*
X110695500Y-52920694D01*
X110695500Y-52489306D01*
X110692598Y-52452431D01*
X110679071Y-52405872D01*
X110646745Y-52294606D01*
X110646744Y-52294603D01*
X110646744Y-52294602D01*
X110563081Y-52153135D01*
X110563078Y-52153132D01*
X110558298Y-52146969D01*
X110560750Y-52145066D01*
X110534155Y-52096421D01*
X110539104Y-52026726D01*
X110559940Y-51994304D01*
X110558298Y-51993031D01*
X110563075Y-51986870D01*
X110563081Y-51986865D01*
X110646744Y-51845398D01*
X110692598Y-51687569D01*
X110695500Y-51650694D01*
X110695500Y-51604230D01*
X110715185Y-51537191D01*
X110767989Y-51491436D01*
X110837147Y-51481492D01*
X110900703Y-51510517D01*
X110907181Y-51516549D01*
X111735181Y-52344549D01*
X111768666Y-52405872D01*
X111771500Y-52432230D01*
X111771500Y-53778582D01*
X111751815Y-53845621D01*
X111720385Y-53878900D01*
X111674787Y-53912028D01*
X111674782Y-53912032D01*
X111530028Y-54056786D01*
X111409715Y-54222386D01*
X111316781Y-54404776D01*
X111253522Y-54599465D01*
X111221500Y-54801648D01*
X111221500Y-55006351D01*
X111253522Y-55208534D01*
X111316781Y-55403223D01*
X111364853Y-55497567D01*
X111404544Y-55575466D01*
X111409715Y-55585613D01*
X111530028Y-55751213D01*
X111580705Y-55801890D01*
X111614190Y-55863213D01*
X111610730Y-55928575D01*
X111556826Y-56091247D01*
X111556825Y-56091248D01*
X111546500Y-56192315D01*
X111546500Y-56890669D01*
X111546501Y-56890687D01*
X111556825Y-56991752D01*
X111586222Y-57080465D01*
X111608759Y-57148477D01*
X111611092Y-57155515D01*
X111611093Y-57155518D01*
X111635168Y-57194549D01*
X111701659Y-57302349D01*
X111701661Y-57302351D01*
X111715982Y-57316672D01*
X111749467Y-57377995D01*
X111744483Y-57447687D01*
X111715985Y-57492032D01*
X111702052Y-57505965D01*
X111611551Y-57652688D01*
X111611546Y-57652699D01*
X111557319Y-57816347D01*
X111547000Y-57917345D01*
X111547000Y-58016500D01*
X113496999Y-58016500D01*
X113496999Y-57917360D01*
X113496998Y-57917345D01*
X113486680Y-57816347D01*
X113432453Y-57652699D01*
X113432448Y-57652688D01*
X113341947Y-57505965D01*
X113341944Y-57505961D01*
X113328017Y-57492034D01*
X113294532Y-57430711D01*
X113299516Y-57361019D01*
X113328017Y-57316672D01*
X113342340Y-57302350D01*
X113432908Y-57155516D01*
X113487174Y-56991753D01*
X113497500Y-56890677D01*
X113497499Y-56192324D01*
X113487174Y-56091247D01*
X113433268Y-55928573D01*
X113430867Y-55858747D01*
X113463294Y-55801890D01*
X113513966Y-55751219D01*
X113575181Y-55666962D01*
X113630511Y-55624296D01*
X113700124Y-55618317D01*
X113761919Y-55650922D01*
X113796277Y-55711760D01*
X113799500Y-55739847D01*
X113799500Y-59069002D01*
X113779815Y-59136041D01*
X113727011Y-59181796D01*
X113657853Y-59191740D01*
X113633444Y-59180593D01*
X113601474Y-59178076D01*
X112922000Y-59857551D01*
X112922000Y-59851339D01*
X112894741Y-59749606D01*
X112842080Y-59658394D01*
X112767606Y-59583920D01*
X112676394Y-59531259D01*
X112574661Y-59504000D01*
X112568445Y-59504000D01*
X113268704Y-58803741D01*
X113330027Y-58770256D01*
X113399718Y-58775240D01*
X113444066Y-58803741D01*
X113454397Y-58814072D01*
X113454398Y-58814072D01*
X113486680Y-58716652D01*
X113486681Y-58716645D01*
X113496999Y-58615654D01*
X113497000Y-58615641D01*
X113497000Y-58516500D01*
X111547001Y-58516500D01*
X111547001Y-58615654D01*
X111557319Y-58716653D01*
X111589600Y-58814072D01*
X111599931Y-58803741D01*
X111661254Y-58770256D01*
X111730946Y-58775240D01*
X111775294Y-58803741D01*
X112475553Y-59504000D01*
X112469339Y-59504000D01*
X112367606Y-59531259D01*
X112276394Y-59583920D01*
X112201920Y-59658394D01*
X112149259Y-59749606D01*
X112122000Y-59851339D01*
X112122000Y-59857553D01*
X111442524Y-59178077D01*
X111442523Y-59178077D01*
X111410143Y-59222644D01*
X111317244Y-59404968D01*
X111254009Y-59599582D01*
X111222000Y-59801682D01*
X111222000Y-60006317D01*
X111254009Y-60208417D01*
X111317244Y-60403031D01*
X111410141Y-60585350D01*
X111410147Y-60585359D01*
X111442523Y-60629921D01*
X111442524Y-60629922D01*
X112122000Y-59950446D01*
X112122000Y-59956661D01*
X112149259Y-60058394D01*
X112201920Y-60149606D01*
X112276394Y-60224080D01*
X112367606Y-60276741D01*
X112469339Y-60304000D01*
X112475553Y-60304000D01*
X111796076Y-60983474D01*
X111840650Y-61015859D01*
X112022968Y-61108755D01*
X112217582Y-61171990D01*
X112419683Y-61204000D01*
X112624317Y-61204000D01*
X112826417Y-61171990D01*
X113021031Y-61108755D01*
X113203349Y-61015859D01*
X113247921Y-60983474D01*
X112568447Y-60304000D01*
X112574661Y-60304000D01*
X112676394Y-60276741D01*
X112767606Y-60224080D01*
X112842080Y-60149606D01*
X112894741Y-60058394D01*
X112922000Y-59956661D01*
X112922000Y-59950448D01*
X113601474Y-60629922D01*
X113624456Y-60628113D01*
X113630512Y-60623444D01*
X113700125Y-60617465D01*
X113761920Y-60650071D01*
X113796277Y-60710909D01*
X113799500Y-60738995D01*
X113799500Y-73035500D01*
X113779815Y-73102539D01*
X113727011Y-73148294D01*
X113675500Y-73159500D01*
X81904500Y-73159500D01*
X81837461Y-73139815D01*
X81791706Y-73087011D01*
X81780500Y-73035500D01*
X81780500Y-70870000D01*
X85083391Y-70870000D01*
X86044314Y-70870000D01*
X86039920Y-70874394D01*
X85987259Y-70965606D01*
X85960000Y-71067339D01*
X85960000Y-71172661D01*
X85987259Y-71274394D01*
X86039920Y-71365606D01*
X86044314Y-71370000D01*
X85083391Y-71370000D01*
X85092009Y-71424413D01*
X85155244Y-71619029D01*
X85248140Y-71801349D01*
X85368417Y-71966894D01*
X85368417Y-71966895D01*
X85513104Y-72111582D01*
X85678650Y-72231859D01*
X85860968Y-72324754D01*
X86055578Y-72387988D01*
X86110000Y-72396607D01*
X86110000Y-71435686D01*
X86114394Y-71440080D01*
X86205606Y-71492741D01*
X86307339Y-71520000D01*
X86412661Y-71520000D01*
X86514394Y-71492741D01*
X86605606Y-71440080D01*
X86610000Y-71435686D01*
X86610000Y-72396606D01*
X86664421Y-72387988D01*
X86859031Y-72324754D01*
X87041349Y-72231859D01*
X87206894Y-72111582D01*
X87206895Y-72111582D01*
X87351582Y-71966895D01*
X87351582Y-71966894D01*
X87471861Y-71801347D01*
X87519234Y-71708371D01*
X87567208Y-71657575D01*
X87635028Y-71640779D01*
X87701164Y-71663316D01*
X87740203Y-71708369D01*
X87787713Y-71801611D01*
X87908028Y-71967213D01*
X88052786Y-72111971D01*
X88207749Y-72224556D01*
X88218390Y-72232287D01*
X88334607Y-72291503D01*
X88400776Y-72325218D01*
X88400778Y-72325218D01*
X88400781Y-72325220D01*
X88505137Y-72359127D01*
X88595465Y-72388477D01*
X88696557Y-72404488D01*
X88797648Y-72420500D01*
X88797649Y-72420500D01*
X89002351Y-72420500D01*
X89002352Y-72420500D01*
X89204534Y-72388477D01*
X89399219Y-72325220D01*
X89581610Y-72232287D01*
X89674590Y-72164732D01*
X89747213Y-72111971D01*
X89747215Y-72111968D01*
X89747219Y-72111966D01*
X89891966Y-71967219D01*
X89891968Y-71967215D01*
X89891971Y-71967213D01*
X90012284Y-71801614D01*
X90012286Y-71801611D01*
X90012287Y-71801610D01*
X90059516Y-71708917D01*
X90107489Y-71658123D01*
X90175310Y-71641328D01*
X90241445Y-71663865D01*
X90280485Y-71708919D01*
X90327715Y-71801614D01*
X90448028Y-71967213D01*
X90592786Y-72111971D01*
X90747749Y-72224556D01*
X90758390Y-72232287D01*
X90874607Y-72291503D01*
X90940776Y-72325218D01*
X90940778Y-72325218D01*
X90940781Y-72325220D01*
X91045137Y-72359127D01*
X91135465Y-72388477D01*
X91236557Y-72404488D01*
X91337648Y-72420500D01*
X91337649Y-72420500D01*
X91542351Y-72420500D01*
X91542352Y-72420500D01*
X91744534Y-72388477D01*
X91939219Y-72325220D01*
X92121610Y-72232287D01*
X92214590Y-72164732D01*
X92287213Y-72111971D01*
X92287215Y-72111968D01*
X92287219Y-72111966D01*
X92431966Y-71967219D01*
X92431968Y-71967215D01*
X92431971Y-71967213D01*
X92552284Y-71801614D01*
X92552286Y-71801611D01*
X92552287Y-71801610D01*
X92599516Y-71708917D01*
X92647489Y-71658123D01*
X92715310Y-71641328D01*
X92781445Y-71663865D01*
X92820485Y-71708919D01*
X92867715Y-71801614D01*
X92988028Y-71967213D01*
X93132786Y-72111971D01*
X93287749Y-72224556D01*
X93298390Y-72232287D01*
X93414607Y-72291503D01*
X93480776Y-72325218D01*
X93480778Y-72325218D01*
X93480781Y-72325220D01*
X93585137Y-72359127D01*
X93675465Y-72388477D01*
X93776557Y-72404488D01*
X93877648Y-72420500D01*
X93877649Y-72420500D01*
X94082351Y-72420500D01*
X94082352Y-72420500D01*
X94284534Y-72388477D01*
X94479219Y-72325220D01*
X94661610Y-72232287D01*
X94754590Y-72164732D01*
X94827213Y-72111971D01*
X94827215Y-72111968D01*
X94827219Y-72111966D01*
X94971966Y-71967219D01*
X94971968Y-71967215D01*
X94971971Y-71967213D01*
X95092284Y-71801614D01*
X95092286Y-71801611D01*
X95092287Y-71801610D01*
X95139516Y-71708917D01*
X95187489Y-71658123D01*
X95255310Y-71641328D01*
X95321445Y-71663865D01*
X95360485Y-71708919D01*
X95407715Y-71801614D01*
X95528028Y-71967213D01*
X95672786Y-72111971D01*
X95827749Y-72224556D01*
X95838390Y-72232287D01*
X95954607Y-72291503D01*
X96020776Y-72325218D01*
X96020778Y-72325218D01*
X96020781Y-72325220D01*
X96125137Y-72359127D01*
X96215465Y-72388477D01*
X96316557Y-72404488D01*
X96417648Y-72420500D01*
X96417649Y-72420500D01*
X96622351Y-72420500D01*
X96622352Y-72420500D01*
X96824534Y-72388477D01*
X97019219Y-72325220D01*
X97201610Y-72232287D01*
X97294590Y-72164732D01*
X97367213Y-72111971D01*
X97367215Y-72111968D01*
X97367219Y-72111966D01*
X97511966Y-71967219D01*
X97511968Y-71967215D01*
X97511971Y-71967213D01*
X97632284Y-71801614D01*
X97632286Y-71801611D01*
X97632287Y-71801610D01*
X97679516Y-71708917D01*
X97727489Y-71658123D01*
X97795310Y-71641328D01*
X97861445Y-71663865D01*
X97900485Y-71708919D01*
X97947715Y-71801614D01*
X98068028Y-71967213D01*
X98212786Y-72111971D01*
X98367749Y-72224556D01*
X98378390Y-72232287D01*
X98494607Y-72291503D01*
X98560776Y-72325218D01*
X98560778Y-72325218D01*
X98560781Y-72325220D01*
X98665137Y-72359127D01*
X98755465Y-72388477D01*
X98856557Y-72404488D01*
X98957648Y-72420500D01*
X98957649Y-72420500D01*
X99162351Y-72420500D01*
X99162352Y-72420500D01*
X99364534Y-72388477D01*
X99559219Y-72325220D01*
X99741610Y-72232287D01*
X99834590Y-72164732D01*
X99907213Y-72111971D01*
X99907215Y-72111968D01*
X99907219Y-72111966D01*
X100051966Y-71967219D01*
X100051968Y-71967215D01*
X100051971Y-71967213D01*
X100172284Y-71801614D01*
X100172286Y-71801611D01*
X100172287Y-71801610D01*
X100219516Y-71708917D01*
X100267489Y-71658123D01*
X100335310Y-71641328D01*
X100401445Y-71663865D01*
X100440485Y-71708919D01*
X100487715Y-71801614D01*
X100608028Y-71967213D01*
X100752786Y-72111971D01*
X100907749Y-72224556D01*
X100918390Y-72232287D01*
X101034607Y-72291503D01*
X101100776Y-72325218D01*
X101100778Y-72325218D01*
X101100781Y-72325220D01*
X101205137Y-72359127D01*
X101295465Y-72388477D01*
X101396557Y-72404488D01*
X101497648Y-72420500D01*
X101497649Y-72420500D01*
X101702351Y-72420500D01*
X101702352Y-72420500D01*
X101904534Y-72388477D01*
X102099219Y-72325220D01*
X102281610Y-72232287D01*
X102374590Y-72164732D01*
X102447213Y-72111971D01*
X102447215Y-72111968D01*
X102447219Y-72111966D01*
X102591966Y-71967219D01*
X102591968Y-71967215D01*
X102591971Y-71967213D01*
X102712284Y-71801614D01*
X102712286Y-71801611D01*
X102712287Y-71801610D01*
X102759516Y-71708917D01*
X102807489Y-71658123D01*
X102875310Y-71641328D01*
X102941445Y-71663865D01*
X102980485Y-71708919D01*
X103027715Y-71801614D01*
X103148028Y-71967213D01*
X103292786Y-72111971D01*
X103447749Y-72224556D01*
X103458390Y-72232287D01*
X103574607Y-72291503D01*
X103640776Y-72325218D01*
X103640778Y-72325218D01*
X103640781Y-72325220D01*
X103745137Y-72359127D01*
X103835465Y-72388477D01*
X103936557Y-72404488D01*
X104037648Y-72420500D01*
X104037649Y-72420500D01*
X104242351Y-72420500D01*
X104242352Y-72420500D01*
X104444534Y-72388477D01*
X104639219Y-72325220D01*
X104821610Y-72232287D01*
X104914590Y-72164732D01*
X104987213Y-72111971D01*
X104987215Y-72111968D01*
X104987219Y-72111966D01*
X105131966Y-71967219D01*
X105131968Y-71967215D01*
X105131971Y-71967213D01*
X105252284Y-71801614D01*
X105252286Y-71801611D01*
X105252287Y-71801610D01*
X105299516Y-71708917D01*
X105347489Y-71658123D01*
X105415310Y-71641328D01*
X105481445Y-71663865D01*
X105520485Y-71708919D01*
X105567715Y-71801614D01*
X105688028Y-71967213D01*
X105832786Y-72111971D01*
X105987749Y-72224556D01*
X105998390Y-72232287D01*
X106114607Y-72291503D01*
X106180776Y-72325218D01*
X106180778Y-72325218D01*
X106180781Y-72325220D01*
X106285137Y-72359127D01*
X106375465Y-72388477D01*
X106476557Y-72404488D01*
X106577648Y-72420500D01*
X106577649Y-72420500D01*
X106782351Y-72420500D01*
X106782352Y-72420500D01*
X106984534Y-72388477D01*
X107179219Y-72325220D01*
X107361610Y-72232287D01*
X107454590Y-72164732D01*
X107527213Y-72111971D01*
X107527215Y-72111968D01*
X107527219Y-72111966D01*
X107671966Y-71967219D01*
X107671968Y-71967215D01*
X107671971Y-71967213D01*
X107792284Y-71801614D01*
X107792286Y-71801611D01*
X107792287Y-71801610D01*
X107839516Y-71708917D01*
X107887489Y-71658123D01*
X107955310Y-71641328D01*
X108021445Y-71663865D01*
X108060485Y-71708919D01*
X108107715Y-71801614D01*
X108228028Y-71967213D01*
X108372786Y-72111971D01*
X108527749Y-72224556D01*
X108538390Y-72232287D01*
X108654607Y-72291503D01*
X108720776Y-72325218D01*
X108720778Y-72325218D01*
X108720781Y-72325220D01*
X108825137Y-72359127D01*
X108915465Y-72388477D01*
X109016557Y-72404488D01*
X109117648Y-72420500D01*
X109117649Y-72420500D01*
X109322351Y-72420500D01*
X109322352Y-72420500D01*
X109524534Y-72388477D01*
X109719219Y-72325220D01*
X109901610Y-72232287D01*
X109994590Y-72164732D01*
X110067213Y-72111971D01*
X110067215Y-72111968D01*
X110067219Y-72111966D01*
X110211966Y-71967219D01*
X110211968Y-71967215D01*
X110211971Y-71967213D01*
X110264732Y-71894590D01*
X110332287Y-71801610D01*
X110425220Y-71619219D01*
X110488477Y-71424534D01*
X110520500Y-71222352D01*
X110520500Y-71017648D01*
X110512257Y-70965606D01*
X110488477Y-70815465D01*
X110425218Y-70620776D01*
X110332419Y-70438650D01*
X110332287Y-70438390D01*
X110324556Y-70427749D01*
X110211971Y-70272786D01*
X110067213Y-70128028D01*
X109901613Y-70007715D01*
X109901612Y-70007714D01*
X109901610Y-70007713D01*
X109844653Y-69978691D01*
X109719223Y-69914781D01*
X109524534Y-69851522D01*
X109349995Y-69823878D01*
X109322352Y-69819500D01*
X109117648Y-69819500D01*
X109093329Y-69823351D01*
X108915465Y-69851522D01*
X108720776Y-69914781D01*
X108538386Y-70007715D01*
X108372786Y-70128028D01*
X108228028Y-70272786D01*
X108107715Y-70438386D01*
X108060485Y-70531080D01*
X108012510Y-70581876D01*
X107944689Y-70598671D01*
X107878554Y-70576134D01*
X107839515Y-70531080D01*
X107792419Y-70438650D01*
X107792287Y-70438390D01*
X107784556Y-70427749D01*
X107671971Y-70272786D01*
X107527213Y-70128028D01*
X107361613Y-70007715D01*
X107361612Y-70007714D01*
X107361610Y-70007713D01*
X107304653Y-69978691D01*
X107179223Y-69914781D01*
X106984534Y-69851522D01*
X106809995Y-69823878D01*
X106782352Y-69819500D01*
X106577648Y-69819500D01*
X106553329Y-69823351D01*
X106375465Y-69851522D01*
X106180776Y-69914781D01*
X105998386Y-70007715D01*
X105832786Y-70128028D01*
X105688028Y-70272786D01*
X105567715Y-70438386D01*
X105520485Y-70531080D01*
X105472510Y-70581876D01*
X105404689Y-70598671D01*
X105338554Y-70576134D01*
X105299515Y-70531080D01*
X105252419Y-70438650D01*
X105252287Y-70438390D01*
X105244556Y-70427749D01*
X105131971Y-70272786D01*
X104987213Y-70128028D01*
X104821613Y-70007715D01*
X104821612Y-70007714D01*
X104821610Y-70007713D01*
X104764653Y-69978691D01*
X104639223Y-69914781D01*
X104444534Y-69851522D01*
X104269995Y-69823878D01*
X104242352Y-69819500D01*
X104037648Y-69819500D01*
X104013329Y-69823351D01*
X103835465Y-69851522D01*
X103640776Y-69914781D01*
X103458386Y-70007715D01*
X103292786Y-70128028D01*
X103148028Y-70272786D01*
X103027715Y-70438386D01*
X102980485Y-70531080D01*
X102932510Y-70581876D01*
X102864689Y-70598671D01*
X102798554Y-70576134D01*
X102759515Y-70531080D01*
X102712419Y-70438650D01*
X102712287Y-70438390D01*
X102704556Y-70427749D01*
X102591971Y-70272786D01*
X102447213Y-70128028D01*
X102281613Y-70007715D01*
X102281612Y-70007714D01*
X102281610Y-70007713D01*
X102224653Y-69978691D01*
X102099223Y-69914781D01*
X101904534Y-69851522D01*
X101729995Y-69823878D01*
X101702352Y-69819500D01*
X101497648Y-69819500D01*
X101473329Y-69823351D01*
X101295465Y-69851522D01*
X101100776Y-69914781D01*
X100918386Y-70007715D01*
X100752786Y-70128028D01*
X100608028Y-70272786D01*
X100487715Y-70438386D01*
X100440485Y-70531080D01*
X100392510Y-70581876D01*
X100324689Y-70598671D01*
X100258554Y-70576134D01*
X100219515Y-70531080D01*
X100172419Y-70438650D01*
X100172287Y-70438390D01*
X100164556Y-70427749D01*
X100051971Y-70272786D01*
X99907213Y-70128028D01*
X99741613Y-70007715D01*
X99741612Y-70007714D01*
X99741610Y-70007713D01*
X99684653Y-69978691D01*
X99559223Y-69914781D01*
X99364534Y-69851522D01*
X99189995Y-69823878D01*
X99162352Y-69819500D01*
X98957648Y-69819500D01*
X98933329Y-69823351D01*
X98755465Y-69851522D01*
X98560776Y-69914781D01*
X98378386Y-70007715D01*
X98212786Y-70128028D01*
X98068028Y-70272786D01*
X97947715Y-70438386D01*
X97900485Y-70531080D01*
X97852510Y-70581876D01*
X97784689Y-70598671D01*
X97718554Y-70576134D01*
X97679515Y-70531080D01*
X97632419Y-70438650D01*
X97632287Y-70438390D01*
X97624556Y-70427749D01*
X97511971Y-70272786D01*
X97367213Y-70128028D01*
X97201613Y-70007715D01*
X97201612Y-70007714D01*
X97201610Y-70007713D01*
X97144653Y-69978691D01*
X97019223Y-69914781D01*
X96824534Y-69851522D01*
X96649995Y-69823878D01*
X96622352Y-69819500D01*
X96417648Y-69819500D01*
X96393329Y-69823351D01*
X96215465Y-69851522D01*
X96020776Y-69914781D01*
X95838386Y-70007715D01*
X95672786Y-70128028D01*
X95528028Y-70272786D01*
X95407715Y-70438386D01*
X95360485Y-70531080D01*
X95312510Y-70581876D01*
X95244689Y-70598671D01*
X95178554Y-70576134D01*
X95139515Y-70531080D01*
X95092419Y-70438650D01*
X95092287Y-70438390D01*
X95084556Y-70427749D01*
X94971971Y-70272786D01*
X94827213Y-70128028D01*
X94661613Y-70007715D01*
X94661612Y-70007714D01*
X94661610Y-70007713D01*
X94604653Y-69978691D01*
X94479223Y-69914781D01*
X94284534Y-69851522D01*
X94109995Y-69823878D01*
X94082352Y-69819500D01*
X93877648Y-69819500D01*
X93853329Y-69823351D01*
X93675465Y-69851522D01*
X93480776Y-69914781D01*
X93298386Y-70007715D01*
X93132786Y-70128028D01*
X92988028Y-70272786D01*
X92867715Y-70438386D01*
X92820485Y-70531080D01*
X92772510Y-70581876D01*
X92704689Y-70598671D01*
X92638554Y-70576134D01*
X92599515Y-70531080D01*
X92552419Y-70438650D01*
X92552287Y-70438390D01*
X92544556Y-70427749D01*
X92431971Y-70272786D01*
X92287213Y-70128028D01*
X92121613Y-70007715D01*
X92121612Y-70007714D01*
X92121610Y-70007713D01*
X92064653Y-69978691D01*
X91939223Y-69914781D01*
X91744534Y-69851522D01*
X91569995Y-69823878D01*
X91542352Y-69819500D01*
X91337648Y-69819500D01*
X91313329Y-69823351D01*
X91135465Y-69851522D01*
X90940776Y-69914781D01*
X90758386Y-70007715D01*
X90592786Y-70128028D01*
X90448028Y-70272786D01*
X90327715Y-70438386D01*
X90280485Y-70531080D01*
X90232510Y-70581876D01*
X90164689Y-70598671D01*
X90098554Y-70576134D01*
X90059515Y-70531080D01*
X90012419Y-70438650D01*
X90012287Y-70438390D01*
X90004556Y-70427749D01*
X89891971Y-70272786D01*
X89747213Y-70128028D01*
X89581613Y-70007715D01*
X89581612Y-70007714D01*
X89581610Y-70007713D01*
X89524653Y-69978691D01*
X89399223Y-69914781D01*
X89204534Y-69851522D01*
X89029995Y-69823878D01*
X89002352Y-69819500D01*
X88797648Y-69819500D01*
X88773329Y-69823351D01*
X88595465Y-69851522D01*
X88400776Y-69914781D01*
X88218386Y-70007715D01*
X88052786Y-70128028D01*
X87908028Y-70272786D01*
X87787713Y-70438388D01*
X87740203Y-70531630D01*
X87692228Y-70582426D01*
X87624407Y-70599220D01*
X87558272Y-70576682D01*
X87519234Y-70531628D01*
X87471861Y-70438652D01*
X87351582Y-70273105D01*
X87351582Y-70273104D01*
X87206895Y-70128417D01*
X87041349Y-70008140D01*
X86859029Y-69915244D01*
X86664413Y-69852009D01*
X86610000Y-69843390D01*
X86610000Y-70804314D01*
X86605606Y-70799920D01*
X86514394Y-70747259D01*
X86412661Y-70720000D01*
X86307339Y-70720000D01*
X86205606Y-70747259D01*
X86114394Y-70799920D01*
X86110000Y-70804314D01*
X86110000Y-69843390D01*
X86055586Y-69852009D01*
X85860970Y-69915244D01*
X85678650Y-70008140D01*
X85513105Y-70128417D01*
X85513104Y-70128417D01*
X85368417Y-70273104D01*
X85368417Y-70273105D01*
X85248140Y-70438650D01*
X85155244Y-70620970D01*
X85092009Y-70815586D01*
X85083391Y-70870000D01*
X81780500Y-70870000D01*
X81780500Y-43804500D01*
X81800185Y-43737461D01*
X81852989Y-43691706D01*
X81904500Y-43680500D01*
X96944770Y-43680500D01*
X97011809Y-43700185D01*
G37*
%TD.AperFunction*%
%TA.AperFunction,Conductor*%
G36*
X86039920Y-63254394D02*
G01*
X85987259Y-63345606D01*
X85960000Y-63447339D01*
X85960000Y-63552661D01*
X85987259Y-63654394D01*
X86039920Y-63745606D01*
X86044314Y-63750000D01*
X84135686Y-63750000D01*
X84140080Y-63745606D01*
X84192741Y-63654394D01*
X84220000Y-63552661D01*
X84220000Y-63447339D01*
X84192741Y-63345606D01*
X84140080Y-63254394D01*
X84135686Y-63250000D01*
X86044314Y-63250000D01*
X86039920Y-63254394D01*
G37*
%TD.AperFunction*%
%TD*%
M02*
