M48
; DRILL file {KiCad 9.0.7} date 2026-05-27T21:55:42-0400
; FORMAT={-:-/ absolute / metric / decimal}
; #@! TF.CreationDate,2026-05-27T21:55:42-04:00
; #@! TF.GenerationSoftware,Kicad,Pcbnew,9.0.7
; #@! TF.FileFunction,MixedPlating,1,2
FMAT,2
METRIC
; #@! TA.AperFunction,Plated,PTH,ComponentDrill
T1C0.800
%
G90
G05
T1
X83.82Y-46.355
X83.82Y-48.895
X83.82Y-51.435
X83.82Y-53.975
X83.82Y-56.515
X83.82Y-59.055
X83.82Y-61.595
X83.82Y-64.135
X86.36Y-46.355
X86.36Y-48.895
X86.36Y-51.435
X86.36Y-53.975
X86.36Y-56.515
X86.36Y-59.055
X86.36Y-61.595
X86.36Y-64.135
X86.36Y-71.12
X88.9Y-71.12
X91.44Y-46.355
X91.44Y-48.895
X91.44Y-51.435
X91.44Y-53.975
X91.44Y-56.515
X91.44Y-59.055
X91.44Y-61.595
X91.44Y-64.135
X91.44Y-71.12
X93.98Y-46.355
X93.98Y-48.895
X93.98Y-51.435
X93.98Y-53.975
X93.98Y-56.515
X93.98Y-59.055
X93.98Y-61.595
X93.98Y-64.135
X93.98Y-71.12
X96.52Y-71.12
X98.425Y-46.355
X98.425Y-48.895
X98.425Y-51.435
X98.425Y-53.975
X98.425Y-56.515
X98.425Y-59.055
X98.425Y-61.595
X98.425Y-64.135
X99.06Y-71.12
X101.6Y-71.12
X104.14Y-71.12
X106.045Y-46.355
X106.045Y-48.895
X106.045Y-51.435
X106.045Y-53.975
X106.045Y-56.515
X106.045Y-59.055
X106.045Y-61.595
X106.045Y-64.135
X106.68Y-71.12
X109.22Y-71.12
X111.125Y-46.355
X112.014Y-55.539
X112.014Y-60.539
M30
