%TF.GenerationSoftware,KiCad,Pcbnew,9.0.7*%
%TF.CreationDate,2026-05-27T21:55:41-04:00*%
%TF.ProjectId,A2Relay,41325265-6c61-4792-9e6b-696361645f70,rev?*%
%TF.SameCoordinates,Original*%
%TF.FileFunction,Copper,L2,Bot*%
%TF.FilePolarity,Positive*%
%FSLAX46Y46*%
G04 Gerber Fmt 4.6, Leading zero omitted, Abs format (unit mm)*
G04 Created by KiCad (PCBNEW 9.0.7) date 2026-05-27 21:55:41*
%MOMM*%
%LPD*%
G01*
G04 APERTURE LIST*
%TA.AperFunction,ComponentPad*%
%ADD10O,1.600000X1.600000*%
%TD*%
%TA.AperFunction,ComponentPad*%
%ADD11C,1.600000*%
%TD*%
%TA.AperFunction,Conductor*%
%ADD12C,0.200000*%
%TD*%
%TA.AperFunction,Conductor*%
%ADD13C,0.400000*%
%TD*%
G04 APERTURE END LIST*
D10*
%TO.P,J1,1,Pin_1*%
%TO.N,+5V*%
X83820000Y-46355000D03*
%TO.P,J1,2,Pin_2*%
%TO.N,PB0*%
X83820000Y-48895000D03*
%TO.P,J1,3,Pin_3*%
%TO.N,PB1*%
X83820000Y-51435000D03*
%TO.P,J1,4,Pin_4*%
%TO.N,PB2*%
X83820000Y-53975000D03*
%TO.P,J1,5,Pin_5*%
%TO.N,{slash}STB*%
X83820000Y-56515000D03*
%TO.P,J1,6,Pin_6*%
%TO.N,PDL0*%
X83820000Y-59055000D03*
%TO.P,J1,7,Pin_7*%
%TO.N,PDL2*%
X83820000Y-61595000D03*
%TO.P,J1,8,Pin_8*%
%TO.N,GND*%
X83820000Y-64135000D03*
%TO.P,J1,9,Pin_9*%
%TO.N,PB3*%
X91440000Y-64135000D03*
%TO.P,J1,10,Pin_10*%
%TO.N,PDL1*%
X91440000Y-61595000D03*
%TO.P,J1,11,Pin_11*%
%TO.N,PDL3*%
X91440000Y-59055000D03*
%TO.P,J1,12,Pin_12*%
%TO.N,AN3*%
X91440000Y-56515000D03*
%TO.P,J1,13,Pin_13*%
%TO.N,AN2*%
X91440000Y-53975000D03*
%TO.P,J1,14,Pin_14*%
%TO.N,AN1*%
X91440000Y-51435000D03*
%TO.P,J1,15,Pin_15*%
%TO.N,AN0*%
X91440000Y-48895000D03*
%TO.P,J1,16,Pin_16*%
%TO.N,RESERVED*%
X91440000Y-46355000D03*
%TD*%
%TO.P,U1,1,Pin_1*%
%TO.N,AN0*%
X98425000Y-46355000D03*
%TO.P,U1,2,Pin_2*%
%TO.N,AN1*%
X98425000Y-48895000D03*
%TO.P,U1,3,Pin_3*%
%TO.N,AN2*%
X98425000Y-51435000D03*
%TO.P,U1,4,Pin_4*%
%TO.N,Q0*%
X98425000Y-53975000D03*
%TO.P,U1,5,Pin_5*%
%TO.N,Q1*%
X98425000Y-56515000D03*
%TO.P,U1,6,Pin_6*%
%TO.N,Q2*%
X98425000Y-59055000D03*
%TO.P,U1,7,Pin_7*%
%TO.N,Q3*%
X98425000Y-61595000D03*
%TO.P,U1,8,Pin_8*%
%TO.N,GND*%
X98425000Y-64135000D03*
%TO.P,U1,9,Pin_9*%
%TO.N,Q4*%
X106045000Y-64135000D03*
%TO.P,U1,10,Pin_10*%
%TO.N,Q5*%
X106045000Y-61595000D03*
%TO.P,U1,11,Pin_11*%
%TO.N,Q6*%
X106045000Y-59055000D03*
%TO.P,U1,12,Pin_12*%
%TO.N,Q7*%
X106045000Y-56515000D03*
%TO.P,U1,13,Pin_13*%
%TO.N,AN3*%
X106045000Y-53975000D03*
%TO.P,U1,14,Pin_14*%
%TO.N,{slash}STB*%
X106045000Y-51435000D03*
%TO.P,U1,15,Pin_15*%
%TO.N,{slash}RST*%
X106045000Y-48895000D03*
%TO.P,U1,16,Pin_16*%
%TO.N,+5V*%
X106045000Y-46355000D03*
%TD*%
%TO.P,J4,1,Pin_1*%
%TO.N,GND*%
X86360000Y-71120000D03*
%TO.P,J4,2,Pin_2*%
%TO.N,Q0*%
X88900000Y-71120000D03*
%TO.P,J4,3,Pin_3*%
%TO.N,Q1*%
X91440000Y-71120000D03*
%TO.P,J4,4,Pin_4*%
%TO.N,Q2*%
X93980000Y-71120000D03*
%TO.P,J4,5,Pin_5*%
%TO.N,Q3*%
X96520000Y-71120000D03*
%TO.P,J4,6,Pin_6*%
%TO.N,Q4*%
X99060000Y-71120000D03*
%TO.P,J4,7,Pin_7*%
%TO.N,Q5*%
X101600000Y-71120000D03*
%TO.P,J4,8,Pin_8*%
%TO.N,Q6*%
X104140000Y-71120000D03*
%TO.P,J4,9,Pin_9*%
%TO.N,Q7*%
X106680000Y-71120000D03*
%TO.P,J4,10,Pin_10*%
%TO.N,+5V*%
X109220000Y-71120000D03*
%TD*%
%TO.P,J2,1,Pin_1*%
%TO.N,+5V*%
X86360000Y-46355000D03*
%TO.P,J2,2,Pin_2*%
%TO.N,PB0*%
X86360000Y-48895000D03*
%TO.P,J2,3,Pin_3*%
%TO.N,PB1*%
X86360000Y-51435000D03*
%TO.P,J2,4,Pin_4*%
%TO.N,PB2*%
X86360000Y-53975000D03*
%TO.P,J2,5,Pin_5*%
%TO.N,{slash}STB*%
X86360000Y-56515000D03*
%TO.P,J2,6,Pin_6*%
%TO.N,PDL0*%
X86360000Y-59055000D03*
%TO.P,J2,7,Pin_7*%
%TO.N,PDL2*%
X86360000Y-61595000D03*
%TO.P,J2,8,Pin_8*%
%TO.N,GND*%
X86360000Y-64135000D03*
%TO.P,J2,9,Pin_9*%
%TO.N,PB3*%
X93980000Y-64135000D03*
%TO.P,J2,10,Pin_10*%
%TO.N,PDL1*%
X93980000Y-61595000D03*
%TO.P,J2,11,Pin_11*%
%TO.N,PDL3*%
X93980000Y-59055000D03*
%TO.P,J2,12,Pin_12*%
%TO.N,AN3*%
X93980000Y-56515000D03*
%TO.P,J2,13,Pin_13*%
%TO.N,AN2*%
X93980000Y-53975000D03*
%TO.P,J2,14,Pin_14*%
%TO.N,AN1*%
X93980000Y-51435000D03*
%TO.P,J2,15,Pin_15*%
%TO.N,AN0*%
X93980000Y-48895000D03*
%TO.P,J2,16,Pin_16*%
%TO.N,RESERVED*%
X93980000Y-46355000D03*
%TD*%
%TO.P,J3,1,Pin_1*%
%TO.N,{slash}RST*%
X111125000Y-46355000D03*
%TD*%
D11*
%TO.P,C1,1*%
%TO.N,+5V*%
X112014000Y-55539000D03*
%TO.P,C1,2*%
%TO.N,GND*%
X112014000Y-60539000D03*
%TD*%
D12*
%TO.N,AN3*%
X93980000Y-56515000D02*
X95250000Y-55245000D01*
X104775000Y-55245000D02*
X106045000Y-53975000D01*
X95250000Y-55245000D02*
X104775000Y-55245000D01*
D13*
%TO.N,+5V*%
X109220000Y-58333000D02*
X109220000Y-71120000D01*
X112014000Y-55539000D02*
X109220000Y-58333000D01*
D12*
%TO.N,{slash}STB*%
X86360000Y-56515000D02*
X90170000Y-52705000D01*
X104775000Y-52705000D02*
X106045000Y-51435000D01*
X104775000Y-52705000D02*
X90170000Y-52705000D01*
%TO.N,{slash}RST*%
X106045000Y-48895000D02*
X108585000Y-46355000D01*
X108585000Y-46355000D02*
X111125000Y-46355000D01*
%TO.N,Q7*%
X106045000Y-56515000D02*
X108458000Y-58928000D01*
X108458000Y-69342000D02*
X106680000Y-71120000D01*
X108458000Y-58928000D02*
X108458000Y-69342000D01*
%TO.N,Q5*%
X107442000Y-65278000D02*
X107442000Y-62992000D01*
X101600000Y-71120000D02*
X107442000Y-65278000D01*
X107442000Y-62992000D02*
X106045000Y-61595000D01*
%TO.N,Q6*%
X106045000Y-59055000D02*
X107950000Y-60960000D01*
X107950000Y-60960000D02*
X107950000Y-67310000D01*
X107950000Y-67310000D02*
X104140000Y-71120000D01*
%TD*%
%TA.AperFunction,Conductor*%
%TO.N,GND*%
G36*
X86039920Y-63889394D02*
G01*
X85987259Y-63980606D01*
X85960000Y-64082339D01*
X85960000Y-64187661D01*
X85987259Y-64289394D01*
X86039920Y-64380606D01*
X86044314Y-64385000D01*
X84135686Y-64385000D01*
X84140080Y-64380606D01*
X84192741Y-64289394D01*
X84220000Y-64187661D01*
X84220000Y-64082339D01*
X84192741Y-63980606D01*
X84140080Y-63889394D01*
X84135686Y-63885000D01*
X86044314Y-63885000D01*
X86039920Y-63889394D01*
G37*
%TD.AperFunction*%
%TA.AperFunction,Conductor*%
G36*
X113742539Y-43700185D02*
G01*
X113788294Y-43752989D01*
X113799500Y-43804500D01*
X113799500Y-73035500D01*
X113779815Y-73102539D01*
X113727011Y-73148294D01*
X113675500Y-73159500D01*
X81904500Y-73159500D01*
X81837461Y-73139815D01*
X81791706Y-73087011D01*
X81780500Y-73035500D01*
X81780500Y-46252648D01*
X82519500Y-46252648D01*
X82519500Y-46457351D01*
X82551522Y-46659534D01*
X82614781Y-46854223D01*
X82707715Y-47036613D01*
X82828028Y-47202213D01*
X82972786Y-47346971D01*
X83127749Y-47459556D01*
X83138390Y-47467287D01*
X83229840Y-47513883D01*
X83231080Y-47514515D01*
X83281876Y-47562490D01*
X83298671Y-47630311D01*
X83276134Y-47696446D01*
X83231080Y-47735485D01*
X83138386Y-47782715D01*
X82972786Y-47903028D01*
X82828028Y-48047786D01*
X82707715Y-48213386D01*
X82614781Y-48395776D01*
X82551522Y-48590465D01*
X82519500Y-48792648D01*
X82519500Y-48997351D01*
X82551522Y-49199534D01*
X82614781Y-49394223D01*
X82707715Y-49576613D01*
X82828028Y-49742213D01*
X82972786Y-49886971D01*
X83127749Y-49999556D01*
X83138390Y-50007287D01*
X83229840Y-50053883D01*
X83231080Y-50054515D01*
X83281876Y-50102490D01*
X83298671Y-50170311D01*
X83276134Y-50236446D01*
X83231080Y-50275485D01*
X83138386Y-50322715D01*
X82972786Y-50443028D01*
X82828028Y-50587786D01*
X82707715Y-50753386D01*
X82614781Y-50935776D01*
X82551522Y-51130465D01*
X82519500Y-51332648D01*
X82519500Y-51537351D01*
X82551522Y-51739534D01*
X82614781Y-51934223D01*
X82678691Y-52059653D01*
X82699581Y-52100651D01*
X82707715Y-52116613D01*
X82828028Y-52282213D01*
X82972786Y-52426971D01*
X83127749Y-52539556D01*
X83138390Y-52547287D01*
X83229840Y-52593883D01*
X83231080Y-52594515D01*
X83281876Y-52642490D01*
X83298671Y-52710311D01*
X83276134Y-52776446D01*
X83231080Y-52815485D01*
X83138386Y-52862715D01*
X82972786Y-52983028D01*
X82828028Y-53127786D01*
X82707715Y-53293386D01*
X82614781Y-53475776D01*
X82551522Y-53670465D01*
X82519500Y-53872648D01*
X82519500Y-54077351D01*
X82551522Y-54279534D01*
X82614781Y-54474223D01*
X82707715Y-54656613D01*
X82828028Y-54822213D01*
X82972786Y-54966971D01*
X83127749Y-55079556D01*
X83138390Y-55087287D01*
X83229840Y-55133883D01*
X83231080Y-55134515D01*
X83281876Y-55182490D01*
X83298671Y-55250311D01*
X83276134Y-55316446D01*
X83231080Y-55355485D01*
X83138386Y-55402715D01*
X82972786Y-55523028D01*
X82828028Y-55667786D01*
X82707715Y-55833386D01*
X82614781Y-56015776D01*
X82551522Y-56210465D01*
X82519500Y-56412648D01*
X82519500Y-56617351D01*
X82551522Y-56819534D01*
X82614781Y-57014223D01*
X82707715Y-57196613D01*
X82828028Y-57362213D01*
X82972786Y-57506971D01*
X83127749Y-57619556D01*
X83138390Y-57627287D01*
X83229840Y-57673883D01*
X83231080Y-57674515D01*
X83281876Y-57722490D01*
X83298671Y-57790311D01*
X83276134Y-57856446D01*
X83231080Y-57895485D01*
X83138386Y-57942715D01*
X82972786Y-58063028D01*
X82828028Y-58207786D01*
X82707715Y-58373386D01*
X82614781Y-58555776D01*
X82551522Y-58750465D01*
X82519500Y-58952648D01*
X82519500Y-59157351D01*
X82551522Y-59359534D01*
X82614781Y-59554223D01*
X82707715Y-59736613D01*
X82828028Y-59902213D01*
X82972786Y-60046971D01*
X83099456Y-60139000D01*
X83138390Y-60167287D01*
X83229840Y-60213883D01*
X83231080Y-60214515D01*
X83281876Y-60262490D01*
X83298671Y-60330311D01*
X83276134Y-60396446D01*
X83231080Y-60435485D01*
X83138386Y-60482715D01*
X82972786Y-60603028D01*
X82828028Y-60747786D01*
X82707715Y-60913386D01*
X82614781Y-61095776D01*
X82551522Y-61290465D01*
X82519500Y-61492648D01*
X82519500Y-61697351D01*
X82551522Y-61899534D01*
X82614781Y-62094223D01*
X82707715Y-62276613D01*
X82828028Y-62442213D01*
X82972786Y-62586971D01*
X83127749Y-62699556D01*
X83138390Y-62707287D01*
X83210424Y-62743990D01*
X83231629Y-62754795D01*
X83282425Y-62802770D01*
X83299220Y-62870591D01*
X83276682Y-62936726D01*
X83231629Y-62975765D01*
X83138650Y-63023140D01*
X82973105Y-63143417D01*
X82973104Y-63143417D01*
X82828417Y-63288104D01*
X82828417Y-63288105D01*
X82708140Y-63453650D01*
X82615244Y-63635970D01*
X82552009Y-63830586D01*
X82543391Y-63885000D01*
X83504314Y-63885000D01*
X83499920Y-63889394D01*
X83447259Y-63980606D01*
X83420000Y-64082339D01*
X83420000Y-64187661D01*
X83447259Y-64289394D01*
X83499920Y-64380606D01*
X83504314Y-64385000D01*
X82543391Y-64385000D01*
X82552009Y-64439413D01*
X82615244Y-64634029D01*
X82708140Y-64816349D01*
X82828417Y-64981894D01*
X82828417Y-64981895D01*
X82973104Y-65126582D01*
X83138650Y-65246859D01*
X83320968Y-65339754D01*
X83515578Y-65402988D01*
X83570000Y-65411607D01*
X83570000Y-64450686D01*
X83574394Y-64455080D01*
X83665606Y-64507741D01*
X83767339Y-64535000D01*
X83872661Y-64535000D01*
X83974394Y-64507741D01*
X84065606Y-64455080D01*
X84070000Y-64450686D01*
X84070000Y-65411606D01*
X84124421Y-65402988D01*
X84319031Y-65339754D01*
X84501349Y-65246859D01*
X84666894Y-65126582D01*
X84666895Y-65126582D01*
X84811582Y-64981895D01*
X84811582Y-64981894D01*
X84931859Y-64816349D01*
X84979515Y-64722820D01*
X85027489Y-64672024D01*
X85095310Y-64655229D01*
X85161445Y-64677766D01*
X85200485Y-64722820D01*
X85248140Y-64816349D01*
X85368417Y-64981894D01*
X85368417Y-64981895D01*
X85513104Y-65126582D01*
X85678650Y-65246859D01*
X85860968Y-65339754D01*
X86055578Y-65402988D01*
X86110000Y-65411607D01*
X86110000Y-64450686D01*
X86114394Y-64455080D01*
X86205606Y-64507741D01*
X86307339Y-64535000D01*
X86412661Y-64535000D01*
X86514394Y-64507741D01*
X86605606Y-64455080D01*
X86610000Y-64450686D01*
X86610000Y-65411606D01*
X86664421Y-65402988D01*
X86859031Y-65339754D01*
X87041349Y-65246859D01*
X87206894Y-65126582D01*
X87206895Y-65126582D01*
X87351582Y-64981895D01*
X87351582Y-64981894D01*
X87471859Y-64816349D01*
X87564755Y-64634029D01*
X87627990Y-64439413D01*
X87636609Y-64385000D01*
X86675686Y-64385000D01*
X86680080Y-64380606D01*
X86732741Y-64289394D01*
X86760000Y-64187661D01*
X86760000Y-64082339D01*
X86732741Y-63980606D01*
X86680080Y-63889394D01*
X86675686Y-63885000D01*
X87636609Y-63885000D01*
X87627990Y-63830586D01*
X87564755Y-63635970D01*
X87471859Y-63453650D01*
X87351582Y-63288105D01*
X87351582Y-63288104D01*
X87206895Y-63143417D01*
X87041349Y-63023140D01*
X86948370Y-62975765D01*
X86897574Y-62927790D01*
X86880779Y-62859969D01*
X86903316Y-62793835D01*
X86948370Y-62754795D01*
X86948920Y-62754515D01*
X87041610Y-62707287D01*
X87062770Y-62691913D01*
X87207213Y-62586971D01*
X87207215Y-62586968D01*
X87207219Y-62586966D01*
X87351966Y-62442219D01*
X87351968Y-62442215D01*
X87351971Y-62442213D01*
X87404732Y-62369590D01*
X87472287Y-62276610D01*
X87565220Y-62094219D01*
X87628477Y-61899534D01*
X87660500Y-61697352D01*
X87660500Y-61492648D01*
X87628477Y-61290466D01*
X87565220Y-61095781D01*
X87565218Y-61095778D01*
X87565218Y-61095776D01*
X87519515Y-61006080D01*
X87472287Y-60913390D01*
X87432829Y-60859080D01*
X87351971Y-60747786D01*
X87207213Y-60603028D01*
X87041614Y-60482715D01*
X87035006Y-60479348D01*
X86948917Y-60435483D01*
X86898123Y-60387511D01*
X86881328Y-60319690D01*
X86903865Y-60253555D01*
X86948917Y-60214516D01*
X87041610Y-60167287D01*
X87080544Y-60139000D01*
X87207213Y-60046971D01*
X87207215Y-60046968D01*
X87207219Y-60046966D01*
X87351966Y-59902219D01*
X87351968Y-59902215D01*
X87351971Y-59902213D01*
X87436445Y-59785942D01*
X87472287Y-59736610D01*
X87565220Y-59554219D01*
X87628477Y-59359534D01*
X87660500Y-59157352D01*
X87660500Y-58952648D01*
X87648426Y-58876416D01*
X87628477Y-58750465D01*
X87582018Y-58607479D01*
X87565220Y-58555781D01*
X87565218Y-58555778D01*
X87565218Y-58555776D01*
X87519515Y-58466080D01*
X87472287Y-58373390D01*
X87464556Y-58362749D01*
X87351971Y-58207786D01*
X87207213Y-58063028D01*
X87041614Y-57942715D01*
X87035006Y-57939348D01*
X86948917Y-57895483D01*
X86898123Y-57847511D01*
X86881328Y-57779690D01*
X86903865Y-57713555D01*
X86948917Y-57674516D01*
X87041610Y-57627287D01*
X87062770Y-57611913D01*
X87207213Y-57506971D01*
X87207215Y-57506968D01*
X87207219Y-57506966D01*
X87351966Y-57362219D01*
X87351968Y-57362215D01*
X87351971Y-57362213D01*
X87404732Y-57289590D01*
X87472287Y-57196610D01*
X87565220Y-57014219D01*
X87628477Y-56819534D01*
X87660500Y-56617352D01*
X87660500Y-56412648D01*
X87628477Y-56210466D01*
X87623825Y-56196151D01*
X87621832Y-56126312D01*
X87654075Y-56070158D01*
X89927820Y-53796413D01*
X89989142Y-53762930D01*
X90058834Y-53767914D01*
X90114767Y-53809786D01*
X90139184Y-53875250D01*
X90139500Y-53884096D01*
X90139500Y-54077351D01*
X90171522Y-54279534D01*
X90234781Y-54474223D01*
X90327715Y-54656613D01*
X90448028Y-54822213D01*
X90592786Y-54966971D01*
X90747749Y-55079556D01*
X90758390Y-55087287D01*
X90849840Y-55133883D01*
X90851080Y-55134515D01*
X90901876Y-55182490D01*
X90918671Y-55250311D01*
X90896134Y-55316446D01*
X90851080Y-55355485D01*
X90758386Y-55402715D01*
X90592786Y-55523028D01*
X90448028Y-55667786D01*
X90327715Y-55833386D01*
X90234781Y-56015776D01*
X90171522Y-56210465D01*
X90139500Y-56412648D01*
X90139500Y-56617351D01*
X90171522Y-56819534D01*
X90234781Y-57014223D01*
X90327715Y-57196613D01*
X90448028Y-57362213D01*
X90592786Y-57506971D01*
X90747749Y-57619556D01*
X90758390Y-57627287D01*
X90849840Y-57673883D01*
X90851080Y-57674515D01*
X90901876Y-57722490D01*
X90918671Y-57790311D01*
X90896134Y-57856446D01*
X90851080Y-57895485D01*
X90758386Y-57942715D01*
X90592786Y-58063028D01*
X90448028Y-58207786D01*
X90327715Y-58373386D01*
X90234781Y-58555776D01*
X90171522Y-58750465D01*
X90139500Y-58952648D01*
X90139500Y-59157351D01*
X90171522Y-59359534D01*
X90234781Y-59554223D01*
X90327715Y-59736613D01*
X90448028Y-59902213D01*
X90592786Y-60046971D01*
X90719456Y-60139000D01*
X90758390Y-60167287D01*
X90849840Y-60213883D01*
X90851080Y-60214515D01*
X90901876Y-60262490D01*
X90918671Y-60330311D01*
X90896134Y-60396446D01*
X90851080Y-60435485D01*
X90758386Y-60482715D01*
X90592786Y-60603028D01*
X90448028Y-60747786D01*
X90327715Y-60913386D01*
X90234781Y-61095776D01*
X90171522Y-61290465D01*
X90139500Y-61492648D01*
X90139500Y-61697351D01*
X90171522Y-61899534D01*
X90234781Y-62094223D01*
X90327715Y-62276613D01*
X90448028Y-62442213D01*
X90592786Y-62586971D01*
X90747749Y-62699556D01*
X90758390Y-62707287D01*
X90849840Y-62753883D01*
X90851080Y-62754515D01*
X90901876Y-62802490D01*
X90918671Y-62870311D01*
X90896134Y-62936446D01*
X90851080Y-62975485D01*
X90758386Y-63022715D01*
X90592786Y-63143028D01*
X90448028Y-63287786D01*
X90327715Y-63453386D01*
X90234781Y-63635776D01*
X90171522Y-63830465D01*
X90139500Y-64032648D01*
X90139500Y-64237351D01*
X90171522Y-64439534D01*
X90234781Y-64634223D01*
X90327715Y-64816613D01*
X90448028Y-64982213D01*
X90592786Y-65126971D01*
X90747749Y-65239556D01*
X90758390Y-65247287D01*
X90874607Y-65306503D01*
X90940776Y-65340218D01*
X90940778Y-65340218D01*
X90940781Y-65340220D01*
X91045137Y-65374127D01*
X91135465Y-65403477D01*
X91236557Y-65419488D01*
X91337648Y-65435500D01*
X91337649Y-65435500D01*
X91542351Y-65435500D01*
X91542352Y-65435500D01*
X91744534Y-65403477D01*
X91939219Y-65340220D01*
X92121610Y-65247287D01*
X92214590Y-65179732D01*
X92287213Y-65126971D01*
X92287215Y-65126968D01*
X92287219Y-65126966D01*
X92431966Y-64982219D01*
X92431968Y-64982215D01*
X92431971Y-64982213D01*
X92552284Y-64816614D01*
X92552285Y-64816613D01*
X92552287Y-64816610D01*
X92599516Y-64723917D01*
X92647489Y-64673123D01*
X92715310Y-64656328D01*
X92781445Y-64678865D01*
X92820485Y-64723919D01*
X92867715Y-64816614D01*
X92988028Y-64982213D01*
X93132786Y-65126971D01*
X93287749Y-65239556D01*
X93298390Y-65247287D01*
X93414607Y-65306503D01*
X93480776Y-65340218D01*
X93480778Y-65340218D01*
X93480781Y-65340220D01*
X93585137Y-65374127D01*
X93675465Y-65403477D01*
X93776557Y-65419488D01*
X93877648Y-65435500D01*
X93877649Y-65435500D01*
X94082351Y-65435500D01*
X94082352Y-65435500D01*
X94284534Y-65403477D01*
X94479219Y-65340220D01*
X94661610Y-65247287D01*
X94754590Y-65179732D01*
X94827213Y-65126971D01*
X94827215Y-65126968D01*
X94827219Y-65126966D01*
X94971966Y-64982219D01*
X94971968Y-64982215D01*
X94971971Y-64982213D01*
X95024732Y-64909590D01*
X95092287Y-64816610D01*
X95185220Y-64634219D01*
X95248477Y-64439534D01*
X95280500Y-64237352D01*
X95280500Y-64032648D01*
X95272257Y-63980606D01*
X95248477Y-63830465D01*
X95185218Y-63635776D01*
X95092419Y-63453650D01*
X95092287Y-63453390D01*
X95084556Y-63442749D01*
X94971971Y-63287786D01*
X94827213Y-63143028D01*
X94661614Y-63022715D01*
X94655006Y-63019348D01*
X94568917Y-62975483D01*
X94518123Y-62927511D01*
X94501328Y-62859690D01*
X94523865Y-62793555D01*
X94568917Y-62754516D01*
X94661610Y-62707287D01*
X94682770Y-62691913D01*
X94827213Y-62586971D01*
X94827215Y-62586968D01*
X94827219Y-62586966D01*
X94971966Y-62442219D01*
X94971968Y-62442215D01*
X94971971Y-62442213D01*
X95024732Y-62369590D01*
X95092287Y-62276610D01*
X95185220Y-62094219D01*
X95248477Y-61899534D01*
X95280500Y-61697352D01*
X95280500Y-61492648D01*
X95248477Y-61290466D01*
X95185220Y-61095781D01*
X95185218Y-61095778D01*
X95185218Y-61095776D01*
X95139515Y-61006080D01*
X95092287Y-60913390D01*
X95052829Y-60859080D01*
X94971971Y-60747786D01*
X94827213Y-60603028D01*
X94661614Y-60482715D01*
X94655006Y-60479348D01*
X94568917Y-60435483D01*
X94518123Y-60387511D01*
X94501328Y-60319690D01*
X94523865Y-60253555D01*
X94568917Y-60214516D01*
X94661610Y-60167287D01*
X94700544Y-60139000D01*
X94827213Y-60046971D01*
X94827215Y-60046968D01*
X94827219Y-60046966D01*
X94971966Y-59902219D01*
X94971968Y-59902215D01*
X94971971Y-59902213D01*
X95056445Y-59785942D01*
X95092287Y-59736610D01*
X95185220Y-59554219D01*
X95248477Y-59359534D01*
X95280500Y-59157352D01*
X95280500Y-58952648D01*
X95268426Y-58876416D01*
X95248477Y-58750465D01*
X95202018Y-58607479D01*
X95185220Y-58555781D01*
X95185218Y-58555778D01*
X95185218Y-58555776D01*
X95139515Y-58466080D01*
X95092287Y-58373390D01*
X95084556Y-58362749D01*
X94971971Y-58207786D01*
X94827213Y-58063028D01*
X94661614Y-57942715D01*
X94655006Y-57939348D01*
X94568917Y-57895483D01*
X94518123Y-57847511D01*
X94501328Y-57779690D01*
X94523865Y-57713555D01*
X94568917Y-57674516D01*
X94661610Y-57627287D01*
X94682770Y-57611913D01*
X94827213Y-57506971D01*
X94827215Y-57506968D01*
X94827219Y-57506966D01*
X94971966Y-57362219D01*
X94971968Y-57362215D01*
X94971971Y-57362213D01*
X95024732Y-57289590D01*
X95092287Y-57196610D01*
X95185220Y-57014219D01*
X95248477Y-56819534D01*
X95280500Y-56617352D01*
X95280500Y-56412648D01*
X95248477Y-56210466D01*
X95243826Y-56196154D01*
X95241832Y-56126315D01*
X95274077Y-56070157D01*
X95367359Y-55976876D01*
X95462416Y-55881819D01*
X95523739Y-55848334D01*
X95550097Y-55845500D01*
X97104734Y-55845500D01*
X97171773Y-55865185D01*
X97217528Y-55917989D01*
X97227472Y-55987147D01*
X97220919Y-56011029D01*
X97221286Y-56011148D01*
X97219781Y-56015777D01*
X97219780Y-56015781D01*
X97202112Y-56070157D01*
X97156522Y-56210465D01*
X97124500Y-56412648D01*
X97124500Y-56617351D01*
X97156522Y-56819534D01*
X97219781Y-57014223D01*
X97312715Y-57196613D01*
X97433028Y-57362213D01*
X97577786Y-57506971D01*
X97732749Y-57619556D01*
X97743390Y-57627287D01*
X97834840Y-57673883D01*
X97836080Y-57674515D01*
X97886876Y-57722490D01*
X97903671Y-57790311D01*
X97881134Y-57856446D01*
X97836080Y-57895485D01*
X97743386Y-57942715D01*
X97577786Y-58063028D01*
X97433028Y-58207786D01*
X97312715Y-58373386D01*
X97219781Y-58555776D01*
X97156522Y-58750465D01*
X97124500Y-58952648D01*
X97124500Y-59157351D01*
X97156522Y-59359534D01*
X97219781Y-59554223D01*
X97312715Y-59736613D01*
X97433028Y-59902213D01*
X97577786Y-60046971D01*
X97704456Y-60139000D01*
X97743390Y-60167287D01*
X97834840Y-60213883D01*
X97836080Y-60214515D01*
X97886876Y-60262490D01*
X97903671Y-60330311D01*
X97881134Y-60396446D01*
X97836080Y-60435485D01*
X97743386Y-60482715D01*
X97577786Y-60603028D01*
X97433028Y-60747786D01*
X97312715Y-60913386D01*
X97219781Y-61095776D01*
X97156522Y-61290465D01*
X97124500Y-61492648D01*
X97124500Y-61697351D01*
X97156522Y-61899534D01*
X97219781Y-62094223D01*
X97312715Y-62276613D01*
X97433028Y-62442213D01*
X97577786Y-62586971D01*
X97732749Y-62699556D01*
X97743390Y-62707287D01*
X97815424Y-62743990D01*
X97836629Y-62754795D01*
X97887425Y-62802770D01*
X97904220Y-62870591D01*
X97881682Y-62936726D01*
X97836629Y-62975765D01*
X97743650Y-63023140D01*
X97578105Y-63143417D01*
X97578104Y-63143417D01*
X97433417Y-63288104D01*
X97433417Y-63288105D01*
X97313140Y-63453650D01*
X97220244Y-63635970D01*
X97157009Y-63830586D01*
X97148391Y-63885000D01*
X98109314Y-63885000D01*
X98104920Y-63889394D01*
X98052259Y-63980606D01*
X98025000Y-64082339D01*
X98025000Y-64187661D01*
X98052259Y-64289394D01*
X98104920Y-64380606D01*
X98109314Y-64385000D01*
X97148391Y-64385000D01*
X97157009Y-64439413D01*
X97220244Y-64634029D01*
X97313140Y-64816349D01*
X97433417Y-64981894D01*
X97433417Y-64981895D01*
X97578104Y-65126582D01*
X97743650Y-65246859D01*
X97925968Y-65339754D01*
X98120578Y-65402988D01*
X98175000Y-65411607D01*
X98175000Y-64450686D01*
X98179394Y-64455080D01*
X98270606Y-64507741D01*
X98372339Y-64535000D01*
X98477661Y-64535000D01*
X98579394Y-64507741D01*
X98670606Y-64455080D01*
X98675000Y-64450686D01*
X98675000Y-65411606D01*
X98729421Y-65402988D01*
X98924031Y-65339754D01*
X99106349Y-65246859D01*
X99271894Y-65126582D01*
X99271895Y-65126582D01*
X99416582Y-64981895D01*
X99416582Y-64981894D01*
X99536859Y-64816349D01*
X99629755Y-64634029D01*
X99692990Y-64439413D01*
X99701609Y-64385000D01*
X98740686Y-64385000D01*
X98745080Y-64380606D01*
X98797741Y-64289394D01*
X98825000Y-64187661D01*
X98825000Y-64082339D01*
X98797741Y-63980606D01*
X98745080Y-63889394D01*
X98740686Y-63885000D01*
X99701609Y-63885000D01*
X99692990Y-63830586D01*
X99629755Y-63635970D01*
X99536859Y-63453650D01*
X99416582Y-63288105D01*
X99416582Y-63288104D01*
X99271895Y-63143417D01*
X99106349Y-63023140D01*
X99013370Y-62975765D01*
X98962574Y-62927790D01*
X98945779Y-62859969D01*
X98968316Y-62793835D01*
X99013370Y-62754795D01*
X99013920Y-62754515D01*
X99106610Y-62707287D01*
X99127770Y-62691913D01*
X99272213Y-62586971D01*
X99272215Y-62586968D01*
X99272219Y-62586966D01*
X99416966Y-62442219D01*
X99416968Y-62442215D01*
X99416971Y-62442213D01*
X99469732Y-62369590D01*
X99537287Y-62276610D01*
X99630220Y-62094219D01*
X99693477Y-61899534D01*
X99725500Y-61697352D01*
X99725500Y-61492648D01*
X99693477Y-61290466D01*
X99630220Y-61095781D01*
X99630218Y-61095778D01*
X99630218Y-61095776D01*
X99584515Y-61006080D01*
X99537287Y-60913390D01*
X99497829Y-60859080D01*
X99416971Y-60747786D01*
X99272213Y-60603028D01*
X99106614Y-60482715D01*
X99100006Y-60479348D01*
X99013917Y-60435483D01*
X98963123Y-60387511D01*
X98946328Y-60319690D01*
X98968865Y-60253555D01*
X99013917Y-60214516D01*
X99106610Y-60167287D01*
X99145544Y-60139000D01*
X99272213Y-60046971D01*
X99272215Y-60046968D01*
X99272219Y-60046966D01*
X99416966Y-59902219D01*
X99416968Y-59902215D01*
X99416971Y-59902213D01*
X99501445Y-59785942D01*
X99537287Y-59736610D01*
X99630220Y-59554219D01*
X99693477Y-59359534D01*
X99725500Y-59157352D01*
X99725500Y-58952648D01*
X99713426Y-58876416D01*
X99693477Y-58750465D01*
X99647018Y-58607479D01*
X99630220Y-58555781D01*
X99630218Y-58555778D01*
X99630218Y-58555776D01*
X99584515Y-58466080D01*
X99537287Y-58373390D01*
X99529556Y-58362749D01*
X99416971Y-58207786D01*
X99272213Y-58063028D01*
X99106614Y-57942715D01*
X99100006Y-57939348D01*
X99013917Y-57895483D01*
X98963123Y-57847511D01*
X98946328Y-57779690D01*
X98968865Y-57713555D01*
X99013917Y-57674516D01*
X99106610Y-57627287D01*
X99127770Y-57611913D01*
X99272213Y-57506971D01*
X99272215Y-57506968D01*
X99272219Y-57506966D01*
X99416966Y-57362219D01*
X99416968Y-57362215D01*
X99416971Y-57362213D01*
X99469732Y-57289590D01*
X99537287Y-57196610D01*
X99630220Y-57014219D01*
X99693477Y-56819534D01*
X99725500Y-56617352D01*
X99725500Y-56412648D01*
X99693478Y-56210472D01*
X99693477Y-56210465D01*
X99665346Y-56123888D01*
X99630220Y-56015781D01*
X99630218Y-56015777D01*
X99628714Y-56011148D01*
X99630035Y-56010718D01*
X99623236Y-55947486D01*
X99654509Y-55885006D01*
X99714597Y-55849352D01*
X99745266Y-55845500D01*
X104688334Y-55845500D01*
X104695939Y-55845500D01*
X104695943Y-55845501D01*
X104724736Y-55845501D01*
X104783791Y-55862842D01*
X104791768Y-55865185D01*
X104791775Y-55865187D01*
X104827492Y-55906409D01*
X104837527Y-55917990D01*
X104837529Y-55917993D01*
X104841768Y-55947486D01*
X104847471Y-55987148D01*
X104840920Y-56011029D01*
X104841286Y-56011148D01*
X104839781Y-56015777D01*
X104839780Y-56015781D01*
X104822112Y-56070157D01*
X104776522Y-56210465D01*
X104744500Y-56412648D01*
X104744500Y-56617351D01*
X104776522Y-56819534D01*
X104839781Y-57014223D01*
X104932715Y-57196613D01*
X105053028Y-57362213D01*
X105197786Y-57506971D01*
X105352749Y-57619556D01*
X105363390Y-57627287D01*
X105454840Y-57673883D01*
X105456080Y-57674515D01*
X105506876Y-57722490D01*
X105523671Y-57790311D01*
X105501134Y-57856446D01*
X105456080Y-57895485D01*
X105363386Y-57942715D01*
X105197786Y-58063028D01*
X105053028Y-58207786D01*
X104932715Y-58373386D01*
X104839781Y-58555776D01*
X104776522Y-58750465D01*
X104744500Y-58952648D01*
X104744500Y-59157351D01*
X104776522Y-59359534D01*
X104839781Y-59554223D01*
X104932715Y-59736613D01*
X105053028Y-59902213D01*
X105197786Y-60046971D01*
X105324456Y-60139000D01*
X105363390Y-60167287D01*
X105454840Y-60213883D01*
X105456080Y-60214515D01*
X105506876Y-60262490D01*
X105523671Y-60330311D01*
X105501134Y-60396446D01*
X105456080Y-60435485D01*
X105363386Y-60482715D01*
X105197786Y-60603028D01*
X105053028Y-60747786D01*
X104932715Y-60913386D01*
X104839781Y-61095776D01*
X104776522Y-61290465D01*
X104744500Y-61492648D01*
X104744500Y-61697351D01*
X104776522Y-61899534D01*
X104839781Y-62094223D01*
X104932715Y-62276613D01*
X105053028Y-62442213D01*
X105197786Y-62586971D01*
X105352749Y-62699556D01*
X105363390Y-62707287D01*
X105454840Y-62753883D01*
X105456080Y-62754515D01*
X105506876Y-62802490D01*
X105523671Y-62870311D01*
X105501134Y-62936446D01*
X105456080Y-62975485D01*
X105363386Y-63022715D01*
X105197786Y-63143028D01*
X105053028Y-63287786D01*
X104932715Y-63453386D01*
X104839781Y-63635776D01*
X104776522Y-63830465D01*
X104744500Y-64032648D01*
X104744500Y-64237351D01*
X104776522Y-64439534D01*
X104839781Y-64634223D01*
X104932715Y-64816613D01*
X105053028Y-64982213D01*
X105197786Y-65126971D01*
X105352749Y-65239556D01*
X105363390Y-65247287D01*
X105479607Y-65306503D01*
X105545776Y-65340218D01*
X105545778Y-65340218D01*
X105545781Y-65340220D01*
X105650137Y-65374127D01*
X105740465Y-65403477D01*
X105841557Y-65419488D01*
X105942648Y-65435500D01*
X105942649Y-65435500D01*
X106135901Y-65435500D01*
X106202940Y-65455185D01*
X106248695Y-65507989D01*
X106258639Y-65577147D01*
X106229614Y-65640703D01*
X106223582Y-65647181D01*
X102044842Y-69825921D01*
X101983519Y-69859406D01*
X101918848Y-69856173D01*
X101904534Y-69851522D01*
X101729995Y-69823878D01*
X101702352Y-69819500D01*
X101497648Y-69819500D01*
X101473329Y-69823351D01*
X101295465Y-69851522D01*
X101100776Y-69914781D01*
X100918386Y-70007715D01*
X100752786Y-70128028D01*
X100608028Y-70272786D01*
X100487715Y-70438386D01*
X100440485Y-70531080D01*
X100392510Y-70581876D01*
X100324689Y-70598671D01*
X100258554Y-70576134D01*
X100219515Y-70531080D01*
X100172419Y-70438650D01*
X100172287Y-70438390D01*
X100164556Y-70427749D01*
X100051971Y-70272786D01*
X99907213Y-70128028D01*
X99741613Y-70007715D01*
X99741612Y-70007714D01*
X99741610Y-70007713D01*
X99684653Y-69978691D01*
X99559223Y-69914781D01*
X99364534Y-69851522D01*
X99189995Y-69823878D01*
X99162352Y-69819500D01*
X98957648Y-69819500D01*
X98933329Y-69823351D01*
X98755465Y-69851522D01*
X98560776Y-69914781D01*
X98378386Y-70007715D01*
X98212786Y-70128028D01*
X98068028Y-70272786D01*
X97947715Y-70438386D01*
X97900485Y-70531080D01*
X97852510Y-70581876D01*
X97784689Y-70598671D01*
X97718554Y-70576134D01*
X97679515Y-70531080D01*
X97632419Y-70438650D01*
X97632287Y-70438390D01*
X97624556Y-70427749D01*
X97511971Y-70272786D01*
X97367213Y-70128028D01*
X97201613Y-70007715D01*
X97201612Y-70007714D01*
X97201610Y-70007713D01*
X97144653Y-69978691D01*
X97019223Y-69914781D01*
X96824534Y-69851522D01*
X96649995Y-69823878D01*
X96622352Y-69819500D01*
X96417648Y-69819500D01*
X96393329Y-69823351D01*
X96215465Y-69851522D01*
X96020776Y-69914781D01*
X95838386Y-70007715D01*
X95672786Y-70128028D01*
X95528028Y-70272786D01*
X95407715Y-70438386D01*
X95360485Y-70531080D01*
X95312510Y-70581876D01*
X95244689Y-70598671D01*
X95178554Y-70576134D01*
X95139515Y-70531080D01*
X95092419Y-70438650D01*
X95092287Y-70438390D01*
X95084556Y-70427749D01*
X94971971Y-70272786D01*
X94827213Y-70128028D01*
X94661613Y-70007715D01*
X94661612Y-70007714D01*
X94661610Y-70007713D01*
X94604653Y-69978691D01*
X94479223Y-69914781D01*
X94284534Y-69851522D01*
X94109995Y-69823878D01*
X94082352Y-69819500D01*
X93877648Y-69819500D01*
X93853329Y-69823351D01*
X93675465Y-69851522D01*
X93480776Y-69914781D01*
X93298386Y-70007715D01*
X93132786Y-70128028D01*
X92988028Y-70272786D01*
X92867715Y-70438386D01*
X92820485Y-70531080D01*
X92772510Y-70581876D01*
X92704689Y-70598671D01*
X92638554Y-70576134D01*
X92599515Y-70531080D01*
X92552419Y-70438650D01*
X92552287Y-70438390D01*
X92544556Y-70427749D01*
X92431971Y-70272786D01*
X92287213Y-70128028D01*
X92121613Y-70007715D01*
X92121612Y-70007714D01*
X92121610Y-70007713D01*
X92064653Y-69978691D01*
X91939223Y-69914781D01*
X91744534Y-69851522D01*
X91569995Y-69823878D01*
X91542352Y-69819500D01*
X91337648Y-69819500D01*
X91313329Y-69823351D01*
X91135465Y-69851522D01*
X90940776Y-69914781D01*
X90758386Y-70007715D01*
X90592786Y-70128028D01*
X90448028Y-70272786D01*
X90327715Y-70438386D01*
X90280485Y-70531080D01*
X90232510Y-70581876D01*
X90164689Y-70598671D01*
X90098554Y-70576134D01*
X90059515Y-70531080D01*
X90012419Y-70438650D01*
X90012287Y-70438390D01*
X90004556Y-70427749D01*
X89891971Y-70272786D01*
X89747213Y-70128028D01*
X89581613Y-70007715D01*
X89581612Y-70007714D01*
X89581610Y-70007713D01*
X89524653Y-69978691D01*
X89399223Y-69914781D01*
X89204534Y-69851522D01*
X89029995Y-69823878D01*
X89002352Y-69819500D01*
X88797648Y-69819500D01*
X88773329Y-69823351D01*
X88595465Y-69851522D01*
X88400776Y-69914781D01*
X88218386Y-70007715D01*
X88052786Y-70128028D01*
X87908028Y-70272786D01*
X87787713Y-70438388D01*
X87740203Y-70531630D01*
X87692228Y-70582426D01*
X87624407Y-70599220D01*
X87558272Y-70576682D01*
X87519234Y-70531628D01*
X87471861Y-70438652D01*
X87351582Y-70273105D01*
X87351582Y-70273104D01*
X87206895Y-70128417D01*
X87041349Y-70008140D01*
X86859029Y-69915244D01*
X86664413Y-69852009D01*
X86610000Y-69843390D01*
X86610000Y-70804314D01*
X86605606Y-70799920D01*
X86514394Y-70747259D01*
X86412661Y-70720000D01*
X86307339Y-70720000D01*
X86205606Y-70747259D01*
X86114394Y-70799920D01*
X86110000Y-70804314D01*
X86110000Y-69843390D01*
X86055586Y-69852009D01*
X85860970Y-69915244D01*
X85678650Y-70008140D01*
X85513105Y-70128417D01*
X85513104Y-70128417D01*
X85368417Y-70273104D01*
X85368417Y-70273105D01*
X85248140Y-70438650D01*
X85155244Y-70620970D01*
X85092009Y-70815586D01*
X85083391Y-70870000D01*
X86044314Y-70870000D01*
X86039920Y-70874394D01*
X85987259Y-70965606D01*
X85960000Y-71067339D01*
X85960000Y-71172661D01*
X85987259Y-71274394D01*
X86039920Y-71365606D01*
X86044314Y-71370000D01*
X85083391Y-71370000D01*
X85092009Y-71424413D01*
X85155244Y-71619029D01*
X85248140Y-71801349D01*
X85368417Y-71966894D01*
X85368417Y-71966895D01*
X85513104Y-72111582D01*
X85678650Y-72231859D01*
X85860968Y-72324754D01*
X86055578Y-72387988D01*
X86110000Y-72396607D01*
X86110000Y-71435686D01*
X86114394Y-71440080D01*
X86205606Y-71492741D01*
X86307339Y-71520000D01*
X86412661Y-71520000D01*
X86514394Y-71492741D01*
X86605606Y-71440080D01*
X86610000Y-71435686D01*
X86610000Y-72396606D01*
X86664421Y-72387988D01*
X86859031Y-72324754D01*
X87041349Y-72231859D01*
X87206894Y-72111582D01*
X87206895Y-72111582D01*
X87351582Y-71966895D01*
X87351582Y-71966894D01*
X87471861Y-71801347D01*
X87519234Y-71708371D01*
X87567208Y-71657575D01*
X87635028Y-71640779D01*
X87701164Y-71663316D01*
X87740203Y-71708369D01*
X87787713Y-71801611D01*
X87908028Y-71967213D01*
X88052786Y-72111971D01*
X88207749Y-72224556D01*
X88218390Y-72232287D01*
X88334607Y-72291503D01*
X88400776Y-72325218D01*
X88400778Y-72325218D01*
X88400781Y-72325220D01*
X88505137Y-72359127D01*
X88595465Y-72388477D01*
X88696557Y-72404488D01*
X88797648Y-72420500D01*
X88797649Y-72420500D01*
X89002351Y-72420500D01*
X89002352Y-72420500D01*
X89204534Y-72388477D01*
X89399219Y-72325220D01*
X89581610Y-72232287D01*
X89674590Y-72164732D01*
X89747213Y-72111971D01*
X89747215Y-72111968D01*
X89747219Y-72111966D01*
X89891966Y-71967219D01*
X89891968Y-71967215D01*
X89891971Y-71967213D01*
X90012284Y-71801614D01*
X90012286Y-71801611D01*
X90012287Y-71801610D01*
X90059516Y-71708917D01*
X90107489Y-71658123D01*
X90175310Y-71641328D01*
X90241445Y-71663865D01*
X90280485Y-71708919D01*
X90327715Y-71801614D01*
X90448028Y-71967213D01*
X90592786Y-72111971D01*
X90747749Y-72224556D01*
X90758390Y-72232287D01*
X90874607Y-72291503D01*
X90940776Y-72325218D01*
X90940778Y-72325218D01*
X90940781Y-72325220D01*
X91045137Y-72359127D01*
X91135465Y-72388477D01*
X91236557Y-72404488D01*
X91337648Y-72420500D01*
X91337649Y-72420500D01*
X91542351Y-72420500D01*
X91542352Y-72420500D01*
X91744534Y-72388477D01*
X91939219Y-72325220D01*
X92121610Y-72232287D01*
X92214590Y-72164732D01*
X92287213Y-72111971D01*
X92287215Y-72111968D01*
X92287219Y-72111966D01*
X92431966Y-71967219D01*
X92431968Y-71967215D01*
X92431971Y-71967213D01*
X92552284Y-71801614D01*
X92552286Y-71801611D01*
X92552287Y-71801610D01*
X92599516Y-71708917D01*
X92647489Y-71658123D01*
X92715310Y-71641328D01*
X92781445Y-71663865D01*
X92820485Y-71708919D01*
X92867715Y-71801614D01*
X92988028Y-71967213D01*
X93132786Y-72111971D01*
X93287749Y-72224556D01*
X93298390Y-72232287D01*
X93414607Y-72291503D01*
X93480776Y-72325218D01*
X93480778Y-72325218D01*
X93480781Y-72325220D01*
X93585137Y-72359127D01*
X93675465Y-72388477D01*
X93776557Y-72404488D01*
X93877648Y-72420500D01*
X93877649Y-72420500D01*
X94082351Y-72420500D01*
X94082352Y-72420500D01*
X94284534Y-72388477D01*
X94479219Y-72325220D01*
X94661610Y-72232287D01*
X94754590Y-72164732D01*
X94827213Y-72111971D01*
X94827215Y-72111968D01*
X94827219Y-72111966D01*
X94971966Y-71967219D01*
X94971968Y-71967215D01*
X94971971Y-71967213D01*
X95092284Y-71801614D01*
X95092286Y-71801611D01*
X95092287Y-71801610D01*
X95139516Y-71708917D01*
X95187489Y-71658123D01*
X95255310Y-71641328D01*
X95321445Y-71663865D01*
X95360485Y-71708919D01*
X95407715Y-71801614D01*
X95528028Y-71967213D01*
X95672786Y-72111971D01*
X95827749Y-72224556D01*
X95838390Y-72232287D01*
X95954607Y-72291503D01*
X96020776Y-72325218D01*
X96020778Y-72325218D01*
X96020781Y-72325220D01*
X96125137Y-72359127D01*
X96215465Y-72388477D01*
X96316557Y-72404488D01*
X96417648Y-72420500D01*
X96417649Y-72420500D01*
X96622351Y-72420500D01*
X96622352Y-72420500D01*
X96824534Y-72388477D01*
X97019219Y-72325220D01*
X97201610Y-72232287D01*
X97294590Y-72164732D01*
X97367213Y-72111971D01*
X97367215Y-72111968D01*
X97367219Y-72111966D01*
X97511966Y-71967219D01*
X97511968Y-71967215D01*
X97511971Y-71967213D01*
X97632284Y-71801614D01*
X97632286Y-71801611D01*
X97632287Y-71801610D01*
X97679516Y-71708917D01*
X97727489Y-71658123D01*
X97795310Y-71641328D01*
X97861445Y-71663865D01*
X97900485Y-71708919D01*
X97947715Y-71801614D01*
X98068028Y-71967213D01*
X98212786Y-72111971D01*
X98367749Y-72224556D01*
X98378390Y-72232287D01*
X98494607Y-72291503D01*
X98560776Y-72325218D01*
X98560778Y-72325218D01*
X98560781Y-72325220D01*
X98665137Y-72359127D01*
X98755465Y-72388477D01*
X98856557Y-72404488D01*
X98957648Y-72420500D01*
X98957649Y-72420500D01*
X99162351Y-72420500D01*
X99162352Y-72420500D01*
X99364534Y-72388477D01*
X99559219Y-72325220D01*
X99741610Y-72232287D01*
X99834590Y-72164732D01*
X99907213Y-72111971D01*
X99907215Y-72111968D01*
X99907219Y-72111966D01*
X100051966Y-71967219D01*
X100051968Y-71967215D01*
X100051971Y-71967213D01*
X100172284Y-71801614D01*
X100172286Y-71801611D01*
X100172287Y-71801610D01*
X100219516Y-71708917D01*
X100267489Y-71658123D01*
X100335310Y-71641328D01*
X100401445Y-71663865D01*
X100440485Y-71708919D01*
X100487715Y-71801614D01*
X100608028Y-71967213D01*
X100752786Y-72111971D01*
X100907749Y-72224556D01*
X100918390Y-72232287D01*
X101034607Y-72291503D01*
X101100776Y-72325218D01*
X101100778Y-72325218D01*
X101100781Y-72325220D01*
X101205137Y-72359127D01*
X101295465Y-72388477D01*
X101396557Y-72404488D01*
X101497648Y-72420500D01*
X101497649Y-72420500D01*
X101702351Y-72420500D01*
X101702352Y-72420500D01*
X101904534Y-72388477D01*
X102099219Y-72325220D01*
X102281610Y-72232287D01*
X102374590Y-72164732D01*
X102447213Y-72111971D01*
X102447215Y-72111968D01*
X102447219Y-72111966D01*
X102591966Y-71967219D01*
X102591968Y-71967215D01*
X102591971Y-71967213D01*
X102712284Y-71801614D01*
X102712286Y-71801611D01*
X102712287Y-71801610D01*
X102759516Y-71708917D01*
X102807489Y-71658123D01*
X102875310Y-71641328D01*
X102941445Y-71663865D01*
X102980485Y-71708919D01*
X103027715Y-71801614D01*
X103148028Y-71967213D01*
X103292786Y-72111971D01*
X103447749Y-72224556D01*
X103458390Y-72232287D01*
X103574607Y-72291503D01*
X103640776Y-72325218D01*
X103640778Y-72325218D01*
X103640781Y-72325220D01*
X103745137Y-72359127D01*
X103835465Y-72388477D01*
X103936557Y-72404488D01*
X104037648Y-72420500D01*
X104037649Y-72420500D01*
X104242351Y-72420500D01*
X104242352Y-72420500D01*
X104444534Y-72388477D01*
X104639219Y-72325220D01*
X104821610Y-72232287D01*
X104914590Y-72164732D01*
X104987213Y-72111971D01*
X104987215Y-72111968D01*
X104987219Y-72111966D01*
X105131966Y-71967219D01*
X105131968Y-71967215D01*
X105131971Y-71967213D01*
X105252284Y-71801614D01*
X105252286Y-71801611D01*
X105252287Y-71801610D01*
X105299516Y-71708917D01*
X105347489Y-71658123D01*
X105415310Y-71641328D01*
X105481445Y-71663865D01*
X105520485Y-71708919D01*
X105567715Y-71801614D01*
X105688028Y-71967213D01*
X105832786Y-72111971D01*
X105987749Y-72224556D01*
X105998390Y-72232287D01*
X106114607Y-72291503D01*
X106180776Y-72325218D01*
X106180778Y-72325218D01*
X106180781Y-72325220D01*
X106285137Y-72359127D01*
X106375465Y-72388477D01*
X106476557Y-72404488D01*
X106577648Y-72420500D01*
X106577649Y-72420500D01*
X106782351Y-72420500D01*
X106782352Y-72420500D01*
X106984534Y-72388477D01*
X107179219Y-72325220D01*
X107361610Y-72232287D01*
X107454590Y-72164732D01*
X107527213Y-72111971D01*
X107527215Y-72111968D01*
X107527219Y-72111966D01*
X107671966Y-71967219D01*
X107671968Y-71967215D01*
X107671971Y-71967213D01*
X107792284Y-71801614D01*
X107792286Y-71801611D01*
X107792287Y-71801610D01*
X107839516Y-71708917D01*
X107887489Y-71658123D01*
X107955310Y-71641328D01*
X108021445Y-71663865D01*
X108060485Y-71708919D01*
X108107715Y-71801614D01*
X108228028Y-71967213D01*
X108372786Y-72111971D01*
X108527749Y-72224556D01*
X108538390Y-72232287D01*
X108654607Y-72291503D01*
X108720776Y-72325218D01*
X108720778Y-72325218D01*
X108720781Y-72325220D01*
X108825137Y-72359127D01*
X108915465Y-72388477D01*
X109016557Y-72404488D01*
X109117648Y-72420500D01*
X109117649Y-72420500D01*
X109322351Y-72420500D01*
X109322352Y-72420500D01*
X109524534Y-72388477D01*
X109719219Y-72325220D01*
X109901610Y-72232287D01*
X109994590Y-72164732D01*
X110067213Y-72111971D01*
X110067215Y-72111968D01*
X110067219Y-72111966D01*
X110211966Y-71967219D01*
X110211968Y-71967215D01*
X110211971Y-71967213D01*
X110264732Y-71894590D01*
X110332287Y-71801610D01*
X110425220Y-71619219D01*
X110488477Y-71424534D01*
X110520500Y-71222352D01*
X110520500Y-71017648D01*
X110512257Y-70965606D01*
X110488477Y-70815465D01*
X110457458Y-70720000D01*
X110425220Y-70620781D01*
X110425218Y-70620778D01*
X110425218Y-70620776D01*
X110332419Y-70438650D01*
X110332287Y-70438390D01*
X110324556Y-70427749D01*
X110211971Y-70272786D01*
X110067217Y-70128032D01*
X110067212Y-70128028D01*
X109971615Y-70058573D01*
X109928949Y-70003243D01*
X109920500Y-69958255D01*
X109920500Y-60436682D01*
X110714000Y-60436682D01*
X110714000Y-60641317D01*
X110746009Y-60843417D01*
X110809244Y-61038031D01*
X110902141Y-61220350D01*
X110902147Y-61220359D01*
X110934523Y-61264921D01*
X110934524Y-61264922D01*
X111614000Y-60585446D01*
X111614000Y-60591661D01*
X111641259Y-60693394D01*
X111693920Y-60784606D01*
X111768394Y-60859080D01*
X111859606Y-60911741D01*
X111961339Y-60939000D01*
X111967553Y-60939000D01*
X111288076Y-61618474D01*
X111332650Y-61650859D01*
X111514968Y-61743755D01*
X111709582Y-61806990D01*
X111911683Y-61839000D01*
X112116317Y-61839000D01*
X112318417Y-61806990D01*
X112513031Y-61743755D01*
X112695349Y-61650859D01*
X112739921Y-61618474D01*
X112060447Y-60939000D01*
X112066661Y-60939000D01*
X112168394Y-60911741D01*
X112259606Y-60859080D01*
X112334080Y-60784606D01*
X112386741Y-60693394D01*
X112414000Y-60591661D01*
X112414000Y-60585447D01*
X113093474Y-61264921D01*
X113125859Y-61220349D01*
X113218755Y-61038031D01*
X113281990Y-60843417D01*
X113314000Y-60641317D01*
X113314000Y-60436682D01*
X113281990Y-60234582D01*
X113218755Y-60039968D01*
X113125859Y-59857650D01*
X113093474Y-59813077D01*
X113093474Y-59813076D01*
X112414000Y-60492551D01*
X112414000Y-60486339D01*
X112386741Y-60384606D01*
X112334080Y-60293394D01*
X112259606Y-60218920D01*
X112168394Y-60166259D01*
X112066661Y-60139000D01*
X112060446Y-60139000D01*
X112739922Y-59459524D01*
X112739921Y-59459523D01*
X112695359Y-59427147D01*
X112695350Y-59427141D01*
X112513031Y-59334244D01*
X112318417Y-59271009D01*
X112116317Y-59239000D01*
X111911683Y-59239000D01*
X111709582Y-59271009D01*
X111514968Y-59334244D01*
X111332644Y-59427143D01*
X111288077Y-59459523D01*
X111288077Y-59459524D01*
X111967554Y-60139000D01*
X111961339Y-60139000D01*
X111859606Y-60166259D01*
X111768394Y-60218920D01*
X111693920Y-60293394D01*
X111641259Y-60384606D01*
X111614000Y-60486339D01*
X111614000Y-60492553D01*
X110934524Y-59813077D01*
X110934523Y-59813077D01*
X110902143Y-59857644D01*
X110809244Y-60039968D01*
X110746009Y-60234582D01*
X110714000Y-60436682D01*
X109920500Y-60436682D01*
X109920500Y-58674518D01*
X109940185Y-58607479D01*
X109956814Y-58586842D01*
X111687852Y-56855803D01*
X111749173Y-56822320D01*
X111794929Y-56821013D01*
X111849395Y-56829639D01*
X111911648Y-56839500D01*
X111911649Y-56839500D01*
X112116351Y-56839500D01*
X112116352Y-56839500D01*
X112318534Y-56807477D01*
X112513219Y-56744220D01*
X112695610Y-56651287D01*
X112788590Y-56583732D01*
X112861213Y-56530971D01*
X112861215Y-56530968D01*
X112861219Y-56530966D01*
X113005966Y-56386219D01*
X113005968Y-56386215D01*
X113005971Y-56386213D01*
X113058732Y-56313590D01*
X113126287Y-56220610D01*
X113219220Y-56038219D01*
X113282477Y-55843534D01*
X113314500Y-55641352D01*
X113314500Y-55436648D01*
X113284387Y-55246523D01*
X113282477Y-55234465D01*
X113250001Y-55134515D01*
X113219220Y-55039781D01*
X113219218Y-55039778D01*
X113219218Y-55039776D01*
X113182119Y-54966966D01*
X113126287Y-54857390D01*
X113100730Y-54822213D01*
X113005971Y-54691786D01*
X112861213Y-54547028D01*
X112695613Y-54426715D01*
X112695612Y-54426714D01*
X112695610Y-54426713D01*
X112638653Y-54397691D01*
X112513223Y-54333781D01*
X112318534Y-54270522D01*
X112143995Y-54242878D01*
X112116352Y-54238500D01*
X111911648Y-54238500D01*
X111887329Y-54242351D01*
X111709465Y-54270522D01*
X111514776Y-54333781D01*
X111332386Y-54426715D01*
X111166786Y-54547028D01*
X111022028Y-54691786D01*
X110901715Y-54857386D01*
X110808781Y-55039776D01*
X110745522Y-55234465D01*
X110713500Y-55436648D01*
X110713500Y-55641351D01*
X110731986Y-55758068D01*
X110723031Y-55827362D01*
X110697194Y-55865147D01*
X108675887Y-57886454D01*
X108595841Y-58006254D01*
X108593580Y-58004743D01*
X108552773Y-58046217D01*
X108484623Y-58061622D01*
X108418963Y-58037736D01*
X108404786Y-58025551D01*
X107339077Y-56959842D01*
X107305592Y-56898519D01*
X107308828Y-56833841D01*
X107313477Y-56819534D01*
X107345500Y-56617352D01*
X107345500Y-56412648D01*
X107313478Y-56210472D01*
X107313477Y-56210465D01*
X107267888Y-56070157D01*
X107250220Y-56015781D01*
X107250218Y-56015778D01*
X107250218Y-56015776D01*
X107194492Y-55906409D01*
X107157287Y-55833390D01*
X107102563Y-55758068D01*
X107036971Y-55667786D01*
X106892213Y-55523028D01*
X106726614Y-55402715D01*
X106720006Y-55399348D01*
X106633917Y-55355483D01*
X106583123Y-55307511D01*
X106566328Y-55239690D01*
X106588865Y-55173555D01*
X106633917Y-55134516D01*
X106726610Y-55087287D01*
X106792004Y-55039776D01*
X106892213Y-54966971D01*
X106892215Y-54966968D01*
X106892219Y-54966966D01*
X107036966Y-54822219D01*
X107036968Y-54822215D01*
X107036971Y-54822213D01*
X107131730Y-54691786D01*
X107157287Y-54656610D01*
X107250220Y-54474219D01*
X107313477Y-54279534D01*
X107345500Y-54077352D01*
X107345500Y-53872648D01*
X107313477Y-53670465D01*
X107284127Y-53580137D01*
X107250220Y-53475781D01*
X107250218Y-53475778D01*
X107250218Y-53475776D01*
X107198359Y-53373998D01*
X107157287Y-53293390D01*
X107149198Y-53282257D01*
X107036971Y-53127786D01*
X106892213Y-52983028D01*
X106726614Y-52862715D01*
X106720006Y-52859348D01*
X106633917Y-52815483D01*
X106583123Y-52767511D01*
X106566328Y-52699690D01*
X106588865Y-52633555D01*
X106633917Y-52594516D01*
X106726610Y-52547287D01*
X106747770Y-52531913D01*
X106892213Y-52426971D01*
X106892215Y-52426968D01*
X106892219Y-52426966D01*
X107036966Y-52282219D01*
X107036968Y-52282215D01*
X107036971Y-52282213D01*
X107136353Y-52145423D01*
X107157287Y-52116610D01*
X107250220Y-51934219D01*
X107313477Y-51739534D01*
X107345500Y-51537352D01*
X107345500Y-51332648D01*
X107313477Y-51130466D01*
X107250220Y-50935781D01*
X107250218Y-50935778D01*
X107250218Y-50935776D01*
X107204515Y-50846080D01*
X107157287Y-50753390D01*
X107149556Y-50742749D01*
X107036971Y-50587786D01*
X106892213Y-50443028D01*
X106726614Y-50322715D01*
X106720006Y-50319348D01*
X106633917Y-50275483D01*
X106583123Y-50227511D01*
X106566328Y-50159690D01*
X106588865Y-50093555D01*
X106633917Y-50054516D01*
X106726610Y-50007287D01*
X106747770Y-49991913D01*
X106892213Y-49886971D01*
X106892215Y-49886968D01*
X106892219Y-49886966D01*
X107036966Y-49742219D01*
X107036968Y-49742215D01*
X107036971Y-49742213D01*
X107089732Y-49669590D01*
X107157287Y-49576610D01*
X107250220Y-49394219D01*
X107313477Y-49199534D01*
X107345500Y-48997352D01*
X107345500Y-48792648D01*
X107313477Y-48590466D01*
X107308825Y-48576151D01*
X107306832Y-48506312D01*
X107339075Y-48450158D01*
X108797416Y-46991819D01*
X108858739Y-46958334D01*
X108885097Y-46955500D01*
X109895398Y-46955500D01*
X109962437Y-46975185D01*
X110005883Y-47023205D01*
X110012715Y-47036614D01*
X110133028Y-47202213D01*
X110277786Y-47346971D01*
X110432749Y-47459556D01*
X110443390Y-47467287D01*
X110536080Y-47514515D01*
X110625776Y-47560218D01*
X110625778Y-47560218D01*
X110625781Y-47560220D01*
X110730137Y-47594127D01*
X110820465Y-47623477D01*
X110839697Y-47626523D01*
X111022648Y-47655500D01*
X111022649Y-47655500D01*
X111227351Y-47655500D01*
X111227352Y-47655500D01*
X111429534Y-47623477D01*
X111624219Y-47560220D01*
X111806610Y-47467287D01*
X111899590Y-47399732D01*
X111972213Y-47346971D01*
X111972215Y-47346968D01*
X111972219Y-47346966D01*
X112116966Y-47202219D01*
X112116968Y-47202215D01*
X112116971Y-47202213D01*
X112169732Y-47129590D01*
X112237287Y-47036610D01*
X112330220Y-46854219D01*
X112393477Y-46659534D01*
X112425500Y-46457352D01*
X112425500Y-46252648D01*
X112393477Y-46050466D01*
X112330220Y-45855781D01*
X112330218Y-45855778D01*
X112330218Y-45855776D01*
X112284515Y-45766080D01*
X112237287Y-45673390D01*
X112229556Y-45662749D01*
X112116971Y-45507786D01*
X111972213Y-45363028D01*
X111806613Y-45242715D01*
X111806612Y-45242714D01*
X111806610Y-45242713D01*
X111749653Y-45213691D01*
X111624223Y-45149781D01*
X111429534Y-45086522D01*
X111254995Y-45058878D01*
X111227352Y-45054500D01*
X111022648Y-45054500D01*
X110998329Y-45058351D01*
X110820465Y-45086522D01*
X110625776Y-45149781D01*
X110443386Y-45242715D01*
X110277786Y-45363028D01*
X110133028Y-45507786D01*
X110012715Y-45673385D01*
X110005883Y-45686795D01*
X109957909Y-45737591D01*
X109895398Y-45754500D01*
X108505940Y-45754500D01*
X108465019Y-45765464D01*
X108465019Y-45765465D01*
X108427751Y-45775451D01*
X108353214Y-45795423D01*
X108353209Y-45795426D01*
X108216290Y-45874475D01*
X108216282Y-45874481D01*
X107557181Y-46533583D01*
X107495858Y-46567068D01*
X107426166Y-46562084D01*
X107370233Y-46520212D01*
X107345816Y-46454748D01*
X107345500Y-46445902D01*
X107345500Y-46252648D01*
X107313477Y-46050465D01*
X107256296Y-45874481D01*
X107250220Y-45855781D01*
X107250218Y-45855778D01*
X107250218Y-45855776D01*
X107204515Y-45766080D01*
X107157287Y-45673390D01*
X107149556Y-45662749D01*
X107036971Y-45507786D01*
X106892213Y-45363028D01*
X106726613Y-45242715D01*
X106726612Y-45242714D01*
X106726610Y-45242713D01*
X106669653Y-45213691D01*
X106544223Y-45149781D01*
X106349534Y-45086522D01*
X106174995Y-45058878D01*
X106147352Y-45054500D01*
X105942648Y-45054500D01*
X105918329Y-45058351D01*
X105740465Y-45086522D01*
X105545776Y-45149781D01*
X105363386Y-45242715D01*
X105197786Y-45363028D01*
X105053028Y-45507786D01*
X104932715Y-45673386D01*
X104839781Y-45855776D01*
X104776522Y-46050465D01*
X104744500Y-46252648D01*
X104744500Y-46457351D01*
X104776522Y-46659534D01*
X104839781Y-46854223D01*
X104932715Y-47036613D01*
X105053028Y-47202213D01*
X105197786Y-47346971D01*
X105352749Y-47459556D01*
X105363390Y-47467287D01*
X105454840Y-47513883D01*
X105456080Y-47514515D01*
X105506876Y-47562490D01*
X105523671Y-47630311D01*
X105501134Y-47696446D01*
X105456080Y-47735485D01*
X105363386Y-47782715D01*
X105197786Y-47903028D01*
X105053028Y-48047786D01*
X104932715Y-48213386D01*
X104839781Y-48395776D01*
X104776522Y-48590465D01*
X104744500Y-48792648D01*
X104744500Y-48997351D01*
X104776522Y-49199534D01*
X104839781Y-49394223D01*
X104932715Y-49576613D01*
X105053028Y-49742213D01*
X105197786Y-49886971D01*
X105352749Y-49999556D01*
X105363390Y-50007287D01*
X105454840Y-50053883D01*
X105456080Y-50054515D01*
X105506876Y-50102490D01*
X105523671Y-50170311D01*
X105501134Y-50236446D01*
X105456080Y-50275485D01*
X105363386Y-50322715D01*
X105197786Y-50443028D01*
X105053028Y-50587786D01*
X104932715Y-50753386D01*
X104839781Y-50935776D01*
X104776522Y-51130465D01*
X104744500Y-51332648D01*
X104744500Y-51537351D01*
X104776523Y-51739534D01*
X104781172Y-51753843D01*
X104783167Y-51823684D01*
X104750922Y-51879842D01*
X104562584Y-52068181D01*
X104501261Y-52101666D01*
X104474903Y-52104500D01*
X99745266Y-52104500D01*
X99678227Y-52084815D01*
X99632472Y-52032011D01*
X99622528Y-51962853D01*
X99629080Y-51938970D01*
X99628714Y-51938852D01*
X99630218Y-51934222D01*
X99630220Y-51934219D01*
X99693477Y-51739534D01*
X99725500Y-51537352D01*
X99725500Y-51332648D01*
X99693477Y-51130466D01*
X99630220Y-50935781D01*
X99630218Y-50935778D01*
X99630218Y-50935776D01*
X99584515Y-50846080D01*
X99537287Y-50753390D01*
X99529556Y-50742749D01*
X99416971Y-50587786D01*
X99272213Y-50443028D01*
X99106614Y-50322715D01*
X99100006Y-50319348D01*
X99013917Y-50275483D01*
X98963123Y-50227511D01*
X98946328Y-50159690D01*
X98968865Y-50093555D01*
X99013917Y-50054516D01*
X99106610Y-50007287D01*
X99127770Y-49991913D01*
X99272213Y-49886971D01*
X99272215Y-49886968D01*
X99272219Y-49886966D01*
X99416966Y-49742219D01*
X99416968Y-49742215D01*
X99416971Y-49742213D01*
X99469732Y-49669590D01*
X99537287Y-49576610D01*
X99630220Y-49394219D01*
X99693477Y-49199534D01*
X99725500Y-48997352D01*
X99725500Y-48792648D01*
X99693477Y-48590466D01*
X99630220Y-48395781D01*
X99630218Y-48395778D01*
X99630218Y-48395776D01*
X99584515Y-48306080D01*
X99537287Y-48213390D01*
X99529556Y-48202749D01*
X99416971Y-48047786D01*
X99272213Y-47903028D01*
X99106614Y-47782715D01*
X99100006Y-47779348D01*
X99013917Y-47735483D01*
X98963123Y-47687511D01*
X98946328Y-47619690D01*
X98968865Y-47553555D01*
X99013917Y-47514516D01*
X99106610Y-47467287D01*
X99127770Y-47451913D01*
X99272213Y-47346971D01*
X99272215Y-47346968D01*
X99272219Y-47346966D01*
X99416966Y-47202219D01*
X99416968Y-47202215D01*
X99416971Y-47202213D01*
X99469732Y-47129590D01*
X99537287Y-47036610D01*
X99630220Y-46854219D01*
X99693477Y-46659534D01*
X99725500Y-46457352D01*
X99725500Y-46252648D01*
X99693477Y-46050466D01*
X99630220Y-45855781D01*
X99630218Y-45855778D01*
X99630218Y-45855776D01*
X99584515Y-45766080D01*
X99537287Y-45673390D01*
X99529556Y-45662749D01*
X99416971Y-45507786D01*
X99272213Y-45363028D01*
X99106613Y-45242715D01*
X99106612Y-45242714D01*
X99106610Y-45242713D01*
X99049653Y-45213691D01*
X98924223Y-45149781D01*
X98729534Y-45086522D01*
X98554995Y-45058878D01*
X98527352Y-45054500D01*
X98322648Y-45054500D01*
X98298329Y-45058351D01*
X98120465Y-45086522D01*
X97925776Y-45149781D01*
X97743386Y-45242715D01*
X97577786Y-45363028D01*
X97433028Y-45507786D01*
X97312715Y-45673386D01*
X97219781Y-45855776D01*
X97156522Y-46050465D01*
X97124500Y-46252648D01*
X97124500Y-46457351D01*
X97156522Y-46659534D01*
X97219781Y-46854223D01*
X97312715Y-47036613D01*
X97433028Y-47202213D01*
X97577786Y-47346971D01*
X97732749Y-47459556D01*
X97743390Y-47467287D01*
X97834840Y-47513883D01*
X97836080Y-47514515D01*
X97886876Y-47562490D01*
X97903671Y-47630311D01*
X97881134Y-47696446D01*
X97836080Y-47735485D01*
X97743386Y-47782715D01*
X97577786Y-47903028D01*
X97433028Y-48047786D01*
X97312715Y-48213386D01*
X97219781Y-48395776D01*
X97156522Y-48590465D01*
X97124500Y-48792648D01*
X97124500Y-48997351D01*
X97156522Y-49199534D01*
X97219781Y-49394223D01*
X97312715Y-49576613D01*
X97433028Y-49742213D01*
X97577786Y-49886971D01*
X97732749Y-49999556D01*
X97743390Y-50007287D01*
X97834840Y-50053883D01*
X97836080Y-50054515D01*
X97886876Y-50102490D01*
X97903671Y-50170311D01*
X97881134Y-50236446D01*
X97836080Y-50275485D01*
X97743386Y-50322715D01*
X97577786Y-50443028D01*
X97433028Y-50587786D01*
X97312715Y-50753386D01*
X97219781Y-50935776D01*
X97156522Y-51130465D01*
X97124500Y-51332648D01*
X97124500Y-51537351D01*
X97156522Y-51739534D01*
X97195848Y-51860564D01*
X97219780Y-51934219D01*
X97219781Y-51934222D01*
X97221286Y-51938852D01*
X97219964Y-51939281D01*
X97226764Y-52002514D01*
X97195491Y-52064994D01*
X97135403Y-52100648D01*
X97104734Y-52104500D01*
X95300266Y-52104500D01*
X95233227Y-52084815D01*
X95187472Y-52032011D01*
X95177528Y-51962853D01*
X95184080Y-51938970D01*
X95183714Y-51938852D01*
X95185218Y-51934222D01*
X95185220Y-51934219D01*
X95248477Y-51739534D01*
X95280500Y-51537352D01*
X95280500Y-51332648D01*
X95248477Y-51130466D01*
X95185220Y-50935781D01*
X95185218Y-50935778D01*
X95185218Y-50935776D01*
X95139515Y-50846080D01*
X95092287Y-50753390D01*
X95084556Y-50742749D01*
X94971971Y-50587786D01*
X94827213Y-50443028D01*
X94661614Y-50322715D01*
X94655006Y-50319348D01*
X94568917Y-50275483D01*
X94518123Y-50227511D01*
X94501328Y-50159690D01*
X94523865Y-50093555D01*
X94568917Y-50054516D01*
X94661610Y-50007287D01*
X94682770Y-49991913D01*
X94827213Y-49886971D01*
X94827215Y-49886968D01*
X94827219Y-49886966D01*
X94971966Y-49742219D01*
X94971968Y-49742215D01*
X94971971Y-49742213D01*
X95024732Y-49669590D01*
X95092287Y-49576610D01*
X95185220Y-49394219D01*
X95248477Y-49199534D01*
X95280500Y-48997352D01*
X95280500Y-48792648D01*
X95248477Y-48590466D01*
X95185220Y-48395781D01*
X95185218Y-48395778D01*
X95185218Y-48395776D01*
X95139515Y-48306080D01*
X95092287Y-48213390D01*
X95084556Y-48202749D01*
X94971971Y-48047786D01*
X94827213Y-47903028D01*
X94661614Y-47782715D01*
X94655006Y-47779348D01*
X94568917Y-47735483D01*
X94518123Y-47687511D01*
X94501328Y-47619690D01*
X94523865Y-47553555D01*
X94568917Y-47514516D01*
X94661610Y-47467287D01*
X94682770Y-47451913D01*
X94827213Y-47346971D01*
X94827215Y-47346968D01*
X94827219Y-47346966D01*
X94971966Y-47202219D01*
X94971968Y-47202215D01*
X94971971Y-47202213D01*
X95024732Y-47129590D01*
X95092287Y-47036610D01*
X95185220Y-46854219D01*
X95248477Y-46659534D01*
X95280500Y-46457352D01*
X95280500Y-46252648D01*
X95248477Y-46050466D01*
X95185220Y-45855781D01*
X95185218Y-45855778D01*
X95185218Y-45855776D01*
X95139515Y-45766080D01*
X95092287Y-45673390D01*
X95084556Y-45662749D01*
X94971971Y-45507786D01*
X94827213Y-45363028D01*
X94661613Y-45242715D01*
X94661612Y-45242714D01*
X94661610Y-45242713D01*
X94604653Y-45213691D01*
X94479223Y-45149781D01*
X94284534Y-45086522D01*
X94109995Y-45058878D01*
X94082352Y-45054500D01*
X93877648Y-45054500D01*
X93853329Y-45058351D01*
X93675465Y-45086522D01*
X93480776Y-45149781D01*
X93298386Y-45242715D01*
X93132786Y-45363028D01*
X92988028Y-45507786D01*
X92867715Y-45673386D01*
X92820485Y-45766080D01*
X92772510Y-45816876D01*
X92704689Y-45833671D01*
X92638554Y-45811134D01*
X92599515Y-45766080D01*
X92584999Y-45737591D01*
X92552287Y-45673390D01*
X92544556Y-45662749D01*
X92431971Y-45507786D01*
X92287213Y-45363028D01*
X92121613Y-45242715D01*
X92121612Y-45242714D01*
X92121610Y-45242713D01*
X92064653Y-45213691D01*
X91939223Y-45149781D01*
X91744534Y-45086522D01*
X91569995Y-45058878D01*
X91542352Y-45054500D01*
X91337648Y-45054500D01*
X91313329Y-45058351D01*
X91135465Y-45086522D01*
X90940776Y-45149781D01*
X90758386Y-45242715D01*
X90592786Y-45363028D01*
X90448028Y-45507786D01*
X90327715Y-45673386D01*
X90234781Y-45855776D01*
X90171522Y-46050465D01*
X90139500Y-46252648D01*
X90139500Y-46457351D01*
X90171522Y-46659534D01*
X90234781Y-46854223D01*
X90327715Y-47036613D01*
X90448028Y-47202213D01*
X90592786Y-47346971D01*
X90747749Y-47459556D01*
X90758390Y-47467287D01*
X90849840Y-47513883D01*
X90851080Y-47514515D01*
X90901876Y-47562490D01*
X90918671Y-47630311D01*
X90896134Y-47696446D01*
X90851080Y-47735485D01*
X90758386Y-47782715D01*
X90592786Y-47903028D01*
X90448028Y-48047786D01*
X90327715Y-48213386D01*
X90234781Y-48395776D01*
X90171522Y-48590465D01*
X90139500Y-48792648D01*
X90139500Y-48997351D01*
X90171522Y-49199534D01*
X90234781Y-49394223D01*
X90327715Y-49576613D01*
X90448028Y-49742213D01*
X90592786Y-49886971D01*
X90747749Y-49999556D01*
X90758390Y-50007287D01*
X90849840Y-50053883D01*
X90851080Y-50054515D01*
X90901876Y-50102490D01*
X90918671Y-50170311D01*
X90896134Y-50236446D01*
X90851080Y-50275485D01*
X90758386Y-50322715D01*
X90592786Y-50443028D01*
X90448028Y-50587786D01*
X90327715Y-50753386D01*
X90234781Y-50935776D01*
X90171522Y-51130465D01*
X90139500Y-51332648D01*
X90139500Y-51537351D01*
X90171522Y-51739534D01*
X90210848Y-51860564D01*
X90234780Y-51934219D01*
X90234781Y-51934222D01*
X90236286Y-51938852D01*
X90234967Y-51939280D01*
X90241760Y-52002531D01*
X90210477Y-52065007D01*
X90150384Y-52100651D01*
X90119733Y-52104499D01*
X90090943Y-52104499D01*
X90014579Y-52124961D01*
X89938214Y-52145423D01*
X89938209Y-52145426D01*
X89801290Y-52224475D01*
X89801282Y-52224481D01*
X87872181Y-54153582D01*
X87810858Y-54187067D01*
X87741166Y-54182083D01*
X87685233Y-54140211D01*
X87660816Y-54074747D01*
X87660500Y-54065901D01*
X87660500Y-53872648D01*
X87628477Y-53670465D01*
X87599127Y-53580137D01*
X87565220Y-53475781D01*
X87565218Y-53475778D01*
X87565218Y-53475776D01*
X87513359Y-53373998D01*
X87472287Y-53293390D01*
X87464198Y-53282257D01*
X87351971Y-53127786D01*
X87207213Y-52983028D01*
X87041614Y-52862715D01*
X87035006Y-52859348D01*
X86948917Y-52815483D01*
X86898123Y-52767511D01*
X86881328Y-52699690D01*
X86903865Y-52633555D01*
X86948917Y-52594516D01*
X87041610Y-52547287D01*
X87062770Y-52531913D01*
X87207213Y-52426971D01*
X87207215Y-52426968D01*
X87207219Y-52426966D01*
X87351966Y-52282219D01*
X87351968Y-52282215D01*
X87351971Y-52282213D01*
X87451353Y-52145423D01*
X87472287Y-52116610D01*
X87565220Y-51934219D01*
X87628477Y-51739534D01*
X87660500Y-51537352D01*
X87660500Y-51332648D01*
X87628477Y-51130466D01*
X87565220Y-50935781D01*
X87565218Y-50935778D01*
X87565218Y-50935776D01*
X87519515Y-50846080D01*
X87472287Y-50753390D01*
X87464556Y-50742749D01*
X87351971Y-50587786D01*
X87207213Y-50443028D01*
X87041614Y-50322715D01*
X87035006Y-50319348D01*
X86948917Y-50275483D01*
X86898123Y-50227511D01*
X86881328Y-50159690D01*
X86903865Y-50093555D01*
X86948917Y-50054516D01*
X87041610Y-50007287D01*
X87062770Y-49991913D01*
X87207213Y-49886971D01*
X87207215Y-49886968D01*
X87207219Y-49886966D01*
X87351966Y-49742219D01*
X87351968Y-49742215D01*
X87351971Y-49742213D01*
X87404732Y-49669590D01*
X87472287Y-49576610D01*
X87565220Y-49394219D01*
X87628477Y-49199534D01*
X87660500Y-48997352D01*
X87660500Y-48792648D01*
X87628477Y-48590466D01*
X87565220Y-48395781D01*
X87565218Y-48395778D01*
X87565218Y-48395776D01*
X87519515Y-48306080D01*
X87472287Y-48213390D01*
X87464556Y-48202749D01*
X87351971Y-48047786D01*
X87207213Y-47903028D01*
X87041614Y-47782715D01*
X87035006Y-47779348D01*
X86948917Y-47735483D01*
X86898123Y-47687511D01*
X86881328Y-47619690D01*
X86903865Y-47553555D01*
X86948917Y-47514516D01*
X87041610Y-47467287D01*
X87062770Y-47451913D01*
X87207213Y-47346971D01*
X87207215Y-47346968D01*
X87207219Y-47346966D01*
X87351966Y-47202219D01*
X87351968Y-47202215D01*
X87351971Y-47202213D01*
X87404732Y-47129590D01*
X87472287Y-47036610D01*
X87565220Y-46854219D01*
X87628477Y-46659534D01*
X87660500Y-46457352D01*
X87660500Y-46252648D01*
X87628477Y-46050466D01*
X87565220Y-45855781D01*
X87565218Y-45855778D01*
X87565218Y-45855776D01*
X87519515Y-45766080D01*
X87472287Y-45673390D01*
X87464556Y-45662749D01*
X87351971Y-45507786D01*
X87207213Y-45363028D01*
X87041613Y-45242715D01*
X87041612Y-45242714D01*
X87041610Y-45242713D01*
X86984653Y-45213691D01*
X86859223Y-45149781D01*
X86664534Y-45086522D01*
X86489995Y-45058878D01*
X86462352Y-45054500D01*
X86257648Y-45054500D01*
X86233329Y-45058351D01*
X86055465Y-45086522D01*
X85860776Y-45149781D01*
X85678386Y-45242715D01*
X85512786Y-45363028D01*
X85368028Y-45507786D01*
X85247715Y-45673386D01*
X85200485Y-45766080D01*
X85152510Y-45816876D01*
X85084689Y-45833671D01*
X85018554Y-45811134D01*
X84979515Y-45766080D01*
X84964999Y-45737591D01*
X84932287Y-45673390D01*
X84924556Y-45662749D01*
X84811971Y-45507786D01*
X84667213Y-45363028D01*
X84501613Y-45242715D01*
X84501612Y-45242714D01*
X84501610Y-45242713D01*
X84444653Y-45213691D01*
X84319223Y-45149781D01*
X84124534Y-45086522D01*
X83949995Y-45058878D01*
X83922352Y-45054500D01*
X83717648Y-45054500D01*
X83693329Y-45058351D01*
X83515465Y-45086522D01*
X83320776Y-45149781D01*
X83138386Y-45242715D01*
X82972786Y-45363028D01*
X82828028Y-45507786D01*
X82707715Y-45673386D01*
X82614781Y-45855776D01*
X82551522Y-46050465D01*
X82519500Y-46252648D01*
X81780500Y-46252648D01*
X81780500Y-43804500D01*
X81800185Y-43737461D01*
X81852989Y-43691706D01*
X81904500Y-43680500D01*
X113675500Y-43680500D01*
X113742539Y-43700185D01*
G37*
%TD.AperFunction*%
%TD*%
M02*
