%TF.GenerationSoftware,KiCad,Pcbnew,9.0.7*%
%TF.CreationDate,2026-05-27T21:55:41-04:00*%
%TF.ProjectId,A2Relay,41325265-6c61-4792-9e6b-696361645f70,rev?*%
%TF.SameCoordinates,Original*%
%TF.FileFunction,Legend,Top*%
%TF.FilePolarity,Positive*%
%FSLAX46Y46*%
G04 Gerber Fmt 4.6, Leading zero omitted, Abs format (unit mm)*
G04 Created by KiCad (PCBNEW 9.0.7) date 2026-05-27 21:55:41*
%MOMM*%
%LPD*%
G01*
G04 APERTURE LIST*
%ADD10C,0.150000*%
%ADD11C,0.120000*%
G04 APERTURE END LIST*
D10*
X91154286Y-68180057D02*
X91201905Y-68132438D01*
X91201905Y-68132438D02*
X91297143Y-68084819D01*
X91297143Y-68084819D02*
X91535238Y-68084819D01*
X91535238Y-68084819D02*
X91630476Y-68132438D01*
X91630476Y-68132438D02*
X91678095Y-68180057D01*
X91678095Y-68180057D02*
X91725714Y-68275295D01*
X91725714Y-68275295D02*
X91725714Y-68370533D01*
X91725714Y-68370533D02*
X91678095Y-68513390D01*
X91678095Y-68513390D02*
X91106667Y-69084819D01*
X91106667Y-69084819D02*
X91725714Y-69084819D01*
X84836190Y-68132438D02*
X84740952Y-68084819D01*
X84740952Y-68084819D02*
X84598095Y-68084819D01*
X84598095Y-68084819D02*
X84455238Y-68132438D01*
X84455238Y-68132438D02*
X84360000Y-68227676D01*
X84360000Y-68227676D02*
X84312381Y-68322914D01*
X84312381Y-68322914D02*
X84264762Y-68513390D01*
X84264762Y-68513390D02*
X84264762Y-68656247D01*
X84264762Y-68656247D02*
X84312381Y-68846723D01*
X84312381Y-68846723D02*
X84360000Y-68941961D01*
X84360000Y-68941961D02*
X84455238Y-69037200D01*
X84455238Y-69037200D02*
X84598095Y-69084819D01*
X84598095Y-69084819D02*
X84693333Y-69084819D01*
X84693333Y-69084819D02*
X84836190Y-69037200D01*
X84836190Y-69037200D02*
X84883809Y-68989580D01*
X84883809Y-68989580D02*
X84883809Y-68656247D01*
X84883809Y-68656247D02*
X84693333Y-68656247D01*
X85312381Y-69084819D02*
X85312381Y-68084819D01*
X85312381Y-68084819D02*
X85883809Y-69084819D01*
X85883809Y-69084819D02*
X85883809Y-68084819D01*
X86360000Y-69084819D02*
X86360000Y-68084819D01*
X86360000Y-68084819D02*
X86598095Y-68084819D01*
X86598095Y-68084819D02*
X86740952Y-68132438D01*
X86740952Y-68132438D02*
X86836190Y-68227676D01*
X86836190Y-68227676D02*
X86883809Y-68322914D01*
X86883809Y-68322914D02*
X86931428Y-68513390D01*
X86931428Y-68513390D02*
X86931428Y-68656247D01*
X86931428Y-68656247D02*
X86883809Y-68846723D01*
X86883809Y-68846723D02*
X86836190Y-68941961D01*
X86836190Y-68941961D02*
X86740952Y-69037200D01*
X86740952Y-69037200D02*
X86598095Y-69084819D01*
X86598095Y-69084819D02*
X86360000Y-69084819D01*
X106584762Y-68513390D02*
X106489524Y-68465771D01*
X106489524Y-68465771D02*
X106441905Y-68418152D01*
X106441905Y-68418152D02*
X106394286Y-68322914D01*
X106394286Y-68322914D02*
X106394286Y-68275295D01*
X106394286Y-68275295D02*
X106441905Y-68180057D01*
X106441905Y-68180057D02*
X106489524Y-68132438D01*
X106489524Y-68132438D02*
X106584762Y-68084819D01*
X106584762Y-68084819D02*
X106775238Y-68084819D01*
X106775238Y-68084819D02*
X106870476Y-68132438D01*
X106870476Y-68132438D02*
X106918095Y-68180057D01*
X106918095Y-68180057D02*
X106965714Y-68275295D01*
X106965714Y-68275295D02*
X106965714Y-68322914D01*
X106965714Y-68322914D02*
X106918095Y-68418152D01*
X106918095Y-68418152D02*
X106870476Y-68465771D01*
X106870476Y-68465771D02*
X106775238Y-68513390D01*
X106775238Y-68513390D02*
X106584762Y-68513390D01*
X106584762Y-68513390D02*
X106489524Y-68561009D01*
X106489524Y-68561009D02*
X106441905Y-68608628D01*
X106441905Y-68608628D02*
X106394286Y-68703866D01*
X106394286Y-68703866D02*
X106394286Y-68894342D01*
X106394286Y-68894342D02*
X106441905Y-68989580D01*
X106441905Y-68989580D02*
X106489524Y-69037200D01*
X106489524Y-69037200D02*
X106584762Y-69084819D01*
X106584762Y-69084819D02*
X106775238Y-69084819D01*
X106775238Y-69084819D02*
X106870476Y-69037200D01*
X106870476Y-69037200D02*
X106918095Y-68989580D01*
X106918095Y-68989580D02*
X106965714Y-68894342D01*
X106965714Y-68894342D02*
X106965714Y-68703866D01*
X106965714Y-68703866D02*
X106918095Y-68608628D01*
X106918095Y-68608628D02*
X106870476Y-68561009D01*
X106870476Y-68561009D02*
X106775238Y-68513390D01*
X101790476Y-68084819D02*
X101600000Y-68084819D01*
X101600000Y-68084819D02*
X101504762Y-68132438D01*
X101504762Y-68132438D02*
X101457143Y-68180057D01*
X101457143Y-68180057D02*
X101361905Y-68322914D01*
X101361905Y-68322914D02*
X101314286Y-68513390D01*
X101314286Y-68513390D02*
X101314286Y-68894342D01*
X101314286Y-68894342D02*
X101361905Y-68989580D01*
X101361905Y-68989580D02*
X101409524Y-69037200D01*
X101409524Y-69037200D02*
X101504762Y-69084819D01*
X101504762Y-69084819D02*
X101695238Y-69084819D01*
X101695238Y-69084819D02*
X101790476Y-69037200D01*
X101790476Y-69037200D02*
X101838095Y-68989580D01*
X101838095Y-68989580D02*
X101885714Y-68894342D01*
X101885714Y-68894342D02*
X101885714Y-68656247D01*
X101885714Y-68656247D02*
X101838095Y-68561009D01*
X101838095Y-68561009D02*
X101790476Y-68513390D01*
X101790476Y-68513390D02*
X101695238Y-68465771D01*
X101695238Y-68465771D02*
X101504762Y-68465771D01*
X101504762Y-68465771D02*
X101409524Y-68513390D01*
X101409524Y-68513390D02*
X101361905Y-68561009D01*
X101361905Y-68561009D02*
X101314286Y-68656247D01*
X108648572Y-68084819D02*
X108981905Y-69084819D01*
X108981905Y-69084819D02*
X109315238Y-68084819D01*
X110220000Y-68989580D02*
X110172381Y-69037200D01*
X110172381Y-69037200D02*
X110029524Y-69084819D01*
X110029524Y-69084819D02*
X109934286Y-69084819D01*
X109934286Y-69084819D02*
X109791429Y-69037200D01*
X109791429Y-69037200D02*
X109696191Y-68941961D01*
X109696191Y-68941961D02*
X109648572Y-68846723D01*
X109648572Y-68846723D02*
X109600953Y-68656247D01*
X109600953Y-68656247D02*
X109600953Y-68513390D01*
X109600953Y-68513390D02*
X109648572Y-68322914D01*
X109648572Y-68322914D02*
X109696191Y-68227676D01*
X109696191Y-68227676D02*
X109791429Y-68132438D01*
X109791429Y-68132438D02*
X109934286Y-68084819D01*
X109934286Y-68084819D02*
X110029524Y-68084819D01*
X110029524Y-68084819D02*
X110172381Y-68132438D01*
X110172381Y-68132438D02*
X110220000Y-68180057D01*
X111220000Y-68989580D02*
X111172381Y-69037200D01*
X111172381Y-69037200D02*
X111029524Y-69084819D01*
X111029524Y-69084819D02*
X110934286Y-69084819D01*
X110934286Y-69084819D02*
X110791429Y-69037200D01*
X110791429Y-69037200D02*
X110696191Y-68941961D01*
X110696191Y-68941961D02*
X110648572Y-68846723D01*
X110648572Y-68846723D02*
X110600953Y-68656247D01*
X110600953Y-68656247D02*
X110600953Y-68513390D01*
X110600953Y-68513390D02*
X110648572Y-68322914D01*
X110648572Y-68322914D02*
X110696191Y-68227676D01*
X110696191Y-68227676D02*
X110791429Y-68132438D01*
X110791429Y-68132438D02*
X110934286Y-68084819D01*
X110934286Y-68084819D02*
X111029524Y-68084819D01*
X111029524Y-68084819D02*
X111172381Y-68132438D01*
X111172381Y-68132438D02*
X111220000Y-68180057D01*
X99298095Y-68084819D02*
X98821905Y-68084819D01*
X98821905Y-68084819D02*
X98774286Y-68561009D01*
X98774286Y-68561009D02*
X98821905Y-68513390D01*
X98821905Y-68513390D02*
X98917143Y-68465771D01*
X98917143Y-68465771D02*
X99155238Y-68465771D01*
X99155238Y-68465771D02*
X99250476Y-68513390D01*
X99250476Y-68513390D02*
X99298095Y-68561009D01*
X99298095Y-68561009D02*
X99345714Y-68656247D01*
X99345714Y-68656247D02*
X99345714Y-68894342D01*
X99345714Y-68894342D02*
X99298095Y-68989580D01*
X99298095Y-68989580D02*
X99250476Y-69037200D01*
X99250476Y-69037200D02*
X99155238Y-69084819D01*
X99155238Y-69084819D02*
X98917143Y-69084819D01*
X98917143Y-69084819D02*
X98821905Y-69037200D01*
X98821905Y-69037200D02*
X98774286Y-68989580D01*
X96710476Y-68418152D02*
X96710476Y-69084819D01*
X96472381Y-68037200D02*
X96234286Y-68751485D01*
X96234286Y-68751485D02*
X96853333Y-68751485D01*
X103806667Y-68084819D02*
X104473333Y-68084819D01*
X104473333Y-68084819D02*
X104044762Y-69084819D01*
X89185714Y-69084819D02*
X88614286Y-69084819D01*
X88900000Y-69084819D02*
X88900000Y-68084819D01*
X88900000Y-68084819D02*
X88804762Y-68227676D01*
X88804762Y-68227676D02*
X88709524Y-68322914D01*
X88709524Y-68322914D02*
X88614286Y-68370533D01*
X93646667Y-68084819D02*
X94265714Y-68084819D01*
X94265714Y-68084819D02*
X93932381Y-68465771D01*
X93932381Y-68465771D02*
X94075238Y-68465771D01*
X94075238Y-68465771D02*
X94170476Y-68513390D01*
X94170476Y-68513390D02*
X94218095Y-68561009D01*
X94218095Y-68561009D02*
X94265714Y-68656247D01*
X94265714Y-68656247D02*
X94265714Y-68894342D01*
X94265714Y-68894342D02*
X94218095Y-68989580D01*
X94218095Y-68989580D02*
X94170476Y-69037200D01*
X94170476Y-69037200D02*
X94075238Y-69084819D01*
X94075238Y-69084819D02*
X93789524Y-69084819D01*
X93789524Y-69084819D02*
X93694286Y-69037200D01*
X93694286Y-69037200D02*
X93646667Y-68989580D01*
X96770819Y-64687220D02*
X96104152Y-64687220D01*
X96294628Y-64687220D02*
X96199390Y-64639601D01*
X96199390Y-64639601D02*
X96151771Y-64591982D01*
X96151771Y-64591982D02*
X96104152Y-64496744D01*
X96104152Y-64496744D02*
X96104152Y-64401506D01*
X96723200Y-63687220D02*
X96770819Y-63782458D01*
X96770819Y-63782458D02*
X96770819Y-63972934D01*
X96770819Y-63972934D02*
X96723200Y-64068172D01*
X96723200Y-64068172D02*
X96627961Y-64115791D01*
X96627961Y-64115791D02*
X96247009Y-64115791D01*
X96247009Y-64115791D02*
X96151771Y-64068172D01*
X96151771Y-64068172D02*
X96104152Y-63972934D01*
X96104152Y-63972934D02*
X96104152Y-63782458D01*
X96104152Y-63782458D02*
X96151771Y-63687220D01*
X96151771Y-63687220D02*
X96247009Y-63639601D01*
X96247009Y-63639601D02*
X96342247Y-63639601D01*
X96342247Y-63639601D02*
X96437485Y-64115791D01*
X96104152Y-63306267D02*
X96770819Y-63068172D01*
X96770819Y-63068172D02*
X96104152Y-62830077D01*
X96770819Y-62449124D02*
X96104152Y-62449124D01*
X95770819Y-62449124D02*
X95818438Y-62496743D01*
X95818438Y-62496743D02*
X95866057Y-62449124D01*
X95866057Y-62449124D02*
X95818438Y-62401505D01*
X95818438Y-62401505D02*
X95770819Y-62449124D01*
X95770819Y-62449124D02*
X95866057Y-62449124D01*
X96723200Y-62020553D02*
X96770819Y-61925315D01*
X96770819Y-61925315D02*
X96770819Y-61734839D01*
X96770819Y-61734839D02*
X96723200Y-61639601D01*
X96723200Y-61639601D02*
X96627961Y-61591982D01*
X96627961Y-61591982D02*
X96580342Y-61591982D01*
X96580342Y-61591982D02*
X96485104Y-61639601D01*
X96485104Y-61639601D02*
X96437485Y-61734839D01*
X96437485Y-61734839D02*
X96437485Y-61877696D01*
X96437485Y-61877696D02*
X96389866Y-61972934D01*
X96389866Y-61972934D02*
X96294628Y-62020553D01*
X96294628Y-62020553D02*
X96247009Y-62020553D01*
X96247009Y-62020553D02*
X96151771Y-61972934D01*
X96151771Y-61972934D02*
X96104152Y-61877696D01*
X96104152Y-61877696D02*
X96104152Y-61734839D01*
X96104152Y-61734839D02*
X96151771Y-61639601D01*
X96770819Y-61163410D02*
X96104152Y-61163410D01*
X95770819Y-61163410D02*
X95818438Y-61211029D01*
X95818438Y-61211029D02*
X95866057Y-61163410D01*
X95866057Y-61163410D02*
X95818438Y-61115791D01*
X95818438Y-61115791D02*
X95770819Y-61163410D01*
X95770819Y-61163410D02*
X95866057Y-61163410D01*
X96770819Y-60544363D02*
X96723200Y-60639601D01*
X96723200Y-60639601D02*
X96675580Y-60687220D01*
X96675580Y-60687220D02*
X96580342Y-60734839D01*
X96580342Y-60734839D02*
X96294628Y-60734839D01*
X96294628Y-60734839D02*
X96199390Y-60687220D01*
X96199390Y-60687220D02*
X96151771Y-60639601D01*
X96151771Y-60639601D02*
X96104152Y-60544363D01*
X96104152Y-60544363D02*
X96104152Y-60401506D01*
X96104152Y-60401506D02*
X96151771Y-60306268D01*
X96151771Y-60306268D02*
X96199390Y-60258649D01*
X96199390Y-60258649D02*
X96294628Y-60211030D01*
X96294628Y-60211030D02*
X96580342Y-60211030D01*
X96580342Y-60211030D02*
X96675580Y-60258649D01*
X96675580Y-60258649D02*
X96723200Y-60306268D01*
X96723200Y-60306268D02*
X96770819Y-60401506D01*
X96770819Y-60401506D02*
X96770819Y-60544363D01*
X96104152Y-59782458D02*
X96770819Y-59782458D01*
X96199390Y-59782458D02*
X96151771Y-59734839D01*
X96151771Y-59734839D02*
X96104152Y-59639601D01*
X96104152Y-59639601D02*
X96104152Y-59496744D01*
X96104152Y-59496744D02*
X96151771Y-59401506D01*
X96151771Y-59401506D02*
X96247009Y-59353887D01*
X96247009Y-59353887D02*
X96770819Y-59353887D01*
X95770819Y-58211029D02*
X95770819Y-57591982D01*
X95770819Y-57591982D02*
X96151771Y-57925315D01*
X96151771Y-57925315D02*
X96151771Y-57782458D01*
X96151771Y-57782458D02*
X96199390Y-57687220D01*
X96199390Y-57687220D02*
X96247009Y-57639601D01*
X96247009Y-57639601D02*
X96342247Y-57591982D01*
X96342247Y-57591982D02*
X96580342Y-57591982D01*
X96580342Y-57591982D02*
X96675580Y-57639601D01*
X96675580Y-57639601D02*
X96723200Y-57687220D01*
X96723200Y-57687220D02*
X96770819Y-57782458D01*
X96770819Y-57782458D02*
X96770819Y-58068172D01*
X96770819Y-58068172D02*
X96723200Y-58163410D01*
X96723200Y-58163410D02*
X96675580Y-58211029D01*
X95770819Y-53639600D02*
X95770819Y-54115790D01*
X95770819Y-54115790D02*
X96247009Y-54163409D01*
X96247009Y-54163409D02*
X96199390Y-54115790D01*
X96199390Y-54115790D02*
X96151771Y-54020552D01*
X96151771Y-54020552D02*
X96151771Y-53782457D01*
X96151771Y-53782457D02*
X96199390Y-53687219D01*
X96199390Y-53687219D02*
X96247009Y-53639600D01*
X96247009Y-53639600D02*
X96342247Y-53591981D01*
X96342247Y-53591981D02*
X96580342Y-53591981D01*
X96580342Y-53591981D02*
X96675580Y-53639600D01*
X96675580Y-53639600D02*
X96723200Y-53687219D01*
X96723200Y-53687219D02*
X96770819Y-53782457D01*
X96770819Y-53782457D02*
X96770819Y-54020552D01*
X96770819Y-54020552D02*
X96723200Y-54115790D01*
X96723200Y-54115790D02*
X96675580Y-54163409D01*
X96389866Y-53163409D02*
X96389866Y-52401505D01*
X95866057Y-51972933D02*
X95818438Y-51925314D01*
X95818438Y-51925314D02*
X95770819Y-51830076D01*
X95770819Y-51830076D02*
X95770819Y-51591981D01*
X95770819Y-51591981D02*
X95818438Y-51496743D01*
X95818438Y-51496743D02*
X95866057Y-51449124D01*
X95866057Y-51449124D02*
X95961295Y-51401505D01*
X95961295Y-51401505D02*
X96056533Y-51401505D01*
X96056533Y-51401505D02*
X96199390Y-51449124D01*
X96199390Y-51449124D02*
X96770819Y-52020552D01*
X96770819Y-52020552D02*
X96770819Y-51401505D01*
X95770819Y-51068171D02*
X95770819Y-50401505D01*
X95770819Y-50401505D02*
X96770819Y-50830076D01*
X96389866Y-50020552D02*
X96389866Y-49258648D01*
X95866057Y-48830076D02*
X95818438Y-48782457D01*
X95818438Y-48782457D02*
X95770819Y-48687219D01*
X95770819Y-48687219D02*
X95770819Y-48449124D01*
X95770819Y-48449124D02*
X95818438Y-48353886D01*
X95818438Y-48353886D02*
X95866057Y-48306267D01*
X95866057Y-48306267D02*
X95961295Y-48258648D01*
X95961295Y-48258648D02*
X96056533Y-48258648D01*
X96056533Y-48258648D02*
X96199390Y-48306267D01*
X96199390Y-48306267D02*
X96770819Y-48877695D01*
X96770819Y-48877695D02*
X96770819Y-48258648D01*
X95770819Y-47639600D02*
X95770819Y-47544362D01*
X95770819Y-47544362D02*
X95818438Y-47449124D01*
X95818438Y-47449124D02*
X95866057Y-47401505D01*
X95866057Y-47401505D02*
X95961295Y-47353886D01*
X95961295Y-47353886D02*
X96151771Y-47306267D01*
X96151771Y-47306267D02*
X96389866Y-47306267D01*
X96389866Y-47306267D02*
X96580342Y-47353886D01*
X96580342Y-47353886D02*
X96675580Y-47401505D01*
X96675580Y-47401505D02*
X96723200Y-47449124D01*
X96723200Y-47449124D02*
X96770819Y-47544362D01*
X96770819Y-47544362D02*
X96770819Y-47639600D01*
X96770819Y-47639600D02*
X96723200Y-47734838D01*
X96723200Y-47734838D02*
X96675580Y-47782457D01*
X96675580Y-47782457D02*
X96580342Y-47830076D01*
X96580342Y-47830076D02*
X96389866Y-47877695D01*
X96389866Y-47877695D02*
X96151771Y-47877695D01*
X96151771Y-47877695D02*
X95961295Y-47830076D01*
X95961295Y-47830076D02*
X95866057Y-47782457D01*
X95866057Y-47782457D02*
X95818438Y-47734838D01*
X95818438Y-47734838D02*
X95770819Y-47639600D01*
X95866057Y-46925314D02*
X95818438Y-46877695D01*
X95818438Y-46877695D02*
X95770819Y-46782457D01*
X95770819Y-46782457D02*
X95770819Y-46544362D01*
X95770819Y-46544362D02*
X95818438Y-46449124D01*
X95818438Y-46449124D02*
X95866057Y-46401505D01*
X95866057Y-46401505D02*
X95961295Y-46353886D01*
X95961295Y-46353886D02*
X96056533Y-46353886D01*
X96056533Y-46353886D02*
X96199390Y-46401505D01*
X96199390Y-46401505D02*
X96770819Y-46972933D01*
X96770819Y-46972933D02*
X96770819Y-46353886D01*
X95770819Y-45496743D02*
X95770819Y-45687219D01*
X95770819Y-45687219D02*
X95818438Y-45782457D01*
X95818438Y-45782457D02*
X95866057Y-45830076D01*
X95866057Y-45830076D02*
X96008914Y-45925314D01*
X96008914Y-45925314D02*
X96199390Y-45972933D01*
X96199390Y-45972933D02*
X96580342Y-45972933D01*
X96580342Y-45972933D02*
X96675580Y-45925314D01*
X96675580Y-45925314D02*
X96723200Y-45877695D01*
X96723200Y-45877695D02*
X96770819Y-45782457D01*
X96770819Y-45782457D02*
X96770819Y-45591981D01*
X96770819Y-45591981D02*
X96723200Y-45496743D01*
X96723200Y-45496743D02*
X96675580Y-45449124D01*
X96675580Y-45449124D02*
X96580342Y-45401505D01*
X96580342Y-45401505D02*
X96342247Y-45401505D01*
X96342247Y-45401505D02*
X96247009Y-45449124D01*
X96247009Y-45449124D02*
X96199390Y-45496743D01*
X96199390Y-45496743D02*
X96151771Y-45591981D01*
X96151771Y-45591981D02*
X96151771Y-45782457D01*
X96151771Y-45782457D02*
X96199390Y-45877695D01*
X96199390Y-45877695D02*
X96247009Y-45925314D01*
X96247009Y-45925314D02*
X96342247Y-45972933D01*
X100076095Y-46190819D02*
X100076095Y-47000342D01*
X100076095Y-47000342D02*
X100123714Y-47095580D01*
X100123714Y-47095580D02*
X100171333Y-47143200D01*
X100171333Y-47143200D02*
X100266571Y-47190819D01*
X100266571Y-47190819D02*
X100457047Y-47190819D01*
X100457047Y-47190819D02*
X100552285Y-47143200D01*
X100552285Y-47143200D02*
X100599904Y-47095580D01*
X100599904Y-47095580D02*
X100647523Y-47000342D01*
X100647523Y-47000342D02*
X100647523Y-46190819D01*
X101647523Y-47190819D02*
X101076095Y-47190819D01*
X101361809Y-47190819D02*
X101361809Y-46190819D01*
X101361809Y-46190819D02*
X101266571Y-46333676D01*
X101266571Y-46333676D02*
X101171333Y-46428914D01*
X101171333Y-46428914D02*
X101076095Y-46476533D01*
X97735000Y-66872200D02*
X97877857Y-66919819D01*
X97877857Y-66919819D02*
X98115952Y-66919819D01*
X98115952Y-66919819D02*
X98211190Y-66872200D01*
X98211190Y-66872200D02*
X98258809Y-66824580D01*
X98258809Y-66824580D02*
X98306428Y-66729342D01*
X98306428Y-66729342D02*
X98306428Y-66634104D01*
X98306428Y-66634104D02*
X98258809Y-66538866D01*
X98258809Y-66538866D02*
X98211190Y-66491247D01*
X98211190Y-66491247D02*
X98115952Y-66443628D01*
X98115952Y-66443628D02*
X97925476Y-66396009D01*
X97925476Y-66396009D02*
X97830238Y-66348390D01*
X97830238Y-66348390D02*
X97782619Y-66300771D01*
X97782619Y-66300771D02*
X97735000Y-66205533D01*
X97735000Y-66205533D02*
X97735000Y-66110295D01*
X97735000Y-66110295D02*
X97782619Y-66015057D01*
X97782619Y-66015057D02*
X97830238Y-65967438D01*
X97830238Y-65967438D02*
X97925476Y-65919819D01*
X97925476Y-65919819D02*
X98163571Y-65919819D01*
X98163571Y-65919819D02*
X98306428Y-65967438D01*
X98735000Y-66919819D02*
X98735000Y-65919819D01*
X98735000Y-65919819D02*
X99306428Y-66919819D01*
X99306428Y-66919819D02*
X99306428Y-65919819D01*
X99687381Y-65919819D02*
X100354047Y-65919819D01*
X100354047Y-65919819D02*
X99925476Y-66919819D01*
X101163571Y-66253152D02*
X101163571Y-66919819D01*
X100925476Y-65872200D02*
X100687381Y-66586485D01*
X100687381Y-66586485D02*
X101306428Y-66586485D01*
X101639762Y-66634104D02*
X102115952Y-66634104D01*
X101544524Y-66919819D02*
X101877857Y-65919819D01*
X101877857Y-65919819D02*
X102211190Y-66919819D01*
X103020714Y-66919819D02*
X102544524Y-66919819D01*
X102544524Y-66919819D02*
X102544524Y-65919819D01*
X103306429Y-66872200D02*
X103449286Y-66919819D01*
X103449286Y-66919819D02*
X103687381Y-66919819D01*
X103687381Y-66919819D02*
X103782619Y-66872200D01*
X103782619Y-66872200D02*
X103830238Y-66824580D01*
X103830238Y-66824580D02*
X103877857Y-66729342D01*
X103877857Y-66729342D02*
X103877857Y-66634104D01*
X103877857Y-66634104D02*
X103830238Y-66538866D01*
X103830238Y-66538866D02*
X103782619Y-66491247D01*
X103782619Y-66491247D02*
X103687381Y-66443628D01*
X103687381Y-66443628D02*
X103496905Y-66396009D01*
X103496905Y-66396009D02*
X103401667Y-66348390D01*
X103401667Y-66348390D02*
X103354048Y-66300771D01*
X103354048Y-66300771D02*
X103306429Y-66205533D01*
X103306429Y-66205533D02*
X103306429Y-66110295D01*
X103306429Y-66110295D02*
X103354048Y-66015057D01*
X103354048Y-66015057D02*
X103401667Y-65967438D01*
X103401667Y-65967438D02*
X103496905Y-65919819D01*
X103496905Y-65919819D02*
X103735000Y-65919819D01*
X103735000Y-65919819D02*
X103877857Y-65967438D01*
X104258810Y-66015057D02*
X104306429Y-65967438D01*
X104306429Y-65967438D02*
X104401667Y-65919819D01*
X104401667Y-65919819D02*
X104639762Y-65919819D01*
X104639762Y-65919819D02*
X104735000Y-65967438D01*
X104735000Y-65967438D02*
X104782619Y-66015057D01*
X104782619Y-66015057D02*
X104830238Y-66110295D01*
X104830238Y-66110295D02*
X104830238Y-66205533D01*
X104830238Y-66205533D02*
X104782619Y-66348390D01*
X104782619Y-66348390D02*
X104211191Y-66919819D01*
X104211191Y-66919819D02*
X104830238Y-66919819D01*
X105735000Y-65919819D02*
X105258810Y-65919819D01*
X105258810Y-65919819D02*
X105211191Y-66396009D01*
X105211191Y-66396009D02*
X105258810Y-66348390D01*
X105258810Y-66348390D02*
X105354048Y-66300771D01*
X105354048Y-66300771D02*
X105592143Y-66300771D01*
X105592143Y-66300771D02*
X105687381Y-66348390D01*
X105687381Y-66348390D02*
X105735000Y-66396009D01*
X105735000Y-66396009D02*
X105782619Y-66491247D01*
X105782619Y-66491247D02*
X105782619Y-66729342D01*
X105782619Y-66729342D02*
X105735000Y-66824580D01*
X105735000Y-66824580D02*
X105687381Y-66872200D01*
X105687381Y-66872200D02*
X105592143Y-66919819D01*
X105592143Y-66919819D02*
X105354048Y-66919819D01*
X105354048Y-66919819D02*
X105258810Y-66872200D01*
X105258810Y-66872200D02*
X105211191Y-66824580D01*
X106258810Y-66919819D02*
X106449286Y-66919819D01*
X106449286Y-66919819D02*
X106544524Y-66872200D01*
X106544524Y-66872200D02*
X106592143Y-66824580D01*
X106592143Y-66824580D02*
X106687381Y-66681723D01*
X106687381Y-66681723D02*
X106735000Y-66491247D01*
X106735000Y-66491247D02*
X106735000Y-66110295D01*
X106735000Y-66110295D02*
X106687381Y-66015057D01*
X106687381Y-66015057D02*
X106639762Y-65967438D01*
X106639762Y-65967438D02*
X106544524Y-65919819D01*
X106544524Y-65919819D02*
X106354048Y-65919819D01*
X106354048Y-65919819D02*
X106258810Y-65967438D01*
X106258810Y-65967438D02*
X106211191Y-66015057D01*
X106211191Y-66015057D02*
X106163572Y-66110295D01*
X106163572Y-66110295D02*
X106163572Y-66348390D01*
X106163572Y-66348390D02*
X106211191Y-66443628D01*
X106211191Y-66443628D02*
X106258810Y-66491247D01*
X106258810Y-66491247D02*
X106354048Y-66538866D01*
X106354048Y-66538866D02*
X106544524Y-66538866D01*
X106544524Y-66538866D02*
X106639762Y-66491247D01*
X106639762Y-66491247D02*
X106687381Y-66443628D01*
X106687381Y-66443628D02*
X106735000Y-66348390D01*
X83512819Y-72143762D02*
X83036628Y-72477095D01*
X83512819Y-72715190D02*
X82512819Y-72715190D01*
X82512819Y-72715190D02*
X82512819Y-72334238D01*
X82512819Y-72334238D02*
X82560438Y-72239000D01*
X82560438Y-72239000D02*
X82608057Y-72191381D01*
X82608057Y-72191381D02*
X82703295Y-72143762D01*
X82703295Y-72143762D02*
X82846152Y-72143762D01*
X82846152Y-72143762D02*
X82941390Y-72191381D01*
X82941390Y-72191381D02*
X82989009Y-72239000D01*
X82989009Y-72239000D02*
X83036628Y-72334238D01*
X83036628Y-72334238D02*
X83036628Y-72715190D01*
X82989009Y-71715190D02*
X82989009Y-71381857D01*
X83512819Y-71239000D02*
X83512819Y-71715190D01*
X83512819Y-71715190D02*
X82512819Y-71715190D01*
X82512819Y-71715190D02*
X82512819Y-71239000D01*
X83512819Y-70334238D02*
X83512819Y-70810428D01*
X83512819Y-70810428D02*
X82512819Y-70810428D01*
X83227104Y-70048523D02*
X83227104Y-69572333D01*
X83512819Y-70143761D02*
X82512819Y-69810428D01*
X82512819Y-69810428D02*
X83512819Y-69477095D01*
X83036628Y-68953285D02*
X83512819Y-68953285D01*
X82512819Y-69286618D02*
X83036628Y-68953285D01*
X83036628Y-68953285D02*
X82512819Y-68619952D01*
X87527142Y-65967438D02*
X87431904Y-65919819D01*
X87431904Y-65919819D02*
X87289047Y-65919819D01*
X87289047Y-65919819D02*
X87146190Y-65967438D01*
X87146190Y-65967438D02*
X87050952Y-66062676D01*
X87050952Y-66062676D02*
X87003333Y-66157914D01*
X87003333Y-66157914D02*
X86955714Y-66348390D01*
X86955714Y-66348390D02*
X86955714Y-66491247D01*
X86955714Y-66491247D02*
X87003333Y-66681723D01*
X87003333Y-66681723D02*
X87050952Y-66776961D01*
X87050952Y-66776961D02*
X87146190Y-66872200D01*
X87146190Y-66872200D02*
X87289047Y-66919819D01*
X87289047Y-66919819D02*
X87384285Y-66919819D01*
X87384285Y-66919819D02*
X87527142Y-66872200D01*
X87527142Y-66872200D02*
X87574761Y-66824580D01*
X87574761Y-66824580D02*
X87574761Y-66491247D01*
X87574761Y-66491247D02*
X87384285Y-66491247D01*
X88431904Y-66919819D02*
X88431904Y-66396009D01*
X88431904Y-66396009D02*
X88384285Y-66300771D01*
X88384285Y-66300771D02*
X88289047Y-66253152D01*
X88289047Y-66253152D02*
X88098571Y-66253152D01*
X88098571Y-66253152D02*
X88003333Y-66300771D01*
X88431904Y-66872200D02*
X88336666Y-66919819D01*
X88336666Y-66919819D02*
X88098571Y-66919819D01*
X88098571Y-66919819D02*
X88003333Y-66872200D01*
X88003333Y-66872200D02*
X87955714Y-66776961D01*
X87955714Y-66776961D02*
X87955714Y-66681723D01*
X87955714Y-66681723D02*
X88003333Y-66586485D01*
X88003333Y-66586485D02*
X88098571Y-66538866D01*
X88098571Y-66538866D02*
X88336666Y-66538866D01*
X88336666Y-66538866D02*
X88431904Y-66491247D01*
X88908095Y-66919819D02*
X88908095Y-66253152D01*
X88908095Y-66348390D02*
X88955714Y-66300771D01*
X88955714Y-66300771D02*
X89050952Y-66253152D01*
X89050952Y-66253152D02*
X89193809Y-66253152D01*
X89193809Y-66253152D02*
X89289047Y-66300771D01*
X89289047Y-66300771D02*
X89336666Y-66396009D01*
X89336666Y-66396009D02*
X89336666Y-66919819D01*
X89336666Y-66396009D02*
X89384285Y-66300771D01*
X89384285Y-66300771D02*
X89479523Y-66253152D01*
X89479523Y-66253152D02*
X89622380Y-66253152D01*
X89622380Y-66253152D02*
X89717619Y-66300771D01*
X89717619Y-66300771D02*
X89765238Y-66396009D01*
X89765238Y-66396009D02*
X89765238Y-66919819D01*
X90622380Y-66872200D02*
X90527142Y-66919819D01*
X90527142Y-66919819D02*
X90336666Y-66919819D01*
X90336666Y-66919819D02*
X90241428Y-66872200D01*
X90241428Y-66872200D02*
X90193809Y-66776961D01*
X90193809Y-66776961D02*
X90193809Y-66396009D01*
X90193809Y-66396009D02*
X90241428Y-66300771D01*
X90241428Y-66300771D02*
X90336666Y-66253152D01*
X90336666Y-66253152D02*
X90527142Y-66253152D01*
X90527142Y-66253152D02*
X90622380Y-66300771D01*
X90622380Y-66300771D02*
X90669999Y-66396009D01*
X90669999Y-66396009D02*
X90669999Y-66491247D01*
X90669999Y-66491247D02*
X90193809Y-66586485D01*
X91098571Y-66253152D02*
X91098571Y-67253152D01*
X91098571Y-66300771D02*
X91193809Y-66253152D01*
X91193809Y-66253152D02*
X91384285Y-66253152D01*
X91384285Y-66253152D02*
X91479523Y-66300771D01*
X91479523Y-66300771D02*
X91527142Y-66348390D01*
X91527142Y-66348390D02*
X91574761Y-66443628D01*
X91574761Y-66443628D02*
X91574761Y-66729342D01*
X91574761Y-66729342D02*
X91527142Y-66824580D01*
X91527142Y-66824580D02*
X91479523Y-66872200D01*
X91479523Y-66872200D02*
X91384285Y-66919819D01*
X91384285Y-66919819D02*
X91193809Y-66919819D01*
X91193809Y-66919819D02*
X91098571Y-66872200D01*
X92431904Y-66919819D02*
X92431904Y-66396009D01*
X92431904Y-66396009D02*
X92384285Y-66300771D01*
X92384285Y-66300771D02*
X92289047Y-66253152D01*
X92289047Y-66253152D02*
X92098571Y-66253152D01*
X92098571Y-66253152D02*
X92003333Y-66300771D01*
X92431904Y-66872200D02*
X92336666Y-66919819D01*
X92336666Y-66919819D02*
X92098571Y-66919819D01*
X92098571Y-66919819D02*
X92003333Y-66872200D01*
X92003333Y-66872200D02*
X91955714Y-66776961D01*
X91955714Y-66776961D02*
X91955714Y-66681723D01*
X91955714Y-66681723D02*
X92003333Y-66586485D01*
X92003333Y-66586485D02*
X92098571Y-66538866D01*
X92098571Y-66538866D02*
X92336666Y-66538866D01*
X92336666Y-66538866D02*
X92431904Y-66491247D01*
X93336666Y-66919819D02*
X93336666Y-65919819D01*
X93336666Y-66872200D02*
X93241428Y-66919819D01*
X93241428Y-66919819D02*
X93050952Y-66919819D01*
X93050952Y-66919819D02*
X92955714Y-66872200D01*
X92955714Y-66872200D02*
X92908095Y-66824580D01*
X92908095Y-66824580D02*
X92860476Y-66729342D01*
X92860476Y-66729342D02*
X92860476Y-66443628D01*
X92860476Y-66443628D02*
X92908095Y-66348390D01*
X92908095Y-66348390D02*
X92955714Y-66300771D01*
X92955714Y-66300771D02*
X93050952Y-66253152D01*
X93050952Y-66253152D02*
X93241428Y-66253152D01*
X93241428Y-66253152D02*
X93336666Y-66300771D01*
X111548200Y-53014333D02*
X112833914Y-53871475D01*
X112595819Y-52109571D02*
X112119628Y-52442904D01*
X112595819Y-52680999D02*
X111595819Y-52680999D01*
X111595819Y-52680999D02*
X111595819Y-52300047D01*
X111595819Y-52300047D02*
X111643438Y-52204809D01*
X111643438Y-52204809D02*
X111691057Y-52157190D01*
X111691057Y-52157190D02*
X111786295Y-52109571D01*
X111786295Y-52109571D02*
X111929152Y-52109571D01*
X111929152Y-52109571D02*
X112024390Y-52157190D01*
X112024390Y-52157190D02*
X112072009Y-52204809D01*
X112072009Y-52204809D02*
X112119628Y-52300047D01*
X112119628Y-52300047D02*
X112119628Y-52680999D01*
X112072009Y-51680999D02*
X112072009Y-51347666D01*
X112595819Y-51204809D02*
X112595819Y-51680999D01*
X112595819Y-51680999D02*
X111595819Y-51680999D01*
X111595819Y-51680999D02*
X111595819Y-51204809D01*
X112548200Y-50823856D02*
X112595819Y-50680999D01*
X112595819Y-50680999D02*
X112595819Y-50442904D01*
X112595819Y-50442904D02*
X112548200Y-50347666D01*
X112548200Y-50347666D02*
X112500580Y-50300047D01*
X112500580Y-50300047D02*
X112405342Y-50252428D01*
X112405342Y-50252428D02*
X112310104Y-50252428D01*
X112310104Y-50252428D02*
X112214866Y-50300047D01*
X112214866Y-50300047D02*
X112167247Y-50347666D01*
X112167247Y-50347666D02*
X112119628Y-50442904D01*
X112119628Y-50442904D02*
X112072009Y-50633380D01*
X112072009Y-50633380D02*
X112024390Y-50728618D01*
X112024390Y-50728618D02*
X111976771Y-50776237D01*
X111976771Y-50776237D02*
X111881533Y-50823856D01*
X111881533Y-50823856D02*
X111786295Y-50823856D01*
X111786295Y-50823856D02*
X111691057Y-50776237D01*
X111691057Y-50776237D02*
X111643438Y-50728618D01*
X111643438Y-50728618D02*
X111595819Y-50633380D01*
X111595819Y-50633380D02*
X111595819Y-50395285D01*
X111595819Y-50395285D02*
X111643438Y-50252428D01*
X112072009Y-49823856D02*
X112072009Y-49490523D01*
X112595819Y-49347666D02*
X112595819Y-49823856D01*
X112595819Y-49823856D02*
X111595819Y-49823856D01*
X111595819Y-49823856D02*
X111595819Y-49347666D01*
X111595819Y-49061951D02*
X111595819Y-48490523D01*
X112595819Y-48776237D02*
X111595819Y-48776237D01*
X111875219Y-65523856D02*
X111875219Y-65428618D01*
X111875219Y-65428618D02*
X111922838Y-65333380D01*
X111922838Y-65333380D02*
X111970457Y-65285761D01*
X111970457Y-65285761D02*
X112065695Y-65238142D01*
X112065695Y-65238142D02*
X112256171Y-65190523D01*
X112256171Y-65190523D02*
X112494266Y-65190523D01*
X112494266Y-65190523D02*
X112684742Y-65238142D01*
X112684742Y-65238142D02*
X112779980Y-65285761D01*
X112779980Y-65285761D02*
X112827600Y-65333380D01*
X112827600Y-65333380D02*
X112875219Y-65428618D01*
X112875219Y-65428618D02*
X112875219Y-65523856D01*
X112875219Y-65523856D02*
X112827600Y-65619094D01*
X112827600Y-65619094D02*
X112779980Y-65666713D01*
X112779980Y-65666713D02*
X112684742Y-65714332D01*
X112684742Y-65714332D02*
X112494266Y-65761951D01*
X112494266Y-65761951D02*
X112256171Y-65761951D01*
X112256171Y-65761951D02*
X112065695Y-65714332D01*
X112065695Y-65714332D02*
X111970457Y-65666713D01*
X111970457Y-65666713D02*
X111922838Y-65619094D01*
X111922838Y-65619094D02*
X111875219Y-65523856D01*
X112779980Y-64761951D02*
X112827600Y-64714332D01*
X112827600Y-64714332D02*
X112875219Y-64761951D01*
X112875219Y-64761951D02*
X112827600Y-64809570D01*
X112827600Y-64809570D02*
X112779980Y-64761951D01*
X112779980Y-64761951D02*
X112875219Y-64761951D01*
X112875219Y-63761952D02*
X112875219Y-64333380D01*
X112875219Y-64047666D02*
X111875219Y-64047666D01*
X111875219Y-64047666D02*
X112018076Y-64142904D01*
X112018076Y-64142904D02*
X112113314Y-64238142D01*
X112113314Y-64238142D02*
X112160933Y-64333380D01*
X112208552Y-62904809D02*
X112875219Y-62904809D01*
X112208552Y-63333380D02*
X112732361Y-63333380D01*
X112732361Y-63333380D02*
X112827600Y-63285761D01*
X112827600Y-63285761D02*
X112875219Y-63190523D01*
X112875219Y-63190523D02*
X112875219Y-63047666D01*
X112875219Y-63047666D02*
X112827600Y-62952428D01*
X112827600Y-62952428D02*
X112779980Y-62904809D01*
X112351409Y-62095285D02*
X112351409Y-62428618D01*
X112875219Y-62428618D02*
X111875219Y-62428618D01*
X111875219Y-62428618D02*
X111875219Y-61952428D01*
D11*
%TO.C,U1*%
X99585000Y-45025000D02*
X99585000Y-65465000D01*
X99585000Y-65465000D02*
X104885000Y-65465000D01*
X101235000Y-45025000D02*
X99585000Y-45025000D01*
X104885000Y-45025000D02*
X103235000Y-45025000D01*
X104885000Y-65465000D02*
X104885000Y-45025000D01*
X103235000Y-45025000D02*
G75*
G02*
X101235000Y-45025000I-1000000J0D01*
G01*
%TO.C,J4*%
X85030000Y-72450000D02*
X85030000Y-71120000D01*
X86360000Y-72450000D02*
X85030000Y-72450000D01*
X87630000Y-69790000D02*
X110550000Y-69790000D01*
X87630000Y-72450000D02*
X87630000Y-69790000D01*
X87630000Y-72450000D02*
X110550000Y-72450000D01*
X110550000Y-72450000D02*
X110550000Y-69790000D01*
%TO.C,C2*%
X111504000Y-57892733D02*
X111504000Y-58185267D01*
X112524000Y-57892733D02*
X112524000Y-58185267D01*
%TO.C,U2*%
X106110000Y-50185000D02*
X104160000Y-50185000D01*
X106110000Y-50185000D02*
X108060000Y-50185000D01*
X106110000Y-60305000D02*
X104160000Y-60305000D01*
X106110000Y-60305000D02*
X108060000Y-60305000D01*
X103410000Y-50240000D02*
X103170000Y-49910000D01*
X103650000Y-49910000D01*
X103410000Y-50240000D01*
G36*
X103410000Y-50240000D02*
G01*
X103170000Y-49910000D01*
X103650000Y-49910000D01*
X103410000Y-50240000D01*
G37*
%TO.C,J2*%
X87520000Y-45025000D02*
X87520000Y-65465000D01*
X87520000Y-65465000D02*
X92820000Y-65465000D01*
X89170000Y-45025000D02*
X87520000Y-45025000D01*
X92820000Y-45025000D02*
X91170000Y-45025000D01*
X92820000Y-65465000D02*
X92820000Y-45025000D01*
X91170000Y-45025000D02*
G75*
G02*
X89170000Y-45025000I-1000000J0D01*
G01*
%TO.C,J3*%
X109795000Y-45025000D02*
X111125000Y-45025000D01*
X109795000Y-46355000D02*
X109795000Y-45025000D01*
X109795000Y-47625000D02*
X109795000Y-47685000D01*
X109795000Y-47625000D02*
X112455000Y-47625000D01*
X109795000Y-47685000D02*
X112455000Y-47685000D01*
X112455000Y-47625000D02*
X112455000Y-47685000D01*
%TO.C,C1*%
X110944000Y-60309000D02*
X110944000Y-55769000D01*
X111000000Y-60309000D02*
X110944000Y-60309000D01*
X113028000Y-55769000D02*
X113084000Y-55769000D01*
X113084000Y-55769000D02*
X113084000Y-60309000D01*
%TD*%
M02*
