%TF.GenerationSoftware,KiCad,Pcbnew,8.0.5*%
%TF.CreationDate,2026-05-26T00:40:26-04:00*%
%TF.ProjectId,A2Relay,41325265-6c61-4792-9e6b-696361645f70,rev?*%
%TF.SameCoordinates,Original*%
%TF.FileFunction,Legend,Top*%
%TF.FilePolarity,Positive*%
%FSLAX46Y46*%
G04 Gerber Fmt 4.6, Leading zero omitted, Abs format (unit mm)*
G04 Created by KiCad (PCBNEW 8.0.5) date 2026-05-26 00:40:26*
%MOMM*%
%LPD*%
G01*
G04 APERTURE LIST*
%ADD10C,0.150000*%
%ADD11C,0.120000*%
G04 APERTURE END LIST*
D10*
X101790476Y-68084819D02*
X101600000Y-68084819D01*
X101600000Y-68084819D02*
X101504762Y-68132438D01*
X101504762Y-68132438D02*
X101457143Y-68180057D01*
X101457143Y-68180057D02*
X101361905Y-68322914D01*
X101361905Y-68322914D02*
X101314286Y-68513390D01*
X101314286Y-68513390D02*
X101314286Y-68894342D01*
X101314286Y-68894342D02*
X101361905Y-68989580D01*
X101361905Y-68989580D02*
X101409524Y-69037200D01*
X101409524Y-69037200D02*
X101504762Y-69084819D01*
X101504762Y-69084819D02*
X101695238Y-69084819D01*
X101695238Y-69084819D02*
X101790476Y-69037200D01*
X101790476Y-69037200D02*
X101838095Y-68989580D01*
X101838095Y-68989580D02*
X101885714Y-68894342D01*
X101885714Y-68894342D02*
X101885714Y-68656247D01*
X101885714Y-68656247D02*
X101838095Y-68561009D01*
X101838095Y-68561009D02*
X101790476Y-68513390D01*
X101790476Y-68513390D02*
X101695238Y-68465771D01*
X101695238Y-68465771D02*
X101504762Y-68465771D01*
X101504762Y-68465771D02*
X101409524Y-68513390D01*
X101409524Y-68513390D02*
X101361905Y-68561009D01*
X101361905Y-68561009D02*
X101314286Y-68656247D01*
X99298095Y-68084819D02*
X98821905Y-68084819D01*
X98821905Y-68084819D02*
X98774286Y-68561009D01*
X98774286Y-68561009D02*
X98821905Y-68513390D01*
X98821905Y-68513390D02*
X98917143Y-68465771D01*
X98917143Y-68465771D02*
X99155238Y-68465771D01*
X99155238Y-68465771D02*
X99250476Y-68513390D01*
X99250476Y-68513390D02*
X99298095Y-68561009D01*
X99298095Y-68561009D02*
X99345714Y-68656247D01*
X99345714Y-68656247D02*
X99345714Y-68894342D01*
X99345714Y-68894342D02*
X99298095Y-68989580D01*
X99298095Y-68989580D02*
X99250476Y-69037200D01*
X99250476Y-69037200D02*
X99155238Y-69084819D01*
X99155238Y-69084819D02*
X98917143Y-69084819D01*
X98917143Y-69084819D02*
X98821905Y-69037200D01*
X98821905Y-69037200D02*
X98774286Y-68989580D01*
X103806667Y-68084819D02*
X104473333Y-68084819D01*
X104473333Y-68084819D02*
X104044762Y-69084819D01*
X106584762Y-68513390D02*
X106489524Y-68465771D01*
X106489524Y-68465771D02*
X106441905Y-68418152D01*
X106441905Y-68418152D02*
X106394286Y-68322914D01*
X106394286Y-68322914D02*
X106394286Y-68275295D01*
X106394286Y-68275295D02*
X106441905Y-68180057D01*
X106441905Y-68180057D02*
X106489524Y-68132438D01*
X106489524Y-68132438D02*
X106584762Y-68084819D01*
X106584762Y-68084819D02*
X106775238Y-68084819D01*
X106775238Y-68084819D02*
X106870476Y-68132438D01*
X106870476Y-68132438D02*
X106918095Y-68180057D01*
X106918095Y-68180057D02*
X106965714Y-68275295D01*
X106965714Y-68275295D02*
X106965714Y-68322914D01*
X106965714Y-68322914D02*
X106918095Y-68418152D01*
X106918095Y-68418152D02*
X106870476Y-68465771D01*
X106870476Y-68465771D02*
X106775238Y-68513390D01*
X106775238Y-68513390D02*
X106584762Y-68513390D01*
X106584762Y-68513390D02*
X106489524Y-68561009D01*
X106489524Y-68561009D02*
X106441905Y-68608628D01*
X106441905Y-68608628D02*
X106394286Y-68703866D01*
X106394286Y-68703866D02*
X106394286Y-68894342D01*
X106394286Y-68894342D02*
X106441905Y-68989580D01*
X106441905Y-68989580D02*
X106489524Y-69037200D01*
X106489524Y-69037200D02*
X106584762Y-69084819D01*
X106584762Y-69084819D02*
X106775238Y-69084819D01*
X106775238Y-69084819D02*
X106870476Y-69037200D01*
X106870476Y-69037200D02*
X106918095Y-68989580D01*
X106918095Y-68989580D02*
X106965714Y-68894342D01*
X106965714Y-68894342D02*
X106965714Y-68703866D01*
X106965714Y-68703866D02*
X106918095Y-68608628D01*
X106918095Y-68608628D02*
X106870476Y-68561009D01*
X106870476Y-68561009D02*
X106775238Y-68513390D01*
X96710476Y-68418152D02*
X96710476Y-69084819D01*
X96472381Y-68037200D02*
X96234286Y-68751485D01*
X96234286Y-68751485D02*
X96853333Y-68751485D01*
X93646667Y-68084819D02*
X94265714Y-68084819D01*
X94265714Y-68084819D02*
X93932381Y-68465771D01*
X93932381Y-68465771D02*
X94075238Y-68465771D01*
X94075238Y-68465771D02*
X94170476Y-68513390D01*
X94170476Y-68513390D02*
X94218095Y-68561009D01*
X94218095Y-68561009D02*
X94265714Y-68656247D01*
X94265714Y-68656247D02*
X94265714Y-68894342D01*
X94265714Y-68894342D02*
X94218095Y-68989580D01*
X94218095Y-68989580D02*
X94170476Y-69037200D01*
X94170476Y-69037200D02*
X94075238Y-69084819D01*
X94075238Y-69084819D02*
X93789524Y-69084819D01*
X93789524Y-69084819D02*
X93694286Y-69037200D01*
X93694286Y-69037200D02*
X93646667Y-68989580D01*
X91154286Y-68180057D02*
X91201905Y-68132438D01*
X91201905Y-68132438D02*
X91297143Y-68084819D01*
X91297143Y-68084819D02*
X91535238Y-68084819D01*
X91535238Y-68084819D02*
X91630476Y-68132438D01*
X91630476Y-68132438D02*
X91678095Y-68180057D01*
X91678095Y-68180057D02*
X91725714Y-68275295D01*
X91725714Y-68275295D02*
X91725714Y-68370533D01*
X91725714Y-68370533D02*
X91678095Y-68513390D01*
X91678095Y-68513390D02*
X91106667Y-69084819D01*
X91106667Y-69084819D02*
X91725714Y-69084819D01*
X89185714Y-69084819D02*
X88614286Y-69084819D01*
X88900000Y-69084819D02*
X88900000Y-68084819D01*
X88900000Y-68084819D02*
X88804762Y-68227676D01*
X88804762Y-68227676D02*
X88709524Y-68322914D01*
X88709524Y-68322914D02*
X88614286Y-68370533D01*
X108458095Y-68132438D02*
X108362857Y-68084819D01*
X108362857Y-68084819D02*
X108220000Y-68084819D01*
X108220000Y-68084819D02*
X108077143Y-68132438D01*
X108077143Y-68132438D02*
X107981905Y-68227676D01*
X107981905Y-68227676D02*
X107934286Y-68322914D01*
X107934286Y-68322914D02*
X107886667Y-68513390D01*
X107886667Y-68513390D02*
X107886667Y-68656247D01*
X107886667Y-68656247D02*
X107934286Y-68846723D01*
X107934286Y-68846723D02*
X107981905Y-68941961D01*
X107981905Y-68941961D02*
X108077143Y-69037200D01*
X108077143Y-69037200D02*
X108220000Y-69084819D01*
X108220000Y-69084819D02*
X108315238Y-69084819D01*
X108315238Y-69084819D02*
X108458095Y-69037200D01*
X108458095Y-69037200D02*
X108505714Y-68989580D01*
X108505714Y-68989580D02*
X108505714Y-68656247D01*
X108505714Y-68656247D02*
X108315238Y-68656247D01*
X108934286Y-69084819D02*
X108934286Y-68084819D01*
X108934286Y-68084819D02*
X109505714Y-69084819D01*
X109505714Y-69084819D02*
X109505714Y-68084819D01*
X109981905Y-69084819D02*
X109981905Y-68084819D01*
X109981905Y-68084819D02*
X110220000Y-68084819D01*
X110220000Y-68084819D02*
X110362857Y-68132438D01*
X110362857Y-68132438D02*
X110458095Y-68227676D01*
X110458095Y-68227676D02*
X110505714Y-68322914D01*
X110505714Y-68322914D02*
X110553333Y-68513390D01*
X110553333Y-68513390D02*
X110553333Y-68656247D01*
X110553333Y-68656247D02*
X110505714Y-68846723D01*
X110505714Y-68846723D02*
X110458095Y-68941961D01*
X110458095Y-68941961D02*
X110362857Y-69037200D01*
X110362857Y-69037200D02*
X110220000Y-69084819D01*
X110220000Y-69084819D02*
X109981905Y-69084819D01*
X85026667Y-68084819D02*
X85360000Y-69084819D01*
X85360000Y-69084819D02*
X85693333Y-68084819D01*
X86598095Y-68989580D02*
X86550476Y-69037200D01*
X86550476Y-69037200D02*
X86407619Y-69084819D01*
X86407619Y-69084819D02*
X86312381Y-69084819D01*
X86312381Y-69084819D02*
X86169524Y-69037200D01*
X86169524Y-69037200D02*
X86074286Y-68941961D01*
X86074286Y-68941961D02*
X86026667Y-68846723D01*
X86026667Y-68846723D02*
X85979048Y-68656247D01*
X85979048Y-68656247D02*
X85979048Y-68513390D01*
X85979048Y-68513390D02*
X86026667Y-68322914D01*
X86026667Y-68322914D02*
X86074286Y-68227676D01*
X86074286Y-68227676D02*
X86169524Y-68132438D01*
X86169524Y-68132438D02*
X86312381Y-68084819D01*
X86312381Y-68084819D02*
X86407619Y-68084819D01*
X86407619Y-68084819D02*
X86550476Y-68132438D01*
X86550476Y-68132438D02*
X86598095Y-68180057D01*
X87598095Y-68989580D02*
X87550476Y-69037200D01*
X87550476Y-69037200D02*
X87407619Y-69084819D01*
X87407619Y-69084819D02*
X87312381Y-69084819D01*
X87312381Y-69084819D02*
X87169524Y-69037200D01*
X87169524Y-69037200D02*
X87074286Y-68941961D01*
X87074286Y-68941961D02*
X87026667Y-68846723D01*
X87026667Y-68846723D02*
X86979048Y-68656247D01*
X86979048Y-68656247D02*
X86979048Y-68513390D01*
X86979048Y-68513390D02*
X87026667Y-68322914D01*
X87026667Y-68322914D02*
X87074286Y-68227676D01*
X87074286Y-68227676D02*
X87169524Y-68132438D01*
X87169524Y-68132438D02*
X87312381Y-68084819D01*
X87312381Y-68084819D02*
X87407619Y-68084819D01*
X87407619Y-68084819D02*
X87550476Y-68132438D01*
X87550476Y-68132438D02*
X87598095Y-68180057D01*
X112484819Y-62348856D02*
X112484819Y-62253618D01*
X112484819Y-62253618D02*
X112532438Y-62158380D01*
X112532438Y-62158380D02*
X112580057Y-62110761D01*
X112580057Y-62110761D02*
X112675295Y-62063142D01*
X112675295Y-62063142D02*
X112865771Y-62015523D01*
X112865771Y-62015523D02*
X113103866Y-62015523D01*
X113103866Y-62015523D02*
X113294342Y-62063142D01*
X113294342Y-62063142D02*
X113389580Y-62110761D01*
X113389580Y-62110761D02*
X113437200Y-62158380D01*
X113437200Y-62158380D02*
X113484819Y-62253618D01*
X113484819Y-62253618D02*
X113484819Y-62348856D01*
X113484819Y-62348856D02*
X113437200Y-62444094D01*
X113437200Y-62444094D02*
X113389580Y-62491713D01*
X113389580Y-62491713D02*
X113294342Y-62539332D01*
X113294342Y-62539332D02*
X113103866Y-62586951D01*
X113103866Y-62586951D02*
X112865771Y-62586951D01*
X112865771Y-62586951D02*
X112675295Y-62539332D01*
X112675295Y-62539332D02*
X112580057Y-62491713D01*
X112580057Y-62491713D02*
X112532438Y-62444094D01*
X112532438Y-62444094D02*
X112484819Y-62348856D01*
X113389580Y-61586951D02*
X113437200Y-61539332D01*
X113437200Y-61539332D02*
X113484819Y-61586951D01*
X113484819Y-61586951D02*
X113437200Y-61634570D01*
X113437200Y-61634570D02*
X113389580Y-61586951D01*
X113389580Y-61586951D02*
X113484819Y-61586951D01*
X113484819Y-60586952D02*
X113484819Y-61158380D01*
X113484819Y-60872666D02*
X112484819Y-60872666D01*
X112484819Y-60872666D02*
X112627676Y-60967904D01*
X112627676Y-60967904D02*
X112722914Y-61063142D01*
X112722914Y-61063142D02*
X112770533Y-61158380D01*
X112818152Y-59729809D02*
X113484819Y-59729809D01*
X112818152Y-60158380D02*
X113341961Y-60158380D01*
X113341961Y-60158380D02*
X113437200Y-60110761D01*
X113437200Y-60110761D02*
X113484819Y-60015523D01*
X113484819Y-60015523D02*
X113484819Y-59872666D01*
X113484819Y-59872666D02*
X113437200Y-59777428D01*
X113437200Y-59777428D02*
X113389580Y-59729809D01*
X112961009Y-58920285D02*
X112961009Y-59253618D01*
X113484819Y-59253618D02*
X112484819Y-59253618D01*
X112484819Y-59253618D02*
X112484819Y-58777428D01*
X102108095Y-54064819D02*
X102108095Y-54874342D01*
X102108095Y-54874342D02*
X102155714Y-54969580D01*
X102155714Y-54969580D02*
X102203333Y-55017200D01*
X102203333Y-55017200D02*
X102298571Y-55064819D01*
X102298571Y-55064819D02*
X102489047Y-55064819D01*
X102489047Y-55064819D02*
X102584285Y-55017200D01*
X102584285Y-55017200D02*
X102631904Y-54969580D01*
X102631904Y-54969580D02*
X102679523Y-54874342D01*
X102679523Y-54874342D02*
X102679523Y-54064819D01*
X103679523Y-55064819D02*
X103108095Y-55064819D01*
X103393809Y-55064819D02*
X103393809Y-54064819D01*
X103393809Y-54064819D02*
X103298571Y-54207676D01*
X103298571Y-54207676D02*
X103203333Y-54302914D01*
X103203333Y-54302914D02*
X103108095Y-54350533D01*
X98370000Y-66237200D02*
X98512857Y-66284819D01*
X98512857Y-66284819D02*
X98750952Y-66284819D01*
X98750952Y-66284819D02*
X98846190Y-66237200D01*
X98846190Y-66237200D02*
X98893809Y-66189580D01*
X98893809Y-66189580D02*
X98941428Y-66094342D01*
X98941428Y-66094342D02*
X98941428Y-65999104D01*
X98941428Y-65999104D02*
X98893809Y-65903866D01*
X98893809Y-65903866D02*
X98846190Y-65856247D01*
X98846190Y-65856247D02*
X98750952Y-65808628D01*
X98750952Y-65808628D02*
X98560476Y-65761009D01*
X98560476Y-65761009D02*
X98465238Y-65713390D01*
X98465238Y-65713390D02*
X98417619Y-65665771D01*
X98417619Y-65665771D02*
X98370000Y-65570533D01*
X98370000Y-65570533D02*
X98370000Y-65475295D01*
X98370000Y-65475295D02*
X98417619Y-65380057D01*
X98417619Y-65380057D02*
X98465238Y-65332438D01*
X98465238Y-65332438D02*
X98560476Y-65284819D01*
X98560476Y-65284819D02*
X98798571Y-65284819D01*
X98798571Y-65284819D02*
X98941428Y-65332438D01*
X99370000Y-66284819D02*
X99370000Y-65284819D01*
X99370000Y-65284819D02*
X99941428Y-66284819D01*
X99941428Y-66284819D02*
X99941428Y-65284819D01*
X100322381Y-65284819D02*
X100989047Y-65284819D01*
X100989047Y-65284819D02*
X100560476Y-66284819D01*
X101798571Y-65618152D02*
X101798571Y-66284819D01*
X101560476Y-65237200D02*
X101322381Y-65951485D01*
X101322381Y-65951485D02*
X101941428Y-65951485D01*
X102274762Y-65999104D02*
X102750952Y-65999104D01*
X102179524Y-66284819D02*
X102512857Y-65284819D01*
X102512857Y-65284819D02*
X102846190Y-66284819D01*
X103655714Y-66284819D02*
X103179524Y-66284819D01*
X103179524Y-66284819D02*
X103179524Y-65284819D01*
X103941429Y-66237200D02*
X104084286Y-66284819D01*
X104084286Y-66284819D02*
X104322381Y-66284819D01*
X104322381Y-66284819D02*
X104417619Y-66237200D01*
X104417619Y-66237200D02*
X104465238Y-66189580D01*
X104465238Y-66189580D02*
X104512857Y-66094342D01*
X104512857Y-66094342D02*
X104512857Y-65999104D01*
X104512857Y-65999104D02*
X104465238Y-65903866D01*
X104465238Y-65903866D02*
X104417619Y-65856247D01*
X104417619Y-65856247D02*
X104322381Y-65808628D01*
X104322381Y-65808628D02*
X104131905Y-65761009D01*
X104131905Y-65761009D02*
X104036667Y-65713390D01*
X104036667Y-65713390D02*
X103989048Y-65665771D01*
X103989048Y-65665771D02*
X103941429Y-65570533D01*
X103941429Y-65570533D02*
X103941429Y-65475295D01*
X103941429Y-65475295D02*
X103989048Y-65380057D01*
X103989048Y-65380057D02*
X104036667Y-65332438D01*
X104036667Y-65332438D02*
X104131905Y-65284819D01*
X104131905Y-65284819D02*
X104370000Y-65284819D01*
X104370000Y-65284819D02*
X104512857Y-65332438D01*
X104893810Y-65380057D02*
X104941429Y-65332438D01*
X104941429Y-65332438D02*
X105036667Y-65284819D01*
X105036667Y-65284819D02*
X105274762Y-65284819D01*
X105274762Y-65284819D02*
X105370000Y-65332438D01*
X105370000Y-65332438D02*
X105417619Y-65380057D01*
X105417619Y-65380057D02*
X105465238Y-65475295D01*
X105465238Y-65475295D02*
X105465238Y-65570533D01*
X105465238Y-65570533D02*
X105417619Y-65713390D01*
X105417619Y-65713390D02*
X104846191Y-66284819D01*
X104846191Y-66284819D02*
X105465238Y-66284819D01*
X106370000Y-65284819D02*
X105893810Y-65284819D01*
X105893810Y-65284819D02*
X105846191Y-65761009D01*
X105846191Y-65761009D02*
X105893810Y-65713390D01*
X105893810Y-65713390D02*
X105989048Y-65665771D01*
X105989048Y-65665771D02*
X106227143Y-65665771D01*
X106227143Y-65665771D02*
X106322381Y-65713390D01*
X106322381Y-65713390D02*
X106370000Y-65761009D01*
X106370000Y-65761009D02*
X106417619Y-65856247D01*
X106417619Y-65856247D02*
X106417619Y-66094342D01*
X106417619Y-66094342D02*
X106370000Y-66189580D01*
X106370000Y-66189580D02*
X106322381Y-66237200D01*
X106322381Y-66237200D02*
X106227143Y-66284819D01*
X106227143Y-66284819D02*
X105989048Y-66284819D01*
X105989048Y-66284819D02*
X105893810Y-66237200D01*
X105893810Y-66237200D02*
X105846191Y-66189580D01*
X106893810Y-66284819D02*
X107084286Y-66284819D01*
X107084286Y-66284819D02*
X107179524Y-66237200D01*
X107179524Y-66237200D02*
X107227143Y-66189580D01*
X107227143Y-66189580D02*
X107322381Y-66046723D01*
X107322381Y-66046723D02*
X107370000Y-65856247D01*
X107370000Y-65856247D02*
X107370000Y-65475295D01*
X107370000Y-65475295D02*
X107322381Y-65380057D01*
X107322381Y-65380057D02*
X107274762Y-65332438D01*
X107274762Y-65332438D02*
X107179524Y-65284819D01*
X107179524Y-65284819D02*
X106989048Y-65284819D01*
X106989048Y-65284819D02*
X106893810Y-65332438D01*
X106893810Y-65332438D02*
X106846191Y-65380057D01*
X106846191Y-65380057D02*
X106798572Y-65475295D01*
X106798572Y-65475295D02*
X106798572Y-65713390D01*
X106798572Y-65713390D02*
X106846191Y-65808628D01*
X106846191Y-65808628D02*
X106893810Y-65856247D01*
X106893810Y-65856247D02*
X106989048Y-65903866D01*
X106989048Y-65903866D02*
X107179524Y-65903866D01*
X107179524Y-65903866D02*
X107274762Y-65856247D01*
X107274762Y-65856247D02*
X107322381Y-65808628D01*
X107322381Y-65808628D02*
X107370000Y-65713390D01*
X96385237Y-67764819D02*
X96051904Y-67288628D01*
X95813809Y-67764819D02*
X95813809Y-66764819D01*
X95813809Y-66764819D02*
X96194761Y-66764819D01*
X96194761Y-66764819D02*
X96289999Y-66812438D01*
X96289999Y-66812438D02*
X96337618Y-66860057D01*
X96337618Y-66860057D02*
X96385237Y-66955295D01*
X96385237Y-66955295D02*
X96385237Y-67098152D01*
X96385237Y-67098152D02*
X96337618Y-67193390D01*
X96337618Y-67193390D02*
X96289999Y-67241009D01*
X96289999Y-67241009D02*
X96194761Y-67288628D01*
X96194761Y-67288628D02*
X95813809Y-67288628D01*
X96813809Y-67241009D02*
X97147142Y-67241009D01*
X97289999Y-67764819D02*
X96813809Y-67764819D01*
X96813809Y-67764819D02*
X96813809Y-66764819D01*
X96813809Y-66764819D02*
X97289999Y-66764819D01*
X98194761Y-67764819D02*
X97718571Y-67764819D01*
X97718571Y-67764819D02*
X97718571Y-66764819D01*
X98480476Y-67479104D02*
X98956666Y-67479104D01*
X98385238Y-67764819D02*
X98718571Y-66764819D01*
X98718571Y-66764819D02*
X99051904Y-67764819D01*
X99575714Y-67288628D02*
X99575714Y-67764819D01*
X99242381Y-66764819D02*
X99575714Y-67288628D01*
X99575714Y-67288628D02*
X99909047Y-66764819D01*
X112183200Y-52379333D02*
X113468914Y-53236475D01*
X113230819Y-51474571D02*
X112754628Y-51807904D01*
X113230819Y-52045999D02*
X112230819Y-52045999D01*
X112230819Y-52045999D02*
X112230819Y-51665047D01*
X112230819Y-51665047D02*
X112278438Y-51569809D01*
X112278438Y-51569809D02*
X112326057Y-51522190D01*
X112326057Y-51522190D02*
X112421295Y-51474571D01*
X112421295Y-51474571D02*
X112564152Y-51474571D01*
X112564152Y-51474571D02*
X112659390Y-51522190D01*
X112659390Y-51522190D02*
X112707009Y-51569809D01*
X112707009Y-51569809D02*
X112754628Y-51665047D01*
X112754628Y-51665047D02*
X112754628Y-52045999D01*
X112707009Y-51045999D02*
X112707009Y-50712666D01*
X113230819Y-50569809D02*
X113230819Y-51045999D01*
X113230819Y-51045999D02*
X112230819Y-51045999D01*
X112230819Y-51045999D02*
X112230819Y-50569809D01*
X113183200Y-50188856D02*
X113230819Y-50045999D01*
X113230819Y-50045999D02*
X113230819Y-49807904D01*
X113230819Y-49807904D02*
X113183200Y-49712666D01*
X113183200Y-49712666D02*
X113135580Y-49665047D01*
X113135580Y-49665047D02*
X113040342Y-49617428D01*
X113040342Y-49617428D02*
X112945104Y-49617428D01*
X112945104Y-49617428D02*
X112849866Y-49665047D01*
X112849866Y-49665047D02*
X112802247Y-49712666D01*
X112802247Y-49712666D02*
X112754628Y-49807904D01*
X112754628Y-49807904D02*
X112707009Y-49998380D01*
X112707009Y-49998380D02*
X112659390Y-50093618D01*
X112659390Y-50093618D02*
X112611771Y-50141237D01*
X112611771Y-50141237D02*
X112516533Y-50188856D01*
X112516533Y-50188856D02*
X112421295Y-50188856D01*
X112421295Y-50188856D02*
X112326057Y-50141237D01*
X112326057Y-50141237D02*
X112278438Y-50093618D01*
X112278438Y-50093618D02*
X112230819Y-49998380D01*
X112230819Y-49998380D02*
X112230819Y-49760285D01*
X112230819Y-49760285D02*
X112278438Y-49617428D01*
X112707009Y-49188856D02*
X112707009Y-48855523D01*
X113230819Y-48712666D02*
X113230819Y-49188856D01*
X113230819Y-49188856D02*
X112230819Y-49188856D01*
X112230819Y-49188856D02*
X112230819Y-48712666D01*
X112230819Y-48426951D02*
X112230819Y-47855523D01*
X113230819Y-48141237D02*
X112230819Y-48141237D01*
X87527142Y-65332438D02*
X87431904Y-65284819D01*
X87431904Y-65284819D02*
X87289047Y-65284819D01*
X87289047Y-65284819D02*
X87146190Y-65332438D01*
X87146190Y-65332438D02*
X87050952Y-65427676D01*
X87050952Y-65427676D02*
X87003333Y-65522914D01*
X87003333Y-65522914D02*
X86955714Y-65713390D01*
X86955714Y-65713390D02*
X86955714Y-65856247D01*
X86955714Y-65856247D02*
X87003333Y-66046723D01*
X87003333Y-66046723D02*
X87050952Y-66141961D01*
X87050952Y-66141961D02*
X87146190Y-66237200D01*
X87146190Y-66237200D02*
X87289047Y-66284819D01*
X87289047Y-66284819D02*
X87384285Y-66284819D01*
X87384285Y-66284819D02*
X87527142Y-66237200D01*
X87527142Y-66237200D02*
X87574761Y-66189580D01*
X87574761Y-66189580D02*
X87574761Y-65856247D01*
X87574761Y-65856247D02*
X87384285Y-65856247D01*
X88431904Y-66284819D02*
X88431904Y-65761009D01*
X88431904Y-65761009D02*
X88384285Y-65665771D01*
X88384285Y-65665771D02*
X88289047Y-65618152D01*
X88289047Y-65618152D02*
X88098571Y-65618152D01*
X88098571Y-65618152D02*
X88003333Y-65665771D01*
X88431904Y-66237200D02*
X88336666Y-66284819D01*
X88336666Y-66284819D02*
X88098571Y-66284819D01*
X88098571Y-66284819D02*
X88003333Y-66237200D01*
X88003333Y-66237200D02*
X87955714Y-66141961D01*
X87955714Y-66141961D02*
X87955714Y-66046723D01*
X87955714Y-66046723D02*
X88003333Y-65951485D01*
X88003333Y-65951485D02*
X88098571Y-65903866D01*
X88098571Y-65903866D02*
X88336666Y-65903866D01*
X88336666Y-65903866D02*
X88431904Y-65856247D01*
X88908095Y-66284819D02*
X88908095Y-65618152D01*
X88908095Y-65713390D02*
X88955714Y-65665771D01*
X88955714Y-65665771D02*
X89050952Y-65618152D01*
X89050952Y-65618152D02*
X89193809Y-65618152D01*
X89193809Y-65618152D02*
X89289047Y-65665771D01*
X89289047Y-65665771D02*
X89336666Y-65761009D01*
X89336666Y-65761009D02*
X89336666Y-66284819D01*
X89336666Y-65761009D02*
X89384285Y-65665771D01*
X89384285Y-65665771D02*
X89479523Y-65618152D01*
X89479523Y-65618152D02*
X89622380Y-65618152D01*
X89622380Y-65618152D02*
X89717619Y-65665771D01*
X89717619Y-65665771D02*
X89765238Y-65761009D01*
X89765238Y-65761009D02*
X89765238Y-66284819D01*
X90622380Y-66237200D02*
X90527142Y-66284819D01*
X90527142Y-66284819D02*
X90336666Y-66284819D01*
X90336666Y-66284819D02*
X90241428Y-66237200D01*
X90241428Y-66237200D02*
X90193809Y-66141961D01*
X90193809Y-66141961D02*
X90193809Y-65761009D01*
X90193809Y-65761009D02*
X90241428Y-65665771D01*
X90241428Y-65665771D02*
X90336666Y-65618152D01*
X90336666Y-65618152D02*
X90527142Y-65618152D01*
X90527142Y-65618152D02*
X90622380Y-65665771D01*
X90622380Y-65665771D02*
X90669999Y-65761009D01*
X90669999Y-65761009D02*
X90669999Y-65856247D01*
X90669999Y-65856247D02*
X90193809Y-65951485D01*
X91098571Y-65618152D02*
X91098571Y-66618152D01*
X91098571Y-65665771D02*
X91193809Y-65618152D01*
X91193809Y-65618152D02*
X91384285Y-65618152D01*
X91384285Y-65618152D02*
X91479523Y-65665771D01*
X91479523Y-65665771D02*
X91527142Y-65713390D01*
X91527142Y-65713390D02*
X91574761Y-65808628D01*
X91574761Y-65808628D02*
X91574761Y-66094342D01*
X91574761Y-66094342D02*
X91527142Y-66189580D01*
X91527142Y-66189580D02*
X91479523Y-66237200D01*
X91479523Y-66237200D02*
X91384285Y-66284819D01*
X91384285Y-66284819D02*
X91193809Y-66284819D01*
X91193809Y-66284819D02*
X91098571Y-66237200D01*
X92431904Y-66284819D02*
X92431904Y-65761009D01*
X92431904Y-65761009D02*
X92384285Y-65665771D01*
X92384285Y-65665771D02*
X92289047Y-65618152D01*
X92289047Y-65618152D02*
X92098571Y-65618152D01*
X92098571Y-65618152D02*
X92003333Y-65665771D01*
X92431904Y-66237200D02*
X92336666Y-66284819D01*
X92336666Y-66284819D02*
X92098571Y-66284819D01*
X92098571Y-66284819D02*
X92003333Y-66237200D01*
X92003333Y-66237200D02*
X91955714Y-66141961D01*
X91955714Y-66141961D02*
X91955714Y-66046723D01*
X91955714Y-66046723D02*
X92003333Y-65951485D01*
X92003333Y-65951485D02*
X92098571Y-65903866D01*
X92098571Y-65903866D02*
X92336666Y-65903866D01*
X92336666Y-65903866D02*
X92431904Y-65856247D01*
X93336666Y-66284819D02*
X93336666Y-65284819D01*
X93336666Y-66237200D02*
X93241428Y-66284819D01*
X93241428Y-66284819D02*
X93050952Y-66284819D01*
X93050952Y-66284819D02*
X92955714Y-66237200D01*
X92955714Y-66237200D02*
X92908095Y-66189580D01*
X92908095Y-66189580D02*
X92860476Y-66094342D01*
X92860476Y-66094342D02*
X92860476Y-65808628D01*
X92860476Y-65808628D02*
X92908095Y-65713390D01*
X92908095Y-65713390D02*
X92955714Y-65665771D01*
X92955714Y-65665771D02*
X93050952Y-65618152D01*
X93050952Y-65618152D02*
X93241428Y-65618152D01*
X93241428Y-65618152D02*
X93336666Y-65665771D01*
D11*
%TO.C,C1*%
X113442000Y-55525000D02*
X113442000Y-56783000D01*
X111602000Y-55525000D02*
X111602000Y-56783000D01*
%TO.C,U2*%
X106745000Y-49550000D02*
X104795000Y-49550000D01*
X106745000Y-49550000D02*
X108695000Y-49550000D01*
X106745000Y-59670000D02*
X104795000Y-59670000D01*
X106745000Y-59670000D02*
X108695000Y-59670000D01*
X104045000Y-49605000D02*
X103805000Y-49275000D01*
X104285000Y-49275000D01*
X104045000Y-49605000D01*
G36*
X104045000Y-49605000D02*
G01*
X103805000Y-49275000D01*
X104285000Y-49275000D01*
X104045000Y-49605000D01*
G37*
%TO.C,U1*%
X100220000Y-44390000D02*
X100220000Y-64830000D01*
X100220000Y-64830000D02*
X105520000Y-64830000D01*
X101870000Y-44390000D02*
X100220000Y-44390000D01*
X105520000Y-44390000D02*
X103870000Y-44390000D01*
X105520000Y-64830000D02*
X105520000Y-44390000D01*
X103870000Y-44390000D02*
G75*
G02*
X101870000Y-44390000I-1000000J0D01*
G01*
%TO.C,J4*%
X85030000Y-72450000D02*
X85030000Y-71120000D01*
X86360000Y-72450000D02*
X85030000Y-72450000D01*
X87630000Y-72450000D02*
X110550000Y-72450000D01*
X87630000Y-72450000D02*
X87630000Y-69790000D01*
X110550000Y-72450000D02*
X110550000Y-69790000D01*
X87630000Y-69790000D02*
X110550000Y-69790000D01*
%TO.C,J3*%
X110430000Y-44390000D02*
X111760000Y-44390000D01*
X110430000Y-45720000D02*
X110430000Y-44390000D01*
X110430000Y-46990000D02*
X110430000Y-47050000D01*
X110430000Y-46990000D02*
X113090000Y-46990000D01*
X110430000Y-47050000D02*
X113090000Y-47050000D01*
X113090000Y-46990000D02*
X113090000Y-47050000D01*
%TO.C,J2*%
X87520000Y-44390000D02*
X87520000Y-64830000D01*
X87520000Y-64830000D02*
X92820000Y-64830000D01*
X89170000Y-44390000D02*
X87520000Y-44390000D01*
X92820000Y-44390000D02*
X91170000Y-44390000D01*
X92820000Y-64830000D02*
X92820000Y-44390000D01*
X91170000Y-44390000D02*
G75*
G02*
X89170000Y-44390000I-1000000J0D01*
G01*
%TO.C,J1*%
X82490000Y-44330000D02*
X82490000Y-64890000D01*
X82490000Y-64890000D02*
X92770000Y-64890000D01*
X84980000Y-44390000D02*
X84980000Y-64830000D01*
X84980000Y-64830000D02*
X90280000Y-64830000D01*
X86630000Y-44390000D02*
X84980000Y-44390000D01*
X90280000Y-44390000D02*
X88630000Y-44390000D01*
X90280000Y-64830000D02*
X90280000Y-44390000D01*
X92770000Y-44330000D02*
X82490000Y-44330000D01*
X92770000Y-64890000D02*
X92770000Y-44330000D01*
X88630000Y-44390000D02*
G75*
G02*
X86630000Y-44390000I-1000000J0D01*
G01*
%TD*%
M02*
