M48
; DRILL file {KiCad 9.0.7} date 2026-05-26T14:03:16-0400
; FORMAT={-:-/ absolute / metric / decimal}
; #@! TF.CreationDate,2026-05-26T14:03:16-04:00
; #@! TF.GenerationSoftware,Kicad,Pcbnew,9.0.7
; #@! TF.FileFunction,MixedPlating,1,2
FMAT,2
METRIC
; #@! TA.AperFunction,Plated,PTH,ComponentDrill
T1C0.800
%
G90
G05
T1
X83.82Y-45.72
X83.82Y-48.26
X83.82Y-50.8
X83.82Y-53.34
X83.82Y-55.88
X83.82Y-58.42
X83.82Y-60.96
X83.82Y-63.5
X86.36Y-45.72
X86.36Y-48.26
X86.36Y-50.8
X86.36Y-53.34
X86.36Y-55.88
X86.36Y-58.42
X86.36Y-60.96
X86.36Y-63.5
X86.36Y-71.12
X88.9Y-71.12
X91.44Y-45.72
X91.44Y-48.26
X91.44Y-50.8
X91.44Y-53.34
X91.44Y-55.88
X91.44Y-58.42
X91.44Y-60.96
X91.44Y-63.5
X91.44Y-71.12
X93.98Y-45.72
X93.98Y-48.26
X93.98Y-50.8
X93.98Y-53.34
X93.98Y-55.88
X93.98Y-58.42
X93.98Y-60.96
X93.98Y-63.5
X93.98Y-71.12
X96.52Y-71.12
X99.06Y-45.72
X99.06Y-48.26
X99.06Y-50.8
X99.06Y-53.34
X99.06Y-55.88
X99.06Y-58.42
X99.06Y-60.96
X99.06Y-63.5
X99.06Y-71.12
X101.6Y-71.12
X104.14Y-71.12
X106.68Y-45.72
X106.68Y-48.26
X106.68Y-50.8
X106.68Y-53.34
X106.68Y-55.88
X106.68Y-58.42
X106.68Y-60.96
X106.68Y-63.5
X106.68Y-71.12
X109.22Y-71.12
X111.76Y-45.72
X112.522Y-54.904
X112.522Y-59.904
M30
