%TF.GenerationSoftware,KiCad,Pcbnew,8.0.5*%
%TF.CreationDate,2026-05-26T00:40:26-04:00*%
%TF.ProjectId,A2Relay,41325265-6c61-4792-9e6b-696361645f70,rev?*%
%TF.SameCoordinates,Original*%
%TF.FileFunction,Copper,L1,Top*%
%TF.FilePolarity,Positive*%
%FSLAX46Y46*%
G04 Gerber Fmt 4.6, Leading zero omitted, Abs format (unit mm)*
G04 Created by KiCad (PCBNEW 8.0.5) date 2026-05-26 00:40:26*
%MOMM*%
%LPD*%
G01*
G04 APERTURE LIST*
G04 Aperture macros list*
%AMRoundRect*
0 Rectangle with rounded corners*
0 $1 Rounding radius*
0 $2 $3 $4 $5 $6 $7 $8 $9 X,Y pos of 4 corners*
0 Add a 4 corners polygon primitive as box body*
4,1,4,$2,$3,$4,$5,$6,$7,$8,$9,$2,$3,0*
0 Add four circle primitives for the rounded corners*
1,1,$1+$1,$2,$3*
1,1,$1+$1,$4,$5*
1,1,$1+$1,$6,$7*
1,1,$1+$1,$8,$9*
0 Add four rect primitives between the rounded corners*
20,1,$1+$1,$2,$3,$4,$5,0*
20,1,$1+$1,$4,$5,$6,$7,0*
20,1,$1+$1,$6,$7,$8,$9,0*
20,1,$1+$1,$8,$9,$2,$3,0*%
G04 Aperture macros list end*
%TA.AperFunction,ComponentPad*%
%ADD10C,1.600000*%
%TD*%
%TA.AperFunction,SMDPad,CuDef*%
%ADD11RoundRect,0.150000X-0.825000X-0.150000X0.825000X-0.150000X0.825000X0.150000X-0.825000X0.150000X0*%
%TD*%
%TA.AperFunction,ComponentPad*%
%ADD12O,1.600000X1.600000*%
%TD*%
%TA.AperFunction,Conductor*%
%ADD13C,0.500000*%
%TD*%
%TA.AperFunction,Conductor*%
%ADD14C,0.200000*%
%TD*%
G04 APERTURE END LIST*
D10*
%TO.P,C1,1*%
%TO.N,+5V*%
X112522000Y-54904000D03*
%TO.P,C1,2*%
%TO.N,GND*%
X112522000Y-57404000D03*
%TD*%
D11*
%TO.P,U2,1,Pin_1*%
%TO.N,AN0*%
X104270000Y-50165000D03*
%TO.P,U2,2,Pin_2*%
%TO.N,AN1*%
X104270000Y-51435000D03*
%TO.P,U2,3,Pin_3*%
%TO.N,AN2*%
X104270000Y-52705000D03*
%TO.P,U2,4,Pin_4*%
%TO.N,Q0*%
X104270000Y-53975000D03*
%TO.P,U2,5,Pin_5*%
%TO.N,Q1*%
X104270000Y-55245000D03*
%TO.P,U2,6,Pin_6*%
%TO.N,Q2*%
X104270000Y-56515000D03*
%TO.P,U2,7,Pin_7*%
%TO.N,Q3*%
X104270000Y-57785000D03*
%TO.P,U2,8,Pin_8*%
%TO.N,GND*%
X104270000Y-59055000D03*
%TO.P,U2,9,Pin_9*%
%TO.N,Q4*%
X109220000Y-59055000D03*
%TO.P,U2,10,Pin_10*%
%TO.N,Q5*%
X109220000Y-57785000D03*
%TO.P,U2,11,Pin_11*%
%TO.N,Q6*%
X109220000Y-56515000D03*
%TO.P,U2,12,Pin_12*%
%TO.N,Q7*%
X109220000Y-55245000D03*
%TO.P,U2,13,Pin_13*%
%TO.N,AN3*%
X109220000Y-53975000D03*
%TO.P,U2,14,Pin_14*%
%TO.N,{slash}STB*%
X109220000Y-52705000D03*
%TO.P,U2,15,Pin_15*%
%TO.N,{slash}RST*%
X109220000Y-51435000D03*
%TO.P,U2,16,Pin_16*%
%TO.N,+5V*%
X109220000Y-50165000D03*
%TD*%
D12*
%TO.P,U1,1,Pin_1*%
%TO.N,AN0*%
X99060000Y-45720000D03*
%TO.P,U1,2,Pin_2*%
%TO.N,AN1*%
X99060000Y-48260000D03*
%TO.P,U1,3,Pin_3*%
%TO.N,AN2*%
X99060000Y-50800000D03*
%TO.P,U1,4,Pin_4*%
%TO.N,Q0*%
X99060000Y-53340000D03*
%TO.P,U1,5,Pin_5*%
%TO.N,Q1*%
X99060000Y-55880000D03*
%TO.P,U1,6,Pin_6*%
%TO.N,Q2*%
X99060000Y-58420000D03*
%TO.P,U1,7,Pin_7*%
%TO.N,Q3*%
X99060000Y-60960000D03*
%TO.P,U1,8,Pin_8*%
%TO.N,GND*%
X99060000Y-63500000D03*
%TO.P,U1,9,Pin_9*%
%TO.N,Q4*%
X106680000Y-63500000D03*
%TO.P,U1,10,Pin_10*%
%TO.N,Q5*%
X106680000Y-60960000D03*
%TO.P,U1,11,Pin_11*%
%TO.N,Q6*%
X106680000Y-58420000D03*
%TO.P,U1,12,Pin_12*%
%TO.N,Q7*%
X106680000Y-55880000D03*
%TO.P,U1,13,Pin_13*%
%TO.N,AN3*%
X106680000Y-53340000D03*
%TO.P,U1,14,Pin_14*%
%TO.N,{slash}STB*%
X106680000Y-50800000D03*
%TO.P,U1,15,Pin_15*%
%TO.N,{slash}RST*%
X106680000Y-48260000D03*
%TO.P,U1,16,Pin_16*%
%TO.N,+5V*%
X106680000Y-45720000D03*
%TD*%
%TO.P,J4,1,Pin_1*%
%TO.N,+5V*%
X86360000Y-71120000D03*
%TO.P,J4,2,Pin_2*%
%TO.N,Q0*%
X88900000Y-71120000D03*
%TO.P,J4,3,Pin_3*%
%TO.N,Q1*%
X91440000Y-71120000D03*
%TO.P,J4,4,Pin_4*%
%TO.N,Q2*%
X93980000Y-71120000D03*
%TO.P,J4,5,Pin_5*%
%TO.N,Q3*%
X96520000Y-71120000D03*
%TO.P,J4,6,Pin_6*%
%TO.N,Q4*%
X99060000Y-71120000D03*
%TO.P,J4,7,Pin_7*%
%TO.N,Q5*%
X101600000Y-71120000D03*
%TO.P,J4,8,Pin_8*%
%TO.N,Q6*%
X104140000Y-71120000D03*
%TO.P,J4,9,Pin_9*%
%TO.N,Q7*%
X106680000Y-71120000D03*
%TO.P,J4,10,Pin_10*%
%TO.N,GND*%
X109220000Y-71120000D03*
%TD*%
%TO.P,J3,1,Pin_1*%
%TO.N,{slash}RST*%
X111760000Y-45720000D03*
%TD*%
%TO.P,J2,1,Pin_1*%
%TO.N,+5V*%
X86360000Y-45720000D03*
%TO.P,J2,2,Pin_2*%
%TO.N,PB0*%
X86360000Y-48260000D03*
%TO.P,J2,3,Pin_3*%
%TO.N,PB1*%
X86360000Y-50800000D03*
%TO.P,J2,4,Pin_4*%
%TO.N,PB2*%
X86360000Y-53340000D03*
%TO.P,J2,5,Pin_5*%
%TO.N,{slash}STB*%
X86360000Y-55880000D03*
%TO.P,J2,6,Pin_6*%
%TO.N,PDL0*%
X86360000Y-58420000D03*
%TO.P,J2,7,Pin_7*%
%TO.N,PDL2*%
X86360000Y-60960000D03*
%TO.P,J2,8,Pin_8*%
%TO.N,GND*%
X86360000Y-63500000D03*
%TO.P,J2,9,Pin_9*%
%TO.N,PB3*%
X93980000Y-63500000D03*
%TO.P,J2,10,Pin_10*%
%TO.N,PDL1*%
X93980000Y-60960000D03*
%TO.P,J2,11,Pin_11*%
%TO.N,PDL3*%
X93980000Y-58420000D03*
%TO.P,J2,12,Pin_12*%
%TO.N,AN3*%
X93980000Y-55880000D03*
%TO.P,J2,13,Pin_13*%
%TO.N,AN2*%
X93980000Y-53340000D03*
%TO.P,J2,14,Pin_14*%
%TO.N,AN1*%
X93980000Y-50800000D03*
%TO.P,J2,15,Pin_15*%
%TO.N,AN0*%
X93980000Y-48260000D03*
%TO.P,J2,16,Pin_16*%
%TO.N,RESERVED*%
X93980000Y-45720000D03*
%TD*%
%TO.P,J1,1,Pin_1*%
%TO.N,+5V*%
X83820000Y-45720000D03*
%TO.P,J1,2,Pin_2*%
%TO.N,PB0*%
X83820000Y-48260000D03*
%TO.P,J1,3,Pin_3*%
%TO.N,PB1*%
X83820000Y-50800000D03*
%TO.P,J1,4,Pin_4*%
%TO.N,PB2*%
X83820000Y-53340000D03*
%TO.P,J1,5,Pin_5*%
%TO.N,{slash}STB*%
X83820000Y-55880000D03*
%TO.P,J1,6,Pin_6*%
%TO.N,PDL0*%
X83820000Y-58420000D03*
%TO.P,J1,7,Pin_7*%
%TO.N,PDL2*%
X83820000Y-60960000D03*
%TO.P,J1,8,Pin_8*%
%TO.N,GND*%
X83820000Y-63500000D03*
%TO.P,J1,9,Pin_9*%
%TO.N,PB3*%
X91440000Y-63500000D03*
%TO.P,J1,10,Pin_10*%
%TO.N,PDL1*%
X91440000Y-60960000D03*
%TO.P,J1,11,Pin_11*%
%TO.N,PDL3*%
X91440000Y-58420000D03*
%TO.P,J1,12,Pin_12*%
%TO.N,AN3*%
X91440000Y-55880000D03*
%TO.P,J1,13,Pin_13*%
%TO.N,AN2*%
X91440000Y-53340000D03*
%TO.P,J1,14,Pin_14*%
%TO.N,AN1*%
X91440000Y-50800000D03*
%TO.P,J1,15,Pin_15*%
%TO.N,AN0*%
X91440000Y-48260000D03*
%TO.P,J1,16,Pin_16*%
%TO.N,RESERVED*%
X91440000Y-45720000D03*
%TD*%
D13*
%TO.N,+5V*%
X112522000Y-52070000D02*
X112522000Y-54904000D01*
X110617000Y-50165000D02*
X112522000Y-52070000D01*
X109220000Y-50165000D02*
X110617000Y-50165000D01*
X82042000Y-47498000D02*
X82042000Y-66802000D01*
X82042000Y-66802000D02*
X86360000Y-71120000D01*
X83820000Y-45720000D02*
X82042000Y-47498000D01*
X105410000Y-44450000D02*
X106680000Y-45720000D01*
X97536000Y-44450000D02*
X105410000Y-44450000D01*
X87630000Y-46990000D02*
X94996000Y-46990000D01*
X86360000Y-45720000D02*
X87630000Y-46990000D01*
X94996000Y-46990000D02*
X97536000Y-44450000D01*
D14*
%TO.N,RESERVED*%
X91440000Y-45720000D02*
X93980000Y-45720000D01*
D13*
%TO.N,+5V*%
X86360000Y-45720000D02*
X83820000Y-45720000D01*
D14*
%TO.N,PB0*%
X86360000Y-48260000D02*
X83820000Y-48260000D01*
%TO.N,PB1*%
X83820000Y-50800000D02*
X86360000Y-50800000D01*
%TO.N,PB2*%
X86360000Y-53340000D02*
X83820000Y-53340000D01*
%TO.N,{slash}STB*%
X83820000Y-55880000D02*
X86360000Y-55880000D01*
%TO.N,PDL0*%
X86360000Y-58420000D02*
X83820000Y-58420000D01*
%TO.N,PDL2*%
X83820000Y-60960000D02*
X86360000Y-60960000D01*
%TO.N,PB3*%
X91440000Y-63500000D02*
X93980000Y-63500000D01*
%TO.N,PDL1*%
X93980000Y-60960000D02*
X91440000Y-60960000D01*
%TO.N,PDL3*%
X91440000Y-58420000D02*
X93980000Y-58420000D01*
%TO.N,AN3*%
X91440000Y-55880000D02*
X93980000Y-55880000D01*
%TO.N,AN2*%
X96520000Y-53340000D02*
X93980000Y-53340000D01*
X99060000Y-50800000D02*
X96520000Y-53340000D01*
X91440000Y-53340000D02*
X93980000Y-53340000D01*
%TO.N,AN1*%
X96520000Y-50800000D02*
X93980000Y-50800000D01*
X99060000Y-48260000D02*
X96520000Y-50800000D01*
X91440000Y-50800000D02*
X93980000Y-50800000D01*
%TO.N,AN0*%
X96520000Y-48260000D02*
X99060000Y-45720000D01*
X93980000Y-48260000D02*
X96520000Y-48260000D01*
X91440000Y-48260000D02*
X93980000Y-48260000D01*
X103505000Y-50165000D02*
X99060000Y-45720000D01*
X104270000Y-50165000D02*
X103505000Y-50165000D01*
%TO.N,AN1*%
X102235000Y-51435000D02*
X99060000Y-48260000D01*
X104270000Y-51435000D02*
X102235000Y-51435000D01*
%TO.N,AN2*%
X100965000Y-52705000D02*
X99060000Y-50800000D01*
X104270000Y-52705000D02*
X100965000Y-52705000D01*
%TO.N,Q0*%
X99695000Y-53975000D02*
X99060000Y-53340000D01*
X104270000Y-53975000D02*
X99695000Y-53975000D01*
%TO.N,Q1*%
X99695000Y-55245000D02*
X99060000Y-55880000D01*
X104270000Y-55245000D02*
X99695000Y-55245000D01*
%TO.N,Q2*%
X100965000Y-56515000D02*
X99060000Y-58420000D01*
X104270000Y-56515000D02*
X100965000Y-56515000D01*
%TO.N,Q3*%
X102235000Y-57785000D02*
X99060000Y-60960000D01*
X104270000Y-57785000D02*
X102235000Y-57785000D01*
D13*
%TO.N,+5V*%
X109220000Y-48260000D02*
X106680000Y-45720000D01*
X109220000Y-50165000D02*
X109220000Y-48260000D01*
D14*
%TO.N,{slash}RST*%
X106680000Y-49240552D02*
X106680000Y-48260000D01*
X109220000Y-51435000D02*
X108874448Y-51435000D01*
X108874448Y-51435000D02*
X106680000Y-49240552D01*
%TO.N,Q4*%
X109220000Y-60960000D02*
X106680000Y-63500000D01*
X109220000Y-59055000D02*
X109220000Y-60960000D01*
%TO.N,Q5*%
X108874448Y-57785000D02*
X106680000Y-59979448D01*
X109220000Y-57785000D02*
X108874448Y-57785000D01*
X106680000Y-59979448D02*
X106680000Y-60960000D01*
%TO.N,Q6*%
X108585000Y-56515000D02*
X106680000Y-58420000D01*
X109220000Y-56515000D02*
X108585000Y-56515000D01*
%TO.N,Q7*%
X107315000Y-55245000D02*
X106680000Y-55880000D01*
X109220000Y-55245000D02*
X107315000Y-55245000D01*
%TO.N,AN3*%
X107315000Y-53975000D02*
X106680000Y-53340000D01*
X109220000Y-53975000D02*
X107315000Y-53975000D01*
%TO.N,{slash}STB*%
X108585000Y-52705000D02*
X106680000Y-50800000D01*
X109220000Y-52705000D02*
X108585000Y-52705000D01*
%TD*%
%TA.AperFunction,Conductor*%
%TO.N,GND*%
G36*
X90138261Y-47760185D02*
G01*
X90184016Y-47812989D01*
X90193960Y-47882147D01*
X90190997Y-47896593D01*
X90154366Y-48033302D01*
X90154364Y-48033313D01*
X90134532Y-48259998D01*
X90134532Y-48260001D01*
X90154364Y-48486686D01*
X90154366Y-48486697D01*
X90213258Y-48706488D01*
X90213261Y-48706497D01*
X90309431Y-48912732D01*
X90309432Y-48912734D01*
X90439954Y-49099141D01*
X90600858Y-49260045D01*
X90600861Y-49260047D01*
X90787266Y-49390568D01*
X90845275Y-49417618D01*
X90897714Y-49463791D01*
X90916866Y-49530984D01*
X90896650Y-49597865D01*
X90845275Y-49642382D01*
X90787267Y-49669431D01*
X90787265Y-49669432D01*
X90600858Y-49799954D01*
X90439954Y-49960858D01*
X90309432Y-50147265D01*
X90309431Y-50147267D01*
X90213261Y-50353502D01*
X90213258Y-50353511D01*
X90154366Y-50573302D01*
X90154364Y-50573313D01*
X90134532Y-50799998D01*
X90134532Y-50800001D01*
X90154364Y-51026686D01*
X90154366Y-51026697D01*
X90213258Y-51246488D01*
X90213261Y-51246497D01*
X90309431Y-51452732D01*
X90309432Y-51452734D01*
X90439954Y-51639141D01*
X90600858Y-51800045D01*
X90600861Y-51800047D01*
X90787266Y-51930568D01*
X90845275Y-51957618D01*
X90897714Y-52003791D01*
X90916866Y-52070984D01*
X90896650Y-52137865D01*
X90845275Y-52182382D01*
X90787267Y-52209431D01*
X90787265Y-52209432D01*
X90600858Y-52339954D01*
X90439954Y-52500858D01*
X90309432Y-52687265D01*
X90309431Y-52687267D01*
X90213261Y-52893502D01*
X90213258Y-52893511D01*
X90154366Y-53113302D01*
X90154364Y-53113313D01*
X90134532Y-53339998D01*
X90134532Y-53340001D01*
X90154364Y-53566686D01*
X90154366Y-53566697D01*
X90213258Y-53786488D01*
X90213261Y-53786497D01*
X90309431Y-53992732D01*
X90309432Y-53992734D01*
X90439954Y-54179141D01*
X90600858Y-54340045D01*
X90600861Y-54340047D01*
X90787266Y-54470568D01*
X90845275Y-54497618D01*
X90897714Y-54543791D01*
X90916866Y-54610984D01*
X90896650Y-54677865D01*
X90845275Y-54722382D01*
X90787267Y-54749431D01*
X90787265Y-54749432D01*
X90600858Y-54879954D01*
X90439954Y-55040858D01*
X90309432Y-55227265D01*
X90309431Y-55227267D01*
X90213261Y-55433502D01*
X90213258Y-55433511D01*
X90154366Y-55653302D01*
X90154364Y-55653313D01*
X90134532Y-55879998D01*
X90134532Y-55880001D01*
X90154364Y-56106686D01*
X90154366Y-56106697D01*
X90213258Y-56326488D01*
X90213261Y-56326497D01*
X90309431Y-56532732D01*
X90309432Y-56532734D01*
X90439954Y-56719141D01*
X90600858Y-56880045D01*
X90600861Y-56880047D01*
X90787266Y-57010568D01*
X90831638Y-57031259D01*
X90845275Y-57037618D01*
X90897714Y-57083791D01*
X90916866Y-57150984D01*
X90896650Y-57217865D01*
X90845275Y-57262382D01*
X90787267Y-57289431D01*
X90787265Y-57289432D01*
X90600858Y-57419954D01*
X90439954Y-57580858D01*
X90309432Y-57767265D01*
X90309431Y-57767267D01*
X90213261Y-57973502D01*
X90213258Y-57973511D01*
X90154366Y-58193302D01*
X90154364Y-58193313D01*
X90134532Y-58419998D01*
X90134532Y-58420001D01*
X90154364Y-58646686D01*
X90154366Y-58646697D01*
X90213258Y-58866488D01*
X90213261Y-58866497D01*
X90309431Y-59072732D01*
X90309432Y-59072734D01*
X90439954Y-59259141D01*
X90600858Y-59420045D01*
X90600861Y-59420047D01*
X90787266Y-59550568D01*
X90845275Y-59577618D01*
X90897714Y-59623791D01*
X90916866Y-59690984D01*
X90896650Y-59757865D01*
X90845275Y-59802382D01*
X90787267Y-59829431D01*
X90787265Y-59829432D01*
X90600858Y-59959954D01*
X90439954Y-60120858D01*
X90309432Y-60307265D01*
X90309431Y-60307267D01*
X90213261Y-60513502D01*
X90213258Y-60513511D01*
X90154366Y-60733302D01*
X90154364Y-60733313D01*
X90134532Y-60959998D01*
X90134532Y-60960001D01*
X90154364Y-61186686D01*
X90154366Y-61186697D01*
X90213258Y-61406488D01*
X90213261Y-61406497D01*
X90309431Y-61612732D01*
X90309432Y-61612734D01*
X90439954Y-61799141D01*
X90600858Y-61960045D01*
X90600861Y-61960047D01*
X90787266Y-62090568D01*
X90845275Y-62117618D01*
X90897714Y-62163791D01*
X90916866Y-62230984D01*
X90896650Y-62297865D01*
X90845275Y-62342382D01*
X90787267Y-62369431D01*
X90787265Y-62369432D01*
X90600858Y-62499954D01*
X90439954Y-62660858D01*
X90309432Y-62847265D01*
X90309431Y-62847267D01*
X90213261Y-63053502D01*
X90213258Y-63053511D01*
X90154366Y-63273302D01*
X90154364Y-63273313D01*
X90134532Y-63499998D01*
X90134532Y-63500001D01*
X90154364Y-63726686D01*
X90154366Y-63726697D01*
X90213258Y-63946488D01*
X90213261Y-63946497D01*
X90309431Y-64152732D01*
X90309432Y-64152734D01*
X90439954Y-64339141D01*
X90600858Y-64500045D01*
X90600861Y-64500047D01*
X90787266Y-64630568D01*
X90993504Y-64726739D01*
X91213308Y-64785635D01*
X91375230Y-64799801D01*
X91439998Y-64805468D01*
X91440000Y-64805468D01*
X91440002Y-64805468D01*
X91496673Y-64800509D01*
X91666692Y-64785635D01*
X91886496Y-64726739D01*
X92092734Y-64630568D01*
X92279139Y-64500047D01*
X92440047Y-64339139D01*
X92570118Y-64153375D01*
X92624693Y-64109752D01*
X92671692Y-64100500D01*
X92748308Y-64100500D01*
X92815347Y-64120185D01*
X92849880Y-64153374D01*
X92935480Y-64275624D01*
X92979954Y-64339141D01*
X93140858Y-64500045D01*
X93140861Y-64500047D01*
X93327266Y-64630568D01*
X93533504Y-64726739D01*
X93753308Y-64785635D01*
X93915230Y-64799801D01*
X93979998Y-64805468D01*
X93980000Y-64805468D01*
X93980002Y-64805468D01*
X94036673Y-64800509D01*
X94206692Y-64785635D01*
X94426496Y-64726739D01*
X94632734Y-64630568D01*
X94819139Y-64500047D01*
X94980047Y-64339139D01*
X95110568Y-64152734D01*
X95206739Y-63946496D01*
X95265635Y-63726692D01*
X95285468Y-63500000D01*
X95265635Y-63273308D01*
X95206739Y-63053504D01*
X95110568Y-62847266D01*
X94980047Y-62660861D01*
X94980045Y-62660858D01*
X94819141Y-62499954D01*
X94632734Y-62369432D01*
X94632728Y-62369429D01*
X94574725Y-62342382D01*
X94522285Y-62296210D01*
X94503133Y-62229017D01*
X94523348Y-62162135D01*
X94574725Y-62117618D01*
X94632734Y-62090568D01*
X94819139Y-61960047D01*
X94980047Y-61799139D01*
X95110568Y-61612734D01*
X95206739Y-61406496D01*
X95265635Y-61186692D01*
X95285468Y-60960000D01*
X95265635Y-60733308D01*
X95206739Y-60513504D01*
X95110568Y-60307266D01*
X94980047Y-60120861D01*
X94980045Y-60120858D01*
X94819141Y-59959954D01*
X94632734Y-59829432D01*
X94632728Y-59829429D01*
X94584082Y-59806745D01*
X94574724Y-59802381D01*
X94522285Y-59756210D01*
X94503133Y-59689017D01*
X94523348Y-59622135D01*
X94574725Y-59577618D01*
X94632734Y-59550568D01*
X94819139Y-59420047D01*
X94980047Y-59259139D01*
X95110568Y-59072734D01*
X95206739Y-58866496D01*
X95265635Y-58646692D01*
X95285468Y-58420000D01*
X95265635Y-58193308D01*
X95206739Y-57973504D01*
X95110568Y-57767266D01*
X94980047Y-57580861D01*
X94980045Y-57580858D01*
X94819141Y-57419954D01*
X94632734Y-57289432D01*
X94632728Y-57289429D01*
X94574725Y-57262382D01*
X94522285Y-57216210D01*
X94503133Y-57149017D01*
X94523348Y-57082135D01*
X94574725Y-57037618D01*
X94588362Y-57031259D01*
X94632734Y-57010568D01*
X94819139Y-56880047D01*
X94980047Y-56719139D01*
X95110568Y-56532734D01*
X95206739Y-56326496D01*
X95265635Y-56106692D01*
X95285468Y-55880000D01*
X95265635Y-55653308D01*
X95206739Y-55433504D01*
X95110568Y-55227266D01*
X94980047Y-55040861D01*
X94980045Y-55040858D01*
X94819141Y-54879954D01*
X94632734Y-54749432D01*
X94632728Y-54749429D01*
X94574725Y-54722382D01*
X94522285Y-54676210D01*
X94503133Y-54609017D01*
X94523348Y-54542135D01*
X94574725Y-54497618D01*
X94632734Y-54470568D01*
X94819139Y-54340047D01*
X94980047Y-54179139D01*
X95110118Y-53993375D01*
X95164693Y-53949752D01*
X95211692Y-53940500D01*
X96433331Y-53940500D01*
X96433347Y-53940501D01*
X96440943Y-53940501D01*
X96599054Y-53940501D01*
X96599057Y-53940501D01*
X96751785Y-53899577D01*
X96801904Y-53870639D01*
X96888716Y-53820520D01*
X97000520Y-53708716D01*
X97000520Y-53708714D01*
X97010728Y-53698507D01*
X97010730Y-53698504D01*
X97550573Y-53158660D01*
X97611894Y-53125177D01*
X97681586Y-53130161D01*
X97737519Y-53172033D01*
X97761936Y-53237497D01*
X97761780Y-53257150D01*
X97754532Y-53339997D01*
X97754532Y-53340001D01*
X97774364Y-53566686D01*
X97774366Y-53566697D01*
X97833258Y-53786488D01*
X97833261Y-53786497D01*
X97929431Y-53992732D01*
X97929432Y-53992734D01*
X98059954Y-54179141D01*
X98220858Y-54340045D01*
X98220861Y-54340047D01*
X98407266Y-54470568D01*
X98465275Y-54497618D01*
X98517714Y-54543791D01*
X98536866Y-54610984D01*
X98516650Y-54677865D01*
X98465275Y-54722382D01*
X98407267Y-54749431D01*
X98407265Y-54749432D01*
X98220858Y-54879954D01*
X98059954Y-55040858D01*
X97929432Y-55227265D01*
X97929431Y-55227267D01*
X97833261Y-55433502D01*
X97833258Y-55433511D01*
X97774366Y-55653302D01*
X97774364Y-55653313D01*
X97754532Y-55879998D01*
X97754532Y-55880001D01*
X97774364Y-56106686D01*
X97774366Y-56106697D01*
X97833258Y-56326488D01*
X97833261Y-56326497D01*
X97929431Y-56532732D01*
X97929432Y-56532734D01*
X98059954Y-56719141D01*
X98220858Y-56880045D01*
X98220861Y-56880047D01*
X98407266Y-57010568D01*
X98451638Y-57031259D01*
X98465275Y-57037618D01*
X98517714Y-57083791D01*
X98536866Y-57150984D01*
X98516650Y-57217865D01*
X98465275Y-57262382D01*
X98407267Y-57289431D01*
X98407265Y-57289432D01*
X98220858Y-57419954D01*
X98059954Y-57580858D01*
X97929432Y-57767265D01*
X97929431Y-57767267D01*
X97833261Y-57973502D01*
X97833258Y-57973511D01*
X97774366Y-58193302D01*
X97774364Y-58193313D01*
X97754532Y-58419998D01*
X97754532Y-58420001D01*
X97774364Y-58646686D01*
X97774366Y-58646697D01*
X97833258Y-58866488D01*
X97833261Y-58866497D01*
X97929431Y-59072732D01*
X97929432Y-59072734D01*
X98059954Y-59259141D01*
X98220858Y-59420045D01*
X98220861Y-59420047D01*
X98407266Y-59550568D01*
X98465275Y-59577618D01*
X98517714Y-59623791D01*
X98536866Y-59690984D01*
X98516650Y-59757865D01*
X98465275Y-59802382D01*
X98407267Y-59829431D01*
X98407265Y-59829432D01*
X98220858Y-59959954D01*
X98059954Y-60120858D01*
X97929432Y-60307265D01*
X97929431Y-60307267D01*
X97833261Y-60513502D01*
X97833258Y-60513511D01*
X97774366Y-60733302D01*
X97774364Y-60733313D01*
X97754532Y-60959998D01*
X97754532Y-60960001D01*
X97774364Y-61186686D01*
X97774366Y-61186697D01*
X97833258Y-61406488D01*
X97833261Y-61406497D01*
X97929431Y-61612732D01*
X97929432Y-61612734D01*
X98059954Y-61799141D01*
X98220858Y-61960045D01*
X98220861Y-61960047D01*
X98407266Y-62090568D01*
X98465865Y-62117893D01*
X98518305Y-62164065D01*
X98537457Y-62231258D01*
X98517242Y-62298139D01*
X98465867Y-62342657D01*
X98407515Y-62369867D01*
X98221179Y-62500342D01*
X98060342Y-62661179D01*
X97929865Y-62847517D01*
X97833734Y-63053673D01*
X97833730Y-63053682D01*
X97781127Y-63249999D01*
X97781128Y-63250000D01*
X98744314Y-63250000D01*
X98739920Y-63254394D01*
X98687259Y-63345606D01*
X98660000Y-63447339D01*
X98660000Y-63552661D01*
X98687259Y-63654394D01*
X98739920Y-63745606D01*
X98744314Y-63750000D01*
X97781128Y-63750000D01*
X97833730Y-63946317D01*
X97833734Y-63946326D01*
X97929865Y-64152482D01*
X98060342Y-64338820D01*
X98221179Y-64499657D01*
X98407517Y-64630134D01*
X98613673Y-64726265D01*
X98613682Y-64726269D01*
X98809999Y-64778872D01*
X98810000Y-64778871D01*
X98810000Y-63815686D01*
X98814394Y-63820080D01*
X98905606Y-63872741D01*
X99007339Y-63900000D01*
X99112661Y-63900000D01*
X99214394Y-63872741D01*
X99305606Y-63820080D01*
X99310000Y-63815686D01*
X99310000Y-64778872D01*
X99506317Y-64726269D01*
X99506326Y-64726265D01*
X99712482Y-64630134D01*
X99898820Y-64499657D01*
X100059657Y-64338820D01*
X100190134Y-64152482D01*
X100286265Y-63946326D01*
X100286269Y-63946317D01*
X100338872Y-63750000D01*
X99375686Y-63750000D01*
X99380080Y-63745606D01*
X99432741Y-63654394D01*
X99460000Y-63552661D01*
X99460000Y-63447339D01*
X99432741Y-63345606D01*
X99380080Y-63254394D01*
X99375686Y-63250000D01*
X100338872Y-63250000D01*
X100338872Y-63249999D01*
X100286269Y-63053682D01*
X100286265Y-63053673D01*
X100190134Y-62847517D01*
X100059657Y-62661179D01*
X99898820Y-62500342D01*
X99712482Y-62369865D01*
X99654133Y-62342657D01*
X99601694Y-62296484D01*
X99582542Y-62229291D01*
X99602758Y-62162410D01*
X99654129Y-62117895D01*
X99712734Y-62090568D01*
X99899139Y-61960047D01*
X100060047Y-61799139D01*
X100190568Y-61612734D01*
X100286739Y-61406496D01*
X100345635Y-61186692D01*
X100365468Y-60960000D01*
X100345635Y-60733308D01*
X100319847Y-60637066D01*
X100321510Y-60567217D01*
X100351939Y-60517294D01*
X101564233Y-59305001D01*
X102797704Y-59305001D01*
X102797899Y-59307486D01*
X102843718Y-59465198D01*
X102927314Y-59606552D01*
X102927321Y-59606561D01*
X103043438Y-59722678D01*
X103043447Y-59722685D01*
X103184803Y-59806282D01*
X103184806Y-59806283D01*
X103342504Y-59852099D01*
X103342510Y-59852100D01*
X103379350Y-59854999D01*
X103379366Y-59855000D01*
X104020000Y-59855000D01*
X104020000Y-59305000D01*
X102797705Y-59305000D01*
X102797704Y-59305001D01*
X101564233Y-59305001D01*
X102447416Y-58421819D01*
X102508739Y-58388334D01*
X102535097Y-58385500D01*
X102779674Y-58385500D01*
X102846713Y-58405185D01*
X102892468Y-58457989D01*
X102902412Y-58527147D01*
X102886406Y-58572621D01*
X102843718Y-58644801D01*
X102797899Y-58802513D01*
X102797704Y-58804998D01*
X102797705Y-58805000D01*
X104396000Y-58805000D01*
X104463039Y-58824685D01*
X104508794Y-58877489D01*
X104520000Y-58929000D01*
X104520000Y-59855000D01*
X105160634Y-59855000D01*
X105160649Y-59854999D01*
X105197489Y-59852100D01*
X105197495Y-59852099D01*
X105355193Y-59806283D01*
X105355196Y-59806282D01*
X105496552Y-59722685D01*
X105496561Y-59722678D01*
X105612678Y-59606561D01*
X105612684Y-59606553D01*
X105689338Y-59476939D01*
X105740407Y-59429256D01*
X105809149Y-59416752D01*
X105867193Y-59438485D01*
X105922112Y-59476939D01*
X106027266Y-59550568D01*
X106067675Y-59569411D01*
X106120113Y-59615581D01*
X106139266Y-59682774D01*
X106122658Y-59743790D01*
X106120421Y-59747663D01*
X106119197Y-59750620D01*
X106117497Y-59752729D01*
X106116360Y-59754699D01*
X106116052Y-59754521D01*
X106075354Y-59805022D01*
X106057047Y-59815543D01*
X106027269Y-59829429D01*
X106027264Y-59829432D01*
X105840858Y-59959954D01*
X105679954Y-60120858D01*
X105549432Y-60307265D01*
X105549431Y-60307267D01*
X105453261Y-60513502D01*
X105453258Y-60513511D01*
X105394366Y-60733302D01*
X105394364Y-60733313D01*
X105374532Y-60959998D01*
X105374532Y-60960001D01*
X105394364Y-61186686D01*
X105394366Y-61186697D01*
X105453258Y-61406488D01*
X105453261Y-61406497D01*
X105549431Y-61612732D01*
X105549432Y-61612734D01*
X105679954Y-61799141D01*
X105840858Y-61960045D01*
X105840861Y-61960047D01*
X106027266Y-62090568D01*
X106085275Y-62117618D01*
X106137714Y-62163791D01*
X106156866Y-62230984D01*
X106136650Y-62297865D01*
X106085275Y-62342382D01*
X106027267Y-62369431D01*
X106027265Y-62369432D01*
X105840858Y-62499954D01*
X105679954Y-62660858D01*
X105549432Y-62847265D01*
X105549431Y-62847267D01*
X105453261Y-63053502D01*
X105453258Y-63053511D01*
X105394366Y-63273302D01*
X105394364Y-63273313D01*
X105374532Y-63499998D01*
X105374532Y-63500001D01*
X105394364Y-63726686D01*
X105394366Y-63726697D01*
X105453258Y-63946488D01*
X105453261Y-63946497D01*
X105549431Y-64152732D01*
X105549432Y-64152734D01*
X105679954Y-64339141D01*
X105840858Y-64500045D01*
X105840861Y-64500047D01*
X106027266Y-64630568D01*
X106233504Y-64726739D01*
X106453308Y-64785635D01*
X106615230Y-64799801D01*
X106679998Y-64805468D01*
X106680000Y-64805468D01*
X106680002Y-64805468D01*
X106736673Y-64800509D01*
X106906692Y-64785635D01*
X107126496Y-64726739D01*
X107332734Y-64630568D01*
X107519139Y-64500047D01*
X107680047Y-64339139D01*
X107810568Y-64152734D01*
X107906739Y-63946496D01*
X107965635Y-63726692D01*
X107985468Y-63500000D01*
X107965635Y-63273308D01*
X107939847Y-63177066D01*
X107941510Y-63107217D01*
X107971939Y-63057294D01*
X109578506Y-61450728D01*
X109578511Y-61450724D01*
X109588714Y-61440520D01*
X109588716Y-61440520D01*
X109700520Y-61328716D01*
X109779577Y-61191784D01*
X109820500Y-61039057D01*
X109820500Y-59979500D01*
X109840185Y-59912461D01*
X109892989Y-59866706D01*
X109944500Y-59855500D01*
X110110686Y-59855500D01*
X110110694Y-59855500D01*
X110147569Y-59852598D01*
X110147571Y-59852597D01*
X110147573Y-59852597D01*
X110227306Y-59829432D01*
X110305398Y-59806744D01*
X110446865Y-59723081D01*
X110563081Y-59606865D01*
X110646744Y-59465398D01*
X110692598Y-59307569D01*
X110695500Y-59270694D01*
X110695500Y-58839306D01*
X110692598Y-58802431D01*
X110646744Y-58644602D01*
X110563081Y-58503135D01*
X110563078Y-58503132D01*
X110558298Y-58496969D01*
X110560750Y-58495066D01*
X110534155Y-58446421D01*
X110539104Y-58376726D01*
X110559940Y-58344304D01*
X110558298Y-58343031D01*
X110563075Y-58336870D01*
X110563081Y-58336865D01*
X110646744Y-58195398D01*
X110692598Y-58037569D01*
X110695500Y-58000694D01*
X110695500Y-57569306D01*
X110692598Y-57532431D01*
X110646744Y-57374602D01*
X110563081Y-57233135D01*
X110563078Y-57233132D01*
X110558298Y-57226969D01*
X110560750Y-57225066D01*
X110534155Y-57176421D01*
X110539104Y-57106726D01*
X110559940Y-57074304D01*
X110558298Y-57073031D01*
X110563075Y-57066870D01*
X110563081Y-57066865D01*
X110646744Y-56925398D01*
X110692598Y-56767569D01*
X110695500Y-56730694D01*
X110695500Y-56299306D01*
X110692598Y-56262431D01*
X110646744Y-56104602D01*
X110563081Y-55963135D01*
X110563078Y-55963132D01*
X110558298Y-55956969D01*
X110560750Y-55955066D01*
X110534155Y-55906421D01*
X110539104Y-55836726D01*
X110559940Y-55804304D01*
X110558298Y-55803031D01*
X110563075Y-55796870D01*
X110563081Y-55796865D01*
X110646744Y-55655398D01*
X110692598Y-55497569D01*
X110695500Y-55460694D01*
X110695500Y-55029306D01*
X110692598Y-54992431D01*
X110666906Y-54904001D01*
X110646745Y-54834606D01*
X110646744Y-54834603D01*
X110646744Y-54834602D01*
X110563081Y-54693135D01*
X110563078Y-54693132D01*
X110558298Y-54686969D01*
X110560750Y-54685066D01*
X110534155Y-54636421D01*
X110539104Y-54566726D01*
X110559940Y-54534304D01*
X110558298Y-54533031D01*
X110563075Y-54526870D01*
X110563081Y-54526865D01*
X110646744Y-54385398D01*
X110692598Y-54227569D01*
X110695500Y-54190694D01*
X110695500Y-53759306D01*
X110692598Y-53722431D01*
X110688613Y-53708716D01*
X110646745Y-53564606D01*
X110646744Y-53564603D01*
X110646744Y-53564602D01*
X110563081Y-53423135D01*
X110563078Y-53423132D01*
X110558298Y-53416969D01*
X110560750Y-53415066D01*
X110534155Y-53366421D01*
X110539104Y-53296726D01*
X110559940Y-53264304D01*
X110558298Y-53263031D01*
X110563075Y-53256870D01*
X110563081Y-53256865D01*
X110646744Y-53115398D01*
X110692598Y-52957569D01*
X110695500Y-52920694D01*
X110695500Y-52489306D01*
X110692598Y-52452431D01*
X110679071Y-52405872D01*
X110646745Y-52294606D01*
X110646744Y-52294603D01*
X110646744Y-52294602D01*
X110563081Y-52153135D01*
X110563078Y-52153132D01*
X110558298Y-52146969D01*
X110560750Y-52145066D01*
X110534155Y-52096421D01*
X110539104Y-52026726D01*
X110559940Y-51994304D01*
X110558298Y-51993031D01*
X110563075Y-51986870D01*
X110563081Y-51986865D01*
X110646744Y-51845398D01*
X110692598Y-51687569D01*
X110695500Y-51650694D01*
X110695500Y-51604230D01*
X110715185Y-51537191D01*
X110767989Y-51491436D01*
X110837147Y-51481492D01*
X110900703Y-51510517D01*
X110907181Y-51516549D01*
X111735181Y-52344549D01*
X111768666Y-52405872D01*
X111771500Y-52432230D01*
X111771500Y-53777336D01*
X111751815Y-53844375D01*
X111718625Y-53878910D01*
X111682863Y-53903951D01*
X111521951Y-54064862D01*
X111391432Y-54251265D01*
X111391431Y-54251267D01*
X111295261Y-54457502D01*
X111295258Y-54457511D01*
X111236366Y-54677302D01*
X111236364Y-54677313D01*
X111216532Y-54903998D01*
X111216532Y-54904001D01*
X111236364Y-55130686D01*
X111236366Y-55130697D01*
X111295258Y-55350488D01*
X111295261Y-55350497D01*
X111391431Y-55556732D01*
X111391432Y-55556734D01*
X111521954Y-55743141D01*
X111682858Y-55904045D01*
X111729693Y-55936839D01*
X111869266Y-56034568D01*
X111884975Y-56041893D01*
X111937414Y-56088064D01*
X111956567Y-56155257D01*
X111936352Y-56222138D01*
X111884979Y-56266656D01*
X111869514Y-56273867D01*
X111869512Y-56273868D01*
X111796526Y-56324973D01*
X111796526Y-56324974D01*
X112475553Y-57004000D01*
X112469339Y-57004000D01*
X112367606Y-57031259D01*
X112276394Y-57083920D01*
X112201920Y-57158394D01*
X112149259Y-57249606D01*
X112122000Y-57351339D01*
X112122000Y-57357552D01*
X111442974Y-56678526D01*
X111442973Y-56678526D01*
X111391868Y-56751512D01*
X111391866Y-56751516D01*
X111295734Y-56957673D01*
X111295730Y-56957682D01*
X111236860Y-57177389D01*
X111236858Y-57177400D01*
X111217034Y-57403997D01*
X111217034Y-57404002D01*
X111236858Y-57630599D01*
X111236860Y-57630610D01*
X111295730Y-57850317D01*
X111295735Y-57850331D01*
X111391863Y-58056478D01*
X111442974Y-58129472D01*
X112122000Y-57450446D01*
X112122000Y-57456661D01*
X112149259Y-57558394D01*
X112201920Y-57649606D01*
X112276394Y-57724080D01*
X112367606Y-57776741D01*
X112469339Y-57804000D01*
X112475553Y-57804000D01*
X111796526Y-58483025D01*
X111869513Y-58534132D01*
X111869521Y-58534136D01*
X112075668Y-58630264D01*
X112075682Y-58630269D01*
X112295389Y-58689139D01*
X112295400Y-58689141D01*
X112521998Y-58708966D01*
X112522002Y-58708966D01*
X112748599Y-58689141D01*
X112748610Y-58689139D01*
X112968317Y-58630269D01*
X112968331Y-58630264D01*
X113174478Y-58534136D01*
X113247471Y-58483024D01*
X112568447Y-57804000D01*
X112574661Y-57804000D01*
X112676394Y-57776741D01*
X112767606Y-57724080D01*
X112842080Y-57649606D01*
X112894741Y-57558394D01*
X112922000Y-57456661D01*
X112922000Y-57450447D01*
X113601025Y-58129472D01*
X113624959Y-58127378D01*
X113628499Y-58124549D01*
X113697998Y-58117354D01*
X113760353Y-58148875D01*
X113795768Y-58209104D01*
X113799500Y-58239296D01*
X113799500Y-73035500D01*
X113779815Y-73102539D01*
X113727011Y-73148294D01*
X113675500Y-73159500D01*
X81904500Y-73159500D01*
X81837461Y-73139815D01*
X81791706Y-73087011D01*
X81780500Y-73035500D01*
X81780500Y-67901229D01*
X81800185Y-67834190D01*
X81852989Y-67788435D01*
X81922147Y-67778491D01*
X81985703Y-67807516D01*
X81992181Y-67813548D01*
X85033282Y-70854650D01*
X85066767Y-70915973D01*
X85069129Y-70953137D01*
X85054532Y-71119996D01*
X85054532Y-71120001D01*
X85074364Y-71346686D01*
X85074366Y-71346697D01*
X85133258Y-71566488D01*
X85133261Y-71566497D01*
X85229431Y-71772732D01*
X85229432Y-71772734D01*
X85359954Y-71959141D01*
X85520858Y-72120045D01*
X85520861Y-72120047D01*
X85707266Y-72250568D01*
X85913504Y-72346739D01*
X86133308Y-72405635D01*
X86295230Y-72419801D01*
X86359998Y-72425468D01*
X86360000Y-72425468D01*
X86360002Y-72425468D01*
X86416673Y-72420509D01*
X86586692Y-72405635D01*
X86806496Y-72346739D01*
X87012734Y-72250568D01*
X87199139Y-72120047D01*
X87360047Y-71959139D01*
X87490568Y-71772734D01*
X87517618Y-71714724D01*
X87563790Y-71662285D01*
X87630983Y-71643133D01*
X87697865Y-71663348D01*
X87742382Y-71714725D01*
X87769429Y-71772728D01*
X87769432Y-71772734D01*
X87899954Y-71959141D01*
X88060858Y-72120045D01*
X88060861Y-72120047D01*
X88247266Y-72250568D01*
X88453504Y-72346739D01*
X88673308Y-72405635D01*
X88835230Y-72419801D01*
X88899998Y-72425468D01*
X88900000Y-72425468D01*
X88900002Y-72425468D01*
X88956673Y-72420509D01*
X89126692Y-72405635D01*
X89346496Y-72346739D01*
X89552734Y-72250568D01*
X89739139Y-72120047D01*
X89900047Y-71959139D01*
X90030568Y-71772734D01*
X90057618Y-71714724D01*
X90103790Y-71662285D01*
X90170983Y-71643133D01*
X90237865Y-71663348D01*
X90282382Y-71714725D01*
X90309429Y-71772728D01*
X90309432Y-71772734D01*
X90439954Y-71959141D01*
X90600858Y-72120045D01*
X90600861Y-72120047D01*
X90787266Y-72250568D01*
X90993504Y-72346739D01*
X91213308Y-72405635D01*
X91375230Y-72419801D01*
X91439998Y-72425468D01*
X91440000Y-72425468D01*
X91440002Y-72425468D01*
X91496673Y-72420509D01*
X91666692Y-72405635D01*
X91886496Y-72346739D01*
X92092734Y-72250568D01*
X92279139Y-72120047D01*
X92440047Y-71959139D01*
X92570568Y-71772734D01*
X92597618Y-71714724D01*
X92643790Y-71662285D01*
X92710983Y-71643133D01*
X92777865Y-71663348D01*
X92822382Y-71714725D01*
X92849429Y-71772728D01*
X92849432Y-71772734D01*
X92979954Y-71959141D01*
X93140858Y-72120045D01*
X93140861Y-72120047D01*
X93327266Y-72250568D01*
X93533504Y-72346739D01*
X93753308Y-72405635D01*
X93915230Y-72419801D01*
X93979998Y-72425468D01*
X93980000Y-72425468D01*
X93980002Y-72425468D01*
X94036673Y-72420509D01*
X94206692Y-72405635D01*
X94426496Y-72346739D01*
X94632734Y-72250568D01*
X94819139Y-72120047D01*
X94980047Y-71959139D01*
X95110568Y-71772734D01*
X95137618Y-71714724D01*
X95183790Y-71662285D01*
X95250983Y-71643133D01*
X95317865Y-71663348D01*
X95362382Y-71714725D01*
X95389429Y-71772728D01*
X95389432Y-71772734D01*
X95519954Y-71959141D01*
X95680858Y-72120045D01*
X95680861Y-72120047D01*
X95867266Y-72250568D01*
X96073504Y-72346739D01*
X96293308Y-72405635D01*
X96455230Y-72419801D01*
X96519998Y-72425468D01*
X96520000Y-72425468D01*
X96520002Y-72425468D01*
X96576673Y-72420509D01*
X96746692Y-72405635D01*
X96966496Y-72346739D01*
X97172734Y-72250568D01*
X97359139Y-72120047D01*
X97520047Y-71959139D01*
X97650568Y-71772734D01*
X97677618Y-71714724D01*
X97723790Y-71662285D01*
X97790983Y-71643133D01*
X97857865Y-71663348D01*
X97902382Y-71714725D01*
X97929429Y-71772728D01*
X97929432Y-71772734D01*
X98059954Y-71959141D01*
X98220858Y-72120045D01*
X98220861Y-72120047D01*
X98407266Y-72250568D01*
X98613504Y-72346739D01*
X98833308Y-72405635D01*
X98995230Y-72419801D01*
X99059998Y-72425468D01*
X99060000Y-72425468D01*
X99060002Y-72425468D01*
X99116673Y-72420509D01*
X99286692Y-72405635D01*
X99506496Y-72346739D01*
X99712734Y-72250568D01*
X99899139Y-72120047D01*
X100060047Y-71959139D01*
X100190568Y-71772734D01*
X100217618Y-71714724D01*
X100263790Y-71662285D01*
X100330983Y-71643133D01*
X100397865Y-71663348D01*
X100442382Y-71714725D01*
X100469429Y-71772728D01*
X100469432Y-71772734D01*
X100599954Y-71959141D01*
X100760858Y-72120045D01*
X100760861Y-72120047D01*
X100947266Y-72250568D01*
X101153504Y-72346739D01*
X101373308Y-72405635D01*
X101535230Y-72419801D01*
X101599998Y-72425468D01*
X101600000Y-72425468D01*
X101600002Y-72425468D01*
X101656673Y-72420509D01*
X101826692Y-72405635D01*
X102046496Y-72346739D01*
X102252734Y-72250568D01*
X102439139Y-72120047D01*
X102600047Y-71959139D01*
X102730568Y-71772734D01*
X102757618Y-71714724D01*
X102803790Y-71662285D01*
X102870983Y-71643133D01*
X102937865Y-71663348D01*
X102982382Y-71714725D01*
X103009429Y-71772728D01*
X103009432Y-71772734D01*
X103139954Y-71959141D01*
X103300858Y-72120045D01*
X103300861Y-72120047D01*
X103487266Y-72250568D01*
X103693504Y-72346739D01*
X103913308Y-72405635D01*
X104075230Y-72419801D01*
X104139998Y-72425468D01*
X104140000Y-72425468D01*
X104140002Y-72425468D01*
X104196673Y-72420509D01*
X104366692Y-72405635D01*
X104586496Y-72346739D01*
X104792734Y-72250568D01*
X104979139Y-72120047D01*
X105140047Y-71959139D01*
X105270568Y-71772734D01*
X105297618Y-71714724D01*
X105343790Y-71662285D01*
X105410983Y-71643133D01*
X105477865Y-71663348D01*
X105522382Y-71714725D01*
X105549429Y-71772728D01*
X105549432Y-71772734D01*
X105679954Y-71959141D01*
X105840858Y-72120045D01*
X105840861Y-72120047D01*
X106027266Y-72250568D01*
X106233504Y-72346739D01*
X106453308Y-72405635D01*
X106615230Y-72419801D01*
X106679998Y-72425468D01*
X106680000Y-72425468D01*
X106680002Y-72425468D01*
X106736673Y-72420509D01*
X106906692Y-72405635D01*
X107126496Y-72346739D01*
X107332734Y-72250568D01*
X107519139Y-72120047D01*
X107680047Y-71959139D01*
X107810568Y-71772734D01*
X107837895Y-71714129D01*
X107884064Y-71661695D01*
X107951257Y-71642542D01*
X108018139Y-71662757D01*
X108062657Y-71714133D01*
X108089865Y-71772482D01*
X108220342Y-71958820D01*
X108381179Y-72119657D01*
X108567517Y-72250134D01*
X108773673Y-72346265D01*
X108773682Y-72346269D01*
X108969999Y-72398872D01*
X108970000Y-72398871D01*
X108970000Y-71435686D01*
X108974394Y-71440080D01*
X109065606Y-71492741D01*
X109167339Y-71520000D01*
X109272661Y-71520000D01*
X109374394Y-71492741D01*
X109465606Y-71440080D01*
X109470000Y-71435686D01*
X109470000Y-72398872D01*
X109666317Y-72346269D01*
X109666326Y-72346265D01*
X109872482Y-72250134D01*
X110058820Y-72119657D01*
X110219657Y-71958820D01*
X110350134Y-71772482D01*
X110446265Y-71566326D01*
X110446269Y-71566317D01*
X110498872Y-71370000D01*
X109535686Y-71370000D01*
X109540080Y-71365606D01*
X109592741Y-71274394D01*
X109620000Y-71172661D01*
X109620000Y-71067339D01*
X109592741Y-70965606D01*
X109540080Y-70874394D01*
X109535686Y-70870000D01*
X110498872Y-70870000D01*
X110498872Y-70869999D01*
X110446269Y-70673682D01*
X110446265Y-70673673D01*
X110350134Y-70467517D01*
X110219657Y-70281179D01*
X110058820Y-70120342D01*
X109872482Y-69989865D01*
X109666328Y-69893734D01*
X109470000Y-69841127D01*
X109470000Y-70804314D01*
X109465606Y-70799920D01*
X109374394Y-70747259D01*
X109272661Y-70720000D01*
X109167339Y-70720000D01*
X109065606Y-70747259D01*
X108974394Y-70799920D01*
X108970000Y-70804314D01*
X108970000Y-69841127D01*
X108773671Y-69893734D01*
X108567517Y-69989865D01*
X108381179Y-70120342D01*
X108220342Y-70281179D01*
X108089867Y-70467515D01*
X108062657Y-70525867D01*
X108016484Y-70578306D01*
X107949290Y-70597457D01*
X107882409Y-70577241D01*
X107837893Y-70525865D01*
X107810570Y-70467271D01*
X107810567Y-70467265D01*
X107680045Y-70280858D01*
X107519141Y-70119954D01*
X107332734Y-69989432D01*
X107332732Y-69989431D01*
X107126497Y-69893261D01*
X107126488Y-69893258D01*
X106906697Y-69834366D01*
X106906693Y-69834365D01*
X106906692Y-69834365D01*
X106906691Y-69834364D01*
X106906686Y-69834364D01*
X106680002Y-69814532D01*
X106679998Y-69814532D01*
X106453313Y-69834364D01*
X106453302Y-69834366D01*
X106233511Y-69893258D01*
X106233502Y-69893261D01*
X106027267Y-69989431D01*
X106027265Y-69989432D01*
X105840858Y-70119954D01*
X105679954Y-70280858D01*
X105549432Y-70467265D01*
X105549431Y-70467267D01*
X105522382Y-70525275D01*
X105476209Y-70577714D01*
X105409016Y-70596866D01*
X105342135Y-70576650D01*
X105297618Y-70525275D01*
X105270568Y-70467267D01*
X105270567Y-70467265D01*
X105140045Y-70280858D01*
X104979141Y-70119954D01*
X104792734Y-69989432D01*
X104792732Y-69989431D01*
X104586497Y-69893261D01*
X104586488Y-69893258D01*
X104366697Y-69834366D01*
X104366693Y-69834365D01*
X104366692Y-69834365D01*
X104366691Y-69834364D01*
X104366686Y-69834364D01*
X104140002Y-69814532D01*
X104139998Y-69814532D01*
X103913313Y-69834364D01*
X103913302Y-69834366D01*
X103693511Y-69893258D01*
X103693502Y-69893261D01*
X103487267Y-69989431D01*
X103487265Y-69989432D01*
X103300858Y-70119954D01*
X103139954Y-70280858D01*
X103009432Y-70467265D01*
X103009431Y-70467267D01*
X102982382Y-70525275D01*
X102936209Y-70577714D01*
X102869016Y-70596866D01*
X102802135Y-70576650D01*
X102757618Y-70525275D01*
X102730568Y-70467267D01*
X102730567Y-70467265D01*
X102600045Y-70280858D01*
X102439141Y-70119954D01*
X102252734Y-69989432D01*
X102252732Y-69989431D01*
X102046497Y-69893261D01*
X102046488Y-69893258D01*
X101826697Y-69834366D01*
X101826693Y-69834365D01*
X101826692Y-69834365D01*
X101826691Y-69834364D01*
X101826686Y-69834364D01*
X101600002Y-69814532D01*
X101599998Y-69814532D01*
X101373313Y-69834364D01*
X101373302Y-69834366D01*
X101153511Y-69893258D01*
X101153502Y-69893261D01*
X100947267Y-69989431D01*
X100947265Y-69989432D01*
X100760858Y-70119954D01*
X100599954Y-70280858D01*
X100469432Y-70467265D01*
X100469431Y-70467267D01*
X100442382Y-70525275D01*
X100396209Y-70577714D01*
X100329016Y-70596866D01*
X100262135Y-70576650D01*
X100217618Y-70525275D01*
X100190568Y-70467267D01*
X100190567Y-70467265D01*
X100060045Y-70280858D01*
X99899141Y-70119954D01*
X99712734Y-69989432D01*
X99712732Y-69989431D01*
X99506497Y-69893261D01*
X99506488Y-69893258D01*
X99286697Y-69834366D01*
X99286693Y-69834365D01*
X99286692Y-69834365D01*
X99286691Y-69834364D01*
X99286686Y-69834364D01*
X99060002Y-69814532D01*
X99059998Y-69814532D01*
X98833313Y-69834364D01*
X98833302Y-69834366D01*
X98613511Y-69893258D01*
X98613502Y-69893261D01*
X98407267Y-69989431D01*
X98407265Y-69989432D01*
X98220858Y-70119954D01*
X98059954Y-70280858D01*
X97929432Y-70467265D01*
X97929431Y-70467267D01*
X97902382Y-70525275D01*
X97856209Y-70577714D01*
X97789016Y-70596866D01*
X97722135Y-70576650D01*
X97677618Y-70525275D01*
X97650568Y-70467267D01*
X97650567Y-70467265D01*
X97520045Y-70280858D01*
X97359141Y-70119954D01*
X97172734Y-69989432D01*
X97172732Y-69989431D01*
X96966497Y-69893261D01*
X96966488Y-69893258D01*
X96746697Y-69834366D01*
X96746693Y-69834365D01*
X96746692Y-69834365D01*
X96746691Y-69834364D01*
X96746686Y-69834364D01*
X96520002Y-69814532D01*
X96519998Y-69814532D01*
X96293313Y-69834364D01*
X96293302Y-69834366D01*
X96073511Y-69893258D01*
X96073502Y-69893261D01*
X95867267Y-69989431D01*
X95867265Y-69989432D01*
X95680858Y-70119954D01*
X95519954Y-70280858D01*
X95389432Y-70467265D01*
X95389431Y-70467267D01*
X95362382Y-70525275D01*
X95316209Y-70577714D01*
X95249016Y-70596866D01*
X95182135Y-70576650D01*
X95137618Y-70525275D01*
X95110568Y-70467267D01*
X95110567Y-70467265D01*
X94980045Y-70280858D01*
X94819141Y-70119954D01*
X94632734Y-69989432D01*
X94632732Y-69989431D01*
X94426497Y-69893261D01*
X94426488Y-69893258D01*
X94206697Y-69834366D01*
X94206693Y-69834365D01*
X94206692Y-69834365D01*
X94206691Y-69834364D01*
X94206686Y-69834364D01*
X93980002Y-69814532D01*
X93979998Y-69814532D01*
X93753313Y-69834364D01*
X93753302Y-69834366D01*
X93533511Y-69893258D01*
X93533502Y-69893261D01*
X93327267Y-69989431D01*
X93327265Y-69989432D01*
X93140858Y-70119954D01*
X92979954Y-70280858D01*
X92849432Y-70467265D01*
X92849431Y-70467267D01*
X92822382Y-70525275D01*
X92776209Y-70577714D01*
X92709016Y-70596866D01*
X92642135Y-70576650D01*
X92597618Y-70525275D01*
X92570568Y-70467267D01*
X92570567Y-70467265D01*
X92440045Y-70280858D01*
X92279141Y-70119954D01*
X92092734Y-69989432D01*
X92092732Y-69989431D01*
X91886497Y-69893261D01*
X91886488Y-69893258D01*
X91666697Y-69834366D01*
X91666693Y-69834365D01*
X91666692Y-69834365D01*
X91666691Y-69834364D01*
X91666686Y-69834364D01*
X91440002Y-69814532D01*
X91439998Y-69814532D01*
X91213313Y-69834364D01*
X91213302Y-69834366D01*
X90993511Y-69893258D01*
X90993502Y-69893261D01*
X90787267Y-69989431D01*
X90787265Y-69989432D01*
X90600858Y-70119954D01*
X90439954Y-70280858D01*
X90309432Y-70467265D01*
X90309431Y-70467267D01*
X90282382Y-70525275D01*
X90236209Y-70577714D01*
X90169016Y-70596866D01*
X90102135Y-70576650D01*
X90057618Y-70525275D01*
X90030568Y-70467267D01*
X90030567Y-70467265D01*
X89900045Y-70280858D01*
X89739141Y-70119954D01*
X89552734Y-69989432D01*
X89552732Y-69989431D01*
X89346497Y-69893261D01*
X89346488Y-69893258D01*
X89126697Y-69834366D01*
X89126693Y-69834365D01*
X89126692Y-69834365D01*
X89126691Y-69834364D01*
X89126686Y-69834364D01*
X88900002Y-69814532D01*
X88899998Y-69814532D01*
X88673313Y-69834364D01*
X88673302Y-69834366D01*
X88453511Y-69893258D01*
X88453502Y-69893261D01*
X88247267Y-69989431D01*
X88247265Y-69989432D01*
X88060858Y-70119954D01*
X87899954Y-70280858D01*
X87769432Y-70467265D01*
X87769431Y-70467267D01*
X87742382Y-70525275D01*
X87696209Y-70577714D01*
X87629016Y-70596866D01*
X87562135Y-70576650D01*
X87517618Y-70525275D01*
X87490568Y-70467267D01*
X87490567Y-70467265D01*
X87360045Y-70280858D01*
X87199141Y-70119954D01*
X87012734Y-69989432D01*
X87012732Y-69989431D01*
X86806497Y-69893261D01*
X86806488Y-69893258D01*
X86586697Y-69834366D01*
X86586693Y-69834365D01*
X86586692Y-69834365D01*
X86586691Y-69834364D01*
X86586686Y-69834364D01*
X86360002Y-69814532D01*
X86359997Y-69814532D01*
X86193137Y-69829129D01*
X86124637Y-69815362D01*
X86094650Y-69793282D01*
X82828819Y-66527451D01*
X82795334Y-66466128D01*
X82792500Y-66439770D01*
X82792500Y-64605745D01*
X82812185Y-64538706D01*
X82864989Y-64492951D01*
X82934147Y-64483007D01*
X82987624Y-64504170D01*
X83167517Y-64630134D01*
X83373673Y-64726265D01*
X83373682Y-64726269D01*
X83569999Y-64778872D01*
X83570000Y-64778871D01*
X83570000Y-63815686D01*
X83574394Y-63820080D01*
X83665606Y-63872741D01*
X83767339Y-63900000D01*
X83872661Y-63900000D01*
X83974394Y-63872741D01*
X84065606Y-63820080D01*
X84070000Y-63815686D01*
X84070000Y-64778872D01*
X84266317Y-64726269D01*
X84266326Y-64726265D01*
X84472482Y-64630134D01*
X84658820Y-64499657D01*
X84819657Y-64338820D01*
X84950134Y-64152481D01*
X84950135Y-64152479D01*
X84977618Y-64093543D01*
X85023790Y-64041103D01*
X85090983Y-64021951D01*
X85157864Y-64042166D01*
X85202382Y-64093543D01*
X85229864Y-64152479D01*
X85229865Y-64152481D01*
X85360342Y-64338820D01*
X85521179Y-64499657D01*
X85707517Y-64630134D01*
X85913673Y-64726265D01*
X85913682Y-64726269D01*
X86109999Y-64778872D01*
X86110000Y-64778871D01*
X86110000Y-63815686D01*
X86114394Y-63820080D01*
X86205606Y-63872741D01*
X86307339Y-63900000D01*
X86412661Y-63900000D01*
X86514394Y-63872741D01*
X86605606Y-63820080D01*
X86610000Y-63815686D01*
X86610000Y-64778872D01*
X86806317Y-64726269D01*
X86806326Y-64726265D01*
X87012482Y-64630134D01*
X87198820Y-64499657D01*
X87359657Y-64338820D01*
X87490134Y-64152482D01*
X87586265Y-63946326D01*
X87586269Y-63946317D01*
X87638872Y-63750000D01*
X86675686Y-63750000D01*
X86680080Y-63745606D01*
X86732741Y-63654394D01*
X86760000Y-63552661D01*
X86760000Y-63447339D01*
X86732741Y-63345606D01*
X86680080Y-63254394D01*
X86675686Y-63250000D01*
X87638872Y-63250000D01*
X87638872Y-63249999D01*
X87586269Y-63053682D01*
X87586265Y-63053673D01*
X87490134Y-62847517D01*
X87359657Y-62661179D01*
X87198820Y-62500342D01*
X87012482Y-62369865D01*
X86954133Y-62342657D01*
X86901694Y-62296484D01*
X86882542Y-62229291D01*
X86902758Y-62162410D01*
X86954129Y-62117895D01*
X87012734Y-62090568D01*
X87199139Y-61960047D01*
X87360047Y-61799139D01*
X87490568Y-61612734D01*
X87586739Y-61406496D01*
X87645635Y-61186692D01*
X87665468Y-60960000D01*
X87645635Y-60733308D01*
X87586739Y-60513504D01*
X87490568Y-60307266D01*
X87360047Y-60120861D01*
X87360045Y-60120858D01*
X87199141Y-59959954D01*
X87012734Y-59829432D01*
X87012728Y-59829429D01*
X86964082Y-59806745D01*
X86954724Y-59802381D01*
X86902285Y-59756210D01*
X86883133Y-59689017D01*
X86903348Y-59622135D01*
X86954725Y-59577618D01*
X87012734Y-59550568D01*
X87199139Y-59420047D01*
X87360047Y-59259139D01*
X87490568Y-59072734D01*
X87586739Y-58866496D01*
X87645635Y-58646692D01*
X87665468Y-58420000D01*
X87645635Y-58193308D01*
X87586739Y-57973504D01*
X87490568Y-57767266D01*
X87360047Y-57580861D01*
X87360045Y-57580858D01*
X87199141Y-57419954D01*
X87012734Y-57289432D01*
X87012728Y-57289429D01*
X86954725Y-57262382D01*
X86902285Y-57216210D01*
X86883133Y-57149017D01*
X86903348Y-57082135D01*
X86954725Y-57037618D01*
X86968362Y-57031259D01*
X87012734Y-57010568D01*
X87199139Y-56880047D01*
X87360047Y-56719139D01*
X87490568Y-56532734D01*
X87586739Y-56326496D01*
X87645635Y-56106692D01*
X87665468Y-55880000D01*
X87645635Y-55653308D01*
X87586739Y-55433504D01*
X87490568Y-55227266D01*
X87360047Y-55040861D01*
X87360045Y-55040858D01*
X87199141Y-54879954D01*
X87012734Y-54749432D01*
X87012728Y-54749429D01*
X86954725Y-54722382D01*
X86902285Y-54676210D01*
X86883133Y-54609017D01*
X86903348Y-54542135D01*
X86954725Y-54497618D01*
X87012734Y-54470568D01*
X87199139Y-54340047D01*
X87360047Y-54179139D01*
X87490568Y-53992734D01*
X87586739Y-53786496D01*
X87645635Y-53566692D01*
X87665468Y-53340000D01*
X87645635Y-53113308D01*
X87586739Y-52893504D01*
X87490568Y-52687266D01*
X87360047Y-52500861D01*
X87360045Y-52500858D01*
X87199141Y-52339954D01*
X87012734Y-52209432D01*
X87012728Y-52209429D01*
X86954725Y-52182382D01*
X86902285Y-52136210D01*
X86883133Y-52069017D01*
X86903348Y-52002135D01*
X86954725Y-51957618D01*
X87012734Y-51930568D01*
X87199139Y-51800047D01*
X87360047Y-51639139D01*
X87490568Y-51452734D01*
X87586739Y-51246496D01*
X87645635Y-51026692D01*
X87662634Y-50832384D01*
X87665468Y-50800001D01*
X87665468Y-50799998D01*
X87652115Y-50647380D01*
X87645635Y-50573308D01*
X87586739Y-50353504D01*
X87490568Y-50147266D01*
X87360047Y-49960861D01*
X87360045Y-49960858D01*
X87199141Y-49799954D01*
X87012734Y-49669432D01*
X87012728Y-49669429D01*
X86954725Y-49642382D01*
X86902285Y-49596210D01*
X86883133Y-49529017D01*
X86903348Y-49462135D01*
X86954725Y-49417618D01*
X87012734Y-49390568D01*
X87199139Y-49260047D01*
X87360047Y-49099139D01*
X87490568Y-48912734D01*
X87586739Y-48706496D01*
X87645635Y-48486692D01*
X87662634Y-48292384D01*
X87665468Y-48260001D01*
X87665468Y-48259998D01*
X87652227Y-48108652D01*
X87645635Y-48033308D01*
X87629245Y-47972139D01*
X87609003Y-47896593D01*
X87610666Y-47826743D01*
X87649829Y-47768881D01*
X87714057Y-47741377D01*
X87728778Y-47740500D01*
X90071222Y-47740500D01*
X90138261Y-47760185D01*
G37*
%TD.AperFunction*%
%TA.AperFunction,Conductor*%
G36*
X86039920Y-63254394D02*
G01*
X85987259Y-63345606D01*
X85960000Y-63447339D01*
X85960000Y-63552661D01*
X85987259Y-63654394D01*
X86039920Y-63745606D01*
X86044314Y-63750000D01*
X84135686Y-63750000D01*
X84140080Y-63745606D01*
X84192741Y-63654394D01*
X84220000Y-63552661D01*
X84220000Y-63447339D01*
X84192741Y-63345606D01*
X84140080Y-63254394D01*
X84135686Y-63250000D01*
X86044314Y-63250000D01*
X86039920Y-63254394D01*
G37*
%TD.AperFunction*%
%TA.AperFunction,Conductor*%
G36*
X113760354Y-55649751D02*
G01*
X113795769Y-55709980D01*
X113799500Y-55740171D01*
X113799500Y-56568701D01*
X113779815Y-56635740D01*
X113727011Y-56681495D01*
X113657853Y-56691439D01*
X113636345Y-56681616D01*
X113601025Y-56678526D01*
X112922000Y-57357551D01*
X112922000Y-57351339D01*
X112894741Y-57249606D01*
X112842080Y-57158394D01*
X112767606Y-57083920D01*
X112676394Y-57031259D01*
X112574661Y-57004000D01*
X112568448Y-57004000D01*
X113247472Y-56324974D01*
X113174480Y-56273864D01*
X113159024Y-56266657D01*
X113106585Y-56220484D01*
X113087433Y-56153290D01*
X113107649Y-56086409D01*
X113159023Y-56041893D01*
X113174734Y-56034568D01*
X113361139Y-55904047D01*
X113522047Y-55743139D01*
X113573926Y-55669047D01*
X113628501Y-55625423D01*
X113697999Y-55618229D01*
X113760354Y-55649751D01*
G37*
%TD.AperFunction*%
%TD*%
M02*
