%TF.GenerationSoftware,KiCad,Pcbnew,9.0.7*%
%TF.CreationDate,2026-05-27T21:55:41-04:00*%
%TF.ProjectId,A2Relay,41325265-6c61-4792-9e6b-696361645f70,rev?*%
%TF.SameCoordinates,Original*%
%TF.FileFunction,Soldermask,Bot*%
%TF.FilePolarity,Negative*%
%FSLAX46Y46*%
G04 Gerber Fmt 4.6, Leading zero omitted, Abs format (unit mm)*
G04 Created by KiCad (PCBNEW 9.0.7) date 2026-05-27 21:55:41*
%MOMM*%
%LPD*%
G01*
G04 APERTURE LIST*
%ADD10O,1.600000X1.600000*%
%ADD11C,1.600000*%
G04 APERTURE END LIST*
D10*
%TO.C,J1*%
X83820000Y-46355000D03*
X83820000Y-48895000D03*
X83820000Y-51435000D03*
X83820000Y-53975000D03*
X83820000Y-56515000D03*
X83820000Y-59055000D03*
X83820000Y-61595000D03*
X83820000Y-64135000D03*
X91440000Y-64135000D03*
X91440000Y-61595000D03*
X91440000Y-59055000D03*
X91440000Y-56515000D03*
X91440000Y-53975000D03*
X91440000Y-51435000D03*
X91440000Y-48895000D03*
X91440000Y-46355000D03*
%TD*%
%TO.C,U1*%
X98425000Y-46355000D03*
X98425000Y-48895000D03*
X98425000Y-51435000D03*
X98425000Y-53975000D03*
X98425000Y-56515000D03*
X98425000Y-59055000D03*
X98425000Y-61595000D03*
X98425000Y-64135000D03*
X106045000Y-64135000D03*
X106045000Y-61595000D03*
X106045000Y-59055000D03*
X106045000Y-56515000D03*
X106045000Y-53975000D03*
X106045000Y-51435000D03*
X106045000Y-48895000D03*
X106045000Y-46355000D03*
%TD*%
%TO.C,J4*%
X86360000Y-71120000D03*
X88900000Y-71120000D03*
X91440000Y-71120000D03*
X93980000Y-71120000D03*
X96520000Y-71120000D03*
X99060000Y-71120000D03*
X101600000Y-71120000D03*
X104140000Y-71120000D03*
X106680000Y-71120000D03*
X109220000Y-71120000D03*
%TD*%
%TO.C,J2*%
X86360000Y-46355000D03*
X86360000Y-48895000D03*
X86360000Y-51435000D03*
X86360000Y-53975000D03*
X86360000Y-56515000D03*
X86360000Y-59055000D03*
X86360000Y-61595000D03*
X86360000Y-64135000D03*
X93980000Y-64135000D03*
X93980000Y-61595000D03*
X93980000Y-59055000D03*
X93980000Y-56515000D03*
X93980000Y-53975000D03*
X93980000Y-51435000D03*
X93980000Y-48895000D03*
X93980000Y-46355000D03*
%TD*%
%TO.C,J3*%
X111125000Y-46355000D03*
%TD*%
D11*
%TO.C,C1*%
X112014000Y-55539000D03*
X112014000Y-60539000D03*
%TD*%
M02*
