%TF.GenerationSoftware,KiCad,Pcbnew,8.0.5*%
%TF.CreationDate,2026-05-26T00:40:26-04:00*%
%TF.ProjectId,A2Relay,41325265-6c61-4792-9e6b-696361645f70,rev?*%
%TF.SameCoordinates,Original*%
%TF.FileFunction,Copper,L2,Bot*%
%TF.FilePolarity,Positive*%
%FSLAX46Y46*%
G04 Gerber Fmt 4.6, Leading zero omitted, Abs format (unit mm)*
G04 Created by KiCad (PCBNEW 8.0.5) date 2026-05-26 00:40:26*
%MOMM*%
%LPD*%
G01*
G04 APERTURE LIST*
%TA.AperFunction,ComponentPad*%
%ADD10C,1.600000*%
%TD*%
%TA.AperFunction,ComponentPad*%
%ADD11O,1.600000X1.600000*%
%TD*%
%TA.AperFunction,Conductor*%
%ADD12C,0.200000*%
%TD*%
G04 APERTURE END LIST*
D10*
%TO.P,C1,1*%
%TO.N,+5V*%
X112522000Y-54904000D03*
%TO.P,C1,2*%
%TO.N,GND*%
X112522000Y-57404000D03*
%TD*%
D11*
%TO.P,U1,1,Pin_1*%
%TO.N,AN0*%
X99060000Y-45720000D03*
%TO.P,U1,2,Pin_2*%
%TO.N,AN1*%
X99060000Y-48260000D03*
%TO.P,U1,3,Pin_3*%
%TO.N,AN2*%
X99060000Y-50800000D03*
%TO.P,U1,4,Pin_4*%
%TO.N,Q0*%
X99060000Y-53340000D03*
%TO.P,U1,5,Pin_5*%
%TO.N,Q1*%
X99060000Y-55880000D03*
%TO.P,U1,6,Pin_6*%
%TO.N,Q2*%
X99060000Y-58420000D03*
%TO.P,U1,7,Pin_7*%
%TO.N,Q3*%
X99060000Y-60960000D03*
%TO.P,U1,8,Pin_8*%
%TO.N,GND*%
X99060000Y-63500000D03*
%TO.P,U1,9,Pin_9*%
%TO.N,Q4*%
X106680000Y-63500000D03*
%TO.P,U1,10,Pin_10*%
%TO.N,Q5*%
X106680000Y-60960000D03*
%TO.P,U1,11,Pin_11*%
%TO.N,Q6*%
X106680000Y-58420000D03*
%TO.P,U1,12,Pin_12*%
%TO.N,Q7*%
X106680000Y-55880000D03*
%TO.P,U1,13,Pin_13*%
%TO.N,AN3*%
X106680000Y-53340000D03*
%TO.P,U1,14,Pin_14*%
%TO.N,{slash}STB*%
X106680000Y-50800000D03*
%TO.P,U1,15,Pin_15*%
%TO.N,{slash}RST*%
X106680000Y-48260000D03*
%TO.P,U1,16,Pin_16*%
%TO.N,+5V*%
X106680000Y-45720000D03*
%TD*%
%TO.P,J4,1,Pin_1*%
%TO.N,+5V*%
X86360000Y-71120000D03*
%TO.P,J4,2,Pin_2*%
%TO.N,Q0*%
X88900000Y-71120000D03*
%TO.P,J4,3,Pin_3*%
%TO.N,Q1*%
X91440000Y-71120000D03*
%TO.P,J4,4,Pin_4*%
%TO.N,Q2*%
X93980000Y-71120000D03*
%TO.P,J4,5,Pin_5*%
%TO.N,Q3*%
X96520000Y-71120000D03*
%TO.P,J4,6,Pin_6*%
%TO.N,Q4*%
X99060000Y-71120000D03*
%TO.P,J4,7,Pin_7*%
%TO.N,Q5*%
X101600000Y-71120000D03*
%TO.P,J4,8,Pin_8*%
%TO.N,Q6*%
X104140000Y-71120000D03*
%TO.P,J4,9,Pin_9*%
%TO.N,Q7*%
X106680000Y-71120000D03*
%TO.P,J4,10,Pin_10*%
%TO.N,GND*%
X109220000Y-71120000D03*
%TD*%
%TO.P,J3,1,Pin_1*%
%TO.N,{slash}RST*%
X111760000Y-45720000D03*
%TD*%
%TO.P,J2,1,Pin_1*%
%TO.N,+5V*%
X86360000Y-45720000D03*
%TO.P,J2,2,Pin_2*%
%TO.N,PB0*%
X86360000Y-48260000D03*
%TO.P,J2,3,Pin_3*%
%TO.N,PB1*%
X86360000Y-50800000D03*
%TO.P,J2,4,Pin_4*%
%TO.N,PB2*%
X86360000Y-53340000D03*
%TO.P,J2,5,Pin_5*%
%TO.N,{slash}STB*%
X86360000Y-55880000D03*
%TO.P,J2,6,Pin_6*%
%TO.N,PDL0*%
X86360000Y-58420000D03*
%TO.P,J2,7,Pin_7*%
%TO.N,PDL2*%
X86360000Y-60960000D03*
%TO.P,J2,8,Pin_8*%
%TO.N,GND*%
X86360000Y-63500000D03*
%TO.P,J2,9,Pin_9*%
%TO.N,PB3*%
X93980000Y-63500000D03*
%TO.P,J2,10,Pin_10*%
%TO.N,PDL1*%
X93980000Y-60960000D03*
%TO.P,J2,11,Pin_11*%
%TO.N,PDL3*%
X93980000Y-58420000D03*
%TO.P,J2,12,Pin_12*%
%TO.N,AN3*%
X93980000Y-55880000D03*
%TO.P,J2,13,Pin_13*%
%TO.N,AN2*%
X93980000Y-53340000D03*
%TO.P,J2,14,Pin_14*%
%TO.N,AN1*%
X93980000Y-50800000D03*
%TO.P,J2,15,Pin_15*%
%TO.N,AN0*%
X93980000Y-48260000D03*
%TO.P,J2,16,Pin_16*%
%TO.N,RESERVED*%
X93980000Y-45720000D03*
%TD*%
%TO.P,J1,1,Pin_1*%
%TO.N,+5V*%
X83820000Y-45720000D03*
%TO.P,J1,2,Pin_2*%
%TO.N,PB0*%
X83820000Y-48260000D03*
%TO.P,J1,3,Pin_3*%
%TO.N,PB1*%
X83820000Y-50800000D03*
%TO.P,J1,4,Pin_4*%
%TO.N,PB2*%
X83820000Y-53340000D03*
%TO.P,J1,5,Pin_5*%
%TO.N,{slash}STB*%
X83820000Y-55880000D03*
%TO.P,J1,6,Pin_6*%
%TO.N,PDL0*%
X83820000Y-58420000D03*
%TO.P,J1,7,Pin_7*%
%TO.N,PDL2*%
X83820000Y-60960000D03*
%TO.P,J1,8,Pin_8*%
%TO.N,GND*%
X83820000Y-63500000D03*
%TO.P,J1,9,Pin_9*%
%TO.N,PB3*%
X91440000Y-63500000D03*
%TO.P,J1,10,Pin_10*%
%TO.N,PDL1*%
X91440000Y-60960000D03*
%TO.P,J1,11,Pin_11*%
%TO.N,PDL3*%
X91440000Y-58420000D03*
%TO.P,J1,12,Pin_12*%
%TO.N,AN3*%
X91440000Y-55880000D03*
%TO.P,J1,13,Pin_13*%
%TO.N,AN2*%
X91440000Y-53340000D03*
%TO.P,J1,14,Pin_14*%
%TO.N,AN1*%
X91440000Y-50800000D03*
%TO.P,J1,15,Pin_15*%
%TO.N,AN0*%
X91440000Y-48260000D03*
%TO.P,J1,16,Pin_16*%
%TO.N,RESERVED*%
X91440000Y-45720000D03*
%TD*%
D12*
%TO.N,{slash}STB*%
X97112000Y-49700000D02*
X94742000Y-52070000D01*
X94742000Y-52070000D02*
X90170000Y-52070000D01*
X90170000Y-52070000D02*
X86360000Y-55880000D01*
X105580000Y-49700000D02*
X97112000Y-49700000D01*
X106680000Y-50800000D02*
X105580000Y-49700000D01*
%TO.N,AN3*%
X102108000Y-53340000D02*
X106680000Y-53340000D01*
X100838000Y-52070000D02*
X102108000Y-53340000D01*
X97790000Y-52070000D02*
X100838000Y-52070000D01*
X93980000Y-55880000D02*
X97790000Y-52070000D01*
%TO.N,Q7*%
X109220000Y-58420000D02*
X106680000Y-55880000D01*
X109220000Y-68580000D02*
X109220000Y-58420000D01*
X106680000Y-71120000D02*
X109220000Y-68580000D01*
%TO.N,Q6*%
X108712000Y-66548000D02*
X104140000Y-71120000D01*
X108712000Y-60452000D02*
X108712000Y-66548000D01*
X106680000Y-58420000D02*
X108712000Y-60452000D01*
%TO.N,Q5*%
X108204000Y-62484000D02*
X108204000Y-64516000D01*
X106680000Y-60960000D02*
X108204000Y-62484000D01*
X108204000Y-64516000D02*
X101600000Y-71120000D01*
%TO.N,Q3*%
X97282000Y-70358000D02*
X96520000Y-71120000D01*
X97282000Y-62738000D02*
X97282000Y-70358000D01*
X99060000Y-60960000D02*
X97282000Y-62738000D01*
%TO.N,Q2*%
X96774000Y-68326000D02*
X93980000Y-71120000D01*
X96774000Y-60706000D02*
X96774000Y-68326000D01*
X99060000Y-58420000D02*
X96774000Y-60706000D01*
%TO.N,Q1*%
X96266000Y-66294000D02*
X91440000Y-71120000D01*
X96266000Y-58674000D02*
X96266000Y-66294000D01*
X99060000Y-55880000D02*
X96266000Y-58674000D01*
%TO.N,Q0*%
X95758000Y-56642000D02*
X95758000Y-64262000D01*
X99060000Y-53340000D02*
X95758000Y-56642000D01*
X95758000Y-64262000D02*
X88900000Y-71120000D01*
%TO.N,Q4*%
X106680000Y-63500000D02*
X99060000Y-71120000D01*
%TO.N,{slash}RST*%
X110490000Y-45720000D02*
X111760000Y-45720000D01*
X107950000Y-48260000D02*
X110490000Y-45720000D01*
X106680000Y-48260000D02*
X107950000Y-48260000D01*
%TD*%
%TA.AperFunction,Conductor*%
%TO.N,GND*%
G36*
X100604942Y-52690185D02*
G01*
X100625584Y-52706819D01*
X101623139Y-53704374D01*
X101623149Y-53704385D01*
X101627479Y-53708715D01*
X101627480Y-53708716D01*
X101739284Y-53820520D01*
X101813094Y-53863133D01*
X101826095Y-53870639D01*
X101826097Y-53870641D01*
X101876213Y-53899576D01*
X101876215Y-53899577D01*
X102028942Y-53940500D01*
X102028943Y-53940500D01*
X105448308Y-53940500D01*
X105515347Y-53960185D01*
X105549880Y-53993374D01*
X105602013Y-54067828D01*
X105679954Y-54179141D01*
X105840858Y-54340045D01*
X105840861Y-54340047D01*
X106027266Y-54470568D01*
X106085275Y-54497618D01*
X106137714Y-54543791D01*
X106156866Y-54610984D01*
X106136650Y-54677865D01*
X106085275Y-54722382D01*
X106027267Y-54749431D01*
X106027265Y-54749432D01*
X105840858Y-54879954D01*
X105679954Y-55040858D01*
X105549432Y-55227265D01*
X105549431Y-55227267D01*
X105453261Y-55433502D01*
X105453258Y-55433511D01*
X105394366Y-55653302D01*
X105394364Y-55653313D01*
X105374532Y-55879998D01*
X105374532Y-55880001D01*
X105394364Y-56106686D01*
X105394366Y-56106697D01*
X105453258Y-56326488D01*
X105453261Y-56326497D01*
X105549431Y-56532732D01*
X105549432Y-56532734D01*
X105679954Y-56719141D01*
X105840858Y-56880045D01*
X105840861Y-56880047D01*
X106027266Y-57010568D01*
X106071638Y-57031259D01*
X106085275Y-57037618D01*
X106137714Y-57083791D01*
X106156866Y-57150984D01*
X106136650Y-57217865D01*
X106085275Y-57262382D01*
X106027267Y-57289431D01*
X106027265Y-57289432D01*
X105840858Y-57419954D01*
X105679954Y-57580858D01*
X105549432Y-57767265D01*
X105549431Y-57767267D01*
X105453261Y-57973502D01*
X105453258Y-57973511D01*
X105394366Y-58193302D01*
X105394364Y-58193313D01*
X105374532Y-58419998D01*
X105374532Y-58420001D01*
X105394364Y-58646686D01*
X105394366Y-58646697D01*
X105453258Y-58866488D01*
X105453261Y-58866497D01*
X105549431Y-59072732D01*
X105549432Y-59072734D01*
X105679954Y-59259141D01*
X105840858Y-59420045D01*
X105840861Y-59420047D01*
X106027266Y-59550568D01*
X106085275Y-59577618D01*
X106137714Y-59623791D01*
X106156866Y-59690984D01*
X106136650Y-59757865D01*
X106085275Y-59802382D01*
X106027267Y-59829431D01*
X106027265Y-59829432D01*
X105840858Y-59959954D01*
X105679954Y-60120858D01*
X105549432Y-60307265D01*
X105549431Y-60307267D01*
X105453261Y-60513502D01*
X105453258Y-60513511D01*
X105394366Y-60733302D01*
X105394364Y-60733313D01*
X105374532Y-60959998D01*
X105374532Y-60960001D01*
X105394364Y-61186686D01*
X105394366Y-61186697D01*
X105453258Y-61406488D01*
X105453261Y-61406497D01*
X105549431Y-61612732D01*
X105549432Y-61612734D01*
X105679954Y-61799141D01*
X105840858Y-61960045D01*
X105840861Y-61960047D01*
X106027266Y-62090568D01*
X106085275Y-62117618D01*
X106137714Y-62163791D01*
X106156866Y-62230984D01*
X106136650Y-62297865D01*
X106085275Y-62342382D01*
X106027267Y-62369431D01*
X106027265Y-62369432D01*
X105840858Y-62499954D01*
X105679954Y-62660858D01*
X105549432Y-62847265D01*
X105549431Y-62847267D01*
X105453261Y-63053502D01*
X105453258Y-63053511D01*
X105394366Y-63273302D01*
X105394364Y-63273313D01*
X105374532Y-63499998D01*
X105374532Y-63500001D01*
X105394364Y-63726686D01*
X105394366Y-63726697D01*
X105420152Y-63822931D01*
X105418489Y-63892781D01*
X105388058Y-63942705D01*
X99502705Y-69828058D01*
X99441382Y-69861543D01*
X99382931Y-69860152D01*
X99286697Y-69834366D01*
X99286693Y-69834365D01*
X99286692Y-69834365D01*
X99286691Y-69834364D01*
X99286686Y-69834364D01*
X99060002Y-69814532D01*
X99059998Y-69814532D01*
X98833313Y-69834364D01*
X98833302Y-69834366D01*
X98613511Y-69893258D01*
X98613502Y-69893261D01*
X98407267Y-69989431D01*
X98407265Y-69989432D01*
X98220858Y-70119954D01*
X98094181Y-70246632D01*
X98032858Y-70280117D01*
X97963166Y-70275133D01*
X97907233Y-70233261D01*
X97882816Y-70167797D01*
X97882500Y-70158951D01*
X97882500Y-64460340D01*
X97902185Y-64393301D01*
X97954989Y-64347546D01*
X98024147Y-64337602D01*
X98087703Y-64366627D01*
X98094181Y-64372659D01*
X98221179Y-64499657D01*
X98407517Y-64630134D01*
X98613673Y-64726265D01*
X98613682Y-64726269D01*
X98809999Y-64778872D01*
X98810000Y-64778871D01*
X98810000Y-63815686D01*
X98814394Y-63820080D01*
X98905606Y-63872741D01*
X99007339Y-63900000D01*
X99112661Y-63900000D01*
X99214394Y-63872741D01*
X99305606Y-63820080D01*
X99310000Y-63815686D01*
X99310000Y-64778872D01*
X99506317Y-64726269D01*
X99506326Y-64726265D01*
X99712482Y-64630134D01*
X99898820Y-64499657D01*
X100059657Y-64338820D01*
X100190134Y-64152482D01*
X100286265Y-63946326D01*
X100286269Y-63946317D01*
X100338872Y-63750000D01*
X99375686Y-63750000D01*
X99380080Y-63745606D01*
X99432741Y-63654394D01*
X99460000Y-63552661D01*
X99460000Y-63447339D01*
X99432741Y-63345606D01*
X99380080Y-63254394D01*
X99375686Y-63250000D01*
X100338872Y-63250000D01*
X100338872Y-63249999D01*
X100286269Y-63053682D01*
X100286265Y-63053673D01*
X100190134Y-62847517D01*
X100059657Y-62661179D01*
X99898820Y-62500342D01*
X99712482Y-62369865D01*
X99654133Y-62342657D01*
X99601694Y-62296484D01*
X99582542Y-62229291D01*
X99602758Y-62162410D01*
X99654129Y-62117895D01*
X99712734Y-62090568D01*
X99899139Y-61960047D01*
X100060047Y-61799139D01*
X100190568Y-61612734D01*
X100286739Y-61406496D01*
X100345635Y-61186692D01*
X100365468Y-60960000D01*
X100365007Y-60954735D01*
X100349603Y-60778663D01*
X100345635Y-60733308D01*
X100286739Y-60513504D01*
X100190568Y-60307266D01*
X100060047Y-60120861D01*
X100060045Y-60120858D01*
X99899141Y-59959954D01*
X99712734Y-59829432D01*
X99712728Y-59829429D01*
X99654725Y-59802382D01*
X99602285Y-59756210D01*
X99583133Y-59689017D01*
X99603348Y-59622135D01*
X99654725Y-59577618D01*
X99712734Y-59550568D01*
X99899139Y-59420047D01*
X100060047Y-59259139D01*
X100190568Y-59072734D01*
X100286739Y-58866496D01*
X100345635Y-58646692D01*
X100365468Y-58420000D01*
X100345635Y-58193308D01*
X100286739Y-57973504D01*
X100190568Y-57767266D01*
X100060047Y-57580861D01*
X100060045Y-57580858D01*
X99899141Y-57419954D01*
X99712734Y-57289432D01*
X99712728Y-57289429D01*
X99654725Y-57262382D01*
X99602285Y-57216210D01*
X99583133Y-57149017D01*
X99603348Y-57082135D01*
X99654725Y-57037618D01*
X99668362Y-57031259D01*
X99712734Y-57010568D01*
X99899139Y-56880047D01*
X100060047Y-56719139D01*
X100190568Y-56532734D01*
X100286739Y-56326496D01*
X100345635Y-56106692D01*
X100365468Y-55880000D01*
X100345635Y-55653308D01*
X100286739Y-55433504D01*
X100190568Y-55227266D01*
X100060047Y-55040861D01*
X100060045Y-55040858D01*
X99899141Y-54879954D01*
X99712734Y-54749432D01*
X99712728Y-54749429D01*
X99654725Y-54722382D01*
X99602285Y-54676210D01*
X99583133Y-54609017D01*
X99603348Y-54542135D01*
X99654725Y-54497618D01*
X99712734Y-54470568D01*
X99899139Y-54340047D01*
X100060047Y-54179139D01*
X100190568Y-53992734D01*
X100286739Y-53786496D01*
X100345635Y-53566692D01*
X100365468Y-53340000D01*
X100345635Y-53113308D01*
X100286739Y-52893504D01*
X100265008Y-52846903D01*
X100254517Y-52777828D01*
X100283036Y-52714044D01*
X100341513Y-52675804D01*
X100377391Y-52670500D01*
X100537903Y-52670500D01*
X100604942Y-52690185D01*
G37*
%TD.AperFunction*%
%TA.AperFunction,Conductor*%
G36*
X86039920Y-63254394D02*
G01*
X85987259Y-63345606D01*
X85960000Y-63447339D01*
X85960000Y-63552661D01*
X85987259Y-63654394D01*
X86039920Y-63745606D01*
X86044314Y-63750000D01*
X84135686Y-63750000D01*
X84140080Y-63745606D01*
X84192741Y-63654394D01*
X84220000Y-63552661D01*
X84220000Y-63447339D01*
X84192741Y-63345606D01*
X84140080Y-63254394D01*
X84135686Y-63250000D01*
X86044314Y-63250000D01*
X86039920Y-63254394D01*
G37*
%TD.AperFunction*%
%TA.AperFunction,Conductor*%
G36*
X113742539Y-43700185D02*
G01*
X113788294Y-43752989D01*
X113799500Y-43804500D01*
X113799500Y-54067828D01*
X113779815Y-54134867D01*
X113727011Y-54180622D01*
X113657853Y-54190566D01*
X113594297Y-54161541D01*
X113573925Y-54138951D01*
X113522045Y-54064858D01*
X113361141Y-53903954D01*
X113174734Y-53773432D01*
X113174732Y-53773431D01*
X112968497Y-53677261D01*
X112968488Y-53677258D01*
X112748697Y-53618366D01*
X112748693Y-53618365D01*
X112748692Y-53618365D01*
X112748691Y-53618364D01*
X112748686Y-53618364D01*
X112522002Y-53598532D01*
X112521998Y-53598532D01*
X112295313Y-53618364D01*
X112295302Y-53618366D01*
X112075511Y-53677258D01*
X112075502Y-53677261D01*
X111869267Y-53773431D01*
X111869265Y-53773432D01*
X111682858Y-53903954D01*
X111521954Y-54064858D01*
X111391432Y-54251265D01*
X111391431Y-54251267D01*
X111295261Y-54457502D01*
X111295258Y-54457511D01*
X111236366Y-54677302D01*
X111236364Y-54677313D01*
X111216532Y-54903998D01*
X111216532Y-54904001D01*
X111236364Y-55130686D01*
X111236366Y-55130697D01*
X111295258Y-55350488D01*
X111295261Y-55350497D01*
X111391431Y-55556732D01*
X111391432Y-55556734D01*
X111521954Y-55743141D01*
X111682858Y-55904045D01*
X111682861Y-55904047D01*
X111869266Y-56034568D01*
X111884975Y-56041893D01*
X111937414Y-56088064D01*
X111956567Y-56155257D01*
X111936352Y-56222138D01*
X111884979Y-56266656D01*
X111869514Y-56273867D01*
X111869512Y-56273868D01*
X111796526Y-56324973D01*
X111796526Y-56324974D01*
X112475553Y-57004000D01*
X112469339Y-57004000D01*
X112367606Y-57031259D01*
X112276394Y-57083920D01*
X112201920Y-57158394D01*
X112149259Y-57249606D01*
X112122000Y-57351339D01*
X112122000Y-57357552D01*
X111442974Y-56678526D01*
X111442973Y-56678526D01*
X111391868Y-56751512D01*
X111391866Y-56751516D01*
X111295734Y-56957673D01*
X111295730Y-56957682D01*
X111236860Y-57177389D01*
X111236858Y-57177400D01*
X111217034Y-57403997D01*
X111217034Y-57404002D01*
X111236858Y-57630599D01*
X111236860Y-57630610D01*
X111295730Y-57850317D01*
X111295735Y-57850331D01*
X111391863Y-58056478D01*
X111442974Y-58129472D01*
X112122000Y-57450446D01*
X112122000Y-57456661D01*
X112149259Y-57558394D01*
X112201920Y-57649606D01*
X112276394Y-57724080D01*
X112367606Y-57776741D01*
X112469339Y-57804000D01*
X112475553Y-57804000D01*
X111796526Y-58483025D01*
X111869513Y-58534132D01*
X111869521Y-58534136D01*
X112075668Y-58630264D01*
X112075682Y-58630269D01*
X112295389Y-58689139D01*
X112295400Y-58689141D01*
X112521998Y-58708966D01*
X112522002Y-58708966D01*
X112748599Y-58689141D01*
X112748610Y-58689139D01*
X112968317Y-58630269D01*
X112968331Y-58630264D01*
X113174478Y-58534136D01*
X113247471Y-58483024D01*
X112568447Y-57804000D01*
X112574661Y-57804000D01*
X112676394Y-57776741D01*
X112767606Y-57724080D01*
X112842080Y-57649606D01*
X112894741Y-57558394D01*
X112922000Y-57456661D01*
X112922000Y-57450447D01*
X113601025Y-58129472D01*
X113624959Y-58127378D01*
X113628499Y-58124549D01*
X113697998Y-58117354D01*
X113760353Y-58148875D01*
X113795768Y-58209104D01*
X113799500Y-58239296D01*
X113799500Y-73035500D01*
X113779815Y-73102539D01*
X113727011Y-73148294D01*
X113675500Y-73159500D01*
X81904500Y-73159500D01*
X81837461Y-73139815D01*
X81791706Y-73087011D01*
X81780500Y-73035500D01*
X81780500Y-45719998D01*
X82514532Y-45719998D01*
X82514532Y-45720001D01*
X82534364Y-45946686D01*
X82534366Y-45946697D01*
X82593258Y-46166488D01*
X82593261Y-46166497D01*
X82689431Y-46372732D01*
X82689432Y-46372734D01*
X82819954Y-46559141D01*
X82980858Y-46720045D01*
X82980861Y-46720047D01*
X83167266Y-46850568D01*
X83225275Y-46877618D01*
X83277714Y-46923791D01*
X83296866Y-46990984D01*
X83276650Y-47057865D01*
X83225275Y-47102382D01*
X83167267Y-47129431D01*
X83167265Y-47129432D01*
X82980858Y-47259954D01*
X82819954Y-47420858D01*
X82689432Y-47607265D01*
X82689431Y-47607267D01*
X82593261Y-47813502D01*
X82593258Y-47813511D01*
X82534366Y-48033302D01*
X82534364Y-48033313D01*
X82514532Y-48259998D01*
X82514532Y-48260001D01*
X82534364Y-48486686D01*
X82534366Y-48486697D01*
X82593258Y-48706488D01*
X82593261Y-48706497D01*
X82689431Y-48912732D01*
X82689432Y-48912734D01*
X82819954Y-49099141D01*
X82980858Y-49260045D01*
X82980861Y-49260047D01*
X83167266Y-49390568D01*
X83225275Y-49417618D01*
X83277714Y-49463791D01*
X83296866Y-49530984D01*
X83276650Y-49597865D01*
X83225275Y-49642382D01*
X83167267Y-49669431D01*
X83167265Y-49669432D01*
X82980858Y-49799954D01*
X82819954Y-49960858D01*
X82689432Y-50147265D01*
X82689431Y-50147267D01*
X82593261Y-50353502D01*
X82593258Y-50353511D01*
X82534366Y-50573302D01*
X82534364Y-50573313D01*
X82514532Y-50799998D01*
X82514532Y-50800001D01*
X82534364Y-51026686D01*
X82534366Y-51026697D01*
X82593258Y-51246488D01*
X82593261Y-51246497D01*
X82689431Y-51452732D01*
X82689432Y-51452734D01*
X82819954Y-51639141D01*
X82980858Y-51800045D01*
X82980861Y-51800047D01*
X83167266Y-51930568D01*
X83225275Y-51957618D01*
X83277714Y-52003791D01*
X83296866Y-52070984D01*
X83276650Y-52137865D01*
X83225275Y-52182382D01*
X83167267Y-52209431D01*
X83167265Y-52209432D01*
X82980858Y-52339954D01*
X82819954Y-52500858D01*
X82689432Y-52687265D01*
X82689431Y-52687267D01*
X82593261Y-52893502D01*
X82593258Y-52893511D01*
X82534366Y-53113302D01*
X82534364Y-53113313D01*
X82514532Y-53339998D01*
X82514532Y-53340001D01*
X82534364Y-53566686D01*
X82534366Y-53566697D01*
X82593258Y-53786488D01*
X82593261Y-53786497D01*
X82689431Y-53992732D01*
X82689432Y-53992734D01*
X82819954Y-54179141D01*
X82980858Y-54340045D01*
X82980861Y-54340047D01*
X83167266Y-54470568D01*
X83225275Y-54497618D01*
X83277714Y-54543791D01*
X83296866Y-54610984D01*
X83276650Y-54677865D01*
X83225275Y-54722382D01*
X83167267Y-54749431D01*
X83167265Y-54749432D01*
X82980858Y-54879954D01*
X82819954Y-55040858D01*
X82689432Y-55227265D01*
X82689431Y-55227267D01*
X82593261Y-55433502D01*
X82593258Y-55433511D01*
X82534366Y-55653302D01*
X82534364Y-55653313D01*
X82514532Y-55879998D01*
X82514532Y-55880001D01*
X82534364Y-56106686D01*
X82534366Y-56106697D01*
X82593258Y-56326488D01*
X82593261Y-56326497D01*
X82689431Y-56532732D01*
X82689432Y-56532734D01*
X82819954Y-56719141D01*
X82980858Y-56880045D01*
X82980861Y-56880047D01*
X83167266Y-57010568D01*
X83211638Y-57031259D01*
X83225275Y-57037618D01*
X83277714Y-57083791D01*
X83296866Y-57150984D01*
X83276650Y-57217865D01*
X83225275Y-57262382D01*
X83167267Y-57289431D01*
X83167265Y-57289432D01*
X82980858Y-57419954D01*
X82819954Y-57580858D01*
X82689432Y-57767265D01*
X82689431Y-57767267D01*
X82593261Y-57973502D01*
X82593258Y-57973511D01*
X82534366Y-58193302D01*
X82534364Y-58193313D01*
X82514532Y-58419998D01*
X82514532Y-58420001D01*
X82534364Y-58646686D01*
X82534366Y-58646697D01*
X82593258Y-58866488D01*
X82593261Y-58866497D01*
X82689431Y-59072732D01*
X82689432Y-59072734D01*
X82819954Y-59259141D01*
X82980858Y-59420045D01*
X82980861Y-59420047D01*
X83167266Y-59550568D01*
X83225275Y-59577618D01*
X83277714Y-59623791D01*
X83296866Y-59690984D01*
X83276650Y-59757865D01*
X83225275Y-59802382D01*
X83167267Y-59829431D01*
X83167265Y-59829432D01*
X82980858Y-59959954D01*
X82819954Y-60120858D01*
X82689432Y-60307265D01*
X82689431Y-60307267D01*
X82593261Y-60513502D01*
X82593258Y-60513511D01*
X82534366Y-60733302D01*
X82534364Y-60733313D01*
X82514532Y-60959998D01*
X82514532Y-60960001D01*
X82534364Y-61186686D01*
X82534366Y-61186697D01*
X82593258Y-61406488D01*
X82593261Y-61406497D01*
X82689431Y-61612732D01*
X82689432Y-61612734D01*
X82819954Y-61799141D01*
X82980858Y-61960045D01*
X82980861Y-61960047D01*
X83167266Y-62090568D01*
X83225865Y-62117893D01*
X83278305Y-62164065D01*
X83297457Y-62231258D01*
X83277242Y-62298139D01*
X83225867Y-62342657D01*
X83167515Y-62369867D01*
X82981179Y-62500342D01*
X82820342Y-62661179D01*
X82689865Y-62847517D01*
X82593734Y-63053673D01*
X82593730Y-63053682D01*
X82541127Y-63249999D01*
X82541128Y-63250000D01*
X83504314Y-63250000D01*
X83499920Y-63254394D01*
X83447259Y-63345606D01*
X83420000Y-63447339D01*
X83420000Y-63552661D01*
X83447259Y-63654394D01*
X83499920Y-63745606D01*
X83504314Y-63750000D01*
X82541128Y-63750000D01*
X82593730Y-63946317D01*
X82593734Y-63946326D01*
X82689865Y-64152482D01*
X82820342Y-64338820D01*
X82981179Y-64499657D01*
X83167517Y-64630134D01*
X83373673Y-64726265D01*
X83373682Y-64726269D01*
X83569999Y-64778872D01*
X83570000Y-64778871D01*
X83570000Y-63815686D01*
X83574394Y-63820080D01*
X83665606Y-63872741D01*
X83767339Y-63900000D01*
X83872661Y-63900000D01*
X83974394Y-63872741D01*
X84065606Y-63820080D01*
X84070000Y-63815686D01*
X84070000Y-64778872D01*
X84266317Y-64726269D01*
X84266326Y-64726265D01*
X84472482Y-64630134D01*
X84658820Y-64499657D01*
X84819657Y-64338820D01*
X84950134Y-64152481D01*
X84950135Y-64152479D01*
X84977618Y-64093543D01*
X85023790Y-64041103D01*
X85090983Y-64021951D01*
X85157864Y-64042166D01*
X85202382Y-64093543D01*
X85229864Y-64152479D01*
X85229865Y-64152481D01*
X85360342Y-64338820D01*
X85521179Y-64499657D01*
X85707517Y-64630134D01*
X85913673Y-64726265D01*
X85913682Y-64726269D01*
X86109999Y-64778872D01*
X86110000Y-64778871D01*
X86110000Y-63815686D01*
X86114394Y-63820080D01*
X86205606Y-63872741D01*
X86307339Y-63900000D01*
X86412661Y-63900000D01*
X86514394Y-63872741D01*
X86605606Y-63820080D01*
X86610000Y-63815686D01*
X86610000Y-64778872D01*
X86806317Y-64726269D01*
X86806326Y-64726265D01*
X87012482Y-64630134D01*
X87198820Y-64499657D01*
X87359657Y-64338820D01*
X87490134Y-64152482D01*
X87586265Y-63946326D01*
X87586269Y-63946317D01*
X87638872Y-63750000D01*
X86675686Y-63750000D01*
X86680080Y-63745606D01*
X86732741Y-63654394D01*
X86760000Y-63552661D01*
X86760000Y-63447339D01*
X86732741Y-63345606D01*
X86680080Y-63254394D01*
X86675686Y-63250000D01*
X87638872Y-63250000D01*
X87638872Y-63249999D01*
X87586269Y-63053682D01*
X87586265Y-63053673D01*
X87490134Y-62847517D01*
X87359657Y-62661179D01*
X87198820Y-62500342D01*
X87012482Y-62369865D01*
X86954133Y-62342657D01*
X86901694Y-62296484D01*
X86882542Y-62229291D01*
X86902758Y-62162410D01*
X86954129Y-62117895D01*
X87012734Y-62090568D01*
X87199139Y-61960047D01*
X87360047Y-61799139D01*
X87490568Y-61612734D01*
X87586739Y-61406496D01*
X87645635Y-61186692D01*
X87665468Y-60960000D01*
X87665007Y-60954735D01*
X87649603Y-60778663D01*
X87645635Y-60733308D01*
X87586739Y-60513504D01*
X87490568Y-60307266D01*
X87360047Y-60120861D01*
X87360045Y-60120858D01*
X87199141Y-59959954D01*
X87012734Y-59829432D01*
X87012728Y-59829429D01*
X86954725Y-59802382D01*
X86902285Y-59756210D01*
X86883133Y-59689017D01*
X86903348Y-59622135D01*
X86954725Y-59577618D01*
X87012734Y-59550568D01*
X87199139Y-59420047D01*
X87360047Y-59259139D01*
X87490568Y-59072734D01*
X87586739Y-58866496D01*
X87645635Y-58646692D01*
X87665468Y-58420000D01*
X87645635Y-58193308D01*
X87586739Y-57973504D01*
X87490568Y-57767266D01*
X87360047Y-57580861D01*
X87360045Y-57580858D01*
X87199141Y-57419954D01*
X87012734Y-57289432D01*
X87012728Y-57289429D01*
X86954725Y-57262382D01*
X86902285Y-57216210D01*
X86883133Y-57149017D01*
X86903348Y-57082135D01*
X86954725Y-57037618D01*
X86968362Y-57031259D01*
X87012734Y-57010568D01*
X87199139Y-56880047D01*
X87360047Y-56719139D01*
X87490568Y-56532734D01*
X87586739Y-56326496D01*
X87645635Y-56106692D01*
X87665468Y-55880000D01*
X87645635Y-55653308D01*
X87619847Y-55557066D01*
X87621510Y-55487217D01*
X87651939Y-55437294D01*
X89930572Y-53158661D01*
X89991894Y-53125178D01*
X90061586Y-53130162D01*
X90117519Y-53172034D01*
X90141936Y-53237498D01*
X90141780Y-53257151D01*
X90134532Y-53339997D01*
X90134532Y-53340001D01*
X90154364Y-53566686D01*
X90154366Y-53566697D01*
X90213258Y-53786488D01*
X90213261Y-53786497D01*
X90309431Y-53992732D01*
X90309432Y-53992734D01*
X90439954Y-54179141D01*
X90600858Y-54340045D01*
X90600861Y-54340047D01*
X90787266Y-54470568D01*
X90845275Y-54497618D01*
X90897714Y-54543791D01*
X90916866Y-54610984D01*
X90896650Y-54677865D01*
X90845275Y-54722382D01*
X90787267Y-54749431D01*
X90787265Y-54749432D01*
X90600858Y-54879954D01*
X90439954Y-55040858D01*
X90309432Y-55227265D01*
X90309431Y-55227267D01*
X90213261Y-55433502D01*
X90213258Y-55433511D01*
X90154366Y-55653302D01*
X90154364Y-55653313D01*
X90134532Y-55879998D01*
X90134532Y-55880001D01*
X90154364Y-56106686D01*
X90154366Y-56106697D01*
X90213258Y-56326488D01*
X90213261Y-56326497D01*
X90309431Y-56532732D01*
X90309432Y-56532734D01*
X90439954Y-56719141D01*
X90600858Y-56880045D01*
X90600861Y-56880047D01*
X90787266Y-57010568D01*
X90831638Y-57031259D01*
X90845275Y-57037618D01*
X90897714Y-57083791D01*
X90916866Y-57150984D01*
X90896650Y-57217865D01*
X90845275Y-57262382D01*
X90787267Y-57289431D01*
X90787265Y-57289432D01*
X90600858Y-57419954D01*
X90439954Y-57580858D01*
X90309432Y-57767265D01*
X90309431Y-57767267D01*
X90213261Y-57973502D01*
X90213258Y-57973511D01*
X90154366Y-58193302D01*
X90154364Y-58193313D01*
X90134532Y-58419998D01*
X90134532Y-58420001D01*
X90154364Y-58646686D01*
X90154366Y-58646697D01*
X90213258Y-58866488D01*
X90213261Y-58866497D01*
X90309431Y-59072732D01*
X90309432Y-59072734D01*
X90439954Y-59259141D01*
X90600858Y-59420045D01*
X90600861Y-59420047D01*
X90787266Y-59550568D01*
X90845275Y-59577618D01*
X90897714Y-59623791D01*
X90916866Y-59690984D01*
X90896650Y-59757865D01*
X90845275Y-59802382D01*
X90787267Y-59829431D01*
X90787265Y-59829432D01*
X90600858Y-59959954D01*
X90439954Y-60120858D01*
X90309432Y-60307265D01*
X90309431Y-60307267D01*
X90213261Y-60513502D01*
X90213258Y-60513511D01*
X90154366Y-60733302D01*
X90154364Y-60733313D01*
X90134532Y-60959998D01*
X90134532Y-60960001D01*
X90154364Y-61186686D01*
X90154366Y-61186697D01*
X90213258Y-61406488D01*
X90213261Y-61406497D01*
X90309431Y-61612732D01*
X90309432Y-61612734D01*
X90439954Y-61799141D01*
X90600858Y-61960045D01*
X90600861Y-61960047D01*
X90787266Y-62090568D01*
X90845275Y-62117618D01*
X90897714Y-62163791D01*
X90916866Y-62230984D01*
X90896650Y-62297865D01*
X90845275Y-62342382D01*
X90787267Y-62369431D01*
X90787265Y-62369432D01*
X90600858Y-62499954D01*
X90439954Y-62660858D01*
X90309432Y-62847265D01*
X90309431Y-62847267D01*
X90213261Y-63053502D01*
X90213258Y-63053511D01*
X90154366Y-63273302D01*
X90154364Y-63273313D01*
X90134532Y-63499998D01*
X90134532Y-63500001D01*
X90154364Y-63726686D01*
X90154366Y-63726697D01*
X90213258Y-63946488D01*
X90213261Y-63946497D01*
X90309431Y-64152732D01*
X90309432Y-64152734D01*
X90439954Y-64339141D01*
X90600858Y-64500045D01*
X90600861Y-64500047D01*
X90787266Y-64630568D01*
X90993504Y-64726739D01*
X91213308Y-64785635D01*
X91357144Y-64798219D01*
X91439998Y-64805468D01*
X91440000Y-64805468D01*
X91440002Y-64805468D01*
X91496673Y-64800509D01*
X91666692Y-64785635D01*
X91886496Y-64726739D01*
X92092734Y-64630568D01*
X92279139Y-64500047D01*
X92440047Y-64339139D01*
X92570568Y-64152734D01*
X92597618Y-64094724D01*
X92643790Y-64042285D01*
X92710983Y-64023133D01*
X92777865Y-64043348D01*
X92822382Y-64094725D01*
X92849429Y-64152728D01*
X92849432Y-64152734D01*
X92979954Y-64339141D01*
X93140858Y-64500045D01*
X93140861Y-64500047D01*
X93327266Y-64630568D01*
X93533504Y-64726739D01*
X93753308Y-64785635D01*
X93897144Y-64798219D01*
X93979998Y-64805468D01*
X93979999Y-64805468D01*
X93979999Y-64805467D01*
X93980000Y-64805468D01*
X94062847Y-64798219D01*
X94131344Y-64811985D01*
X94181528Y-64860600D01*
X94197462Y-64928628D01*
X94174088Y-64994472D01*
X94161334Y-65009428D01*
X89342705Y-69828058D01*
X89281382Y-69861543D01*
X89222931Y-69860152D01*
X89126697Y-69834366D01*
X89126693Y-69834365D01*
X89126692Y-69834365D01*
X89126691Y-69834364D01*
X89126686Y-69834364D01*
X88900002Y-69814532D01*
X88899998Y-69814532D01*
X88673313Y-69834364D01*
X88673302Y-69834366D01*
X88453511Y-69893258D01*
X88453502Y-69893261D01*
X88247267Y-69989431D01*
X88247265Y-69989432D01*
X88060858Y-70119954D01*
X87899954Y-70280858D01*
X87769432Y-70467265D01*
X87769431Y-70467267D01*
X87742382Y-70525275D01*
X87696209Y-70577714D01*
X87629016Y-70596866D01*
X87562135Y-70576650D01*
X87517618Y-70525275D01*
X87490568Y-70467267D01*
X87490567Y-70467265D01*
X87469415Y-70437057D01*
X87360047Y-70280861D01*
X87360045Y-70280858D01*
X87199141Y-70119954D01*
X87012734Y-69989432D01*
X87012732Y-69989431D01*
X86806497Y-69893261D01*
X86806488Y-69893258D01*
X86586697Y-69834366D01*
X86586693Y-69834365D01*
X86586692Y-69834365D01*
X86586691Y-69834364D01*
X86586686Y-69834364D01*
X86360002Y-69814532D01*
X86359998Y-69814532D01*
X86133313Y-69834364D01*
X86133302Y-69834366D01*
X85913511Y-69893258D01*
X85913502Y-69893261D01*
X85707267Y-69989431D01*
X85707265Y-69989432D01*
X85520858Y-70119954D01*
X85359954Y-70280858D01*
X85229432Y-70467265D01*
X85229431Y-70467267D01*
X85133261Y-70673502D01*
X85133258Y-70673511D01*
X85074366Y-70893302D01*
X85074364Y-70893313D01*
X85054532Y-71119998D01*
X85054532Y-71120001D01*
X85074364Y-71346686D01*
X85074366Y-71346697D01*
X85133258Y-71566488D01*
X85133261Y-71566497D01*
X85229431Y-71772732D01*
X85229432Y-71772734D01*
X85359954Y-71959141D01*
X85520858Y-72120045D01*
X85520861Y-72120047D01*
X85707266Y-72250568D01*
X85913504Y-72346739D01*
X86133308Y-72405635D01*
X86295230Y-72419801D01*
X86359998Y-72425468D01*
X86360000Y-72425468D01*
X86360002Y-72425468D01*
X86416673Y-72420509D01*
X86586692Y-72405635D01*
X86806496Y-72346739D01*
X87012734Y-72250568D01*
X87199139Y-72120047D01*
X87360047Y-71959139D01*
X87490568Y-71772734D01*
X87517618Y-71714724D01*
X87563790Y-71662285D01*
X87630983Y-71643133D01*
X87697865Y-71663348D01*
X87742382Y-71714725D01*
X87769429Y-71772728D01*
X87769432Y-71772734D01*
X87899954Y-71959141D01*
X88060858Y-72120045D01*
X88060861Y-72120047D01*
X88247266Y-72250568D01*
X88453504Y-72346739D01*
X88673308Y-72405635D01*
X88835230Y-72419801D01*
X88899998Y-72425468D01*
X88900000Y-72425468D01*
X88900002Y-72425468D01*
X88956673Y-72420509D01*
X89126692Y-72405635D01*
X89346496Y-72346739D01*
X89552734Y-72250568D01*
X89739139Y-72120047D01*
X89900047Y-71959139D01*
X90030568Y-71772734D01*
X90057618Y-71714724D01*
X90103790Y-71662285D01*
X90170983Y-71643133D01*
X90237865Y-71663348D01*
X90282382Y-71714725D01*
X90309429Y-71772728D01*
X90309432Y-71772734D01*
X90439954Y-71959141D01*
X90600858Y-72120045D01*
X90600861Y-72120047D01*
X90787266Y-72250568D01*
X90993504Y-72346739D01*
X91213308Y-72405635D01*
X91375230Y-72419801D01*
X91439998Y-72425468D01*
X91440000Y-72425468D01*
X91440002Y-72425468D01*
X91496673Y-72420509D01*
X91666692Y-72405635D01*
X91886496Y-72346739D01*
X92092734Y-72250568D01*
X92279139Y-72120047D01*
X92440047Y-71959139D01*
X92570568Y-71772734D01*
X92597618Y-71714724D01*
X92643790Y-71662285D01*
X92710983Y-71643133D01*
X92777865Y-71663348D01*
X92822382Y-71714725D01*
X92849429Y-71772728D01*
X92849432Y-71772734D01*
X92979954Y-71959141D01*
X93140858Y-72120045D01*
X93140861Y-72120047D01*
X93327266Y-72250568D01*
X93533504Y-72346739D01*
X93753308Y-72405635D01*
X93915230Y-72419801D01*
X93979998Y-72425468D01*
X93980000Y-72425468D01*
X93980002Y-72425468D01*
X94036673Y-72420509D01*
X94206692Y-72405635D01*
X94426496Y-72346739D01*
X94632734Y-72250568D01*
X94819139Y-72120047D01*
X94980047Y-71959139D01*
X95110568Y-71772734D01*
X95137618Y-71714724D01*
X95183790Y-71662285D01*
X95250983Y-71643133D01*
X95317865Y-71663348D01*
X95362382Y-71714725D01*
X95389429Y-71772728D01*
X95389432Y-71772734D01*
X95519954Y-71959141D01*
X95680858Y-72120045D01*
X95680861Y-72120047D01*
X95867266Y-72250568D01*
X96073504Y-72346739D01*
X96293308Y-72405635D01*
X96455230Y-72419801D01*
X96519998Y-72425468D01*
X96520000Y-72425468D01*
X96520002Y-72425468D01*
X96576673Y-72420509D01*
X96746692Y-72405635D01*
X96966496Y-72346739D01*
X97172734Y-72250568D01*
X97359139Y-72120047D01*
X97520047Y-71959139D01*
X97650568Y-71772734D01*
X97677618Y-71714724D01*
X97723790Y-71662285D01*
X97790983Y-71643133D01*
X97857865Y-71663348D01*
X97902382Y-71714725D01*
X97929429Y-71772728D01*
X97929432Y-71772734D01*
X98059954Y-71959141D01*
X98220858Y-72120045D01*
X98220861Y-72120047D01*
X98407266Y-72250568D01*
X98613504Y-72346739D01*
X98833308Y-72405635D01*
X98995230Y-72419801D01*
X99059998Y-72425468D01*
X99060000Y-72425468D01*
X99060002Y-72425468D01*
X99116673Y-72420509D01*
X99286692Y-72405635D01*
X99506496Y-72346739D01*
X99712734Y-72250568D01*
X99899139Y-72120047D01*
X100060047Y-71959139D01*
X100190568Y-71772734D01*
X100217618Y-71714724D01*
X100263790Y-71662285D01*
X100330983Y-71643133D01*
X100397865Y-71663348D01*
X100442382Y-71714725D01*
X100469429Y-71772728D01*
X100469432Y-71772734D01*
X100599954Y-71959141D01*
X100760858Y-72120045D01*
X100760861Y-72120047D01*
X100947266Y-72250568D01*
X101153504Y-72346739D01*
X101373308Y-72405635D01*
X101535230Y-72419801D01*
X101599998Y-72425468D01*
X101600000Y-72425468D01*
X101600002Y-72425468D01*
X101656673Y-72420509D01*
X101826692Y-72405635D01*
X102046496Y-72346739D01*
X102252734Y-72250568D01*
X102439139Y-72120047D01*
X102600047Y-71959139D01*
X102730568Y-71772734D01*
X102757618Y-71714724D01*
X102803790Y-71662285D01*
X102870983Y-71643133D01*
X102937865Y-71663348D01*
X102982382Y-71714725D01*
X103009429Y-71772728D01*
X103009432Y-71772734D01*
X103139954Y-71959141D01*
X103300858Y-72120045D01*
X103300861Y-72120047D01*
X103487266Y-72250568D01*
X103693504Y-72346739D01*
X103913308Y-72405635D01*
X104075230Y-72419801D01*
X104139998Y-72425468D01*
X104140000Y-72425468D01*
X104140002Y-72425468D01*
X104196673Y-72420509D01*
X104366692Y-72405635D01*
X104586496Y-72346739D01*
X104792734Y-72250568D01*
X104979139Y-72120047D01*
X105140047Y-71959139D01*
X105270568Y-71772734D01*
X105297618Y-71714724D01*
X105343790Y-71662285D01*
X105410983Y-71643133D01*
X105477865Y-71663348D01*
X105522382Y-71714725D01*
X105549429Y-71772728D01*
X105549432Y-71772734D01*
X105679954Y-71959141D01*
X105840858Y-72120045D01*
X105840861Y-72120047D01*
X106027266Y-72250568D01*
X106233504Y-72346739D01*
X106453308Y-72405635D01*
X106615230Y-72419801D01*
X106679998Y-72425468D01*
X106680000Y-72425468D01*
X106680002Y-72425468D01*
X106736673Y-72420509D01*
X106906692Y-72405635D01*
X107126496Y-72346739D01*
X107332734Y-72250568D01*
X107519139Y-72120047D01*
X107680047Y-71959139D01*
X107810568Y-71772734D01*
X107837895Y-71714129D01*
X107884064Y-71661695D01*
X107951257Y-71642542D01*
X108018139Y-71662757D01*
X108062657Y-71714133D01*
X108089865Y-71772482D01*
X108220342Y-71958820D01*
X108381179Y-72119657D01*
X108567517Y-72250134D01*
X108773673Y-72346265D01*
X108773682Y-72346269D01*
X108969999Y-72398872D01*
X108970000Y-72398871D01*
X108970000Y-71435686D01*
X108974394Y-71440080D01*
X109065606Y-71492741D01*
X109167339Y-71520000D01*
X109272661Y-71520000D01*
X109374394Y-71492741D01*
X109465606Y-71440080D01*
X109470000Y-71435686D01*
X109470000Y-72398872D01*
X109666317Y-72346269D01*
X109666326Y-72346265D01*
X109872482Y-72250134D01*
X110058820Y-72119657D01*
X110219657Y-71958820D01*
X110350134Y-71772482D01*
X110446265Y-71566326D01*
X110446269Y-71566317D01*
X110498872Y-71370000D01*
X109535686Y-71370000D01*
X109540080Y-71365606D01*
X109592741Y-71274394D01*
X109620000Y-71172661D01*
X109620000Y-71067339D01*
X109592741Y-70965606D01*
X109540080Y-70874394D01*
X109535686Y-70870000D01*
X110498872Y-70870000D01*
X110498872Y-70869999D01*
X110446269Y-70673682D01*
X110446265Y-70673673D01*
X110350134Y-70467517D01*
X110219657Y-70281179D01*
X110058820Y-70120342D01*
X109872482Y-69989865D01*
X109666328Y-69893734D01*
X109470000Y-69841127D01*
X109470000Y-70804314D01*
X109465606Y-70799920D01*
X109374394Y-70747259D01*
X109272661Y-70720000D01*
X109167339Y-70720000D01*
X109065606Y-70747259D01*
X108974394Y-70799920D01*
X108970000Y-70804314D01*
X108970000Y-69828738D01*
X108949368Y-69800483D01*
X108945214Y-69730737D01*
X108978374Y-69670859D01*
X109578506Y-69070728D01*
X109578511Y-69070724D01*
X109588714Y-69060520D01*
X109588716Y-69060520D01*
X109700520Y-68948716D01*
X109779577Y-68811784D01*
X109820500Y-68659057D01*
X109820500Y-58340943D01*
X109779577Y-58188216D01*
X109748828Y-58134957D01*
X109700524Y-58051290D01*
X109700521Y-58051286D01*
X109700520Y-58051284D01*
X109588716Y-57939480D01*
X109588715Y-57939479D01*
X109584385Y-57935149D01*
X109584374Y-57935139D01*
X107971941Y-56322706D01*
X107938456Y-56261383D01*
X107939847Y-56202931D01*
X107943410Y-56189635D01*
X107965635Y-56106692D01*
X107985468Y-55880000D01*
X107965635Y-55653308D01*
X107906739Y-55433504D01*
X107810568Y-55227266D01*
X107680047Y-55040861D01*
X107680045Y-55040858D01*
X107519141Y-54879954D01*
X107332734Y-54749432D01*
X107332728Y-54749429D01*
X107274725Y-54722382D01*
X107222285Y-54676210D01*
X107203133Y-54609017D01*
X107223348Y-54542135D01*
X107274725Y-54497618D01*
X107332734Y-54470568D01*
X107519139Y-54340047D01*
X107680047Y-54179139D01*
X107810568Y-53992734D01*
X107906739Y-53786496D01*
X107965635Y-53566692D01*
X107985468Y-53340000D01*
X107965635Y-53113308D01*
X107906739Y-52893504D01*
X107810568Y-52687266D01*
X107680047Y-52500861D01*
X107680045Y-52500858D01*
X107519141Y-52339954D01*
X107332734Y-52209432D01*
X107332728Y-52209429D01*
X107274725Y-52182382D01*
X107222285Y-52136210D01*
X107203133Y-52069017D01*
X107223348Y-52002135D01*
X107274725Y-51957618D01*
X107332734Y-51930568D01*
X107519139Y-51800047D01*
X107680047Y-51639139D01*
X107810568Y-51452734D01*
X107906739Y-51246496D01*
X107965635Y-51026692D01*
X107985468Y-50800000D01*
X107965635Y-50573308D01*
X107907754Y-50357293D01*
X107906741Y-50353511D01*
X107906738Y-50353502D01*
X107883344Y-50303334D01*
X107810568Y-50147266D01*
X107680047Y-49960861D01*
X107680045Y-49960858D01*
X107519141Y-49799954D01*
X107332734Y-49669432D01*
X107332728Y-49669429D01*
X107274725Y-49642382D01*
X107222285Y-49596210D01*
X107203133Y-49529017D01*
X107223348Y-49462135D01*
X107274725Y-49417618D01*
X107332734Y-49390568D01*
X107519139Y-49260047D01*
X107680047Y-49099139D01*
X107810117Y-48913377D01*
X107864693Y-48869753D01*
X107911692Y-48860501D01*
X108029054Y-48860501D01*
X108029057Y-48860501D01*
X108181785Y-48819577D01*
X108231904Y-48790639D01*
X108318716Y-48740520D01*
X108430520Y-48628716D01*
X108430520Y-48628714D01*
X108440728Y-48618507D01*
X108440730Y-48618504D01*
X110548441Y-46510792D01*
X110609762Y-46477309D01*
X110679454Y-46482293D01*
X110735387Y-46524165D01*
X110737689Y-46527343D01*
X110759953Y-46559139D01*
X110920861Y-46720047D01*
X111107266Y-46850568D01*
X111313504Y-46946739D01*
X111533308Y-47005635D01*
X111695230Y-47019801D01*
X111759998Y-47025468D01*
X111760000Y-47025468D01*
X111760002Y-47025468D01*
X111816673Y-47020509D01*
X111986692Y-47005635D01*
X112206496Y-46946739D01*
X112412734Y-46850568D01*
X112599139Y-46720047D01*
X112760047Y-46559139D01*
X112890568Y-46372734D01*
X112986739Y-46166496D01*
X113045635Y-45946692D01*
X113065468Y-45720000D01*
X113045635Y-45493308D01*
X112986739Y-45273504D01*
X112890568Y-45067266D01*
X112760047Y-44880861D01*
X112760045Y-44880858D01*
X112599141Y-44719954D01*
X112412734Y-44589432D01*
X112412732Y-44589431D01*
X112206497Y-44493261D01*
X112206488Y-44493258D01*
X111986697Y-44434366D01*
X111986693Y-44434365D01*
X111986692Y-44434365D01*
X111986691Y-44434364D01*
X111986686Y-44434364D01*
X111760002Y-44414532D01*
X111759998Y-44414532D01*
X111533313Y-44434364D01*
X111533302Y-44434366D01*
X111313511Y-44493258D01*
X111313502Y-44493261D01*
X111107267Y-44589431D01*
X111107265Y-44589432D01*
X110920858Y-44719954D01*
X110759954Y-44880858D01*
X110683450Y-44990118D01*
X110629881Y-45066624D01*
X110575307Y-45110248D01*
X110528308Y-45119500D01*
X110410940Y-45119500D01*
X110370019Y-45130464D01*
X110370019Y-45130465D01*
X110332751Y-45140451D01*
X110258214Y-45160423D01*
X110258209Y-45160426D01*
X110121290Y-45239475D01*
X110121282Y-45239481D01*
X110009478Y-45351286D01*
X107891559Y-47469204D01*
X107830236Y-47502689D01*
X107760544Y-47497705D01*
X107704611Y-47455833D01*
X107702332Y-47452688D01*
X107680047Y-47420861D01*
X107680044Y-47420858D01*
X107680042Y-47420855D01*
X107519141Y-47259954D01*
X107332734Y-47129432D01*
X107332728Y-47129429D01*
X107274725Y-47102382D01*
X107222285Y-47056210D01*
X107203133Y-46989017D01*
X107223348Y-46922135D01*
X107274725Y-46877618D01*
X107332734Y-46850568D01*
X107519139Y-46720047D01*
X107680047Y-46559139D01*
X107810568Y-46372734D01*
X107906739Y-46166496D01*
X107965635Y-45946692D01*
X107985468Y-45720000D01*
X107965635Y-45493308D01*
X107906739Y-45273504D01*
X107810568Y-45067266D01*
X107680047Y-44880861D01*
X107680045Y-44880858D01*
X107519141Y-44719954D01*
X107332734Y-44589432D01*
X107332732Y-44589431D01*
X107126497Y-44493261D01*
X107126488Y-44493258D01*
X106906697Y-44434366D01*
X106906693Y-44434365D01*
X106906692Y-44434365D01*
X106906691Y-44434364D01*
X106906686Y-44434364D01*
X106680002Y-44414532D01*
X106679998Y-44414532D01*
X106453313Y-44434364D01*
X106453302Y-44434366D01*
X106233511Y-44493258D01*
X106233502Y-44493261D01*
X106027267Y-44589431D01*
X106027265Y-44589432D01*
X105840858Y-44719954D01*
X105679954Y-44880858D01*
X105549432Y-45067265D01*
X105549431Y-45067267D01*
X105453261Y-45273502D01*
X105453258Y-45273511D01*
X105394366Y-45493302D01*
X105394364Y-45493313D01*
X105374532Y-45719998D01*
X105374532Y-45720001D01*
X105394364Y-45946686D01*
X105394366Y-45946697D01*
X105453258Y-46166488D01*
X105453261Y-46166497D01*
X105549431Y-46372732D01*
X105549432Y-46372734D01*
X105679954Y-46559141D01*
X105840858Y-46720045D01*
X105840861Y-46720047D01*
X106027266Y-46850568D01*
X106085275Y-46877618D01*
X106137714Y-46923791D01*
X106156866Y-46990984D01*
X106136650Y-47057865D01*
X106085275Y-47102382D01*
X106027267Y-47129431D01*
X106027265Y-47129432D01*
X105840858Y-47259954D01*
X105679954Y-47420858D01*
X105549432Y-47607265D01*
X105549431Y-47607267D01*
X105453261Y-47813502D01*
X105453258Y-47813511D01*
X105394366Y-48033302D01*
X105394364Y-48033313D01*
X105374532Y-48259998D01*
X105374532Y-48260001D01*
X105394364Y-48486686D01*
X105394366Y-48486697D01*
X105453258Y-48706488D01*
X105453261Y-48706497D01*
X105488998Y-48783133D01*
X105549432Y-48912734D01*
X105549435Y-48912738D01*
X105549870Y-48913492D01*
X105549961Y-48913868D01*
X105551720Y-48917640D01*
X105550962Y-48917993D01*
X105566348Y-48981391D01*
X105543501Y-49047419D01*
X105488583Y-49090614D01*
X105442488Y-49099500D01*
X100297512Y-49099500D01*
X100230473Y-49079815D01*
X100184718Y-49027011D01*
X100174774Y-48957853D01*
X100188636Y-48917806D01*
X100188280Y-48917640D01*
X100189887Y-48914193D01*
X100190130Y-48913492D01*
X100190559Y-48912746D01*
X100190568Y-48912734D01*
X100286739Y-48706496D01*
X100345635Y-48486692D01*
X100365468Y-48260000D01*
X100345635Y-48033308D01*
X100286739Y-47813504D01*
X100190568Y-47607266D01*
X100060047Y-47420861D01*
X100060045Y-47420858D01*
X99899141Y-47259954D01*
X99712734Y-47129432D01*
X99712728Y-47129429D01*
X99654725Y-47102382D01*
X99602285Y-47056210D01*
X99583133Y-46989017D01*
X99603348Y-46922135D01*
X99654725Y-46877618D01*
X99712734Y-46850568D01*
X99899139Y-46720047D01*
X100060047Y-46559139D01*
X100190568Y-46372734D01*
X100286739Y-46166496D01*
X100345635Y-45946692D01*
X100365468Y-45720000D01*
X100345635Y-45493308D01*
X100286739Y-45273504D01*
X100190568Y-45067266D01*
X100060047Y-44880861D01*
X100060045Y-44880858D01*
X99899141Y-44719954D01*
X99712734Y-44589432D01*
X99712732Y-44589431D01*
X99506497Y-44493261D01*
X99506488Y-44493258D01*
X99286697Y-44434366D01*
X99286693Y-44434365D01*
X99286692Y-44434365D01*
X99286691Y-44434364D01*
X99286686Y-44434364D01*
X99060002Y-44414532D01*
X99059998Y-44414532D01*
X98833313Y-44434364D01*
X98833302Y-44434366D01*
X98613511Y-44493258D01*
X98613502Y-44493261D01*
X98407267Y-44589431D01*
X98407265Y-44589432D01*
X98220858Y-44719954D01*
X98059954Y-44880858D01*
X97929432Y-45067265D01*
X97929431Y-45067267D01*
X97833261Y-45273502D01*
X97833258Y-45273511D01*
X97774366Y-45493302D01*
X97774364Y-45493313D01*
X97754532Y-45719998D01*
X97754532Y-45720001D01*
X97774364Y-45946686D01*
X97774366Y-45946697D01*
X97833258Y-46166488D01*
X97833261Y-46166497D01*
X97929431Y-46372732D01*
X97929432Y-46372734D01*
X98059954Y-46559141D01*
X98220858Y-46720045D01*
X98220861Y-46720047D01*
X98407266Y-46850568D01*
X98465275Y-46877618D01*
X98517714Y-46923791D01*
X98536866Y-46990984D01*
X98516650Y-47057865D01*
X98465275Y-47102382D01*
X98407267Y-47129431D01*
X98407265Y-47129432D01*
X98220858Y-47259954D01*
X98059954Y-47420858D01*
X97929432Y-47607265D01*
X97929431Y-47607267D01*
X97833261Y-47813502D01*
X97833258Y-47813511D01*
X97774366Y-48033302D01*
X97774364Y-48033313D01*
X97754532Y-48259998D01*
X97754532Y-48260001D01*
X97774364Y-48486686D01*
X97774366Y-48486697D01*
X97833258Y-48706488D01*
X97833261Y-48706497D01*
X97868998Y-48783133D01*
X97929432Y-48912734D01*
X97929435Y-48912738D01*
X97929870Y-48913492D01*
X97929961Y-48913868D01*
X97931720Y-48917640D01*
X97930962Y-48917993D01*
X97946348Y-48981391D01*
X97923501Y-49047419D01*
X97868583Y-49090614D01*
X97822488Y-49099500D01*
X97191057Y-49099500D01*
X97032943Y-49099500D01*
X96880215Y-49140423D01*
X96880214Y-49140423D01*
X96880212Y-49140424D01*
X96880211Y-49140424D01*
X96845440Y-49160500D01*
X96743287Y-49219477D01*
X96743282Y-49219481D01*
X96631478Y-49331286D01*
X95443669Y-50519094D01*
X95382346Y-50552579D01*
X95312654Y-50547595D01*
X95256721Y-50505723D01*
X95236214Y-50463507D01*
X95221319Y-50407916D01*
X95206742Y-50353513D01*
X95206738Y-50353502D01*
X95183344Y-50303334D01*
X95110568Y-50147266D01*
X94980047Y-49960861D01*
X94980045Y-49960858D01*
X94819141Y-49799954D01*
X94632734Y-49669432D01*
X94632728Y-49669429D01*
X94574725Y-49642382D01*
X94522285Y-49596210D01*
X94503133Y-49529017D01*
X94523348Y-49462135D01*
X94574725Y-49417618D01*
X94632734Y-49390568D01*
X94819139Y-49260047D01*
X94980047Y-49099139D01*
X95110568Y-48912734D01*
X95206739Y-48706496D01*
X95265635Y-48486692D01*
X95285468Y-48260000D01*
X95265635Y-48033308D01*
X95206739Y-47813504D01*
X95110568Y-47607266D01*
X94980047Y-47420861D01*
X94980045Y-47420858D01*
X94819141Y-47259954D01*
X94632734Y-47129432D01*
X94632728Y-47129429D01*
X94574725Y-47102382D01*
X94522285Y-47056210D01*
X94503133Y-46989017D01*
X94523348Y-46922135D01*
X94574725Y-46877618D01*
X94632734Y-46850568D01*
X94819139Y-46720047D01*
X94980047Y-46559139D01*
X95110568Y-46372734D01*
X95206739Y-46166496D01*
X95265635Y-45946692D01*
X95285468Y-45720000D01*
X95265635Y-45493308D01*
X95206739Y-45273504D01*
X95110568Y-45067266D01*
X94980047Y-44880861D01*
X94980045Y-44880858D01*
X94819141Y-44719954D01*
X94632734Y-44589432D01*
X94632732Y-44589431D01*
X94426497Y-44493261D01*
X94426488Y-44493258D01*
X94206697Y-44434366D01*
X94206693Y-44434365D01*
X94206692Y-44434365D01*
X94206691Y-44434364D01*
X94206686Y-44434364D01*
X93980002Y-44414532D01*
X93979998Y-44414532D01*
X93753313Y-44434364D01*
X93753302Y-44434366D01*
X93533511Y-44493258D01*
X93533502Y-44493261D01*
X93327267Y-44589431D01*
X93327265Y-44589432D01*
X93140858Y-44719954D01*
X92979954Y-44880858D01*
X92849432Y-45067265D01*
X92849431Y-45067267D01*
X92822382Y-45125275D01*
X92776209Y-45177714D01*
X92709016Y-45196866D01*
X92642135Y-45176650D01*
X92597618Y-45125275D01*
X92570568Y-45067267D01*
X92570567Y-45067265D01*
X92570117Y-45066623D01*
X92440047Y-44880861D01*
X92440045Y-44880858D01*
X92279141Y-44719954D01*
X92092734Y-44589432D01*
X92092732Y-44589431D01*
X91886497Y-44493261D01*
X91886488Y-44493258D01*
X91666697Y-44434366D01*
X91666693Y-44434365D01*
X91666692Y-44434365D01*
X91666691Y-44434364D01*
X91666686Y-44434364D01*
X91440002Y-44414532D01*
X91439998Y-44414532D01*
X91213313Y-44434364D01*
X91213302Y-44434366D01*
X90993511Y-44493258D01*
X90993502Y-44493261D01*
X90787267Y-44589431D01*
X90787265Y-44589432D01*
X90600858Y-44719954D01*
X90439954Y-44880858D01*
X90309432Y-45067265D01*
X90309431Y-45067267D01*
X90213261Y-45273502D01*
X90213258Y-45273511D01*
X90154366Y-45493302D01*
X90154364Y-45493313D01*
X90134532Y-45719998D01*
X90134532Y-45720001D01*
X90154364Y-45946686D01*
X90154366Y-45946697D01*
X90213258Y-46166488D01*
X90213261Y-46166497D01*
X90309431Y-46372732D01*
X90309432Y-46372734D01*
X90439954Y-46559141D01*
X90600858Y-46720045D01*
X90600861Y-46720047D01*
X90787266Y-46850568D01*
X90845275Y-46877618D01*
X90897714Y-46923791D01*
X90916866Y-46990984D01*
X90896650Y-47057865D01*
X90845275Y-47102382D01*
X90787267Y-47129431D01*
X90787265Y-47129432D01*
X90600858Y-47259954D01*
X90439954Y-47420858D01*
X90309432Y-47607265D01*
X90309431Y-47607267D01*
X90213261Y-47813502D01*
X90213258Y-47813511D01*
X90154366Y-48033302D01*
X90154364Y-48033313D01*
X90134532Y-48259998D01*
X90134532Y-48260001D01*
X90154364Y-48486686D01*
X90154366Y-48486697D01*
X90213258Y-48706488D01*
X90213261Y-48706497D01*
X90309431Y-48912732D01*
X90309432Y-48912734D01*
X90439954Y-49099141D01*
X90600858Y-49260045D01*
X90600861Y-49260047D01*
X90787266Y-49390568D01*
X90845275Y-49417618D01*
X90897714Y-49463791D01*
X90916866Y-49530984D01*
X90896650Y-49597865D01*
X90845275Y-49642382D01*
X90787267Y-49669431D01*
X90787265Y-49669432D01*
X90600858Y-49799954D01*
X90439954Y-49960858D01*
X90309432Y-50147265D01*
X90309431Y-50147267D01*
X90213261Y-50353502D01*
X90213258Y-50353511D01*
X90154366Y-50573302D01*
X90154364Y-50573313D01*
X90134532Y-50799998D01*
X90134532Y-50800001D01*
X90154364Y-51026686D01*
X90154366Y-51026697D01*
X90213258Y-51246488D01*
X90213263Y-51246502D01*
X90234990Y-51293095D01*
X90245482Y-51362172D01*
X90216962Y-51425956D01*
X90158485Y-51464195D01*
X90122608Y-51469499D01*
X90090943Y-51469499D01*
X90014579Y-51489961D01*
X89938214Y-51510423D01*
X89938209Y-51510426D01*
X89801290Y-51589475D01*
X89801282Y-51589481D01*
X87869428Y-53521335D01*
X87808105Y-53554820D01*
X87738413Y-53549836D01*
X87682480Y-53507964D01*
X87658063Y-53442500D01*
X87658218Y-53422857D01*
X87665468Y-53340000D01*
X87645635Y-53113308D01*
X87586739Y-52893504D01*
X87490568Y-52687266D01*
X87360047Y-52500861D01*
X87360045Y-52500858D01*
X87199141Y-52339954D01*
X87012734Y-52209432D01*
X87012728Y-52209429D01*
X86954725Y-52182382D01*
X86902285Y-52136210D01*
X86883133Y-52069017D01*
X86903348Y-52002135D01*
X86954725Y-51957618D01*
X87012734Y-51930568D01*
X87199139Y-51800047D01*
X87360047Y-51639139D01*
X87490568Y-51452734D01*
X87586739Y-51246496D01*
X87645635Y-51026692D01*
X87665468Y-50800000D01*
X87645635Y-50573308D01*
X87587754Y-50357293D01*
X87586741Y-50353511D01*
X87586738Y-50353502D01*
X87563344Y-50303334D01*
X87490568Y-50147266D01*
X87360047Y-49960861D01*
X87360045Y-49960858D01*
X87199141Y-49799954D01*
X87012734Y-49669432D01*
X87012728Y-49669429D01*
X86954725Y-49642382D01*
X86902285Y-49596210D01*
X86883133Y-49529017D01*
X86903348Y-49462135D01*
X86954725Y-49417618D01*
X87012734Y-49390568D01*
X87199139Y-49260047D01*
X87360047Y-49099139D01*
X87490568Y-48912734D01*
X87586739Y-48706496D01*
X87645635Y-48486692D01*
X87665468Y-48260000D01*
X87645635Y-48033308D01*
X87586739Y-47813504D01*
X87490568Y-47607266D01*
X87360047Y-47420861D01*
X87360045Y-47420858D01*
X87199141Y-47259954D01*
X87012734Y-47129432D01*
X87012728Y-47129429D01*
X86954725Y-47102382D01*
X86902285Y-47056210D01*
X86883133Y-46989017D01*
X86903348Y-46922135D01*
X86954725Y-46877618D01*
X87012734Y-46850568D01*
X87199139Y-46720047D01*
X87360047Y-46559139D01*
X87490568Y-46372734D01*
X87586739Y-46166496D01*
X87645635Y-45946692D01*
X87665468Y-45720000D01*
X87645635Y-45493308D01*
X87586739Y-45273504D01*
X87490568Y-45067266D01*
X87360047Y-44880861D01*
X87360045Y-44880858D01*
X87199141Y-44719954D01*
X87012734Y-44589432D01*
X87012732Y-44589431D01*
X86806497Y-44493261D01*
X86806488Y-44493258D01*
X86586697Y-44434366D01*
X86586693Y-44434365D01*
X86586692Y-44434365D01*
X86586691Y-44434364D01*
X86586686Y-44434364D01*
X86360002Y-44414532D01*
X86359998Y-44414532D01*
X86133313Y-44434364D01*
X86133302Y-44434366D01*
X85913511Y-44493258D01*
X85913502Y-44493261D01*
X85707267Y-44589431D01*
X85707265Y-44589432D01*
X85520858Y-44719954D01*
X85359954Y-44880858D01*
X85229432Y-45067265D01*
X85229431Y-45067267D01*
X85202382Y-45125275D01*
X85156209Y-45177714D01*
X85089016Y-45196866D01*
X85022135Y-45176650D01*
X84977618Y-45125275D01*
X84950568Y-45067267D01*
X84950567Y-45067265D01*
X84950117Y-45066623D01*
X84820047Y-44880861D01*
X84820045Y-44880858D01*
X84659141Y-44719954D01*
X84472734Y-44589432D01*
X84472732Y-44589431D01*
X84266497Y-44493261D01*
X84266488Y-44493258D01*
X84046697Y-44434366D01*
X84046693Y-44434365D01*
X84046692Y-44434365D01*
X84046691Y-44434364D01*
X84046686Y-44434364D01*
X83820002Y-44414532D01*
X83819998Y-44414532D01*
X83593313Y-44434364D01*
X83593302Y-44434366D01*
X83373511Y-44493258D01*
X83373502Y-44493261D01*
X83167267Y-44589431D01*
X83167265Y-44589432D01*
X82980858Y-44719954D01*
X82819954Y-44880858D01*
X82689432Y-45067265D01*
X82689431Y-45067267D01*
X82593261Y-45273502D01*
X82593258Y-45273511D01*
X82534366Y-45493302D01*
X82534364Y-45493313D01*
X82514532Y-45719998D01*
X81780500Y-45719998D01*
X81780500Y-43804500D01*
X81800185Y-43737461D01*
X81852989Y-43691706D01*
X81904500Y-43680500D01*
X113675500Y-43680500D01*
X113742539Y-43700185D01*
G37*
%TD.AperFunction*%
%TA.AperFunction,Conductor*%
G36*
X113760354Y-55649751D02*
G01*
X113795769Y-55709980D01*
X113799500Y-55740171D01*
X113799500Y-56568701D01*
X113779815Y-56635740D01*
X113727011Y-56681495D01*
X113657853Y-56691439D01*
X113636345Y-56681616D01*
X113601025Y-56678526D01*
X112922000Y-57357551D01*
X112922000Y-57351339D01*
X112894741Y-57249606D01*
X112842080Y-57158394D01*
X112767606Y-57083920D01*
X112676394Y-57031259D01*
X112574661Y-57004000D01*
X112568448Y-57004000D01*
X113247472Y-56324974D01*
X113174480Y-56273864D01*
X113159024Y-56266657D01*
X113106585Y-56220484D01*
X113087433Y-56153290D01*
X113107649Y-56086409D01*
X113159023Y-56041893D01*
X113174734Y-56034568D01*
X113361139Y-55904047D01*
X113522047Y-55743139D01*
X113573926Y-55669047D01*
X113628501Y-55625423D01*
X113697999Y-55618229D01*
X113760354Y-55649751D01*
G37*
%TD.AperFunction*%
%TD*%
M02*
